G04 #@! TF.GenerationSoftware,KiCad,Pcbnew,(6.0.5-0)*
G04 #@! TF.CreationDate,2022-09-20T02:49:24-07:00*
G04 #@! TF.ProjectId,80ColumnCard,3830436f-6c75-46d6-9e43-6172642e6b69,rev?*
G04 #@! TF.SameCoordinates,Original*
G04 #@! TF.FileFunction,Copper,L1,Top*
G04 #@! TF.FilePolarity,Positive*
%FSLAX46Y46*%
G04 Gerber Fmt 4.6, Leading zero omitted, Abs format (unit mm)*
G04 Created by KiCad (PCBNEW (6.0.5-0)) date 2022-09-20 02:49:24*
%MOMM*%
%LPD*%
G01*
G04 APERTURE LIST*
G04 Aperture macros list*
%AMRoundRect*
0 Rectangle with rounded corners*
0 $1 Rounding radius*
0 $2 $3 $4 $5 $6 $7 $8 $9 X,Y pos of 4 corners*
0 Add a 4 corners polygon primitive as box body*
4,1,4,$2,$3,$4,$5,$6,$7,$8,$9,$2,$3,0*
0 Add four circle primitives for the rounded corners*
1,1,$1+$1,$2,$3*
1,1,$1+$1,$4,$5*
1,1,$1+$1,$6,$7*
1,1,$1+$1,$8,$9*
0 Add four rect primitives between the rounded corners*
20,1,$1+$1,$2,$3,$4,$5,0*
20,1,$1+$1,$4,$5,$6,$7,0*
20,1,$1+$1,$6,$7,$8,$9,0*
20,1,$1+$1,$8,$9,$2,$3,0*%
%AMFreePoly0*
4,1,35,0.258502,0.618924,0.265911,0.620060,0.275865,0.612753,0.287498,0.608619,0.290717,0.601851,0.296760,0.597415,1.566760,-1.498085,1.569005,-1.512728,1.579297,-1.521061,1.583298,-1.559119,1.559217,-1.588861,1.559214,-1.588861,1.287876,-1.716544,1.003649,-1.812165,0.710308,-1.874455,0.411749,-1.902585,0.111936,-1.896182,-0.185150,-1.855332,-0.475565,-1.780577,-0.755451,-1.672908,
-1.021093,-1.533757,-1.268964,-1.364970,-1.495772,-1.168789,-1.698505,-0.947819,-1.874473,-0.704993,-2.021338,-0.443537,-2.137150,-0.166920,-2.220371,0.121182,-2.269898,0.416945,-2.266338,0.429122,-2.272434,0.441939,-2.259619,0.477998,-2.225061,0.494434,0.251439,0.621434,0.258502,0.618924,0.258502,0.618924,$1*%
%AMFreePoly1*
4,1,44,0.728392,2.151956,0.746320,2.149112,0.746996,2.148181,0.748123,2.147952,0.748124,2.147950,0.971760,1.978982,1.175840,1.786849,1.357976,1.573798,1.516038,1.342323,1.648176,1.095132,1.752845,0.835115,1.828819,0.565316,1.875212,0.288889,1.891480,0.009068,1.889621,0.004529,1.891500,-0.000011,1.876344,-0.279256,1.831173,-0.555240,1.756511,-0.824746,1.653231,-1.084632,
1.522535,-1.331870,1.365946,-1.563576,1.185291,-1.777051,0.982675,-1.969806,0.760460,-2.139594,0.751940,-2.141372,0.746320,-2.149112,0.708525,-2.155108,0.677558,-2.132624,-0.614125,-0.026137,-0.615388,-0.018177,-0.620121,-0.011658,-0.618272,0.000000,-0.620121,0.011658,-0.615388,0.018177,-0.614125,0.026137,0.677558,2.132624,0.678489,2.133300,0.678718,2.134427,0.693845,2.144449,
0.708525,2.155108,0.709660,2.154928,0.710619,2.155563,0.728392,2.151956,0.728392,2.151956,$1*%
%AMFreePoly2*
4,1,41,0.695802,1.876527,0.990035,1.815773,1.275307,1.721516,1.547816,1.595012,1.572048,1.565394,1.569515,1.540059,1.572560,1.535911,1.566760,1.498085,0.296760,-0.597415,0.290717,-0.601851,0.287498,-0.608619,0.275865,-0.612753,0.265911,-0.620060,0.258502,-0.618924,0.251439,-0.621434,-2.225061,-0.494434,-2.226232,-0.493877,-2.227475,-0.494252,-2.243355,-0.485733,-2.259619,-0.477998,
-2.260053,-0.476775,-2.261197,-0.476162,-2.266403,-0.458910,-2.272434,-0.441939,-2.271877,-0.440768,-2.272252,-0.439525,-2.272251,-0.439522,-2.225152,-0.142799,-2.144170,0.146521,-2.030386,0.424581,-1.885315,0.687676,-1.710891,0.932300,-1.509438,1.155192,-1.283641,1.353384,-1.036508,1.524233,-0.771332,1.665464,-0.491647,1.775193,-0.201179,1.851960,0.096199,1.894742,0.396527,1.902967,
0.695802,1.876527,0.695802,1.876527,$1*%
%AMFreePoly3*
4,1,35,0.258502,0.618924,0.265911,0.620060,0.275865,0.612753,0.287498,0.608619,0.290717,0.601851,0.296760,0.597415,1.566760,-1.498085,1.569005,-1.512728,1.579297,-1.521061,1.583298,-1.559119,1.559217,-1.588861,1.559214,-1.588861,1.288124,-1.716444,1.004164,-1.812024,0.711100,-1.874334,0.412817,-1.902546,0.113267,-1.896288,-0.183577,-1.855641,-0.473783,-1.781146,-0.753503,-1.673789,
-1.019030,-1.534993,-1.266845,-1.366598,-1.493662,-1.170835,-1.696476,-0.950301,-1.872598,-0.707917,-2.019694,-0.446897,-2.135815,-0.170699,-2.219420,0.117014,-2.269403,0.412431,-2.265231,0.426794,-2.272434,0.441939,-2.259619,0.477998,-2.225061,0.494434,0.251439,0.621434,0.258502,0.618924,0.258502,0.618924,$1*%
%AMFreePoly4*
4,1,44,0.728392,2.151956,0.746320,2.149112,0.746996,2.148181,0.748123,2.147952,0.748124,2.147950,0.971760,1.978982,1.175840,1.786849,1.357976,1.573798,1.516038,1.342323,1.648176,1.095132,1.752845,0.835115,1.828819,0.565316,1.875212,0.288889,1.891480,0.009068,1.889621,0.004529,1.891500,-0.000011,1.876614,-0.276760,1.832245,-0.550334,1.758901,-0.817603,1.657420,-1.075504,
1.528966,-1.321088,1.375008,-1.551541,1.197309,-1.764226,0.997904,-1.956707,0.779075,-2.126783,0.759425,-2.131062,0.746320,-2.149112,0.708525,-2.155108,0.677558,-2.132624,-0.614125,-0.026137,-0.615388,-0.018177,-0.620121,-0.011658,-0.618272,0.000000,-0.620121,0.011658,-0.615388,0.018177,-0.614125,0.026137,0.677558,2.132624,0.678489,2.133300,0.678718,2.134427,0.693845,2.144449,
0.708525,2.155108,0.709660,2.154928,0.710619,2.155563,0.728392,2.151956,0.728392,2.151956,$1*%
G04 Aperture macros list end*
G04 #@! TA.AperFunction,EtchedComponent*
%ADD10C,0.254000*%
G04 #@! TD*
G04 #@! TA.AperFunction,ComponentPad*
%ADD11R,1.600000X1.600000*%
G04 #@! TD*
G04 #@! TA.AperFunction,ComponentPad*
%ADD12O,1.600000X1.600000*%
G04 #@! TD*
G04 #@! TA.AperFunction,SMDPad,CuDef*
%ADD13FreePoly0,90.000000*%
G04 #@! TD*
G04 #@! TA.AperFunction,SMDPad,CuDef*
%ADD14FreePoly1,90.000000*%
G04 #@! TD*
G04 #@! TA.AperFunction,SMDPad,CuDef*
%ADD15FreePoly2,90.000000*%
G04 #@! TD*
G04 #@! TA.AperFunction,ComponentPad*
%ADD16C,1.600000*%
G04 #@! TD*
G04 #@! TA.AperFunction,ComponentPad*
%ADD17R,1.300000X1.300000*%
G04 #@! TD*
G04 #@! TA.AperFunction,ComponentPad*
%ADD18C,1.300000*%
G04 #@! TD*
G04 #@! TA.AperFunction,SMDPad,CuDef*
%ADD19FreePoly3,180.000000*%
G04 #@! TD*
G04 #@! TA.AperFunction,SMDPad,CuDef*
%ADD20FreePoly4,180.000000*%
G04 #@! TD*
G04 #@! TA.AperFunction,SMDPad,CuDef*
%ADD21FreePoly2,180.000000*%
G04 #@! TD*
G04 #@! TA.AperFunction,ComponentPad*
%ADD22R,1.700000X1.700000*%
G04 #@! TD*
G04 #@! TA.AperFunction,ComponentPad*
%ADD23O,1.700000X1.700000*%
G04 #@! TD*
G04 #@! TA.AperFunction,ComponentPad*
%ADD24C,1.500000*%
G04 #@! TD*
G04 #@! TA.AperFunction,SMDPad,CuDef*
%ADD25FreePoly2,300.000000*%
G04 #@! TD*
G04 #@! TA.AperFunction,SMDPad,CuDef*
%ADD26FreePoly4,300.000000*%
G04 #@! TD*
G04 #@! TA.AperFunction,SMDPad,CuDef*
%ADD27FreePoly3,300.000000*%
G04 #@! TD*
G04 #@! TA.AperFunction,ConnectorPad*
%ADD28RoundRect,0.317500X-0.317500X-3.365500X0.317500X-3.365500X0.317500X3.365500X-0.317500X3.365500X0*%
G04 #@! TD*
G04 #@! TA.AperFunction,ViaPad*
%ADD29C,1.016000*%
G04 #@! TD*
G04 #@! TA.AperFunction,ViaPad*
%ADD30C,1.143000*%
G04 #@! TD*
G04 #@! TA.AperFunction,Conductor*
%ADD31C,0.250000*%
G04 #@! TD*
G04 #@! TA.AperFunction,Conductor*
%ADD32C,0.381000*%
G04 #@! TD*
G04 #@! TA.AperFunction,Conductor*
%ADD33C,1.016000*%
G04 #@! TD*
G04 APERTURE END LIST*
D10*
G04 #@! TO.C,X21*
X116052600Y-110769400D02*
X115771423Y-110332513D01*
G04 #@! TO.C,X6*
X235813600Y-103301800D02*
X235469448Y-103096064D01*
G04 #@! TO.C,X7*
X244967076Y-100148553D02*
X244960979Y-100549465D01*
G04 #@! TD*
D11*
G04 #@! TO.P,U10W28,1,A14*
G04 #@! TO.N,+5V*
X95250000Y-86360000D03*
D12*
G04 #@! TO.P,U10W28,2,A12*
X95250000Y-88900000D03*
G04 #@! TO.P,U10W28,3,A7*
G04 #@! TO.N,/SRAM/RAMA5*
X95250000Y-91440000D03*
G04 #@! TO.P,U10W28,4,A6*
G04 #@! TO.N,/SRAM/RAMA3*
X95250000Y-93980000D03*
G04 #@! TO.P,U10W28,5,A5*
G04 #@! TO.N,/SRAM/RAMA0*
X95250000Y-96520000D03*
G04 #@! TO.P,U10W28,6,A4*
G04 #@! TO.N,/SRAM/RAMA2*
X95250000Y-99060000D03*
G04 #@! TO.P,U10W28,7,A3*
G04 #@! TO.N,/SRAM/RAMA10*
X95250000Y-101600000D03*
G04 #@! TO.P,U10W28,8,A2*
G04 #@! TO.N,/SRAM/RAMA6*
X95250000Y-104140000D03*
G04 #@! TO.P,U10W28,9,A1*
G04 #@! TO.N,/SRAM/RAMA8*
X95250000Y-106680000D03*
G04 #@! TO.P,U10W28,10,A0*
G04 #@! TO.N,/SRAM/RAMA9*
X95250000Y-109220000D03*
G04 #@! TO.P,U10W28,11,Q0*
G04 #@! TO.N,/E0*
X95250000Y-111760000D03*
G04 #@! TO.P,U10W28,12,Q1*
G04 #@! TO.N,/E1*
X95250000Y-114300000D03*
G04 #@! TO.P,U10W28,13,Q2*
G04 #@! TO.N,/E2*
X95250000Y-116840000D03*
G04 #@! TO.P,U10W28,14,GND*
G04 #@! TO.N,GND*
X95250000Y-119380000D03*
G04 #@! TO.P,U10W28,15,Q3*
G04 #@! TO.N,/E3*
X110490000Y-119380000D03*
G04 #@! TO.P,U10W28,16,Q4*
G04 #@! TO.N,/E4*
X110490000Y-116840000D03*
G04 #@! TO.P,U10W28,17,Q5*
G04 #@! TO.N,/E5*
X110490000Y-114300000D03*
G04 #@! TO.P,U10W28,18,Q6*
G04 #@! TO.N,/E6*
X110490000Y-111760000D03*
G04 #@! TO.P,U10W28,19,Q7*
G04 #@! TO.N,/E7*
X110490000Y-109220000D03*
G04 #@! TO.P,U10W28,20,~{CS}*
G04 #@! TO.N,GND*
X110490000Y-106680000D03*
G04 #@! TO.P,U10W28,21,A10*
G04 #@! TO.N,/SRAM/RAMA1*
X110490000Y-104140000D03*
G04 #@! TO.P,U10W28,22,~{OE}*
G04 #@! TO.N,GND*
X110490000Y-101600000D03*
G04 #@! TO.P,U10W28,23,A11*
G04 #@! TO.N,Net-(U10-Pad21)*
X110490000Y-99060000D03*
G04 #@! TO.P,U10W28,24,A9*
G04 #@! TO.N,/SRAM/RAMA7*
X110490000Y-96520000D03*
G04 #@! TO.P,U10W28,25,A8*
G04 #@! TO.N,/SRAM/RAMA4*
X110490000Y-93980000D03*
G04 #@! TO.P,U10W28,26,A13*
G04 #@! TO.N,+5V*
X110490000Y-91440000D03*
G04 #@! TO.P,U10W28,27,~{WE}*
G04 #@! TO.N,/SRAM/RAM_R{slash}~{W}*
X110490000Y-88900000D03*
G04 #@! TO.P,U10W28,28,VCC*
G04 #@! TO.N,+5V*
X110490000Y-86360000D03*
G04 #@! TD*
D11*
G04 #@! TO.P,U10W24,1,A7*
G04 #@! TO.N,/SRAM/RAMA5*
X95250000Y-91440000D03*
D12*
G04 #@! TO.P,U10W24,2,A6*
G04 #@! TO.N,/SRAM/RAMA3*
X95250000Y-93980000D03*
G04 #@! TO.P,U10W24,3,A5*
G04 #@! TO.N,/SRAM/RAMA0*
X95250000Y-96520000D03*
G04 #@! TO.P,U10W24,4,A4*
G04 #@! TO.N,/SRAM/RAMA2*
X95250000Y-99060000D03*
G04 #@! TO.P,U10W24,5,A3*
G04 #@! TO.N,/SRAM/RAMA10*
X95250000Y-101600000D03*
G04 #@! TO.P,U10W24,6,A2*
G04 #@! TO.N,/SRAM/RAMA6*
X95250000Y-104140000D03*
G04 #@! TO.P,U10W24,7,A1*
G04 #@! TO.N,/SRAM/RAMA8*
X95250000Y-106680000D03*
G04 #@! TO.P,U10W24,8,A0*
G04 #@! TO.N,/SRAM/RAMA9*
X95250000Y-109220000D03*
G04 #@! TO.P,U10W24,9,DQ1*
G04 #@! TO.N,/E0*
X95250000Y-111760000D03*
G04 #@! TO.P,U10W24,10,DQ2*
G04 #@! TO.N,/E1*
X95250000Y-114300000D03*
G04 #@! TO.P,U10W24,11,DQ3*
G04 #@! TO.N,/E2*
X95250000Y-116840000D03*
G04 #@! TO.P,U10W24,12,GND*
G04 #@! TO.N,GND*
X95250000Y-119380000D03*
G04 #@! TO.P,U10W24,13,DQ4*
G04 #@! TO.N,/E3*
X110490000Y-119380000D03*
G04 #@! TO.P,U10W24,14,DQ5*
G04 #@! TO.N,/E4*
X110490000Y-116840000D03*
G04 #@! TO.P,U10W24,15,DQ6*
G04 #@! TO.N,/E5*
X110490000Y-114300000D03*
G04 #@! TO.P,U10W24,16,DQ7*
G04 #@! TO.N,/E6*
X110490000Y-111760000D03*
G04 #@! TO.P,U10W24,17,DQ8*
G04 #@! TO.N,/E7*
X110490000Y-109220000D03*
G04 #@! TO.P,U10W24,18,~{CS}*
G04 #@! TO.N,GND*
X110490000Y-106680000D03*
G04 #@! TO.P,U10W24,19,A10*
G04 #@! TO.N,/SRAM/RAMA1*
X110490000Y-104140000D03*
G04 #@! TO.P,U10W24,20,~{OE}*
G04 #@! TO.N,GND*
X110490000Y-101600000D03*
G04 #@! TO.P,U10W24,21,~{WE}*
G04 #@! TO.N,Net-(U10-Pad21)*
X110490000Y-99060000D03*
G04 #@! TO.P,U10W24,22,A9*
G04 #@! TO.N,/SRAM/RAMA7*
X110490000Y-96520000D03*
G04 #@! TO.P,U10W24,23,A8*
G04 #@! TO.N,/SRAM/RAMA4*
X110490000Y-93980000D03*
G04 #@! TO.P,U10W24,24,VCC*
G04 #@! TO.N,+5V*
X110490000Y-91440000D03*
G04 #@! TD*
D11*
G04 #@! TO.P,U10W32,1,A17*
G04 #@! TO.N,+5V*
X95250000Y-81280000D03*
D12*
G04 #@! TO.P,U10W32,2,A16*
X95250000Y-83820000D03*
G04 #@! TO.P,U10W32,3,A14*
X95250000Y-86360000D03*
G04 #@! TO.P,U10W32,4,A12*
X95250000Y-88900000D03*
G04 #@! TO.P,U10W32,5,A7*
G04 #@! TO.N,/SRAM/RAMA5*
X95250000Y-91440000D03*
G04 #@! TO.P,U10W32,6,A6*
G04 #@! TO.N,/SRAM/RAMA3*
X95250000Y-93980000D03*
G04 #@! TO.P,U10W32,7,A5*
G04 #@! TO.N,/SRAM/RAMA0*
X95250000Y-96520000D03*
G04 #@! TO.P,U10W32,8,A4*
G04 #@! TO.N,/SRAM/RAMA2*
X95250000Y-99060000D03*
G04 #@! TO.P,U10W32,9,A3*
G04 #@! TO.N,/SRAM/RAMA10*
X95250000Y-101600000D03*
G04 #@! TO.P,U10W32,10,A2*
G04 #@! TO.N,/SRAM/RAMA6*
X95250000Y-104140000D03*
G04 #@! TO.P,U10W32,11,A1*
G04 #@! TO.N,/SRAM/RAMA8*
X95250000Y-106680000D03*
G04 #@! TO.P,U10W32,12,A0*
G04 #@! TO.N,/SRAM/RAMA9*
X95250000Y-109220000D03*
G04 #@! TO.P,U10W32,13,I/O0*
G04 #@! TO.N,/E0*
X95250000Y-111760000D03*
G04 #@! TO.P,U10W32,14,I/O1*
G04 #@! TO.N,/E1*
X95250000Y-114300000D03*
G04 #@! TO.P,U10W32,15,I/O2*
G04 #@! TO.N,/E2*
X95250000Y-116840000D03*
G04 #@! TO.P,U10W32,16,GND*
G04 #@! TO.N,GND*
X95250000Y-119380000D03*
G04 #@! TO.P,U10W32,17,I/O3*
G04 #@! TO.N,/E3*
X110490000Y-119380000D03*
G04 #@! TO.P,U10W32,18,I/O4*
G04 #@! TO.N,/E4*
X110490000Y-116840000D03*
G04 #@! TO.P,U10W32,19,I/O5*
G04 #@! TO.N,/E5*
X110490000Y-114300000D03*
G04 #@! TO.P,U10W32,20,I/O6*
G04 #@! TO.N,/E6*
X110490000Y-111760000D03*
G04 #@! TO.P,U10W32,21,I/O7*
G04 #@! TO.N,/E7*
X110490000Y-109220000D03*
G04 #@! TO.P,U10W32,22,~{CE}*
G04 #@! TO.N,GND*
X110490000Y-106680000D03*
G04 #@! TO.P,U10W32,23,A10*
G04 #@! TO.N,/SRAM/RAMA1*
X110490000Y-104140000D03*
G04 #@! TO.P,U10W32,24,~{OE}*
G04 #@! TO.N,GND*
X110490000Y-101600000D03*
G04 #@! TO.P,U10W32,25,A11*
G04 #@! TO.N,Net-(U10-Pad21)*
X110490000Y-99060000D03*
G04 #@! TO.P,U10W32,26,A9*
G04 #@! TO.N,/SRAM/RAMA7*
X110490000Y-96520000D03*
G04 #@! TO.P,U10W32,27,A8*
G04 #@! TO.N,/SRAM/RAMA4*
X110490000Y-93980000D03*
G04 #@! TO.P,U10W32,28,A13*
G04 #@! TO.N,+5V*
X110490000Y-91440000D03*
G04 #@! TO.P,U10W32,29,~{WE}*
G04 #@! TO.N,/SRAM/RAM_R{slash}~{W}*
X110490000Y-88900000D03*
G04 #@! TO.P,U10W32,30,A18*
G04 #@! TO.N,+5V*
X110490000Y-86360000D03*
G04 #@! TO.P,U10W32,31,A15*
X110490000Y-83820000D03*
G04 #@! TO.P,U10W32,32,VDD*
X110490000Y-81280000D03*
G04 #@! TD*
D11*
G04 #@! TO.P,U10N32,1,A17*
G04 #@! TO.N,+5V*
X102870000Y-81280000D03*
D12*
G04 #@! TO.P,U10N32,2,A16*
X102870000Y-83820000D03*
G04 #@! TO.P,U10N32,3,A14*
X102870000Y-86360000D03*
G04 #@! TO.P,U10N32,4,A12*
X102870000Y-88900000D03*
G04 #@! TO.P,U10N32,5,A7*
G04 #@! TO.N,/SRAM/RAMA5*
X102870000Y-91440000D03*
G04 #@! TO.P,U10N32,6,A6*
G04 #@! TO.N,/SRAM/RAMA3*
X102870000Y-93980000D03*
G04 #@! TO.P,U10N32,7,A5*
G04 #@! TO.N,/SRAM/RAMA0*
X102870000Y-96520000D03*
G04 #@! TO.P,U10N32,8,A4*
G04 #@! TO.N,/SRAM/RAMA2*
X102870000Y-99060000D03*
G04 #@! TO.P,U10N32,9,A3*
G04 #@! TO.N,/SRAM/RAMA10*
X102870000Y-101600000D03*
G04 #@! TO.P,U10N32,10,A2*
G04 #@! TO.N,/SRAM/RAMA6*
X102870000Y-104140000D03*
G04 #@! TO.P,U10N32,11,A1*
G04 #@! TO.N,/SRAM/RAMA8*
X102870000Y-106680000D03*
G04 #@! TO.P,U10N32,12,A0*
G04 #@! TO.N,/SRAM/RAMA9*
X102870000Y-109220000D03*
G04 #@! TO.P,U10N32,13,I/O0*
G04 #@! TO.N,/E0*
X102870000Y-111760000D03*
G04 #@! TO.P,U10N32,14,I/O1*
G04 #@! TO.N,/E1*
X102870000Y-114300000D03*
G04 #@! TO.P,U10N32,15,I/O2*
G04 #@! TO.N,/E2*
X102870000Y-116840000D03*
G04 #@! TO.P,U10N32,16,GND*
G04 #@! TO.N,GND*
X102870000Y-119380000D03*
G04 #@! TO.P,U10N32,17,I/O3*
G04 #@! TO.N,/E3*
X110490000Y-119380000D03*
G04 #@! TO.P,U10N32,18,I/O4*
G04 #@! TO.N,/E4*
X110490000Y-116840000D03*
G04 #@! TO.P,U10N32,19,I/O5*
G04 #@! TO.N,/E5*
X110490000Y-114300000D03*
G04 #@! TO.P,U10N32,20,I/O6*
G04 #@! TO.N,/E6*
X110490000Y-111760000D03*
G04 #@! TO.P,U10N32,21,I/O7*
G04 #@! TO.N,/E7*
X110490000Y-109220000D03*
G04 #@! TO.P,U10N32,22,~{CE}*
G04 #@! TO.N,GND*
X110490000Y-106680000D03*
G04 #@! TO.P,U10N32,23,A10*
G04 #@! TO.N,/SRAM/RAMA1*
X110490000Y-104140000D03*
G04 #@! TO.P,U10N32,24,~{OE}*
G04 #@! TO.N,GND*
X110490000Y-101600000D03*
G04 #@! TO.P,U10N32,25,A11*
G04 #@! TO.N,Net-(U10-Pad21)*
X110490000Y-99060000D03*
G04 #@! TO.P,U10N32,26,A9*
G04 #@! TO.N,/SRAM/RAMA7*
X110490000Y-96520000D03*
G04 #@! TO.P,U10N32,27,A8*
G04 #@! TO.N,/SRAM/RAMA4*
X110490000Y-93980000D03*
G04 #@! TO.P,U10N32,28,A13*
G04 #@! TO.N,+5V*
X110490000Y-91440000D03*
G04 #@! TO.P,U10N32,29,~{WE}*
G04 #@! TO.N,/SRAM/RAM_R{slash}~{W}*
X110490000Y-88900000D03*
G04 #@! TO.P,U10N32,30,A18*
G04 #@! TO.N,+5V*
X110490000Y-86360000D03*
G04 #@! TO.P,U10N32,31,A15*
X110490000Y-83820000D03*
G04 #@! TO.P,U10N32,32,VDD*
X110490000Y-81280000D03*
G04 #@! TD*
D13*
G04 #@! TO.P,X21,1,A*
G04 #@! TO.N,/SRAM/RAM_R{slash}~{W}*
X115747800Y-111480600D03*
D14*
G04 #@! TO.P,X21,2,C*
G04 #@! TO.N,Net-(U10-Pad21)*
X114935000Y-110312200D03*
D15*
G04 #@! TO.P,X21,3,B*
G04 #@! TO.N,/SRAM/RAMA11*
X114122200Y-111480600D03*
G04 #@! TD*
D11*
G04 #@! TO.P,U14,1,S*
G04 #@! TO.N,/RAM_~{A}{slash}B*
X119380000Y-100330000D03*
D12*
G04 #@! TO.P,U14,2,I0a*
G04 #@! TO.N,/A0*
X119380000Y-102870000D03*
G04 #@! TO.P,U14,3,I1a*
G04 #@! TO.N,/B0*
X119380000Y-105410000D03*
G04 #@! TO.P,U14,4,Za*
G04 #@! TO.N,/SRAM/RAMA0*
X119380000Y-107950000D03*
G04 #@! TO.P,U14,5,I0b*
G04 #@! TO.N,/A1*
X119380000Y-110490000D03*
G04 #@! TO.P,U14,6,I1b*
G04 #@! TO.N,/B1*
X119380000Y-113030000D03*
G04 #@! TO.P,U14,7,Zb*
G04 #@! TO.N,/SRAM/RAMA1*
X119380000Y-115570000D03*
G04 #@! TO.P,U14,8,GND*
G04 #@! TO.N,GND*
X119380000Y-118110000D03*
G04 #@! TO.P,U14,9,Zc*
G04 #@! TO.N,/SRAM/RAMA2*
X127000000Y-118110000D03*
G04 #@! TO.P,U14,10,I1c*
G04 #@! TO.N,/B2*
X127000000Y-115570000D03*
G04 #@! TO.P,U14,11,I0c*
G04 #@! TO.N,/A2*
X127000000Y-113030000D03*
G04 #@! TO.P,U14,12,Zd*
G04 #@! TO.N,/SRAM/RAMA3*
X127000000Y-110490000D03*
G04 #@! TO.P,U14,13,I1d*
G04 #@! TO.N,/B3*
X127000000Y-107950000D03*
G04 #@! TO.P,U14,14,I0d*
G04 #@! TO.N,/A3*
X127000000Y-105410000D03*
G04 #@! TO.P,U14,15,E*
G04 #@! TO.N,GND*
X127000000Y-102870000D03*
G04 #@! TO.P,U14,16,VCC*
G04 #@! TO.N,+5V*
X127000000Y-100330000D03*
G04 #@! TD*
D16*
G04 #@! TO.P,C3,1*
G04 #@! TO.N,Net-(C3-Pad1)*
X237490000Y-68580000D03*
D12*
G04 #@! TO.P,C3,2*
G04 #@! TO.N,Net-(C3-Pad2)*
X243840000Y-68580000D03*
G04 #@! TD*
D17*
G04 #@! TO.P,Q1,1,E*
G04 #@! TO.N,Net-(Q1-Pad1)*
X107188000Y-57150000D03*
D18*
G04 #@! TO.P,Q1,2,B*
G04 #@! TO.N,Net-(Q1-Pad2)*
X108458000Y-55880000D03*
G04 #@! TO.P,Q1,3,C*
G04 #@! TO.N,Net-(Q1-Pad3)*
X109728000Y-57150000D03*
G04 #@! TD*
D11*
G04 #@! TO.P,U21,1,Ds*
G04 #@! TO.N,/ROMD0*
X201930000Y-64770000D03*
D12*
G04 #@! TO.P,U21,2,A*
X204470000Y-64770000D03*
G04 #@! TO.P,U21,3,B*
G04 #@! TO.N,/ROMD1*
X207010000Y-64770000D03*
G04 #@! TO.P,U21,4,C*
G04 #@! TO.N,/ROMD2*
X209550000Y-64770000D03*
G04 #@! TO.P,U21,5,D*
G04 #@! TO.N,/ROMD3*
X212090000Y-64770000D03*
G04 #@! TO.P,U21,6,CE*
G04 #@! TO.N,GND*
X214630000Y-64770000D03*
G04 #@! TO.P,U21,7,Clk*
G04 #@! TO.N,Net-(U21-Pad7)*
X217170000Y-64770000D03*
G04 #@! TO.P,U21,8,GND*
G04 #@! TO.N,GND*
X219710000Y-64770000D03*
G04 #@! TO.P,U21,9,Clr*
G04 #@! TO.N,Net-(R8-Pad2)*
X219710000Y-57150000D03*
G04 #@! TO.P,U21,10,E*
G04 #@! TO.N,/ROMD4*
X217170000Y-57150000D03*
G04 #@! TO.P,U21,11,F*
G04 #@! TO.N,/ROMD5*
X214630000Y-57150000D03*
G04 #@! TO.P,U21,12,G*
G04 #@! TO.N,/ROMD6*
X212090000Y-57150000D03*
G04 #@! TO.P,U21,13,Qh*
G04 #@! TO.N,Net-(U1-Pad10)*
X209550000Y-57150000D03*
G04 #@! TO.P,U21,14,H*
G04 #@! TO.N,/ROMD7*
X207010000Y-57150000D03*
G04 #@! TO.P,U21,15,PE*
G04 #@! TO.N,Net-(U18-Pad11)*
X204470000Y-57150000D03*
G04 #@! TO.P,U21,16,VCC*
G04 #@! TO.N,+5V*
X201930000Y-57150000D03*
G04 #@! TD*
D11*
G04 #@! TO.P,U2,1*
G04 #@! TO.N,Net-(R10-Pad2)*
X194310000Y-96520000D03*
D12*
G04 #@! TO.P,U2,2*
G04 #@! TO.N,/VSYNC*
X196850000Y-96520000D03*
G04 #@! TO.P,U2,3*
G04 #@! TO.N,/HSYNC*
X199390000Y-96520000D03*
G04 #@! TO.P,U2,4*
G04 #@! TO.N,Net-(U2-Pad4)*
X201930000Y-96520000D03*
G04 #@! TO.P,U2,5*
G04 #@! TO.N,Net-(U2-Pad5)*
X204470000Y-96520000D03*
G04 #@! TO.P,U2,6*
G04 #@! TO.N,/~{IO_STROBE}*
X207010000Y-96520000D03*
G04 #@! TO.P,U2,7,GND*
G04 #@! TO.N,GND*
X209550000Y-96520000D03*
G04 #@! TO.P,U2,8*
G04 #@! TO.N,Net-(U2-Pad8)*
X209550000Y-88900000D03*
G04 #@! TO.P,U2,9*
G04 #@! TO.N,/A10*
X207010000Y-88900000D03*
G04 #@! TO.P,U2,10*
G04 #@! TO.N,Net-(U2-Pad10)*
X204470000Y-88900000D03*
G04 #@! TO.P,U2,11*
X201930000Y-88900000D03*
G04 #@! TO.P,U2,12*
G04 #@! TO.N,Net-(U1-Pad6)*
X199390000Y-88900000D03*
G04 #@! TO.P,U2,13*
G04 #@! TO.N,/Firmware/~{OE}*
X196850000Y-88900000D03*
G04 #@! TO.P,U2,14,VCC*
G04 #@! TO.N,+5V*
X194310000Y-88900000D03*
G04 #@! TD*
D11*
G04 #@! TO.P,C4,1*
G04 #@! TO.N,+5V*
X236220000Y-119380000D03*
D16*
G04 #@! TO.P,C4,2*
G04 #@! TO.N,GND*
X236220000Y-113030000D03*
G04 #@! TD*
D11*
G04 #@! TO.P,U20,1,A7*
G04 #@! TO.N,/ROMA3*
X166370000Y-72390000D03*
D12*
G04 #@! TO.P,U20,2,A6*
G04 #@! TO.N,/ROMA2*
X168910000Y-72390000D03*
G04 #@! TO.P,U20,3,A5*
G04 #@! TO.N,/ROMA1*
X171450000Y-72390000D03*
G04 #@! TO.P,U20,4,A4*
G04 #@! TO.N,/ROMA0*
X173990000Y-72390000D03*
G04 #@! TO.P,U20,5,A3*
G04 #@! TO.N,/RA3*
X176530000Y-72390000D03*
G04 #@! TO.P,U20,6,A2*
G04 #@! TO.N,/RA2*
X179070000Y-72390000D03*
G04 #@! TO.P,U20,7,A1*
G04 #@! TO.N,/RA1*
X181610000Y-72390000D03*
G04 #@! TO.P,U20,8,A0*
G04 #@! TO.N,/RA0*
X184150000Y-72390000D03*
G04 #@! TO.P,U20,9,D0*
G04 #@! TO.N,/ROMD0*
X186690000Y-72390000D03*
G04 #@! TO.P,U20,10,D1*
G04 #@! TO.N,/ROMD1*
X189230000Y-72390000D03*
G04 #@! TO.P,U20,11,D2*
G04 #@! TO.N,/ROMD2*
X191770000Y-72390000D03*
G04 #@! TO.P,U20,12,GND*
G04 #@! TO.N,GND*
X194310000Y-72390000D03*
G04 #@! TO.P,U20,13,D3*
G04 #@! TO.N,/ROMD3*
X194310000Y-57150000D03*
G04 #@! TO.P,U20,14,D4*
G04 #@! TO.N,/ROMD4*
X191770000Y-57150000D03*
G04 #@! TO.P,U20,15,D5*
G04 #@! TO.N,/ROMD5*
X189230000Y-57150000D03*
G04 #@! TO.P,U20,16,D6*
G04 #@! TO.N,/ROMD6*
X186690000Y-57150000D03*
G04 #@! TO.P,U20,17,D7*
G04 #@! TO.N,/ROMD7*
X184150000Y-57150000D03*
G04 #@! TO.P,U20,18,~{CE}*
G04 #@! TO.N,GND*
X181610000Y-57150000D03*
G04 #@! TO.P,U20,19,A10*
G04 #@! TO.N,/ROMA6*
X179070000Y-57150000D03*
G04 #@! TO.P,U20,20,~{G}VPP*
G04 #@! TO.N,GND*
X176530000Y-57150000D03*
G04 #@! TO.P,U20,21,A11*
G04 #@! TO.N,/ROMA7*
X173990000Y-57150000D03*
G04 #@! TO.P,U20,22,A9*
G04 #@! TO.N,/ROMA5*
X171450000Y-57150000D03*
G04 #@! TO.P,U20,23,A8*
G04 #@! TO.N,/ROMA4*
X168910000Y-57150000D03*
G04 #@! TO.P,U20,24,VCC*
G04 #@! TO.N,+5V*
X166370000Y-57150000D03*
G04 #@! TD*
D11*
G04 #@! TO.P,U4,1*
G04 #@! TO.N,/A9*
X215900000Y-77470000D03*
D12*
G04 #@! TO.P,U4,2*
G04 #@! TO.N,Net-(U4-Pad2)*
X218440000Y-77470000D03*
G04 #@! TO.P,U4,3*
G04 #@! TO.N,Net-(U2-Pad4)*
X220980000Y-77470000D03*
G04 #@! TO.P,U4,4*
G04 #@! TO.N,Net-(U2-Pad8)*
X223520000Y-77470000D03*
G04 #@! TO.P,U4,5*
G04 #@! TO.N,Net-(R1-Pad1)*
X226060000Y-77470000D03*
G04 #@! TO.P,U4,6*
G04 #@! TO.N,Net-(C3-Pad1)*
X228600000Y-77470000D03*
G04 #@! TO.P,U4,7,GND*
G04 #@! TO.N,GND*
X231140000Y-77470000D03*
G04 #@! TO.P,U4,8*
G04 #@! TO.N,Net-(R2-Pad2)*
X231140000Y-69850000D03*
G04 #@! TO.P,U4,9*
G04 #@! TO.N,Net-(C3-Pad2)*
X228600000Y-69850000D03*
G04 #@! TO.P,U4,10*
G04 #@! TO.N,Net-(U21-Pad7)*
X226060000Y-69850000D03*
G04 #@! TO.P,U4,11*
G04 #@! TO.N,Net-(R2-Pad2)*
X223520000Y-69850000D03*
G04 #@! TO.P,U4,12*
G04 #@! TO.N,Net-(U4-Pad12)*
X220980000Y-69850000D03*
G04 #@! TO.P,U4,13*
G04 #@! TO.N,Net-(CR1-Pad1)*
X218440000Y-69850000D03*
G04 #@! TO.P,U4,14,VCC*
G04 #@! TO.N,+5V*
X215900000Y-69850000D03*
G04 #@! TD*
D11*
G04 #@! TO.P,U9,1,E*
G04 #@! TO.N,/~{IO_STROBE}*
X168910000Y-83820000D03*
D12*
G04 #@! TO.P,U9,2,A0*
G04 #@! TO.N,/A10*
X171450000Y-83820000D03*
G04 #@! TO.P,U9,3,A1*
G04 #@! TO.N,/A9*
X173990000Y-83820000D03*
G04 #@! TO.P,U9,4,O0*
G04 #@! TO.N,unconnected-(U9-Pad4)*
X176530000Y-83820000D03*
G04 #@! TO.P,U9,5,O1*
G04 #@! TO.N,Net-(CR1-Pad1)*
X179070000Y-83820000D03*
G04 #@! TO.P,U9,6,O2*
G04 #@! TO.N,unconnected-(U9-Pad6)*
X181610000Y-83820000D03*
G04 #@! TO.P,U9,7,O3*
G04 #@! TO.N,Net-(U7-Pad3)*
X184150000Y-83820000D03*
G04 #@! TO.P,U9,8,GND*
G04 #@! TO.N,GND*
X186690000Y-83820000D03*
G04 #@! TO.P,U9,9,O3*
G04 #@! TO.N,unconnected-(U9-Pad9)*
X186690000Y-76200000D03*
G04 #@! TO.P,U9,10,O2*
G04 #@! TO.N,unconnected-(U9-Pad10)*
X184150000Y-76200000D03*
G04 #@! TO.P,U9,11,O1*
G04 #@! TO.N,unconnected-(U9-Pad11)*
X181610000Y-76200000D03*
G04 #@! TO.P,U9,12,O0*
G04 #@! TO.N,/SRAM/RAM_R{slash}~{W}*
X179070000Y-76200000D03*
G04 #@! TO.P,U9,13,A1*
G04 #@! TO.N,/R{slash}~{W}*
X176530000Y-76200000D03*
G04 #@! TO.P,U9,14,A0*
G04 #@! TO.N,/RAM_~{A}{slash}B*
X173990000Y-76200000D03*
G04 #@! TO.P,U9,15,E*
G04 #@! TO.N,/Q3*
X171450000Y-76200000D03*
G04 #@! TO.P,U9,16,VCC*
G04 #@! TO.N,+5V*
X168910000Y-76200000D03*
G04 #@! TD*
D11*
G04 #@! TO.P,U20C1,1,VPP*
G04 #@! TO.N,+5V*
X156210000Y-72390000D03*
D12*
G04 #@! TO.P,U20C1,2,A16*
X158750000Y-72390000D03*
G04 #@! TO.P,U20C1,3,A15*
X161290000Y-72390000D03*
G04 #@! TO.P,U20C1,4,A12*
X163830000Y-72390000D03*
G04 #@! TO.P,U20C1,5,A7*
G04 #@! TO.N,/ROMA3*
X166370000Y-72390000D03*
G04 #@! TO.P,U20C1,6,A6*
G04 #@! TO.N,/ROMA2*
X168910000Y-72390000D03*
G04 #@! TO.P,U20C1,7,A5*
G04 #@! TO.N,/ROMA1*
X171450000Y-72390000D03*
G04 #@! TO.P,U20C1,8,A4*
G04 #@! TO.N,/ROMA0*
X173990000Y-72390000D03*
G04 #@! TO.P,U20C1,9,A3*
G04 #@! TO.N,/RA3*
X176530000Y-72390000D03*
G04 #@! TO.P,U20C1,10,A2*
G04 #@! TO.N,/RA2*
X179070000Y-72390000D03*
G04 #@! TO.P,U20C1,11,A1*
G04 #@! TO.N,/RA1*
X181610000Y-72390000D03*
G04 #@! TO.P,U20C1,12,A0*
G04 #@! TO.N,/RA0*
X184150000Y-72390000D03*
G04 #@! TO.P,U20C1,13,D0*
G04 #@! TO.N,/ROMD0*
X186690000Y-72390000D03*
G04 #@! TO.P,U20C1,14,D1*
G04 #@! TO.N,/ROMD1*
X189230000Y-72390000D03*
G04 #@! TO.P,U20C1,15,D2*
G04 #@! TO.N,/ROMD2*
X191770000Y-72390000D03*
G04 #@! TO.P,U20C1,16,GND*
G04 #@! TO.N,GND*
X194310000Y-72390000D03*
G04 #@! TO.P,U20C1,17,D3*
G04 #@! TO.N,/ROMD3*
X194310000Y-57150000D03*
G04 #@! TO.P,U20C1,18,D4*
G04 #@! TO.N,/ROMD4*
X191770000Y-57150000D03*
G04 #@! TO.P,U20C1,19,D5*
G04 #@! TO.N,/ROMD5*
X189230000Y-57150000D03*
G04 #@! TO.P,U20C1,20,D6*
G04 #@! TO.N,/ROMD6*
X186690000Y-57150000D03*
G04 #@! TO.P,U20C1,21,D7*
G04 #@! TO.N,/ROMD7*
X184150000Y-57150000D03*
G04 #@! TO.P,U20C1,22,~{CE}*
G04 #@! TO.N,GND*
X181610000Y-57150000D03*
G04 #@! TO.P,U20C1,23,A10*
G04 #@! TO.N,/ROMA6*
X179070000Y-57150000D03*
G04 #@! TO.P,U20C1,24,~{OE}*
G04 #@! TO.N,GND*
X176530000Y-57150000D03*
G04 #@! TO.P,U20C1,25,A11*
G04 #@! TO.N,/ROMA7*
X173990000Y-57150000D03*
G04 #@! TO.P,U20C1,26,A9*
G04 #@! TO.N,/ROMA5*
X171450000Y-57150000D03*
G04 #@! TO.P,U20C1,27,A8*
G04 #@! TO.N,/ROMA4*
X168910000Y-57150000D03*
G04 #@! TO.P,U20C1,28,A13*
G04 #@! TO.N,+5V*
X166370000Y-57150000D03*
G04 #@! TO.P,U20C1,29,A14*
X163830000Y-57150000D03*
G04 #@! TO.P,U20C1,30,A17*
X161290000Y-57150000D03*
G04 #@! TO.P,U20C1,31,~{PGM}*
X158750000Y-57150000D03*
G04 #@! TO.P,U20C1,32,VCC*
X156210000Y-57150000D03*
G04 #@! TD*
D11*
G04 #@! TO.P,U5,1,A->B*
G04 #@! TO.N,/R{slash}~{W}*
X127000000Y-76200000D03*
D12*
G04 #@! TO.P,U5,2,A0*
G04 #@! TO.N,/E0*
X129540000Y-76200000D03*
G04 #@! TO.P,U5,3,A1*
G04 #@! TO.N,/E1*
X132080000Y-76200000D03*
G04 #@! TO.P,U5,4,A2*
G04 #@! TO.N,/E2*
X134620000Y-76200000D03*
G04 #@! TO.P,U5,5,A3*
G04 #@! TO.N,/E3*
X137160000Y-76200000D03*
G04 #@! TO.P,U5,6,A4*
G04 #@! TO.N,/E4*
X139700000Y-76200000D03*
G04 #@! TO.P,U5,7,A5*
G04 #@! TO.N,/E5*
X142240000Y-76200000D03*
G04 #@! TO.P,U5,8,A6*
G04 #@! TO.N,/E6*
X144780000Y-76200000D03*
G04 #@! TO.P,U5,9,A7*
G04 #@! TO.N,/E7*
X147320000Y-76200000D03*
G04 #@! TO.P,U5,10,GND*
G04 #@! TO.N,GND*
X149860000Y-76200000D03*
G04 #@! TO.P,U5,11,B7*
G04 #@! TO.N,/D7*
X149860000Y-68580000D03*
G04 #@! TO.P,U5,12,B6*
G04 #@! TO.N,/D6*
X147320000Y-68580000D03*
G04 #@! TO.P,U5,13,B5*
G04 #@! TO.N,/D5*
X144780000Y-68580000D03*
G04 #@! TO.P,U5,14,B4*
G04 #@! TO.N,/D4*
X142240000Y-68580000D03*
G04 #@! TO.P,U5,15,B3*
G04 #@! TO.N,/D3*
X139700000Y-68580000D03*
G04 #@! TO.P,U5,16,B2*
G04 #@! TO.N,/D2*
X137160000Y-68580000D03*
G04 #@! TO.P,U5,17,B1*
G04 #@! TO.N,/D1*
X134620000Y-68580000D03*
G04 #@! TO.P,U5,18,B0*
G04 #@! TO.N,/D0*
X132080000Y-68580000D03*
G04 #@! TO.P,U5,19,CE*
G04 #@! TO.N,/RAM_~{A}{slash}B*
X129540000Y-68580000D03*
G04 #@! TO.P,U5,20,VCC*
G04 #@! TO.N,+5V*
X127000000Y-68580000D03*
G04 #@! TD*
D11*
G04 #@! TO.P,U3W28,1,VPP*
G04 #@! TO.N,+5V*
X168910000Y-87630000D03*
D12*
G04 #@! TO.P,U3W28,2,A12*
X168910000Y-90170000D03*
G04 #@! TO.P,U3W28,3,A7*
G04 #@! TO.N,/A7*
X168910000Y-92710000D03*
G04 #@! TO.P,U3W28,4,A6*
G04 #@! TO.N,/A6*
X168910000Y-95250000D03*
G04 #@! TO.P,U3W28,5,A5*
G04 #@! TO.N,/A5*
X168910000Y-97790000D03*
G04 #@! TO.P,U3W28,6,A4*
G04 #@! TO.N,/A4*
X168910000Y-100330000D03*
G04 #@! TO.P,U3W28,7,A3*
G04 #@! TO.N,/A3*
X168910000Y-102870000D03*
G04 #@! TO.P,U3W28,8,A2*
G04 #@! TO.N,/A2*
X168910000Y-105410000D03*
G04 #@! TO.P,U3W28,9,A1*
G04 #@! TO.N,/A1*
X168910000Y-107950000D03*
G04 #@! TO.P,U3W28,10,A0*
G04 #@! TO.N,/A0*
X168910000Y-110490000D03*
G04 #@! TO.P,U3W28,11,D0*
G04 #@! TO.N,/D0*
X168910000Y-113030000D03*
G04 #@! TO.P,U3W28,12,D1*
G04 #@! TO.N,/D1*
X168910000Y-115570000D03*
G04 #@! TO.P,U3W28,13,D2*
G04 #@! TO.N,/D2*
X168910000Y-118110000D03*
G04 #@! TO.P,U3W28,14,GND*
G04 #@! TO.N,GND*
X168910000Y-120650000D03*
G04 #@! TO.P,U3W28,15,D3*
G04 #@! TO.N,/D3*
X184150000Y-120650000D03*
G04 #@! TO.P,U3W28,16,D4*
G04 #@! TO.N,/D4*
X184150000Y-118110000D03*
G04 #@! TO.P,U3W28,17,D5*
G04 #@! TO.N,/D5*
X184150000Y-115570000D03*
G04 #@! TO.P,U3W28,18,D6*
G04 #@! TO.N,/D6*
X184150000Y-113030000D03*
G04 #@! TO.P,U3W28,19,D7*
G04 #@! TO.N,/D7*
X184150000Y-110490000D03*
G04 #@! TO.P,U3W28,20,~{CE}*
G04 #@! TO.N,GND*
X184150000Y-107950000D03*
G04 #@! TO.P,U3W28,21,A10*
X184150000Y-105410000D03*
G04 #@! TO.P,U3W28,22,~{OE}*
G04 #@! TO.N,/Firmware/~{OE}*
X184150000Y-102870000D03*
G04 #@! TO.P,U3W28,23,A11*
G04 #@! TO.N,+5V*
X184150000Y-100330000D03*
G04 #@! TO.P,U3W28,24,A9*
G04 #@! TO.N,/Firmware/A9*
X184150000Y-97790000D03*
G04 #@! TO.P,U3W28,25,A8*
G04 #@! TO.N,/A8*
X184150000Y-95250000D03*
G04 #@! TO.P,U3W28,26,NC*
G04 #@! TO.N,+5V*
X184150000Y-92710000D03*
G04 #@! TO.P,U3W28,27,~{PGM}*
X184150000Y-90170000D03*
G04 #@! TO.P,U3W28,28,VCC*
X184150000Y-87630000D03*
G04 #@! TD*
D19*
G04 #@! TO.P,X6,1,A*
G04 #@! TO.N,/ROMA7*
X236575600Y-101422200D03*
D20*
G04 #@! TO.P,X6,2,C*
G04 #@! TO.N,Net-(U22-Pad12)*
X235407200Y-102235000D03*
D21*
G04 #@! TO.P,X6,3,B*
G04 #@! TO.N,Net-(U22-Pad15)*
X236575600Y-103047800D03*
G04 #@! TD*
D16*
G04 #@! TO.P,R8,1*
G04 #@! TO.N,+5V*
X223520000Y-67310000D03*
D12*
G04 #@! TO.P,R8,2*
G04 #@! TO.N,Net-(R8-Pad2)*
X223520000Y-57150000D03*
G04 #@! TD*
D16*
G04 #@! TO.P,R10,1*
G04 #@! TO.N,Net-(Q1-Pad2)*
X212725000Y-80010000D03*
D12*
G04 #@! TO.P,R10,2*
G04 #@! TO.N,Net-(R10-Pad2)*
X212725000Y-69850000D03*
G04 #@! TD*
D11*
G04 #@! TO.P,U22,1,~{Mr}*
G04 #@! TO.N,Net-(C2-Pad1)*
X215900000Y-91440000D03*
D12*
G04 #@! TO.P,U22,2,Q0*
G04 #@! TO.N,Net-(U22-Pad2)*
X218440000Y-91440000D03*
G04 #@! TO.P,U22,3,~{Q0}*
G04 #@! TO.N,unconnected-(U22-Pad3)*
X220980000Y-91440000D03*
G04 #@! TO.P,U22,4,D0*
G04 #@! TO.N,Net-(U19-Pad18)*
X223520000Y-91440000D03*
G04 #@! TO.P,U22,5,D1*
G04 #@! TO.N,Net-(U22-Pad2)*
X226060000Y-91440000D03*
G04 #@! TO.P,U22,6,~{Q1}*
G04 #@! TO.N,unconnected-(U22-Pad6)*
X228600000Y-91440000D03*
G04 #@! TO.P,U22,7,Q1*
G04 #@! TO.N,Net-(U22-Pad7)*
X231140000Y-91440000D03*
G04 #@! TO.P,U22,8,GND*
G04 #@! TO.N,GND*
X233680000Y-91440000D03*
G04 #@! TO.P,U22,9,Cp*
G04 #@! TO.N,Net-(U18-Pad11)*
X233680000Y-83820000D03*
G04 #@! TO.P,U22,10,Q2*
G04 #@! TO.N,Net-(U22-Pad10)*
X231140000Y-83820000D03*
G04 #@! TO.P,U22,11,~{Q2}*
G04 #@! TO.N,Net-(U22-Pad11)*
X228600000Y-83820000D03*
G04 #@! TO.P,U22,12,D2*
G04 #@! TO.N,Net-(U22-Pad12)*
X226060000Y-83820000D03*
G04 #@! TO.P,U22,13,D3*
G04 #@! TO.N,Net-(U19-Pad19)*
X223520000Y-83820000D03*
G04 #@! TO.P,U22,14,~{Q3}*
G04 #@! TO.N,unconnected-(U22-Pad14)*
X220980000Y-83820000D03*
G04 #@! TO.P,U22,15,Q3*
G04 #@! TO.N,Net-(U22-Pad15)*
X218440000Y-83820000D03*
G04 #@! TO.P,U22,16,VCC*
G04 #@! TO.N,+5V*
X215900000Y-83820000D03*
G04 #@! TD*
D11*
G04 #@! TO.P,U15,1,S*
G04 #@! TO.N,/RAM_~{A}{slash}B*
X134620000Y-100330000D03*
D12*
G04 #@! TO.P,U15,2,I0a*
G04 #@! TO.N,/A4*
X134620000Y-102870000D03*
G04 #@! TO.P,U15,3,I1a*
G04 #@! TO.N,/B4*
X134620000Y-105410000D03*
G04 #@! TO.P,U15,4,Za*
G04 #@! TO.N,/SRAM/RAMA4*
X134620000Y-107950000D03*
G04 #@! TO.P,U15,5,I0b*
G04 #@! TO.N,/A5*
X134620000Y-110490000D03*
G04 #@! TO.P,U15,6,I1b*
G04 #@! TO.N,/B5*
X134620000Y-113030000D03*
G04 #@! TO.P,U15,7,Zb*
G04 #@! TO.N,/SRAM/RAMA5*
X134620000Y-115570000D03*
G04 #@! TO.P,U15,8,GND*
G04 #@! TO.N,GND*
X134620000Y-118110000D03*
G04 #@! TO.P,U15,9,Zc*
G04 #@! TO.N,/SRAM/RAMA6*
X142240000Y-118110000D03*
G04 #@! TO.P,U15,10,I1c*
G04 #@! TO.N,/B6*
X142240000Y-115570000D03*
G04 #@! TO.P,U15,11,I0c*
G04 #@! TO.N,/A6*
X142240000Y-113030000D03*
G04 #@! TO.P,U15,12,Zd*
G04 #@! TO.N,/SRAM/RAMA7*
X142240000Y-110490000D03*
G04 #@! TO.P,U15,13,I1d*
G04 #@! TO.N,/B7*
X142240000Y-107950000D03*
G04 #@! TO.P,U15,14,I0d*
G04 #@! TO.N,/A7*
X142240000Y-105410000D03*
G04 #@! TO.P,U15,15,E*
G04 #@! TO.N,GND*
X142240000Y-102870000D03*
G04 #@! TO.P,U15,16,VCC*
G04 #@! TO.N,+5V*
X142240000Y-100330000D03*
G04 #@! TD*
D11*
G04 #@! TO.P,U18,1,~{Mr}*
G04 #@! TO.N,+5V*
X127000000Y-64770000D03*
D12*
G04 #@! TO.P,U18,2,Q0*
G04 #@! TO.N,/ROMA0*
X129540000Y-64770000D03*
G04 #@! TO.P,U18,3,D0*
G04 #@! TO.N,/E0*
X132080000Y-64770000D03*
G04 #@! TO.P,U18,4,D1*
G04 #@! TO.N,/E1*
X134620000Y-64770000D03*
G04 #@! TO.P,U18,5,Q1*
G04 #@! TO.N,/ROMA1*
X137160000Y-64770000D03*
G04 #@! TO.P,U18,6,Q2*
G04 #@! TO.N,/ROMA2*
X139700000Y-64770000D03*
G04 #@! TO.P,U18,7,D2*
G04 #@! TO.N,/E2*
X142240000Y-64770000D03*
G04 #@! TO.P,U18,8,D3*
G04 #@! TO.N,/E3*
X144780000Y-64770000D03*
G04 #@! TO.P,U18,9,Q3*
G04 #@! TO.N,/ROMA3*
X147320000Y-64770000D03*
G04 #@! TO.P,U18,10,GND*
G04 #@! TO.N,GND*
X149860000Y-64770000D03*
G04 #@! TO.P,U18,11,Cp*
G04 #@! TO.N,Net-(U18-Pad11)*
X149860000Y-57150000D03*
G04 #@! TO.P,U18,12,Q4*
G04 #@! TO.N,/ROMA4*
X147320000Y-57150000D03*
G04 #@! TO.P,U18,13,D4*
G04 #@! TO.N,/E4*
X144780000Y-57150000D03*
G04 #@! TO.P,U18,14,D5*
G04 #@! TO.N,/E5*
X142240000Y-57150000D03*
G04 #@! TO.P,U18,15,Q5*
G04 #@! TO.N,/ROMA5*
X139700000Y-57150000D03*
G04 #@! TO.P,U18,16,Q6*
G04 #@! TO.N,/ROMA6*
X137160000Y-57150000D03*
G04 #@! TO.P,U18,17,D6*
G04 #@! TO.N,/E6*
X134620000Y-57150000D03*
G04 #@! TO.P,U18,18,D7*
G04 #@! TO.N,/E7*
X132080000Y-57150000D03*
G04 #@! TO.P,U18,19,Q7*
G04 #@! TO.N,/ROMA7*
X129540000Y-57150000D03*
G04 #@! TO.P,U18,20,VCC*
G04 #@! TO.N,+5V*
X127000000Y-57150000D03*
G04 #@! TD*
D16*
G04 #@! TO.P,R2,1*
G04 #@! TO.N,Net-(C3-Pad2)*
X235585000Y-75565000D03*
D12*
G04 #@! TO.P,R2,2*
G04 #@! TO.N,Net-(R2-Pad2)*
X245745000Y-75565000D03*
G04 #@! TD*
D11*
G04 #@! TO.P,CR1,1,K*
G04 #@! TO.N,Net-(CR1-Pad1)*
X190500000Y-80010000D03*
D12*
G04 #@! TO.P,CR1,2,A*
G04 #@! TO.N,Net-(C2-Pad1)*
X190500000Y-90170000D03*
G04 #@! TD*
D16*
G04 #@! TO.P,R11,1*
G04 #@! TO.N,+5V*
X116840000Y-66040000D03*
D12*
G04 #@! TO.P,R11,2*
G04 #@! TO.N,Net-(Q1-Pad3)*
X106680000Y-66040000D03*
G04 #@! TD*
D22*
G04 #@! TO.P,J2,1,Pin_1*
G04 #@! TO.N,GND*
X102235000Y-55880000D03*
D23*
G04 #@! TO.P,J2,2,Pin_2*
G04 #@! TO.N,/VIDEO*
X102235000Y-58420000D03*
G04 #@! TO.P,J2,3,Pin_3*
G04 #@! TO.N,-5V*
X102235000Y-60960000D03*
G04 #@! TO.P,J2,4,Pin_4*
G04 #@! TO.N,+12V*
X102235000Y-63500000D03*
G04 #@! TO.P,J2,5,Pin_5*
G04 #@! TO.N,unconnected-(J2-Pad5)*
X102235000Y-66040000D03*
G04 #@! TO.P,J2,6,Pin_6*
G04 #@! TO.N,/LIGHT PEN*
X102235000Y-68580000D03*
G04 #@! TD*
D11*
G04 #@! TO.P,C1,1*
G04 #@! TO.N,GND*
X190500000Y-106680000D03*
D16*
G04 #@! TO.P,C1,2*
G04 #@! TO.N,-5V*
X190500000Y-100330000D03*
G04 #@! TD*
G04 #@! TO.P,R1,1*
G04 #@! TO.N,Net-(R1-Pad1)*
X245745000Y-71755000D03*
D12*
G04 #@! TO.P,R1,2*
G04 #@! TO.N,Net-(C3-Pad1)*
X235585000Y-71755000D03*
G04 #@! TD*
D11*
G04 #@! TO.P,U19,1,GND*
G04 #@! TO.N,GND*
X114300000Y-95250000D03*
D12*
G04 #@! TO.P,U19,2,~{RESET}*
G04 #@! TO.N,/~{RES}*
X116840000Y-95250000D03*
G04 #@! TO.P,U19,3,LPSTB*
G04 #@! TO.N,/LIGHT PEN*
X119380000Y-95250000D03*
G04 #@! TO.P,U19,4,MA0*
G04 #@! TO.N,/B0*
X121920000Y-95250000D03*
G04 #@! TO.P,U19,5,MA1*
G04 #@! TO.N,/B1*
X124460000Y-95250000D03*
G04 #@! TO.P,U19,6,MA2*
G04 #@! TO.N,/B2*
X127000000Y-95250000D03*
G04 #@! TO.P,U19,7,MA3*
G04 #@! TO.N,/B3*
X129540000Y-95250000D03*
G04 #@! TO.P,U19,8,MA4*
G04 #@! TO.N,/B4*
X132080000Y-95250000D03*
G04 #@! TO.P,U19,9,MA5*
G04 #@! TO.N,/B5*
X134620000Y-95250000D03*
G04 #@! TO.P,U19,10,MA6*
G04 #@! TO.N,/B6*
X137160000Y-95250000D03*
G04 #@! TO.P,U19,11,MA7*
G04 #@! TO.N,/B7*
X139700000Y-95250000D03*
G04 #@! TO.P,U19,12,MA8*
G04 #@! TO.N,/B8*
X142240000Y-95250000D03*
G04 #@! TO.P,U19,13,MA9*
G04 #@! TO.N,/B9*
X144780000Y-95250000D03*
G04 #@! TO.P,U19,14,MA10*
G04 #@! TO.N,/B10*
X147320000Y-95250000D03*
G04 #@! TO.P,U19,15,MA11*
G04 #@! TO.N,unconnected-(U19-Pad15)*
X149860000Y-95250000D03*
G04 #@! TO.P,U19,16,MA12*
G04 #@! TO.N,unconnected-(U19-Pad16)*
X152400000Y-95250000D03*
G04 #@! TO.P,U19,17,MA13*
G04 #@! TO.N,unconnected-(U19-Pad17)*
X154940000Y-95250000D03*
G04 #@! TO.P,U19,18,DE*
G04 #@! TO.N,Net-(U19-Pad18)*
X157480000Y-95250000D03*
G04 #@! TO.P,U19,19,CURSOR*
G04 #@! TO.N,Net-(U19-Pad19)*
X160020000Y-95250000D03*
G04 #@! TO.P,U19,20,VCC*
G04 #@! TO.N,+5V*
X162560000Y-95250000D03*
G04 #@! TO.P,U19,21,CLK*
G04 #@! TO.N,Net-(U19-Pad21)*
X162560000Y-80010000D03*
G04 #@! TO.P,U19,22,R/~{W}*
G04 #@! TO.N,/R{slash}~{W}*
X160020000Y-80010000D03*
G04 #@! TO.P,U19,23,E*
G04 #@! TO.N,/DEV*
X157480000Y-80010000D03*
G04 #@! TO.P,U19,24,RS*
G04 #@! TO.N,/A0*
X154940000Y-80010000D03*
G04 #@! TO.P,U19,25,~{CS}*
G04 #@! TO.N,GND*
X152400000Y-80010000D03*
G04 #@! TO.P,U19,26,D7*
G04 #@! TO.N,/D7*
X149860000Y-80010000D03*
G04 #@! TO.P,U19,27,D6*
G04 #@! TO.N,/D6*
X147320000Y-80010000D03*
G04 #@! TO.P,U19,28,D5*
G04 #@! TO.N,/D5*
X144780000Y-80010000D03*
G04 #@! TO.P,U19,29,D4*
G04 #@! TO.N,/D4*
X142240000Y-80010000D03*
G04 #@! TO.P,U19,30,D3*
G04 #@! TO.N,/D3*
X139700000Y-80010000D03*
G04 #@! TO.P,U19,31,D2*
G04 #@! TO.N,/D2*
X137160000Y-80010000D03*
G04 #@! TO.P,U19,32,D1*
G04 #@! TO.N,/D1*
X134620000Y-80010000D03*
G04 #@! TO.P,U19,33,D0*
G04 #@! TO.N,/D0*
X132080000Y-80010000D03*
G04 #@! TO.P,U19,34,RA4*
G04 #@! TO.N,unconnected-(U19-Pad34)*
X129540000Y-80010000D03*
G04 #@! TO.P,U19,35,RA3*
G04 #@! TO.N,/RA3*
X127000000Y-80010000D03*
G04 #@! TO.P,U19,36,RA2*
G04 #@! TO.N,/RA2*
X124460000Y-80010000D03*
G04 #@! TO.P,U19,37,RA1*
G04 #@! TO.N,/RA1*
X121920000Y-80010000D03*
G04 #@! TO.P,U19,38,RA0*
G04 #@! TO.N,/RA0*
X119380000Y-80010000D03*
G04 #@! TO.P,U19,39,HS*
G04 #@! TO.N,/HSYNC*
X116840000Y-80010000D03*
G04 #@! TO.P,U19,40,VS*
G04 #@! TO.N,/VSYNC*
X114300000Y-80010000D03*
G04 #@! TD*
D24*
G04 #@! TO.P,Y1,1,1*
G04 #@! TO.N,Net-(R1-Pad1)*
X239395000Y-80010000D03*
G04 #@! TO.P,Y1,2,2*
G04 #@! TO.N,Net-(R2-Pad2)*
X244422000Y-80010000D03*
G04 #@! TD*
D11*
G04 #@! TO.P,U1,1*
G04 #@! TO.N,Net-(U1-Pad1)*
X215900000Y-116840000D03*
D12*
G04 #@! TO.P,U1,2*
G04 #@! TO.N,+5V*
X218440000Y-116840000D03*
G04 #@! TO.P,U1,3*
G04 #@! TO.N,Net-(R9-Pad1)*
X220980000Y-116840000D03*
G04 #@! TO.P,U1,4*
G04 #@! TO.N,/~{IO_SELECT}*
X223520000Y-116840000D03*
G04 #@! TO.P,U1,5*
G04 #@! TO.N,+5V*
X226060000Y-116840000D03*
G04 #@! TO.P,U1,6*
G04 #@! TO.N,Net-(U1-Pad6)*
X228600000Y-116840000D03*
G04 #@! TO.P,U1,7,GND*
G04 #@! TO.N,GND*
X231140000Y-116840000D03*
G04 #@! TO.P,U1,8*
G04 #@! TO.N,Net-(U1-Pad8)*
X231140000Y-109220000D03*
G04 #@! TO.P,U1,9*
G04 #@! TO.N,Net-(U1-Pad9)*
X228600000Y-109220000D03*
G04 #@! TO.P,U1,10*
G04 #@! TO.N,Net-(U1-Pad10)*
X226060000Y-109220000D03*
G04 #@! TO.P,U1,11*
G04 #@! TO.N,/DEV*
X223520000Y-109220000D03*
G04 #@! TO.P,U1,12*
G04 #@! TO.N,/~{DEV}*
X220980000Y-109220000D03*
G04 #@! TO.P,U1,13*
G04 #@! TO.N,+5V*
X218440000Y-109220000D03*
G04 #@! TO.P,U1,14,VCC*
X215900000Y-109220000D03*
G04 #@! TD*
D25*
G04 #@! TO.P,X7,3,B*
G04 #@! TO.N,Net-(U22-Pad10)*
X244366105Y-99615641D03*
D26*
G04 #@! TO.P,X7,2,C*
G04 #@! TO.N,Net-(U1-Pad9)*
X244246400Y-101033905D03*
D27*
G04 #@! TO.P,X7,1,A*
G04 #@! TO.N,Net-(U22-Pad11)*
X242958295Y-100428441D03*
G04 #@! TD*
D16*
G04 #@! TO.P,C5,1*
G04 #@! TO.N,+5V*
X109220000Y-69850000D03*
D12*
G04 #@! TO.P,C5,2*
G04 #@! TO.N,GND*
X115570000Y-69850000D03*
G04 #@! TD*
D11*
G04 #@! TO.P,U7,1,Q*
G04 #@! TO.N,unconnected-(U7-Pad1)*
X194310000Y-111760000D03*
D12*
G04 #@! TO.P,U7,2,~{Q}*
G04 #@! TO.N,Net-(U2-Pad5)*
X196850000Y-111760000D03*
G04 #@! TO.P,U7,3,C*
G04 #@! TO.N,Net-(U7-Pad3)*
X199390000Y-111760000D03*
G04 #@! TO.P,U7,4,R*
G04 #@! TO.N,GND*
X201930000Y-111760000D03*
G04 #@! TO.P,U7,5,D*
X204470000Y-111760000D03*
G04 #@! TO.P,U7,6,S*
G04 #@! TO.N,Net-(U1-Pad6)*
X207010000Y-111760000D03*
G04 #@! TO.P,U7,7,VSS*
G04 #@! TO.N,GND*
X209550000Y-111760000D03*
G04 #@! TO.P,U7,8,S*
X209550000Y-104140000D03*
G04 #@! TO.P,U7,9,D*
G04 #@! TO.N,/A1*
X207010000Y-104140000D03*
G04 #@! TO.P,U7,10,R*
G04 #@! TO.N,GND*
X204470000Y-104140000D03*
G04 #@! TO.P,U7,11,C*
G04 #@! TO.N,/DEV*
X201930000Y-104140000D03*
G04 #@! TO.P,U7,12,~{Q}*
G04 #@! TO.N,unconnected-(U7-Pad12)*
X199390000Y-104140000D03*
G04 #@! TO.P,U7,13,Q*
G04 #@! TO.N,Net-(U23-Pad3)*
X196850000Y-104140000D03*
G04 #@! TO.P,U7,14,VDD*
G04 #@! TO.N,+5V*
X194310000Y-104140000D03*
G04 #@! TD*
D11*
G04 #@! TO.P,U3,1,A7*
G04 #@! TO.N,/A7*
X168910000Y-92710000D03*
D12*
G04 #@! TO.P,U3,2,A6*
G04 #@! TO.N,/A6*
X168910000Y-95250000D03*
G04 #@! TO.P,U3,3,A5*
G04 #@! TO.N,/A5*
X168910000Y-97790000D03*
G04 #@! TO.P,U3,4,A4*
G04 #@! TO.N,/A4*
X168910000Y-100330000D03*
G04 #@! TO.P,U3,5,A3*
G04 #@! TO.N,/A3*
X168910000Y-102870000D03*
G04 #@! TO.P,U3,6,A2*
G04 #@! TO.N,/A2*
X168910000Y-105410000D03*
G04 #@! TO.P,U3,7,A1*
G04 #@! TO.N,/A1*
X168910000Y-107950000D03*
G04 #@! TO.P,U3,8,A0*
G04 #@! TO.N,/A0*
X168910000Y-110490000D03*
G04 #@! TO.P,U3,9,D0*
G04 #@! TO.N,/D0*
X168910000Y-113030000D03*
G04 #@! TO.P,U3,10,D1*
G04 #@! TO.N,/D1*
X168910000Y-115570000D03*
G04 #@! TO.P,U3,11,D2*
G04 #@! TO.N,/D2*
X168910000Y-118110000D03*
G04 #@! TO.P,U3,12,GND*
G04 #@! TO.N,GND*
X168910000Y-120650000D03*
G04 #@! TO.P,U3,13,D3*
G04 #@! TO.N,/D3*
X184150000Y-120650000D03*
G04 #@! TO.P,U3,14,D4*
G04 #@! TO.N,/D4*
X184150000Y-118110000D03*
G04 #@! TO.P,U3,15,D5*
G04 #@! TO.N,/D5*
X184150000Y-115570000D03*
G04 #@! TO.P,U3,16,D6*
G04 #@! TO.N,/D6*
X184150000Y-113030000D03*
G04 #@! TO.P,U3,17,D7*
G04 #@! TO.N,/D7*
X184150000Y-110490000D03*
G04 #@! TO.P,U3,18,~{CE}/PGM*
G04 #@! TO.N,GND*
X184150000Y-107950000D03*
G04 #@! TO.P,U3,19,A10*
X184150000Y-105410000D03*
G04 #@! TO.P,U3,20,~{OE}*
G04 #@! TO.N,/Firmware/~{OE}*
X184150000Y-102870000D03*
G04 #@! TO.P,U3,21,VPP*
G04 #@! TO.N,+5V*
X184150000Y-100330000D03*
G04 #@! TO.P,U3,22,A9*
G04 #@! TO.N,/Firmware/A9*
X184150000Y-97790000D03*
G04 #@! TO.P,U3,23,A8*
G04 #@! TO.N,/A8*
X184150000Y-95250000D03*
G04 #@! TO.P,U3,24,VCC*
G04 #@! TO.N,+5V*
X184150000Y-92710000D03*
G04 #@! TD*
D11*
G04 #@! TO.P,U8,1,Q*
G04 #@! TO.N,/fA9*
X215900000Y-104140000D03*
D12*
G04 #@! TO.P,U8,2,~{Q}*
G04 #@! TO.N,unconnected-(U8-Pad2)*
X218440000Y-104140000D03*
G04 #@! TO.P,U8,3,C*
G04 #@! TO.N,/DEV*
X220980000Y-104140000D03*
G04 #@! TO.P,U8,4,R*
G04 #@! TO.N,GND*
X223520000Y-104140000D03*
G04 #@! TO.P,U8,5,D*
G04 #@! TO.N,/A2*
X226060000Y-104140000D03*
G04 #@! TO.P,U8,6,S*
G04 #@! TO.N,GND*
X228600000Y-104140000D03*
G04 #@! TO.P,U8,7,VSS*
X231140000Y-104140000D03*
G04 #@! TO.P,U8,8,S*
X231140000Y-96520000D03*
G04 #@! TO.P,U8,9,D*
G04 #@! TO.N,/A3*
X228600000Y-96520000D03*
G04 #@! TO.P,U8,10,R*
G04 #@! TO.N,GND*
X226060000Y-96520000D03*
G04 #@! TO.P,U8,11,C*
G04 #@! TO.N,/DEV*
X223520000Y-96520000D03*
G04 #@! TO.P,U8,12,~{Q}*
G04 #@! TO.N,unconnected-(U8-Pad12)*
X220980000Y-96520000D03*
G04 #@! TO.P,U8,13,Q*
G04 #@! TO.N,/fA10*
X218440000Y-96520000D03*
G04 #@! TO.P,U8,14,VDD*
G04 #@! TO.N,+5V*
X215900000Y-96520000D03*
G04 #@! TD*
D11*
G04 #@! TO.P,U6,1*
G04 #@! TO.N,Net-(U4-Pad2)*
X194310000Y-83820000D03*
D12*
G04 #@! TO.P,U6,2*
G04 #@! TO.N,/~{IO_SELECT}*
X196850000Y-83820000D03*
G04 #@! TO.P,U6,3*
G04 #@! TO.N,/Firmware/A9*
X199390000Y-83820000D03*
G04 #@! TO.P,U6,4*
G04 #@! TO.N,Net-(U22-Pad7)*
X201930000Y-83820000D03*
G04 #@! TO.P,U6,5*
G04 #@! TO.N,Net-(U1-Pad8)*
X204470000Y-83820000D03*
G04 #@! TO.P,U6,6*
G04 #@! TO.N,Net-(U1-Pad1)*
X207010000Y-83820000D03*
G04 #@! TO.P,U6,7,GND*
G04 #@! TO.N,GND*
X209550000Y-83820000D03*
G04 #@! TO.P,U6,8*
G04 #@! TO.N,Net-(U18-Pad11)*
X209550000Y-76200000D03*
G04 #@! TO.P,U6,9*
G04 #@! TO.N,Net-(U19-Pad21)*
X207010000Y-76200000D03*
G04 #@! TO.P,U6,10*
G04 #@! TO.N,Net-(U23-Pad12)*
X204470000Y-76200000D03*
G04 #@! TO.P,U6,11*
G04 #@! TO.N,/RAM_~{A}{slash}B*
X201930000Y-76200000D03*
G04 #@! TO.P,U6,12*
G04 #@! TO.N,Net-(U2-Pad4)*
X199390000Y-76200000D03*
G04 #@! TO.P,U6,13*
G04 #@! TO.N,Net-(U4-Pad12)*
X196850000Y-76200000D03*
G04 #@! TO.P,U6,14,VCC*
G04 #@! TO.N,+5V*
X194310000Y-76200000D03*
G04 #@! TD*
G04 #@! TO.P,U16,16,VCC*
G04 #@! TO.N,+5V*
X157480000Y-100330000D03*
G04 #@! TO.P,U16,15,E*
G04 #@! TO.N,GND*
X157480000Y-102870000D03*
G04 #@! TO.P,U16,14,I0d*
X157480000Y-105410000D03*
G04 #@! TO.P,U16,13,I1d*
X157480000Y-107950000D03*
G04 #@! TO.P,U16,12,Zd*
G04 #@! TO.N,/SRAM/RAMA11*
X157480000Y-110490000D03*
G04 #@! TO.P,U16,11,I0c*
G04 #@! TO.N,/fA10*
X157480000Y-113030000D03*
G04 #@! TO.P,U16,10,I1c*
G04 #@! TO.N,/B10*
X157480000Y-115570000D03*
G04 #@! TO.P,U16,9,Zc*
G04 #@! TO.N,/SRAM/RAMA10*
X157480000Y-118110000D03*
G04 #@! TO.P,U16,8,GND*
G04 #@! TO.N,GND*
X149860000Y-118110000D03*
G04 #@! TO.P,U16,7,Zb*
G04 #@! TO.N,/SRAM/RAMA9*
X149860000Y-115570000D03*
G04 #@! TO.P,U16,6,I1b*
G04 #@! TO.N,/B9*
X149860000Y-113030000D03*
G04 #@! TO.P,U16,5,I0b*
G04 #@! TO.N,/fA9*
X149860000Y-110490000D03*
G04 #@! TO.P,U16,4,Za*
G04 #@! TO.N,/SRAM/RAMA8*
X149860000Y-107950000D03*
G04 #@! TO.P,U16,3,I1a*
G04 #@! TO.N,/B8*
X149860000Y-105410000D03*
G04 #@! TO.P,U16,2,I0a*
G04 #@! TO.N,/A8*
X149860000Y-102870000D03*
D11*
G04 #@! TO.P,U16,1,S*
G04 #@! TO.N,/RAM_~{A}{slash}B*
X149860000Y-100330000D03*
G04 #@! TD*
D16*
G04 #@! TO.P,C2,1*
G04 #@! TO.N,Net-(C2-Pad1)*
X212725000Y-90170000D03*
D12*
G04 #@! TO.P,C2,2*
G04 #@! TO.N,GND*
X212725000Y-83820000D03*
G04 #@! TD*
D11*
G04 #@! TO.P,U10N28,1,A14*
G04 #@! TO.N,+5V*
X102870000Y-86360000D03*
D12*
G04 #@! TO.P,U10N28,2,A12*
X102870000Y-88900000D03*
G04 #@! TO.P,U10N28,3,A7*
G04 #@! TO.N,/SRAM/RAMA5*
X102870000Y-91440000D03*
G04 #@! TO.P,U10N28,4,A6*
G04 #@! TO.N,/SRAM/RAMA3*
X102870000Y-93980000D03*
G04 #@! TO.P,U10N28,5,A5*
G04 #@! TO.N,/SRAM/RAMA0*
X102870000Y-96520000D03*
G04 #@! TO.P,U10N28,6,A4*
G04 #@! TO.N,/SRAM/RAMA2*
X102870000Y-99060000D03*
G04 #@! TO.P,U10N28,7,A3*
G04 #@! TO.N,/SRAM/RAMA10*
X102870000Y-101600000D03*
G04 #@! TO.P,U10N28,8,A2*
G04 #@! TO.N,/SRAM/RAMA6*
X102870000Y-104140000D03*
G04 #@! TO.P,U10N28,9,A1*
G04 #@! TO.N,/SRAM/RAMA8*
X102870000Y-106680000D03*
G04 #@! TO.P,U10N28,10,A0*
G04 #@! TO.N,/SRAM/RAMA9*
X102870000Y-109220000D03*
G04 #@! TO.P,U10N28,11,Q0*
G04 #@! TO.N,/E0*
X102870000Y-111760000D03*
G04 #@! TO.P,U10N28,12,Q1*
G04 #@! TO.N,/E1*
X102870000Y-114300000D03*
G04 #@! TO.P,U10N28,13,Q2*
G04 #@! TO.N,/E2*
X102870000Y-116840000D03*
G04 #@! TO.P,U10N28,14,GND*
G04 #@! TO.N,GND*
X102870000Y-119380000D03*
G04 #@! TO.P,U10N28,15,Q3*
G04 #@! TO.N,/E3*
X110490000Y-119380000D03*
G04 #@! TO.P,U10N28,16,Q4*
G04 #@! TO.N,/E4*
X110490000Y-116840000D03*
G04 #@! TO.P,U10N28,17,Q5*
G04 #@! TO.N,/E5*
X110490000Y-114300000D03*
G04 #@! TO.P,U10N28,18,Q6*
G04 #@! TO.N,/E6*
X110490000Y-111760000D03*
G04 #@! TO.P,U10N28,19,Q7*
G04 #@! TO.N,/E7*
X110490000Y-109220000D03*
G04 #@! TO.P,U10N28,20,~{CS}*
G04 #@! TO.N,GND*
X110490000Y-106680000D03*
G04 #@! TO.P,U10N28,21,A10*
G04 #@! TO.N,/SRAM/RAMA1*
X110490000Y-104140000D03*
G04 #@! TO.P,U10N28,22,~{OE}*
G04 #@! TO.N,GND*
X110490000Y-101600000D03*
G04 #@! TO.P,U10N28,23,A11*
G04 #@! TO.N,Net-(U10-Pad21)*
X110490000Y-99060000D03*
G04 #@! TO.P,U10N28,24,A9*
G04 #@! TO.N,/SRAM/RAMA7*
X110490000Y-96520000D03*
G04 #@! TO.P,U10N28,25,A8*
G04 #@! TO.N,/SRAM/RAMA4*
X110490000Y-93980000D03*
G04 #@! TO.P,U10N28,26,A13*
G04 #@! TO.N,+5V*
X110490000Y-91440000D03*
G04 #@! TO.P,U10N28,27,~{WE}*
G04 #@! TO.N,/SRAM/RAM_R{slash}~{W}*
X110490000Y-88900000D03*
G04 #@! TO.P,U10N28,28,VCC*
G04 #@! TO.N,+5V*
X110490000Y-86360000D03*
G04 #@! TD*
D11*
G04 #@! TO.P,U23,1,~{MR}*
G04 #@! TO.N,+5V*
X227330000Y-64770000D03*
D12*
G04 #@! TO.P,U23,2,CP*
G04 #@! TO.N,Net-(U21-Pad7)*
X229870000Y-64770000D03*
G04 #@! TO.P,U23,3,D0*
G04 #@! TO.N,Net-(U23-Pad3)*
X232410000Y-64770000D03*
G04 #@! TO.P,U23,4,D1*
G04 #@! TO.N,GND*
X234950000Y-64770000D03*
G04 #@! TO.P,U23,5,D2*
G04 #@! TO.N,+5V*
X237490000Y-64770000D03*
G04 #@! TO.P,U23,6,D3*
G04 #@! TO.N,GND*
X240030000Y-64770000D03*
G04 #@! TO.P,U23,7,CEP*
G04 #@! TO.N,+5V*
X242570000Y-64770000D03*
G04 #@! TO.P,U23,8,GND*
G04 #@! TO.N,GND*
X245110000Y-64770000D03*
G04 #@! TO.P,U23,9,~{PE}*
G04 #@! TO.N,Net-(U18-Pad11)*
X245110000Y-57150000D03*
G04 #@! TO.P,U23,10,CET*
G04 #@! TO.N,+5V*
X242570000Y-57150000D03*
G04 #@! TO.P,U23,11,Q3*
G04 #@! TO.N,Net-(U19-Pad21)*
X240030000Y-57150000D03*
G04 #@! TO.P,U23,12,Q2*
G04 #@! TO.N,Net-(U23-Pad12)*
X237490000Y-57150000D03*
G04 #@! TO.P,U23,13,Q1*
G04 #@! TO.N,unconnected-(U23-Pad13)*
X234950000Y-57150000D03*
G04 #@! TO.P,U23,14,Q0*
G04 #@! TO.N,unconnected-(U23-Pad14)*
X232410000Y-57150000D03*
G04 #@! TO.P,U23,15,TC*
G04 #@! TO.N,unconnected-(U23-Pad15)*
X229870000Y-57150000D03*
G04 #@! TO.P,U23,16,VCC*
G04 #@! TO.N,+5V*
X227330000Y-57150000D03*
G04 #@! TD*
D16*
G04 #@! TO.P,R9,1*
G04 #@! TO.N,Net-(R9-Pad1)*
X212725000Y-111760000D03*
D12*
G04 #@! TO.P,R9,2*
G04 #@! TO.N,Net-(Q1-Pad2)*
X212725000Y-101600000D03*
G04 #@! TD*
D28*
G04 #@! TO.P,J1,1,~{IO_SELECT}*
G04 #@! TO.N,/~{IO_SELECT}*
X171450000Y-127000000D03*
G04 #@! TO.P,J1,2,A00*
G04 #@! TO.N,/A0*
X173990000Y-127000000D03*
G04 #@! TO.P,J1,3,A01*
G04 #@! TO.N,/A1*
X176530000Y-127000000D03*
G04 #@! TO.P,J1,4,A02*
G04 #@! TO.N,/A2*
X179070000Y-127000000D03*
G04 #@! TO.P,J1,5,A03*
G04 #@! TO.N,/A3*
X181610000Y-127000000D03*
G04 #@! TO.P,J1,6,A04*
G04 #@! TO.N,/A4*
X184150000Y-127000000D03*
G04 #@! TO.P,J1,7,A05*
G04 #@! TO.N,/A5*
X186690000Y-127000000D03*
G04 #@! TO.P,J1,8,A06*
G04 #@! TO.N,/A6*
X189230000Y-127000000D03*
G04 #@! TO.P,J1,9,A07*
G04 #@! TO.N,/A7*
X191770000Y-127000000D03*
G04 #@! TO.P,J1,10,A08*
G04 #@! TO.N,/A8*
X194310000Y-127000000D03*
G04 #@! TO.P,J1,11,A09*
G04 #@! TO.N,/A9*
X196850000Y-127000000D03*
G04 #@! TO.P,J1,12,A10*
G04 #@! TO.N,/A10*
X199390000Y-127000000D03*
G04 #@! TO.P,J1,13,A11*
G04 #@! TO.N,/A11*
X201930000Y-127000000D03*
G04 #@! TO.P,J1,14,A12*
G04 #@! TO.N,/A12*
X204470000Y-127000000D03*
G04 #@! TO.P,J1,15,A13*
G04 #@! TO.N,/A13*
X207010000Y-127000000D03*
G04 #@! TO.P,J1,16,A14*
G04 #@! TO.N,/A14*
X209550000Y-127000000D03*
G04 #@! TO.P,J1,17,A15*
G04 #@! TO.N,/A15*
X212090000Y-127000000D03*
G04 #@! TO.P,J1,18,R/~{W}*
G04 #@! TO.N,/R{slash}~{W}*
X214630000Y-127000000D03*
G04 #@! TO.P,J1,19,N.C.*
G04 #@! TO.N,unconnected-(J1-Pad19)*
X217170000Y-127000000D03*
G04 #@! TO.P,J1,20,~{I/O_STROBE}*
G04 #@! TO.N,/~{IO_STROBE}*
X219710000Y-127000000D03*
G04 #@! TO.P,J1,21,RDY*
G04 #@! TO.N,/RDY*
X222250000Y-127000000D03*
G04 #@! TO.P,J1,22,~{DMA}*
G04 #@! TO.N,/~{DMA}*
X224790000Y-127000000D03*
G04 #@! TO.P,J1,23,INT_OUT*
G04 #@! TO.N,/INT_IN*
X227330000Y-127000000D03*
G04 #@! TO.P,J1,24,DMA_OUT*
G04 #@! TO.N,/DMA_IN*
X229870000Y-127000000D03*
G04 #@! TO.P,J1,25,+5V*
G04 #@! TO.N,+5V*
X232410000Y-127000000D03*
G04 #@! TD*
D16*
G04 #@! TO.P,R12,1*
G04 #@! TO.N,Net-(Q1-Pad1)*
X106680000Y-62230000D03*
D12*
G04 #@! TO.P,R12,2*
G04 #@! TO.N,/VIDEO*
X116840000Y-62230000D03*
G04 #@! TD*
D16*
G04 #@! TO.P,R13,1*
G04 #@! TO.N,/VIDEO*
X113030000Y-58420000D03*
D12*
G04 #@! TO.P,R13,2*
G04 #@! TO.N,GND*
X123190000Y-58420000D03*
G04 #@! TD*
D11*
G04 #@! TO.P,U10,1,A7*
G04 #@! TO.N,/SRAM/RAMA5*
X102870000Y-91440000D03*
D12*
G04 #@! TO.P,U10,2,A6*
G04 #@! TO.N,/SRAM/RAMA3*
X102870000Y-93980000D03*
G04 #@! TO.P,U10,3,A5*
G04 #@! TO.N,/SRAM/RAMA0*
X102870000Y-96520000D03*
G04 #@! TO.P,U10,4,A4*
G04 #@! TO.N,/SRAM/RAMA2*
X102870000Y-99060000D03*
G04 #@! TO.P,U10,5,A3*
G04 #@! TO.N,/SRAM/RAMA10*
X102870000Y-101600000D03*
G04 #@! TO.P,U10,6,A2*
G04 #@! TO.N,/SRAM/RAMA6*
X102870000Y-104140000D03*
G04 #@! TO.P,U10,7,A1*
G04 #@! TO.N,/SRAM/RAMA8*
X102870000Y-106680000D03*
G04 #@! TO.P,U10,8,A0*
G04 #@! TO.N,/SRAM/RAMA9*
X102870000Y-109220000D03*
G04 #@! TO.P,U10,9,DQ1*
G04 #@! TO.N,/E0*
X102870000Y-111760000D03*
G04 #@! TO.P,U10,10,DQ2*
G04 #@! TO.N,/E1*
X102870000Y-114300000D03*
G04 #@! TO.P,U10,11,DQ3*
G04 #@! TO.N,/E2*
X102870000Y-116840000D03*
G04 #@! TO.P,U10,12,GND*
G04 #@! TO.N,GND*
X102870000Y-119380000D03*
G04 #@! TO.P,U10,13,DQ4*
G04 #@! TO.N,/E3*
X110490000Y-119380000D03*
G04 #@! TO.P,U10,14,DQ5*
G04 #@! TO.N,/E4*
X110490000Y-116840000D03*
G04 #@! TO.P,U10,15,DQ6*
G04 #@! TO.N,/E5*
X110490000Y-114300000D03*
G04 #@! TO.P,U10,16,DQ7*
G04 #@! TO.N,/E6*
X110490000Y-111760000D03*
G04 #@! TO.P,U10,17,DQ8*
G04 #@! TO.N,/E7*
X110490000Y-109220000D03*
G04 #@! TO.P,U10,18,~{CS}*
G04 #@! TO.N,GND*
X110490000Y-106680000D03*
G04 #@! TO.P,U10,19,A10*
G04 #@! TO.N,/SRAM/RAMA1*
X110490000Y-104140000D03*
G04 #@! TO.P,U10,20,~{OE}*
G04 #@! TO.N,GND*
X110490000Y-101600000D03*
G04 #@! TO.P,U10,21,~{WE}*
G04 #@! TO.N,Net-(U10-Pad21)*
X110490000Y-99060000D03*
G04 #@! TO.P,U10,22,A9*
G04 #@! TO.N,/SRAM/RAMA7*
X110490000Y-96520000D03*
G04 #@! TO.P,U10,23,A8*
G04 #@! TO.N,/SRAM/RAMA4*
X110490000Y-93980000D03*
G04 #@! TO.P,U10,24,VCC*
G04 #@! TO.N,+5V*
X110490000Y-91440000D03*
G04 #@! TD*
D11*
G04 #@! TO.P,U20B1,1,VPP*
G04 #@! TO.N,+5V*
X161290000Y-72390000D03*
D12*
G04 #@! TO.P,U20B1,2,A12*
X163830000Y-72390000D03*
G04 #@! TO.P,U20B1,3,A7*
G04 #@! TO.N,/ROMA3*
X166370000Y-72390000D03*
G04 #@! TO.P,U20B1,4,A6*
G04 #@! TO.N,/ROMA2*
X168910000Y-72390000D03*
G04 #@! TO.P,U20B1,5,A5*
G04 #@! TO.N,/ROMA1*
X171450000Y-72390000D03*
G04 #@! TO.P,U20B1,6,A4*
G04 #@! TO.N,/ROMA0*
X173990000Y-72390000D03*
G04 #@! TO.P,U20B1,7,A3*
G04 #@! TO.N,/RA3*
X176530000Y-72390000D03*
G04 #@! TO.P,U20B1,8,A2*
G04 #@! TO.N,/RA2*
X179070000Y-72390000D03*
G04 #@! TO.P,U20B1,9,A1*
G04 #@! TO.N,/RA1*
X181610000Y-72390000D03*
G04 #@! TO.P,U20B1,10,A0*
G04 #@! TO.N,/RA0*
X184150000Y-72390000D03*
G04 #@! TO.P,U20B1,11,D0*
G04 #@! TO.N,/ROMD0*
X186690000Y-72390000D03*
G04 #@! TO.P,U20B1,12,D1*
G04 #@! TO.N,/ROMD1*
X189230000Y-72390000D03*
G04 #@! TO.P,U20B1,13,D2*
G04 #@! TO.N,/ROMD2*
X191770000Y-72390000D03*
G04 #@! TO.P,U20B1,14,GND*
G04 #@! TO.N,GND*
X194310000Y-72390000D03*
G04 #@! TO.P,U20B1,15,D3*
G04 #@! TO.N,/ROMD3*
X194310000Y-57150000D03*
G04 #@! TO.P,U20B1,16,D4*
G04 #@! TO.N,/ROMD4*
X191770000Y-57150000D03*
G04 #@! TO.P,U20B1,17,D5*
G04 #@! TO.N,/ROMD5*
X189230000Y-57150000D03*
G04 #@! TO.P,U20B1,18,D6*
G04 #@! TO.N,/ROMD6*
X186690000Y-57150000D03*
G04 #@! TO.P,U20B1,19,D7*
G04 #@! TO.N,/ROMD7*
X184150000Y-57150000D03*
G04 #@! TO.P,U20B1,20,~{CE}*
G04 #@! TO.N,GND*
X181610000Y-57150000D03*
G04 #@! TO.P,U20B1,21,A10*
G04 #@! TO.N,/ROMA6*
X179070000Y-57150000D03*
G04 #@! TO.P,U20B1,22,~{OE}*
G04 #@! TO.N,GND*
X176530000Y-57150000D03*
G04 #@! TO.P,U20B1,23,A11*
G04 #@! TO.N,/ROMA7*
X173990000Y-57150000D03*
G04 #@! TO.P,U20B1,24,A9*
G04 #@! TO.N,/ROMA5*
X171450000Y-57150000D03*
G04 #@! TO.P,U20B1,25,A8*
G04 #@! TO.N,/ROMA4*
X168910000Y-57150000D03*
G04 #@! TO.P,U20B1,26,A13*
G04 #@! TO.N,+5V*
X166370000Y-57150000D03*
G04 #@! TO.P,U20B1,27,~{PGM}*
X163830000Y-57150000D03*
G04 #@! TO.P,U20B1,28,VCC*
X161290000Y-57150000D03*
G04 #@! TD*
D29*
G04 #@! TO.N,/SRAM/RAM_R{slash}~{W}*
X116205000Y-112395000D03*
G04 #@! TO.N,/SRAM/RAMA11*
X113665000Y-112395000D03*
G04 #@! TO.N,Net-(U10-Pad21)*
X113665000Y-109220000D03*
G04 #@! TO.N,GND*
X184150000Y-64770000D03*
X128270000Y-93599000D03*
X227965000Y-81915000D03*
D30*
G04 #@! TO.N,+5V*
X164592000Y-83947000D03*
D29*
X146050000Y-107950000D03*
X143510000Y-89535000D03*
X217678000Y-89027000D03*
X165100000Y-101600000D03*
G04 #@! TO.N,Net-(Q1-Pad2)*
X185420000Y-74041000D03*
X185420000Y-79375000D03*
G04 #@! TO.N,/A0*
X163830000Y-107315000D03*
X152400000Y-88773000D03*
G04 #@! TO.N,/A8*
X176530000Y-95885000D03*
G04 #@! TO.N,/E4*
X140970000Y-67564000D03*
G04 #@! TO.N,/E5*
X143510000Y-67564000D03*
G04 #@! TO.N,/E6*
X146050000Y-69850000D03*
G04 #@! TO.N,/E7*
X148590000Y-69850000D03*
G04 #@! TO.N,/fA10*
X218440000Y-99695000D03*
X172085000Y-109220000D03*
X166370000Y-105410000D03*
G04 #@! TO.N,/Q3*
X204470000Y-121920000D03*
G04 #@! TO.N,/ROMA7*
X213995000Y-71755000D03*
X238125000Y-99822000D03*
X205105000Y-71120000D03*
X224790000Y-74803000D03*
G04 #@! TO.N,/~{RES}*
X164465000Y-116840000D03*
G04 #@! TO.N,Net-(U19-Pad18)*
X221996000Y-87757000D03*
G04 #@! TO.N,/~{IO_SELECT}*
X200660000Y-114935000D03*
X171450000Y-113030000D03*
G04 #@! TO.N,/INT_IN*
X227330000Y-121920000D03*
G04 #@! TO.N,/DMA_IN*
X229870000Y-121920000D03*
G04 #@! TO.N,-5V*
X210820000Y-71755000D03*
X212090000Y-121920000D03*
X186055000Y-100330000D03*
G04 #@! TO.N,/~{DEV}*
X207645000Y-116205000D03*
G04 #@! TO.N,/HSYNC*
X176530000Y-90170000D03*
G04 #@! TO.N,/VSYNC*
X176530000Y-93980000D03*
G04 #@! TO.N,/SRAM/RAMA5*
X117475000Y-104140000D03*
G04 #@! TO.N,/SRAM/RAMA3*
X117475000Y-106680000D03*
G04 #@! TO.N,/SRAM/RAMA2*
X111760000Y-118110000D03*
G04 #@! TO.N,/SRAM/RAMA7*
X117475000Y-99060000D03*
G04 #@! TO.N,/SRAM/RAMA4*
X117475000Y-101600000D03*
G04 #@! TO.N,/SRAM/RAMA11*
X114935000Y-97790000D03*
G04 #@! TO.N,/RAM_~{A}{slash}B*
X181610000Y-80010000D03*
G04 #@! TO.N,/Firmware/~{OE}*
X195580000Y-105410000D03*
G04 #@! TO.N,/Firmware/A9*
X188595000Y-85090000D03*
G04 #@! TD*
D31*
G04 #@! TO.N,/A10*
X175260022Y-83928949D02*
G75*
G03*
X176530001Y-86994999I4335978J-51D01*
G01*
X175260000Y-83928949D02*
X175260000Y-83820000D01*
G04 #@! TO.N,-5V*
X206375007Y-120014993D02*
G75*
G03*
X210974076Y-121920000I4599093J4599093D01*
G01*
X186055015Y-100329985D02*
G75*
G02*
X187325000Y-103396051I-3066015J-3066015D01*
G01*
X193477933Y-114497067D02*
G75*
G03*
X200667292Y-117475000I7189367J7189367D01*
G01*
X201930000Y-117475007D02*
G75*
G02*
X205182039Y-118822039I0J-4599093D01*
G01*
X187325011Y-105146975D02*
G75*
G03*
X187960000Y-106680000I2167989J-25D01*
G01*
X206375000Y-120015000D02*
X205182039Y-118822039D01*
X212090000Y-121920000D02*
X210974076Y-121920000D01*
X201930000Y-117475000D02*
X200667292Y-117475000D01*
X193477931Y-114497069D02*
X187960000Y-106680000D01*
X187325000Y-105146975D02*
X187325000Y-103396051D01*
G04 #@! TO.N,/Q3*
X186055000Y-103505000D02*
X186055000Y-104047554D01*
X187197986Y-106807014D02*
G75*
G02*
X186055000Y-104047554I2759414J2759414D01*
G01*
X186055000Y-103505000D02*
G75*
G03*
X184150000Y-101600000I-1905000J0D01*
G01*
G04 #@! TO.N,/A10*
X185869013Y-106494013D02*
X186055000Y-106680000D01*
X185869018Y-106494008D02*
G75*
G02*
X185420000Y-105410000I1083982J1084008D01*
G01*
X184150000Y-104140007D02*
G75*
G02*
X183065987Y-103690987I0J1533007D01*
G01*
X182880000Y-103505000D02*
X183065987Y-103690987D01*
X185420000Y-105410000D02*
G75*
G03*
X184150000Y-104140000I-1270000J0D01*
G01*
X180340000Y-98425000D02*
X182880000Y-103505000D01*
X190500000Y-113030000D02*
X186055000Y-106680000D01*
X194310000Y-117475000D02*
X190500000Y-113030000D01*
X173355000Y-81915000D02*
G75*
G03*
X171450000Y-83820000I0J-1905000D01*
G01*
X180340000Y-96193153D02*
X180340000Y-98425000D01*
X180340019Y-96193153D02*
G75*
G03*
X176530000Y-86995000I-13008219J-47D01*
G01*
X175260000Y-83820000D02*
G75*
G03*
X173355000Y-81915000I-1905000J0D01*
G01*
X196246910Y-119411911D02*
X194310000Y-117475000D01*
X196246915Y-119411906D02*
G75*
G02*
X199390000Y-127000000I-7588115J-7588094D01*
G01*
G04 #@! TO.N,/LIGHT PEN*
X110490000Y-92710000D02*
G75*
G02*
X113030000Y-95250000I0J-2540000D01*
G01*
X106679985Y-91440015D02*
G75*
G03*
X109746051Y-92710000I3066015J3066015D01*
G01*
X113030000Y-97155000D02*
G75*
G03*
X114935000Y-99060000I1905000J0D01*
G01*
X113030000Y-97155000D02*
X113030000Y-95250000D01*
X103613949Y-90170022D02*
G75*
G02*
X106679999Y-91440001I51J-4335978D01*
G01*
X93980000Y-88900000D02*
G75*
G03*
X95250000Y-90170000I1270000J0D01*
G01*
X102235000Y-68580000D02*
G75*
G03*
X93980000Y-76835000I0J-8255000D01*
G01*
X110490000Y-92710000D02*
X109746051Y-92710000D01*
X103613949Y-90170000D02*
X95250000Y-90170000D01*
X93980000Y-88900000D02*
X93980000Y-76835000D01*
X117103027Y-97526974D02*
X116019015Y-98610986D01*
X114935000Y-99060008D02*
G75*
G03*
X116019015Y-98610986I0J1533008D01*
G01*
G04 #@! TO.N,/SRAM/RAMA7*
X116205000Y-100330000D02*
G75*
G03*
X117475000Y-99060000I0J1270000D01*
G01*
X112395000Y-98425000D02*
G75*
G03*
X114300000Y-100330000I1905000J0D01*
G01*
X111945982Y-97340992D02*
G75*
G02*
X112395000Y-98425000I-1083982J-1084008D01*
G01*
X110490000Y-96519993D02*
G75*
G02*
X111574013Y-96969013I0J-1533007D01*
G01*
X116205000Y-100330000D02*
X114300000Y-100330000D01*
X111945987Y-97340987D02*
X111574013Y-96969013D01*
G04 #@! TO.N,/SRAM/RAMA4*
X110490000Y-97790000D02*
G75*
G02*
X111760000Y-99060000I0J-1270000D01*
G01*
X112395000Y-100330000D02*
X112209013Y-100144013D01*
X112394985Y-100330015D02*
G75*
G03*
X115461051Y-101600000I3066015J3066015D01*
G01*
X117475000Y-101600000D02*
X115461051Y-101600000D01*
X111759993Y-99060000D02*
G75*
G03*
X112209013Y-100144013I1533007J0D01*
G01*
G04 #@! TO.N,/SRAM/RAMA0*
X111760007Y-106044993D02*
G75*
G03*
X116359076Y-107950000I4599093J4599093D01*
G01*
X119380000Y-107950000D02*
X116359076Y-107950000D01*
X111760000Y-106045000D02*
X111574013Y-105859013D01*
X110490000Y-105409993D02*
G75*
G02*
X111574013Y-105859013I0J-1533007D01*
G01*
G04 #@! TO.N,/SRAM/RAMA5*
X110490000Y-100329993D02*
G75*
G02*
X111574013Y-100779013I0J-1533007D01*
G01*
X108585000Y-98425000D02*
G75*
G03*
X110490000Y-100330000I1905000J0D01*
G01*
X107686964Y-96256985D02*
G75*
G02*
X108585000Y-98425000I-2167964J-2168015D01*
G01*
X113138949Y-102343949D02*
X111574013Y-100779013D01*
X113138950Y-102343948D02*
G75*
G03*
X117475000Y-104140000I4336050J4336048D01*
G01*
X107686974Y-96256975D02*
X102870000Y-91440000D01*
G04 #@! TO.N,/SRAM/RAMA3*
X113138950Y-104883948D02*
G75*
G03*
X117475000Y-106680000I4336050J4336048D01*
G01*
X110490000Y-102869993D02*
G75*
G02*
X111574013Y-103319013I0J-1533007D01*
G01*
X107950000Y-100330000D02*
G75*
G03*
X110490000Y-102870000I2540000J0D01*
G01*
X113138949Y-104883949D02*
X111574013Y-103319013D01*
X107051964Y-98161985D02*
G75*
G02*
X107950000Y-100330000I-2167964J-2168015D01*
G01*
X107051974Y-98161975D02*
X102870000Y-93980000D01*
G04 #@! TO.N,/LIGHT PEN*
X117103028Y-97526973D02*
G75*
G03*
X117103027Y-97526974I0J-1D01*
G01*
X117103028Y-97526973D02*
X119380000Y-95250000D01*
G04 #@! TO.N,/SRAM/RAMA11*
X149039013Y-96334013D02*
X149225000Y-96520000D01*
X153933015Y-98053037D02*
G75*
G03*
X151765000Y-97155000I-2168015J-2167963D01*
G01*
X149039018Y-96334008D02*
G75*
G02*
X148590000Y-95250000I1083982J1084008D01*
G01*
X150758025Y-97154989D02*
G75*
G02*
X149225000Y-96520000I-25J2167989D01*
G01*
X115569989Y-96256975D02*
G75*
G02*
X114935000Y-97790000I-2167989J-25D01*
G01*
X147320008Y-93344992D02*
G75*
G03*
X139654872Y-90170000I-7665108J-7665108D01*
G01*
X120650000Y-90170000D02*
G75*
G03*
X115570000Y-95250000I0J-5080000D01*
G01*
X120650000Y-90170000D02*
X139654872Y-90170000D01*
X148590007Y-95250000D02*
G75*
G03*
X148140987Y-94165987I-1533007J0D01*
G01*
X156210009Y-103024076D02*
G75*
G03*
X154305000Y-98425000I-6504109J-24D01*
G01*
X157108037Y-110118015D02*
G75*
G02*
X156210000Y-107950000I2167963J2168015D01*
G01*
X156210000Y-103024076D02*
X156210000Y-107950000D01*
X115570000Y-96256975D02*
X115570000Y-95250000D01*
X147320000Y-93345000D02*
X148140987Y-94165987D01*
X153933026Y-98053026D02*
X154305000Y-98425000D01*
X150758025Y-97155000D02*
X151765000Y-97155000D01*
D32*
G04 #@! TO.N,GND*
X111760000Y-112395000D02*
X111760000Y-107950000D01*
X119380000Y-118110000D02*
X117475000Y-118110000D01*
X111760000Y-112395000D02*
G75*
G03*
X117475000Y-118110000I5715000J0D01*
G01*
D31*
G04 #@! TO.N,/SRAM/RAMA2*
X106680000Y-114300000D02*
G75*
G03*
X110490000Y-118110000I3810000J0D01*
G01*
X111760000Y-118110000D02*
X110490000Y-118110000D01*
X102870001Y-99059999D02*
G75*
G02*
X106680000Y-108258153I-9198151J-9198151D01*
G01*
X106680000Y-114300000D02*
X106680000Y-108258153D01*
D32*
G04 #@! TO.N,GND*
X110490000Y-106680000D02*
G75*
G02*
X111760000Y-107950000I0J-1270000D01*
G01*
D33*
X237784936Y-72095064D02*
X236669013Y-73210987D01*
X132956235Y-118110000D02*
X134620000Y-118110000D01*
X119380000Y-118110000D02*
X121043765Y-118110000D01*
D32*
X157480000Y-107950000D02*
X160020000Y-110490000D01*
D33*
X234500987Y-74109013D02*
X231140000Y-77470000D01*
X209550000Y-111760000D02*
X209550000Y-104140000D01*
D32*
X137160000Y-93980000D02*
X139700000Y-93980000D01*
X233230987Y-90355987D02*
X227779013Y-84904013D01*
D33*
X230241974Y-79638025D02*
X227965000Y-81915000D01*
X231140000Y-96520000D02*
X231883948Y-95776052D01*
D32*
X160020000Y-110490000D02*
X165920987Y-116390987D01*
D33*
X111760000Y-73660000D02*
X111760000Y-78213949D01*
X240030000Y-64770000D02*
X240030000Y-66675000D01*
D32*
X135890000Y-95621975D02*
X135890000Y-95250000D01*
X128270000Y-93599000D02*
X128270000Y-99803949D01*
X137160000Y-111977898D02*
X137160000Y-98688025D01*
D33*
X153670000Y-121920000D02*
X166370000Y-121920000D01*
D32*
X141605000Y-102235000D02*
X142240000Y-102870000D01*
X227330000Y-83820000D02*
X227330000Y-83448025D01*
D33*
X243205000Y-66675000D02*
X240030000Y-66675000D01*
X186690000Y-64770000D02*
X149860000Y-64770000D01*
X128143000Y-119888000D02*
X128663765Y-119888000D01*
X209550000Y-96520000D02*
X209550000Y-104140000D01*
X125336235Y-119888000D02*
X128143000Y-119888000D01*
X236855000Y-66675000D02*
X240030000Y-66675000D01*
D32*
X159385000Y-107950000D02*
X159385000Y-107315000D01*
X166370000Y-117475000D02*
X166370000Y-121920000D01*
X204470000Y-111760000D02*
X204470000Y-104140000D01*
D33*
X166370000Y-121920000D02*
X167640000Y-121920000D01*
D32*
X140970000Y-95250000D02*
X140970000Y-100701975D01*
X159385000Y-104775000D02*
X159385000Y-107950000D01*
X128208370Y-112968370D02*
X128208370Y-119730183D01*
D33*
X231140000Y-104140000D02*
X228600000Y-104140000D01*
D32*
X159385000Y-107950000D02*
X159385000Y-108956975D01*
X223520000Y-103396051D02*
X223520000Y-104140000D01*
X226060000Y-96520000D02*
X226060000Y-97263949D01*
X125730000Y-105410000D02*
X125730000Y-110490000D01*
D33*
X114300000Y-84346051D02*
X114300000Y-95250000D01*
X102890000Y-119380000D02*
X95250000Y-119380000D01*
D31*
X181238015Y-56778036D02*
G75*
G03*
X179070000Y-55880000I-2168015J-2167964D01*
G01*
D33*
X233680000Y-91440000D02*
G75*
G02*
X231883947Y-95776051I-6132100J0D01*
G01*
D32*
X128208400Y-112968370D02*
G75*
G03*
X127000000Y-111760000I-1208400J-30D01*
G01*
D33*
X130810011Y-118999011D02*
G75*
G02*
X128663765Y-119888000I-2146211J2146211D01*
G01*
D32*
X140970000Y-95250000D02*
G75*
G03*
X139700000Y-93980000I-1270000J0D01*
G01*
X227329993Y-83820000D02*
G75*
G03*
X227779013Y-84904013I1533007J0D01*
G01*
D33*
X243205000Y-66675000D02*
G75*
G03*
X245110000Y-64770000I0J1905000D01*
G01*
D32*
X157480000Y-105410000D02*
G75*
G02*
X159385000Y-107315000I0J-1905000D01*
G01*
D33*
X125336235Y-119887985D02*
G75*
G02*
X123190000Y-118999000I-35J3035185D01*
G01*
D32*
X159385000Y-104775000D02*
G75*
G03*
X157480000Y-102870000I-1905000J0D01*
G01*
X137160000Y-93980000D02*
G75*
G03*
X135890000Y-95250000I0J-1270000D01*
G01*
X227964992Y-81914992D02*
G75*
G03*
X227330000Y-83448025I1533008J-1533008D01*
G01*
D33*
X234500992Y-74109018D02*
G75*
G02*
X235585000Y-73660000I1084008J-1083982D01*
G01*
X186690000Y-64770000D02*
G75*
G02*
X194310000Y-72390000I0J-7620000D01*
G01*
D32*
X223520022Y-103396051D02*
G75*
G02*
X224790001Y-100330001I4335978J51D01*
G01*
D33*
X114299978Y-84346051D02*
G75*
G03*
X113029999Y-81280001I-4335978J51D01*
G01*
X168910000Y-120650000D02*
G75*
G02*
X167640000Y-121920000I-1270000J0D01*
G01*
X132956235Y-118110015D02*
G75*
G03*
X130810000Y-118999000I-35J-3035185D01*
G01*
X113030014Y-81279986D02*
G75*
G02*
X111760000Y-78213949I3066086J3066086D01*
G01*
D32*
X126999986Y-102869986D02*
G75*
G03*
X128270000Y-99803949I-3066086J3066086D01*
G01*
X166370007Y-117475000D02*
G75*
G03*
X165920987Y-116390987I-1533007J0D01*
G01*
D33*
X123190011Y-118998989D02*
G75*
G03*
X121043765Y-118110000I-2146211J-2146211D01*
G01*
X236855000Y-66675000D02*
G75*
G02*
X234950000Y-64770000I0J1905000D01*
G01*
D32*
X127000000Y-111760000D02*
G75*
G02*
X125730000Y-110490000I0J1270000D01*
G01*
X224789986Y-100329986D02*
G75*
G03*
X226060000Y-97263949I-3066086J3066086D01*
G01*
D33*
X230241964Y-79638015D02*
G75*
G03*
X231140000Y-77470000I-2167964J2168015D01*
G01*
X111760000Y-73660000D02*
G75*
G02*
X115570000Y-69850000I3810000J0D01*
G01*
D32*
X137159998Y-111977898D02*
G75*
G02*
X134619999Y-118109999I-8672098J-2D01*
G01*
D33*
X235585000Y-73660007D02*
G75*
G03*
X236669013Y-73210987I0J1533007D01*
G01*
D31*
X179070000Y-55879985D02*
G75*
G03*
X176901974Y-56778026I0J-3066015D01*
G01*
D33*
X237784930Y-72095058D02*
G75*
G03*
X240030000Y-66675000I-5420030J5420058D01*
G01*
D32*
X233230982Y-90355992D02*
G75*
G02*
X233680000Y-91440000I-1083982J-1084008D01*
G01*
D33*
X217170000Y-62230000D02*
G75*
G03*
X214630000Y-64770000I0J-2540000D01*
G01*
D32*
X226060000Y-102869985D02*
G75*
G03*
X223891974Y-103768026I0J-3066015D01*
G01*
X136525008Y-97154992D02*
G75*
G02*
X137160000Y-98688025I-1533008J-1533008D01*
G01*
X135890011Y-95621975D02*
G75*
G03*
X136525000Y-97155000I2167989J-25D01*
G01*
X125729985Y-105410000D02*
G75*
G02*
X126628026Y-103241974I3066015J0D01*
G01*
X228228015Y-103768036D02*
G75*
G03*
X226060000Y-102870000I-2168015J-2167964D01*
G01*
X160019992Y-110490008D02*
G75*
G02*
X159385000Y-108956975I1533008J1533008D01*
G01*
X128143005Y-119888005D02*
G75*
G03*
X128208370Y-119730183I-157805J157805D01*
G01*
X141604992Y-102235008D02*
G75*
G02*
X140970000Y-100701975I1533008J1533008D01*
G01*
D33*
X149860000Y-118110000D02*
G75*
G03*
X153670000Y-121920000I3810000J0D01*
G01*
X219710000Y-64770000D02*
G75*
G03*
X217170000Y-62230000I-2540000J0D01*
G01*
D31*
G04 #@! TO.N,Net-(C3-Pad1)*
X235585000Y-71755000D02*
X236591974Y-70748026D01*
X233073172Y-72996828D02*
X228600000Y-77470000D01*
X233073163Y-72996819D02*
G75*
G02*
X235458000Y-72009000I2384837J-2384881D01*
G01*
X237490015Y-68580000D02*
G75*
G02*
X236591974Y-70748026I-3066015J0D01*
G01*
G04 #@! TO.N,Net-(C3-Pad2)*
X243840000Y-68580000D02*
X237753026Y-74666974D01*
X235585000Y-75565015D02*
G75*
G03*
X237753026Y-74666974I0J3066015D01*
G01*
D32*
G04 #@! TO.N,+5V*
X239395000Y-62865000D02*
X242570000Y-62865000D01*
D33*
X127000000Y-57150000D02*
X127000000Y-64770000D01*
X227330000Y-64770000D02*
X227330000Y-57150000D01*
D32*
X102870000Y-83820000D02*
X110490000Y-83820000D01*
X102870000Y-86360000D02*
X110490000Y-86360000D01*
X143355923Y-101445923D02*
X142240000Y-100330000D01*
X168910000Y-76200000D02*
X167016669Y-78093331D01*
X182245000Y-95885000D02*
X182245000Y-98161975D01*
X182245000Y-95885000D02*
X182245000Y-94615000D01*
D33*
X169545000Y-54610000D02*
X207645000Y-54610000D01*
D32*
X112395000Y-83820000D02*
X112395000Y-84455000D01*
D33*
X217805000Y-67945000D02*
X221986975Y-67945000D01*
D32*
X151130000Y-95250000D02*
X151130000Y-94615000D01*
X217170000Y-92446975D02*
X217170000Y-90253420D01*
X102870000Y-81280000D02*
X95250000Y-81280000D01*
X182880000Y-99695000D02*
X183065987Y-99880987D01*
D33*
X110490000Y-81280000D02*
X111945987Y-82735987D01*
D32*
X182245000Y-95885000D02*
X182245000Y-92710000D01*
D33*
X210556974Y-68208026D02*
X207645000Y-71120000D01*
X245110000Y-54610000D02*
X207645000Y-54610000D01*
X203045924Y-73025000D02*
X201975128Y-73025000D01*
D32*
X110490000Y-91440000D02*
X109746051Y-91440000D01*
X95250000Y-86360000D02*
X102870000Y-86360000D01*
X95245000Y-88900000D02*
X102870000Y-88900000D01*
X145678026Y-90433026D02*
X147691975Y-92446974D01*
X242570000Y-62865000D02*
X242570000Y-64770000D01*
D33*
X109220000Y-69850000D02*
X109220000Y-80010000D01*
D32*
X157480000Y-100330000D02*
X154568026Y-97418026D01*
D33*
X129540000Y-54610000D02*
X169545000Y-54610000D01*
D32*
X167005000Y-54610000D02*
X166370000Y-54610000D01*
D33*
X207645000Y-54610000D02*
X204470000Y-54610000D01*
X212725000Y-67310000D02*
X213360000Y-67310000D01*
D32*
X103613949Y-88900000D02*
X102870000Y-88900000D01*
D33*
X232410000Y-123190000D02*
X232410000Y-127000000D01*
X247650000Y-57150000D02*
X247650000Y-100330000D01*
D32*
X110490000Y-81280000D02*
X102870000Y-81280000D01*
X242570000Y-57150000D02*
X242570000Y-62865000D01*
X182245000Y-92710000D02*
X182245000Y-89535000D01*
D33*
X110335923Y-68734077D02*
X109220000Y-69850000D01*
D32*
X182245000Y-92710000D02*
X182245000Y-92075000D01*
X215900000Y-96520000D02*
X215900000Y-95513025D01*
X192405000Y-99540924D02*
X192405000Y-93499076D01*
D33*
X231775000Y-111125000D02*
X236855000Y-111125000D01*
D32*
X215900000Y-84734529D02*
X215900000Y-83820000D01*
X95245000Y-83820000D02*
X102890000Y-83820000D01*
D33*
X112395000Y-83820000D02*
X112395000Y-89535000D01*
X127000000Y-64770000D02*
X119906051Y-64770000D01*
D32*
X218440000Y-116840000D02*
X218440000Y-109220000D01*
X110490000Y-81280000D02*
X110490000Y-83820000D01*
D33*
X112395000Y-89535000D02*
G75*
G02*
X110490000Y-91440000I-1905000J0D01*
G01*
X210556985Y-68208037D02*
G75*
G02*
X212725000Y-67310000I2168015J-2167963D01*
G01*
D32*
X110490000Y-86360000D02*
G75*
G03*
X112395000Y-84455000I0J1905000D01*
G01*
X165099999Y-101600001D02*
G75*
G02*
X162560000Y-95467898I6132101J6132101D01*
G01*
X217677994Y-89026994D02*
G75*
G03*
X217170000Y-90253420I1226406J-1226406D01*
G01*
X149860000Y-93345000D02*
G75*
G02*
X151130000Y-94615000I0J-1270000D01*
G01*
X151130000Y-95250000D02*
G75*
G03*
X152400000Y-96520000I1270000J0D01*
G01*
X147691985Y-92446964D02*
G75*
G03*
X149860000Y-93345000I2168015J2167964D01*
G01*
X184150000Y-100330007D02*
G75*
G02*
X183065987Y-99880987I0J1533007D01*
G01*
X106679985Y-90170015D02*
G75*
G03*
X109746051Y-91440000I3066015J3066015D01*
G01*
X216534992Y-93979992D02*
G75*
G03*
X215900000Y-95513025I1533008J-1533008D01*
G01*
X184150000Y-87630000D02*
G75*
G03*
X182245000Y-89535000I0J-1905000D01*
G01*
X143510000Y-89534985D02*
G75*
G02*
X145678026Y-90433026I0J-3066015D01*
G01*
X161290000Y-57150000D02*
G75*
G02*
X163830000Y-54610000I2540000J0D01*
G01*
X163830000Y-57150000D02*
G75*
G02*
X166370000Y-54610000I2540000J0D01*
G01*
D33*
X203045924Y-73025009D02*
G75*
G03*
X207645000Y-71120000I-24J6504109D01*
G01*
D32*
X168910000Y-54610000D02*
G75*
G03*
X166370000Y-57150000I0J-2540000D01*
G01*
X239395000Y-62865000D02*
G75*
G03*
X237490000Y-64770000I0J-1905000D01*
G01*
X152400000Y-96519985D02*
G75*
G02*
X154568026Y-97418026I0J-3066015D01*
G01*
D33*
X245110000Y-54610000D02*
G75*
G03*
X242570000Y-57150000I0J-2540000D01*
G01*
X215900000Y-69850000D02*
G75*
G03*
X213360000Y-67310000I-2540000J0D01*
G01*
D32*
X215899989Y-84734529D02*
G75*
G03*
X217678001Y-89026999I6070511J29D01*
G01*
D33*
X116840014Y-66040014D02*
G75*
G02*
X119906051Y-64770000I3066086J-3066086D01*
G01*
D32*
X192404991Y-99540924D02*
G75*
G03*
X194310000Y-104140000I6504109J24D01*
G01*
X184150000Y-92710000D02*
G75*
G03*
X182245000Y-94615000I0J-1905000D01*
G01*
D33*
X110490000Y-81280000D02*
G75*
G02*
X109220000Y-80010000I0J1270000D01*
G01*
X110335913Y-68734067D02*
G75*
G02*
X116840000Y-66040000I6504087J-6504133D01*
G01*
D32*
X143355933Y-101445913D02*
G75*
G02*
X146050000Y-107950000I-6504133J-6504087D01*
G01*
D33*
X217805000Y-67945000D02*
G75*
G03*
X215900000Y-69850000I0J-1905000D01*
G01*
X223520008Y-67310008D02*
G75*
G02*
X221986975Y-67945000I-1533008J1533008D01*
G01*
D32*
X156210000Y-57150000D02*
G75*
G02*
X158750000Y-54610000I2540000J0D01*
G01*
X158750000Y-57150000D02*
G75*
G02*
X161290000Y-54610000I2540000J0D01*
G01*
X182879992Y-99695008D02*
G75*
G02*
X182245000Y-98161975I1533008J1533008D01*
G01*
D33*
X247650000Y-100330000D02*
G75*
G02*
X236855000Y-111125000I-10795000J0D01*
G01*
D32*
X103613949Y-88900022D02*
G75*
G02*
X106679999Y-90170001I51J-4335978D01*
G01*
D33*
X231775000Y-111125000D02*
G75*
G03*
X226060000Y-116840000I0J-5715000D01*
G01*
X232410000Y-123190000D02*
G75*
G03*
X228600000Y-119380000I-3810000J0D01*
G01*
D32*
X184150000Y-90170000D02*
G75*
G03*
X182245000Y-92075000I0J-1905000D01*
G01*
D33*
X112395007Y-83820000D02*
G75*
G03*
X111945987Y-82735987I-1533007J0D01*
G01*
X247650000Y-57150000D02*
G75*
G03*
X245110000Y-54610000I-2540000J0D01*
G01*
X236220000Y-119380000D02*
G75*
G03*
X232410000Y-123190000I0J-3810000D01*
G01*
X194309992Y-76199992D02*
G75*
G02*
X201975128Y-73025000I7665108J-7665108D01*
G01*
X201930000Y-57150000D02*
G75*
G02*
X204470000Y-54610000I2540000J0D01*
G01*
D32*
X194310007Y-88900007D02*
G75*
G03*
X192405000Y-93499076I4599093J-4599093D01*
G01*
D33*
X226060000Y-116840000D02*
G75*
G03*
X228600000Y-119380000I2540000J0D01*
G01*
X129540000Y-54610000D02*
G75*
G03*
X127000000Y-57150000I0J-2540000D01*
G01*
D32*
X217169989Y-92446975D02*
G75*
G02*
X216535000Y-93980000I-2167989J-25D01*
G01*
X164591989Y-83947000D02*
G75*
G02*
X167016669Y-78093331I8278311J0D01*
G01*
G04 #@! TO.N,Net-(Q1-Pad1)*
X106680000Y-58376420D02*
X106680000Y-62230000D01*
X106680009Y-58376420D02*
G75*
G02*
X107188000Y-57150000I1734391J20D01*
G01*
D31*
G04 #@! TO.N,Net-(Q1-Pad2)*
X213995000Y-98533949D02*
X213995000Y-83076051D01*
X185420000Y-74041000D02*
X185420000Y-79375000D01*
X213994978Y-98533949D02*
G75*
G02*
X212724999Y-101599999I-4335978J-51D01*
G01*
X212725015Y-80009985D02*
G75*
G02*
X213995000Y-83076051I-3066015J-3066015D01*
G01*
D32*
G04 #@! TO.N,Net-(Q1-Pad3)*
X109728000Y-57150000D02*
X109728000Y-58681478D01*
X106680007Y-66040007D02*
G75*
G03*
X109728000Y-58681478I-7358507J7358507D01*
G01*
D31*
G04 #@! TO.N,Net-(R1-Pad1)*
X240742039Y-76757961D02*
X245745000Y-71755000D01*
X239395007Y-80010000D02*
G75*
G02*
X240742039Y-76757961I4599093J0D01*
G01*
G04 #@! TO.N,Net-(R2-Pad2)*
X228600000Y-71120000D02*
X226060000Y-71120000D01*
X245745000Y-76815996D02*
X245745000Y-75565000D01*
X223891985Y-70221964D02*
G75*
G03*
X226060000Y-71120000I2168015J2167964D01*
G01*
X245744998Y-76815996D02*
G75*
G02*
X244422000Y-80010000I-4516998J-4D01*
G01*
X228600000Y-71120015D02*
G75*
G03*
X230768026Y-70221974I0J3066015D01*
G01*
G04 #@! TO.N,Net-(R8-Pad2)*
X219710000Y-57150000D02*
X223520000Y-57150000D01*
G04 #@! TO.N,Net-(R10-Pad2)*
X195580000Y-88900000D02*
X195580000Y-91176975D01*
X193040000Y-83185000D02*
X193040000Y-84455000D01*
X204470000Y-80010000D02*
X196215000Y-80010000D01*
X193489013Y-85539013D02*
X194681974Y-86731974D01*
X194310000Y-94243025D02*
X194310000Y-96520000D01*
X212725000Y-69850000D02*
X212725000Y-71755000D01*
X195579985Y-88900000D02*
G75*
G03*
X194681973Y-86731975I-3066085J0D01*
G01*
X193040000Y-83185000D02*
G75*
G02*
X196215000Y-80010000I3175000J0D01*
G01*
X193489018Y-85539008D02*
G75*
G02*
X193040000Y-84455000I1083982J1084008D01*
G01*
X194945008Y-92710008D02*
G75*
G03*
X195580000Y-91176975I-1533008J1533008D01*
G01*
X204470000Y-80010000D02*
G75*
G03*
X212725000Y-71755000I0J8255000D01*
G01*
X194310011Y-94243025D02*
G75*
G02*
X194945000Y-92710000I2167989J25D01*
G01*
G04 #@! TO.N,Net-(U1-Pad1)*
X207645000Y-93980000D02*
X209550000Y-93980000D01*
X212725000Y-104775000D02*
X212833948Y-104883948D01*
X212090000Y-96520000D02*
X212090000Y-98595580D01*
X205740000Y-86360000D02*
X205740000Y-92075000D01*
X212151631Y-104201630D02*
X212725000Y-104775000D01*
X214630000Y-111496975D02*
X214630000Y-109220000D01*
X215900000Y-116840000D02*
X215900000Y-114563025D01*
X211074000Y-101048420D02*
X211074000Y-101600000D01*
X207010000Y-83820000D02*
X206638026Y-84191974D01*
X215265008Y-113029992D02*
G75*
G02*
X215900000Y-114563025I-1533008J-1533008D01*
G01*
X211074009Y-101048420D02*
G75*
G02*
X211582000Y-99822000I1734391J20D01*
G01*
X214630000Y-109220000D02*
G75*
G03*
X212833947Y-104883949I-6132100J0D01*
G01*
X212090000Y-96520000D02*
G75*
G03*
X209550000Y-93980000I-2540000J0D01*
G01*
X214630011Y-111496975D02*
G75*
G03*
X215265000Y-113030000I2167989J-25D01*
G01*
X211582006Y-99822006D02*
G75*
G03*
X212090000Y-98595580I-1226406J1226406D01*
G01*
X207645000Y-93980000D02*
G75*
G02*
X205740000Y-92075000I0J1905000D01*
G01*
X205739985Y-86360000D02*
G75*
G02*
X206638026Y-84191974I3066015J0D01*
G01*
X212151623Y-104201638D02*
G75*
G02*
X211074000Y-101600000I2601677J2601638D01*
G01*
G04 #@! TO.N,Net-(U1-Pad6)*
X205740000Y-108693949D02*
X205740000Y-96520000D01*
X204841974Y-94351975D02*
X199390000Y-88900000D01*
X204841964Y-94351985D02*
G75*
G02*
X205740000Y-96520000I-2167964J-2168015D01*
G01*
X205740022Y-108693949D02*
G75*
G03*
X207010001Y-111759999I4335978J-51D01*
G01*
G04 #@! TO.N,Net-(U1-Pad8)*
X211582000Y-101556420D02*
X211582000Y-101600000D01*
X212725000Y-96520000D02*
X212725000Y-98796975D01*
X208280000Y-83820000D02*
X208280000Y-88900000D01*
X222250000Y-109186420D02*
X222250000Y-109230000D01*
X209627038Y-92152039D02*
X211826974Y-94351974D01*
X223520000Y-110500000D02*
X228600000Y-110500000D01*
X212127886Y-102917887D02*
X215646000Y-106436000D01*
X217485630Y-107198000D02*
X219902370Y-107198000D01*
X217485630Y-107197987D02*
G75*
G02*
X215646000Y-106436000I-30J2601587D01*
G01*
X221742009Y-107959991D02*
G75*
G03*
X219902370Y-107198000I-1839609J-1839609D01*
G01*
X212127881Y-102917892D02*
G75*
G02*
X211582000Y-101600000I1317919J1317892D01*
G01*
X230750953Y-109609043D02*
G75*
G02*
X228600000Y-110500000I-2150953J2150943D01*
G01*
X212090008Y-100330008D02*
G75*
G03*
X212725000Y-98796975I-1533008J1533008D01*
G01*
X212724985Y-96520000D02*
G75*
G03*
X211826973Y-94351975I-3066085J0D01*
G01*
X223520000Y-110500000D02*
G75*
G02*
X222250000Y-109230000I0J1270000D01*
G01*
X208280000Y-83820000D02*
G75*
G03*
X207010000Y-82550000I-1270000J0D01*
G01*
X222249991Y-109186420D02*
G75*
G03*
X221742000Y-107960000I-1734391J20D01*
G01*
X207010000Y-82549985D02*
G75*
G03*
X204841974Y-83448026I0J-3066015D01*
G01*
X209627034Y-92152043D02*
G75*
G02*
X208280000Y-88900000I3252066J3252043D01*
G01*
X211582009Y-101556420D02*
G75*
G02*
X212090000Y-100330000I1734391J20D01*
G01*
G04 #@! TO.N,Net-(U1-Pad9)*
X242062000Y-105029000D02*
X243055848Y-104035152D01*
X228854000Y-108829000D02*
X231346113Y-106336887D01*
X232664000Y-105791000D02*
X240222370Y-105791000D01*
X242062009Y-105029009D02*
G75*
G02*
X240222370Y-105791000I-1839609J1839609D01*
G01*
X244246403Y-101160905D02*
G75*
G02*
X243055848Y-104035152I-4064803J5D01*
G01*
X232664000Y-105791008D02*
G75*
G03*
X231346113Y-106336887I0J-1863792D01*
G01*
G04 #@! TO.N,Net-(U1-Pad10)*
X210820000Y-55880000D02*
X232410000Y-55880000D01*
X224790000Y-96520000D02*
X224790000Y-97263949D01*
X217170000Y-83322000D02*
X217170000Y-83576000D01*
X227330000Y-77470000D02*
X227330000Y-78105000D01*
X222250000Y-103396051D02*
X222250000Y-104140000D01*
X218247631Y-86177631D02*
X221531580Y-89461579D01*
X222250000Y-91196000D02*
X222250000Y-91440000D01*
X223148026Y-93608025D02*
X223891974Y-94351974D01*
X223383000Y-82052000D02*
X218440000Y-82052000D01*
X233680000Y-57150000D02*
X233680000Y-68580000D01*
X222699013Y-105224013D02*
X225610987Y-108135987D01*
X232332961Y-71832039D02*
X227779013Y-76385987D01*
X227329993Y-77470000D02*
G75*
G02*
X227779013Y-76385987I1533007J0D01*
G01*
X224789985Y-96520000D02*
G75*
G03*
X223891973Y-94351975I-3066085J0D01*
G01*
X222250012Y-91196000D02*
G75*
G03*
X221531579Y-89461580I-2452812J0D01*
G01*
X226060007Y-109220000D02*
G75*
G03*
X225610987Y-108135987I-1533007J0D01*
G01*
X223148036Y-93608015D02*
G75*
G02*
X222250000Y-91440000I2167964J2168015D01*
G01*
X223383000Y-82052000D02*
G75*
G03*
X227330000Y-78105000I0J3947000D01*
G01*
X222699018Y-105224008D02*
G75*
G02*
X222250000Y-104140000I1083982J1084008D01*
G01*
X232332966Y-71832044D02*
G75*
G03*
X233680000Y-68580000I-3252066J3252044D01*
G01*
X217170000Y-83322000D02*
G75*
G02*
X218440000Y-82052000I1270000J0D01*
G01*
X222250022Y-103396051D02*
G75*
G02*
X223520001Y-100330001I4335978J51D01*
G01*
X233680000Y-57150000D02*
G75*
G03*
X232410000Y-55880000I-1270000J0D01*
G01*
X218247623Y-86177639D02*
G75*
G02*
X217170000Y-83576000I2601677J2601639D01*
G01*
X223519986Y-100329986D02*
G75*
G03*
X224790000Y-97263949I-3066086J3066086D01*
G01*
X210820000Y-55880000D02*
G75*
G03*
X209550000Y-57150000I0J-1270000D01*
G01*
G04 #@! TO.N,Net-(U2-Pad5)*
X203200000Y-104140000D02*
X203200000Y-99586051D01*
X196850000Y-111760000D02*
X202301974Y-106308026D01*
X203200015Y-104140000D02*
G75*
G02*
X202301974Y-106308026I-3066015J0D01*
G01*
X204470014Y-96520014D02*
G75*
G03*
X203200000Y-99586051I3066086J-3066086D01*
G01*
G04 #@! TO.N,Net-(U2-Pad8)*
X213995000Y-79375000D02*
X213809013Y-79189013D01*
X211455000Y-80010000D02*
X211455000Y-84826975D01*
X210820000Y-86360000D02*
X210448026Y-86731974D01*
X220980000Y-80010000D02*
X215528025Y-80010000D01*
X209549985Y-88900000D02*
G75*
G02*
X210448026Y-86731974I3066015J0D01*
G01*
X210820008Y-86360008D02*
G75*
G03*
X211455000Y-84826975I-1533008J1533008D01*
G01*
X211455000Y-80010000D02*
G75*
G02*
X212725000Y-78740000I1270000J0D01*
G01*
X212725000Y-78739993D02*
G75*
G02*
X213809013Y-79189013I0J-1533007D01*
G01*
X213994992Y-79375008D02*
G75*
G03*
X215528025Y-80010000I1533008J1533008D01*
G01*
X220980000Y-80010000D02*
G75*
G03*
X223520000Y-77470000I0J2540000D01*
G01*
G04 #@! TO.N,/A7*
X185932834Y-112907833D02*
X185234013Y-112209013D01*
X183065987Y-111310987D02*
X181610000Y-109855000D01*
X177800000Y-100965000D02*
X169994013Y-93159013D01*
X181610000Y-109855000D02*
X177800000Y-100965000D01*
X185932827Y-112907840D02*
G75*
G02*
X191770000Y-127000000I-14092127J-14092160D01*
G01*
X168910000Y-92709993D02*
G75*
G02*
X169994013Y-93159013I0J-1533007D01*
G01*
X184150000Y-111759993D02*
G75*
G02*
X185234013Y-112209013I0J-1533007D01*
G01*
X183065992Y-111310982D02*
G75*
G03*
X184150000Y-111760000I1084008J1083982D01*
G01*
G04 #@! TO.N,/A6*
X183065987Y-113850987D02*
X180340000Y-111125000D01*
X176530000Y-102235000D02*
X180340000Y-111125000D01*
X169994013Y-95699013D02*
X176530000Y-102235000D01*
X185234013Y-114749013D02*
X185420000Y-114935000D01*
X189230019Y-124133153D02*
G75*
G03*
X185420000Y-114935000I-13008219J-47D01*
G01*
X169994008Y-95699018D02*
G75*
G03*
X168910000Y-95250000I-1084008J-1083982D01*
G01*
X183065992Y-113850982D02*
G75*
G03*
X184150000Y-114300000I1084008J1083982D01*
G01*
X185234008Y-114749018D02*
G75*
G03*
X184150000Y-114300000I-1084008J-1083982D01*
G01*
G04 #@! TO.N,/A5*
X183065987Y-116390987D02*
X179070000Y-112395000D01*
X179070000Y-112395000D02*
X175260000Y-103505000D01*
X175260000Y-103505000D02*
X169994013Y-98239013D01*
X185420000Y-117475000D02*
X185234013Y-117289013D01*
X186690000Y-127000000D02*
X186690000Y-120541051D01*
X184150000Y-116839993D02*
G75*
G02*
X185234013Y-117289013I0J-1533007D01*
G01*
X168910000Y-97789993D02*
G75*
G02*
X169994013Y-98239013I0J-1533007D01*
G01*
X183065992Y-116390982D02*
G75*
G03*
X184150000Y-116840000I1084008J1083982D01*
G01*
X185420015Y-117474985D02*
G75*
G02*
X186690000Y-120541051I-3066015J-3066015D01*
G01*
G04 #@! TO.N,/A4*
X177800000Y-113665000D02*
X173990000Y-104775000D01*
X183065987Y-118930987D02*
X177800000Y-113665000D01*
X173990000Y-104775000D02*
X169994013Y-100779013D01*
X185420000Y-121963580D02*
X185420000Y-120650000D01*
X168910000Y-100329993D02*
G75*
G02*
X169994013Y-100779013I0J-1533007D01*
G01*
X184150000Y-119380000D02*
G75*
G02*
X185420000Y-120650000I0J-1270000D01*
G01*
X184911991Y-123189991D02*
G75*
G03*
X184150000Y-125029630I1839609J-1839609D01*
G01*
X183065992Y-118930982D02*
G75*
G03*
X184150000Y-119380000I1084008J1083982D01*
G01*
X185419991Y-121963580D02*
G75*
G02*
X184912000Y-123190000I-1734391J-20D01*
G01*
G04 #@! TO.N,/A3*
X181610000Y-124245840D02*
X181610000Y-123190000D01*
X172720000Y-106045000D02*
X169994013Y-103319013D01*
X181610000Y-123190000D02*
X176530000Y-114935000D01*
X176530000Y-114935000D02*
X172720000Y-106045000D01*
X168910000Y-102869993D02*
G75*
G02*
X169994013Y-103319013I0J-1533007D01*
G01*
G04 #@! TO.N,/A2*
X175895000Y-115570000D02*
X172085000Y-106680000D01*
X179070000Y-123190000D02*
X175895000Y-115570000D01*
X179070000Y-127000000D02*
X179070000Y-123190000D01*
X169018949Y-105409980D02*
G75*
G02*
X172085000Y-106680000I-49J-4336120D01*
G01*
G04 #@! TO.N,/A1*
X176530000Y-127000000D02*
X176530000Y-123190000D01*
X168910000Y-107950000D02*
X171141846Y-110181846D01*
X176530002Y-123190000D02*
G75*
G03*
X171141846Y-110181846I-18396302J0D01*
G01*
G04 #@! TO.N,/A0*
X173990000Y-116994076D02*
X173990000Y-127000000D01*
X161290000Y-95250000D02*
X161290000Y-97263949D01*
X157603262Y-90928262D02*
X160840987Y-94165987D01*
X171078025Y-111388026D02*
X172085000Y-112395000D01*
X163830000Y-103396051D02*
X163830000Y-107315000D01*
X165657961Y-109142962D02*
X163830000Y-107315000D01*
X161290007Y-95250000D02*
G75*
G03*
X160840987Y-94165987I-1533007J0D01*
G01*
X163829978Y-103396051D02*
G75*
G03*
X162559999Y-100330001I-4335978J51D01*
G01*
X171078015Y-111388036D02*
G75*
G03*
X168910000Y-110490000I-2168015J-2167964D01*
G01*
X157603257Y-90928267D02*
G75*
G03*
X152400000Y-88773000I-5203257J-5203233D01*
G01*
X162560014Y-100329986D02*
G75*
G02*
X161290000Y-97263949I3066086J3066086D01*
G01*
X173990009Y-116994076D02*
G75*
G03*
X172085000Y-112395000I-6504109J-24D01*
G01*
X165657957Y-109142966D02*
G75*
G03*
X168910000Y-110490000I3252043J3252066D01*
G01*
G04 #@! TO.N,/D0*
X161290000Y-103768025D02*
X161290000Y-106788949D01*
X136339013Y-81094013D02*
X141155987Y-85910987D01*
X162560000Y-109855000D02*
X163938949Y-111233949D01*
X132451974Y-79638026D02*
X132080000Y-80010000D01*
X156659013Y-96334013D02*
X159307962Y-98982962D01*
X142240000Y-86360000D02*
X142875000Y-86360000D01*
X151765000Y-91440000D02*
X152400000Y-91440000D01*
X145043025Y-87258026D02*
X147428949Y-89643949D01*
X161289982Y-103768025D02*
G75*
G03*
X159307962Y-98982962I-6767082J25D01*
G01*
X136339018Y-81094008D02*
G75*
G02*
X135890000Y-80010000I1083982J1084008D01*
G01*
X142240000Y-86360007D02*
G75*
G02*
X141155987Y-85910987I0J1533007D01*
G01*
X156210000Y-95250000D02*
G75*
G03*
X152400000Y-91440000I-3810000J0D01*
G01*
X162560014Y-109854986D02*
G75*
G02*
X161290000Y-106788949I3066086J3066086D01*
G01*
X151765000Y-91440000D02*
G75*
G02*
X147428950Y-89643948I0J6132100D01*
G01*
X145043015Y-87258036D02*
G75*
G03*
X142875000Y-86360000I-2168015J-2167964D01*
G01*
X134620000Y-78739985D02*
G75*
G03*
X132451974Y-79638026I0J-3066015D01*
G01*
X135890000Y-80010000D02*
G75*
G03*
X134620000Y-78740000I-1270000J0D01*
G01*
X156659018Y-96334008D02*
G75*
G02*
X156210000Y-95250000I1083982J1084008D01*
G01*
X168275000Y-113030000D02*
G75*
G02*
X163938950Y-111233948I0J6132100D01*
G01*
G04 #@! TO.N,/D1*
X149860000Y-92329000D02*
X150749000Y-92329000D01*
X156024013Y-96969013D02*
X158115000Y-99060000D01*
X161925000Y-110490000D02*
X165657961Y-114222961D01*
X135255000Y-81915000D02*
X140050185Y-86710185D01*
X160020000Y-103659076D02*
X160020000Y-105890924D01*
X144662026Y-88147026D02*
X148125579Y-91610580D01*
X141351000Y-87249000D02*
X142494000Y-87249000D01*
X135254992Y-81915008D02*
G75*
G02*
X134620000Y-80381975I1533008J1533008D01*
G01*
X144662015Y-88147037D02*
G75*
G03*
X142494000Y-87249000I-2168015J-2167963D01*
G01*
X161925007Y-110489993D02*
G75*
G02*
X160020000Y-105890924I4599093J4599093D01*
G01*
X149860000Y-92329012D02*
G75*
G02*
X148125580Y-91610579I0J2452812D01*
G01*
X156024008Y-96969018D02*
G75*
G03*
X154940000Y-96520000I-1084008J-1083982D01*
G01*
X153670000Y-95250000D02*
G75*
G03*
X150749000Y-92329000I-2921000J0D01*
G01*
X141351000Y-87249009D02*
G75*
G02*
X140050185Y-86710185I0J1839609D01*
G01*
X168910000Y-115569993D02*
G75*
G02*
X165657961Y-114222961I0J4599093D01*
G01*
X160020009Y-103659076D02*
G75*
G03*
X158115000Y-99060000I-6504109J-24D01*
G01*
X154940000Y-96520000D02*
G75*
G02*
X153670000Y-95250000I0J1270000D01*
G01*
G04 #@! TO.N,/D2*
X162560000Y-104557102D02*
X162560000Y-107315000D01*
X158750000Y-95250000D02*
X158750000Y-95358949D01*
X167531051Y-111760000D02*
X168910000Y-111760000D01*
X155652039Y-91517038D02*
X158300987Y-94165987D01*
X163458026Y-109483025D02*
X164465000Y-110490000D01*
X137160000Y-80010000D02*
X141341974Y-84191974D01*
X146762039Y-86437038D02*
X149147962Y-88822962D01*
X170180000Y-113030000D02*
X170180000Y-115570000D01*
X160020014Y-98424986D02*
G75*
G02*
X158750000Y-95358949I3066086J3066086D01*
G01*
X170180000Y-113030000D02*
G75*
G03*
X168910000Y-111760000I-1270000J0D01*
G01*
X143510000Y-85089985D02*
G75*
G02*
X141341975Y-84191973I0J3066085D01*
G01*
X163458036Y-109483015D02*
G75*
G02*
X162560000Y-107315000I2167964J2168015D01*
G01*
X167531051Y-111759978D02*
G75*
G02*
X164465001Y-110489999I-51J4335978D01*
G01*
X158750007Y-95250000D02*
G75*
G03*
X158300987Y-94165987I-1533007J0D01*
G01*
X162559998Y-104557102D02*
G75*
G03*
X160019999Y-98425001I-8672098J2D01*
G01*
X169281963Y-117738015D02*
G75*
G03*
X170180000Y-115570000I-2167963J2168015D01*
G01*
X146762043Y-86437034D02*
G75*
G03*
X143510000Y-85090000I-3252043J-3252066D01*
G01*
X155652043Y-91517034D02*
G75*
G03*
X152400000Y-90170000I-3252043J-3252066D01*
G01*
X152400000Y-90169993D02*
G75*
G02*
X149147962Y-88822962I0J4599093D01*
G01*
G04 #@! TO.N,/D3*
X173355000Y-105410000D02*
X177165000Y-114300000D01*
X142162961Y-82472962D02*
X139700000Y-80010000D01*
X164465000Y-95603924D02*
X164465000Y-95250000D01*
X154305000Y-87630000D02*
X153189076Y-87630000D01*
X177165000Y-114300000D02*
X183515000Y-120650000D01*
X166370000Y-100203000D02*
X166958777Y-100791777D01*
X164015987Y-94165987D02*
X159725064Y-89875064D01*
X148590000Y-85725000D02*
X147583026Y-84718026D01*
X169994013Y-102049013D02*
X173355000Y-105410000D01*
X154305000Y-87629992D02*
G75*
G02*
X159725064Y-89875064I0J-7665108D01*
G01*
X142162957Y-82472966D02*
G75*
G03*
X145415000Y-83820000I3252043J3252066D01*
G01*
X164015982Y-94165992D02*
G75*
G02*
X164465000Y-95250000I-1083982J-1084008D01*
G01*
X148590007Y-85724993D02*
G75*
G03*
X153189076Y-87630000I4599093J4599093D01*
G01*
X168910000Y-101599984D02*
G75*
G02*
X166958777Y-100791777I0J2759484D01*
G01*
X145415000Y-83819985D02*
G75*
G02*
X147583026Y-84718026I0J-3066015D01*
G01*
X164464991Y-95603924D02*
G75*
G03*
X166370000Y-100203000I6504109J24D01*
G01*
X169994008Y-102049018D02*
G75*
G03*
X168910000Y-101600000I-1084008J-1083982D01*
G01*
G04 #@! TO.N,/D4*
X148218025Y-83448026D02*
X150058751Y-85288751D01*
X159766000Y-88773000D02*
X163991553Y-92998553D01*
X166326420Y-98381421D02*
X166370000Y-98425000D01*
X154178000Y-86995000D02*
X155473529Y-86995000D01*
X169994013Y-99509013D02*
X174625000Y-104140000D01*
X183065987Y-117660987D02*
X178435000Y-113030000D01*
X142240000Y-80010000D02*
X143881974Y-81651974D01*
X167903025Y-99060000D02*
X168910000Y-99060000D01*
X174625000Y-104140000D02*
X178435000Y-113030000D01*
X166326429Y-98381412D02*
G75*
G02*
X165608000Y-96647000I1734371J1734412D01*
G01*
X159765992Y-88773008D02*
G75*
G03*
X155473529Y-86995000I-4292492J-4292492D01*
G01*
X148218015Y-83448036D02*
G75*
G03*
X146050000Y-82550000I-2168015J-2167964D01*
G01*
X146050000Y-82549985D02*
G75*
G02*
X143881975Y-81651973I0J3066085D01*
G01*
X169994008Y-99509018D02*
G75*
G03*
X168910000Y-99060000I-1084008J-1083982D01*
G01*
X154178000Y-86994999D02*
G75*
G02*
X150058751Y-85288751I0J5825499D01*
G01*
X183065992Y-117660982D02*
G75*
G03*
X184150000Y-118110000I1084008J1083982D01*
G01*
X165607997Y-96901000D02*
G75*
G03*
X163991552Y-92998554I-5518897J0D01*
G01*
X167903025Y-99059989D02*
G75*
G02*
X166370000Y-98425000I-25J2167989D01*
G01*
G04 #@! TO.N,/D5*
X148404013Y-82364013D02*
X150603948Y-84563948D01*
X168275000Y-96520000D02*
X168910000Y-96520000D01*
X144780000Y-80010000D02*
X146235987Y-81465987D01*
X160655000Y-88265000D02*
X165920987Y-93530987D01*
X175895000Y-102870000D02*
X179705000Y-111760000D01*
X183065987Y-115120987D02*
X179705000Y-111760000D01*
X154940000Y-86360000D02*
X156055924Y-86360000D01*
X169994013Y-96969013D02*
X175895000Y-102870000D01*
X147320000Y-81915007D02*
G75*
G02*
X146235987Y-81465987I0J1533007D01*
G01*
X148404008Y-82364018D02*
G75*
G03*
X147320000Y-81915000I-1084008J-1083982D01*
G01*
X169994008Y-96969018D02*
G75*
G03*
X168910000Y-96520000I-1084008J-1083982D01*
G01*
X154940000Y-86360000D02*
G75*
G02*
X150603949Y-84563947I0J6132100D01*
G01*
X166370007Y-94615000D02*
G75*
G03*
X165920987Y-93530987I-1533007J0D01*
G01*
X168275000Y-96520000D02*
G75*
G02*
X166370000Y-94615000I0J1905000D01*
G01*
X160654993Y-88265007D02*
G75*
G03*
X156055924Y-86360000I-4599093J-4599093D01*
G01*
X183065992Y-115120982D02*
G75*
G03*
X184150000Y-115570000I1084008J1083982D01*
G01*
G04 #@! TO.N,/D6*
X147320000Y-80010000D02*
X151238948Y-83928948D01*
X180975000Y-110490000D02*
X183065987Y-112580987D01*
X155575000Y-85725000D02*
X155792898Y-85725000D01*
X161925000Y-88265000D02*
X167190987Y-93530987D01*
X169994013Y-94429013D02*
X177165000Y-101600000D01*
X177165000Y-101600000D02*
X180975000Y-110490000D01*
X168275000Y-93980000D02*
X168910000Y-93980000D01*
X169994008Y-94429018D02*
G75*
G03*
X168910000Y-93980000I-1084008J-1083982D01*
G01*
X155575000Y-85725000D02*
G75*
G02*
X151238949Y-83928947I0J6132100D01*
G01*
X184150000Y-113030007D02*
G75*
G02*
X183065987Y-112580987I0J1533007D01*
G01*
X168275000Y-93980007D02*
G75*
G02*
X167190987Y-93530987I0J1533007D01*
G01*
X161925001Y-88264999D02*
G75*
G03*
X155792898Y-85725000I-6132101J-6132101D01*
G01*
G04 #@! TO.N,/D7*
X182245000Y-109220000D02*
X180975000Y-106680000D01*
X178435000Y-100330000D02*
X170629013Y-91889013D01*
X180975000Y-106680000D02*
X178435000Y-100330000D01*
X183065987Y-110040987D02*
X182245000Y-109220000D01*
X151424936Y-82844936D02*
X150758026Y-82178025D01*
X165100000Y-90170000D02*
X162265064Y-87335064D01*
X169545000Y-91440000D02*
X168166051Y-91440000D01*
X165099985Y-90170015D02*
G75*
G03*
X168166051Y-91440000I3066015J3066015D01*
G01*
X156845000Y-85089992D02*
G75*
G02*
X162265064Y-87335064I0J-7665108D01*
G01*
X151424942Y-82844930D02*
G75*
G03*
X156845000Y-85090000I5420058J5420030D01*
G01*
X183065992Y-110040982D02*
G75*
G03*
X184150000Y-110490000I1084008J1083982D01*
G01*
X149859986Y-80010000D02*
G75*
G03*
X150758026Y-82178025I3066014J0D01*
G01*
X169545000Y-91439993D02*
G75*
G02*
X170629013Y-91889013I0J-1533007D01*
G01*
G04 #@! TO.N,/A8*
X176530000Y-95885000D02*
X179070000Y-99695000D01*
X185017210Y-109579210D02*
X185991500Y-110553500D01*
X179070000Y-99695000D02*
X182880000Y-108585000D01*
X185991500Y-110553500D02*
X190500000Y-116205000D01*
X182880000Y-108585000D02*
X183065987Y-108770987D01*
X184150000Y-109220007D02*
G75*
G02*
X183065987Y-108770987I0J1533007D01*
G01*
X185017206Y-109579214D02*
G75*
G03*
X184150000Y-109220000I-867206J-867186D01*
G01*
X194310019Y-125403153D02*
G75*
G03*
X190500000Y-116205000I-13008219J-47D01*
G01*
G04 #@! TO.N,/A9*
X175786051Y-88156051D02*
X176530000Y-88900000D01*
X190648411Y-114786589D02*
X192599000Y-116737178D01*
X179705000Y-96565128D02*
X179705000Y-99060000D01*
X179705000Y-99060000D02*
X182880000Y-106045000D01*
X182880000Y-106045000D02*
X183065987Y-106230987D01*
X185234013Y-107129013D02*
X185420000Y-107315000D01*
X185420000Y-107315000D02*
X190648411Y-114786589D01*
X196850006Y-127000000D02*
G75*
G03*
X192599000Y-116737178I-14513806J0D01*
G01*
X184150000Y-106680007D02*
G75*
G02*
X183065987Y-106230987I0J1533007D01*
G01*
X175786052Y-88156050D02*
G75*
G02*
X173990000Y-83820000I4336048J4336050D01*
G01*
X185234008Y-107129018D02*
G75*
G03*
X184150000Y-106680000I-1084008J-1083982D01*
G01*
X179704988Y-96565128D02*
G75*
G03*
X176530000Y-88900000I-10840088J28D01*
G01*
G04 #@! TO.N,Net-(U4-Pad2)*
X216535000Y-75565000D02*
X215265000Y-75565000D01*
X212012961Y-76912038D02*
X210820000Y-78105000D01*
X204687898Y-80645000D02*
X197485000Y-80645000D01*
X212012957Y-76912034D02*
G75*
G02*
X215265000Y-75565000I3252043J-3252066D01*
G01*
X194310000Y-83820000D02*
G75*
G02*
X197485000Y-80645000I3175000J0D01*
G01*
X216535000Y-75565000D02*
G75*
G02*
X218440000Y-77470000I0J-1905000D01*
G01*
X204687898Y-80644998D02*
G75*
G03*
X210819999Y-78104999I2J8672098D01*
G01*
G04 #@! TO.N,Net-(U21-Pad7)*
X226958025Y-66675000D02*
X227330000Y-66675000D01*
X217170000Y-64770000D02*
X218625987Y-66225987D01*
X226060000Y-69850000D02*
X226060000Y-68843024D01*
X219710000Y-66675000D02*
X220081975Y-66675000D01*
X228414013Y-66225987D02*
X229870000Y-64770000D01*
X223148025Y-65405000D02*
X223891975Y-65405000D01*
X219710000Y-66675007D02*
G75*
G02*
X218625987Y-66225987I0J1533007D01*
G01*
X226958023Y-66674998D02*
G75*
G03*
X226060000Y-68843024I2167977J-2168002D01*
G01*
X223148025Y-65405011D02*
G75*
G03*
X221615000Y-66040000I-25J-2167989D01*
G01*
X221615008Y-66040008D02*
G75*
G02*
X220081975Y-66675000I-1533008J1533008D01*
G01*
X225425008Y-66039992D02*
G75*
G03*
X223891975Y-65405000I-1533008J-1533008D01*
G01*
X226958025Y-66674989D02*
G75*
G02*
X225425000Y-66040000I-25J2167989D01*
G01*
X228414008Y-66225982D02*
G75*
G02*
X227330000Y-66675000I-1084008J1083982D01*
G01*
G04 #@! TO.N,/R{slash}~{W}*
X189484000Y-107950000D02*
X188649916Y-106480916D01*
X186944000Y-99949000D02*
X186931236Y-99936236D01*
X179890987Y-82735987D02*
X178326051Y-81171051D01*
X185234013Y-93530987D02*
X185420000Y-93345000D01*
X194390537Y-114219463D02*
X189484000Y-107950000D01*
X186055000Y-86360000D02*
X182880000Y-86360000D01*
X130066051Y-74930000D02*
X151765000Y-74930000D01*
X201930000Y-116840000D02*
X200717072Y-116840000D01*
X184815816Y-99060000D02*
X184150000Y-99060000D01*
X214630000Y-127000000D02*
X214630000Y-122555000D01*
X187325000Y-88745924D02*
X187325000Y-87630000D01*
X212090000Y-120015000D02*
X209441051Y-120015000D01*
X206375000Y-118745000D02*
X206266052Y-118636052D01*
X188468000Y-106041731D02*
X188468000Y-103628261D01*
X182880000Y-97790000D02*
X182880000Y-95250000D01*
X156210000Y-79375000D02*
X156210000Y-80010000D01*
X179890982Y-82735992D02*
G75*
G02*
X180340000Y-83820000I-1083982J-1084008D01*
G01*
X194390545Y-114219455D02*
G75*
G03*
X200717072Y-116840000I6326555J6326555D01*
G01*
X188467978Y-106041731D02*
G75*
G03*
X188649916Y-106480916I621122J31D01*
G01*
X159648015Y-80381963D02*
G75*
G02*
X157480000Y-81280000I-2168015J2167963D01*
G01*
X184150000Y-93980000D02*
G75*
G03*
X182880000Y-95250000I0J-1270000D01*
G01*
X176530000Y-76835000D02*
G75*
G03*
X178326052Y-81171050I6132100J0D01*
G01*
X187325009Y-88745924D02*
G75*
G02*
X185420000Y-93345000I-6504109J24D01*
G01*
X184815816Y-99060002D02*
G75*
G02*
X186931236Y-99936236I-16J-2991698D01*
G01*
X180340000Y-83820000D02*
G75*
G03*
X182880000Y-86360000I2540000J0D01*
G01*
X206374985Y-118745015D02*
G75*
G03*
X209441051Y-120015000I3066015J3066015D01*
G01*
X156210000Y-79375000D02*
G75*
G03*
X151765000Y-74930000I-4445000J0D01*
G01*
X157480000Y-81280000D02*
G75*
G02*
X156210000Y-80010000I0J1270000D01*
G01*
X186055000Y-86360000D02*
G75*
G02*
X187325000Y-87630000I0J-1270000D01*
G01*
X186943989Y-99949011D02*
G75*
G02*
X188468000Y-103628261I-3679289J-3679289D01*
G01*
X212090000Y-120015000D02*
G75*
G02*
X214630000Y-122555000I0J-2540000D01*
G01*
X185234008Y-93530982D02*
G75*
G02*
X184150000Y-93980000I-1084008J1083982D01*
G01*
X201930000Y-116840000D02*
G75*
G02*
X206266051Y-118636053I0J-6132100D01*
G01*
X130066051Y-74930022D02*
G75*
G03*
X127000001Y-76200001I-51J-4335978D01*
G01*
X182880000Y-97790000D02*
G75*
G03*
X184150000Y-99060000I1270000J0D01*
G01*
G04 #@! TO.N,/E0*
X102890000Y-111760000D02*
X95250000Y-111760000D01*
G04 #@! TO.N,/E1*
X102870000Y-114300000D02*
X95250000Y-114300000D01*
G04 #@! TO.N,/E2*
X102890000Y-116840000D02*
X95250000Y-116840000D01*
G04 #@! TO.N,/E4*
X140970000Y-67564000D02*
X140970000Y-57150000D01*
X140970000Y-57150000D02*
G75*
G02*
X142240000Y-55880000I1270000J0D01*
G01*
X142240000Y-55879985D02*
G75*
G02*
X144408026Y-56778026I0J-3066015D01*
G01*
G04 #@! TO.N,/E5*
X143510000Y-67564000D02*
X143510000Y-62493025D01*
X142240000Y-59426975D02*
X142240000Y-57150000D01*
X142240011Y-59426975D02*
G75*
G03*
X142875000Y-60960000I2167989J-25D01*
G01*
X142875008Y-60959992D02*
G75*
G02*
X143510000Y-62493025I-1533008J-1533008D01*
G01*
G04 #@! TO.N,/E6*
X134620000Y-59426975D02*
X134620000Y-57150000D01*
X135890000Y-68580000D02*
X135890000Y-62493025D01*
X146050000Y-69850000D02*
X137160000Y-69850000D01*
X134620011Y-59426975D02*
G75*
G03*
X135255000Y-60960000I2167989J-25D01*
G01*
X135890000Y-68580000D02*
G75*
G03*
X137160000Y-69850000I1270000J0D01*
G01*
X135255008Y-60959992D02*
G75*
G02*
X135890000Y-62493025I-1533008J-1533008D01*
G01*
G04 #@! TO.N,/E7*
X148590000Y-69850000D02*
X148218026Y-70221974D01*
X132080000Y-59426975D02*
X132080000Y-57150000D01*
X133350000Y-68580000D02*
X133350000Y-62493025D01*
X146050000Y-71120000D02*
X135890000Y-71120000D01*
X146050000Y-71120015D02*
G75*
G03*
X148218026Y-70221974I0J3066015D01*
G01*
X132080011Y-59426975D02*
G75*
G03*
X132715000Y-60960000I2167989J-25D01*
G01*
X132715008Y-60959992D02*
G75*
G02*
X133350000Y-62493025I-1533008J-1533008D01*
G01*
X133350000Y-68580000D02*
G75*
G03*
X135890000Y-71120000I2540000J0D01*
G01*
G04 #@! TO.N,Net-(U18-Pad11)*
X235476051Y-79483949D02*
X243685923Y-71274077D01*
X246380000Y-64770000D02*
X246380000Y-62493025D01*
X245110000Y-59426975D02*
X245110000Y-57150000D01*
X245745008Y-60959992D02*
G75*
G02*
X246380000Y-62493025I-1533008J-1533008D01*
G01*
X235476052Y-79483950D02*
G75*
G03*
X233680000Y-83820000I4336048J-4336050D01*
G01*
X245110011Y-59426975D02*
G75*
G03*
X245745000Y-60960000I2167989J-25D01*
G01*
X246380015Y-64770000D02*
G75*
G02*
X243685922Y-71274076I-9198115J0D01*
G01*
G04 #@! TO.N,Net-(U7-Pad3)*
X195580000Y-111760000D02*
X195580000Y-111125000D01*
X184970987Y-84640987D02*
X184150000Y-83820000D01*
X194232961Y-107872961D02*
X189865000Y-103505000D01*
X188595000Y-100438949D02*
X188595000Y-87630000D01*
X195580000Y-111760000D02*
G75*
G03*
X196850000Y-113030000I1270000J0D01*
G01*
X186055000Y-85090000D02*
G75*
G02*
X188595000Y-87630000I0J-2540000D01*
G01*
X194232966Y-107872956D02*
G75*
G02*
X195580000Y-111125000I-3252066J-3252044D01*
G01*
X184970992Y-84640982D02*
G75*
G03*
X186055000Y-85090000I1084008J1083982D01*
G01*
X196850000Y-113030015D02*
G75*
G03*
X199018026Y-112131974I0J3066015D01*
G01*
X188594980Y-100438949D02*
G75*
G03*
X189865000Y-103505000I4336120J49D01*
G01*
G04 #@! TO.N,Net-(U23-Pad3)*
X210185000Y-79375000D02*
X210556974Y-79003026D01*
X217805000Y-79375000D02*
X215900000Y-79375000D01*
X214815987Y-78925987D02*
X214630000Y-78740000D01*
X231775000Y-71120000D02*
X230690988Y-72204012D01*
X196478026Y-85988026D02*
X197221974Y-86731975D01*
X213096975Y-78105000D02*
X212725000Y-78105000D01*
X206483949Y-81280000D02*
X198120000Y-81280000D01*
X210556975Y-79003026D02*
X210185000Y-79375000D01*
X221043821Y-76200000D02*
X220980000Y-76200000D01*
X232410000Y-64770000D02*
X232410000Y-69586975D01*
X196850000Y-101863025D02*
X196850000Y-104140000D01*
X210185000Y-79375000D02*
X209550000Y-80010000D01*
X198120000Y-88900000D02*
X198120000Y-98796975D01*
X206483949Y-81279978D02*
G75*
G03*
X209549999Y-80009999I51J4335978D01*
G01*
X217805000Y-79375000D02*
G75*
G03*
X219710000Y-77470000I0J1905000D01*
G01*
X196850011Y-101863025D02*
G75*
G02*
X197485000Y-100330000I2167989J25D01*
G01*
X212725000Y-78104985D02*
G75*
G03*
X210556974Y-79003026I0J-3066015D01*
G01*
X221043821Y-76200030D02*
G75*
G03*
X230690988Y-72204012I-21J13643130D01*
G01*
X197485008Y-100330008D02*
G75*
G03*
X198120000Y-98796975I-1533008J1533008D01*
G01*
X231775008Y-71120008D02*
G75*
G03*
X232410000Y-69586975I-1533008J1533008D01*
G01*
X219710000Y-77470000D02*
G75*
G02*
X220980000Y-76200000I1270000J0D01*
G01*
X210556985Y-79003036D02*
G75*
G02*
X212725000Y-78105000I2168015J-2167964D01*
G01*
X213096975Y-78105011D02*
G75*
G02*
X214630000Y-78740000I25J-2167989D01*
G01*
X214815992Y-78925982D02*
G75*
G03*
X215900000Y-79375000I1084008J1083982D01*
G01*
X195580000Y-83820000D02*
G75*
G02*
X198120000Y-81280000I2540000J0D01*
G01*
X198120014Y-88900000D02*
G75*
G03*
X197221974Y-86731975I-3066014J0D01*
G01*
X196478037Y-85988015D02*
G75*
G02*
X195580000Y-83820000I2167963J2168015D01*
G01*
G04 #@! TO.N,/fA10*
X166741975Y-105781974D02*
X166370000Y-105410000D01*
X218440000Y-99695000D02*
X218440000Y-96520000D01*
X172085000Y-109220000D02*
X169994013Y-107129013D01*
X166741985Y-105781964D02*
G75*
G03*
X168910000Y-106680000I2168015J2167964D01*
G01*
X168910000Y-106679993D02*
G75*
G02*
X169994013Y-107129013I0J-1533007D01*
G01*
G04 #@! TO.N,/Q3*
X171450000Y-76835000D02*
X177350987Y-82735987D01*
X194856845Y-116758357D02*
X193036744Y-114938256D01*
X180975000Y-93499076D02*
X180975000Y-96365924D01*
X193036744Y-114938256D02*
X187198000Y-106807000D01*
X204470000Y-121920000D02*
X202456052Y-119906052D01*
X177800000Y-83820000D02*
X177800000Y-85833949D01*
X182880000Y-100965000D02*
X183065987Y-101150987D01*
X179070014Y-88899986D02*
G75*
G02*
X177800000Y-85833949I3066086J3066086D01*
G01*
X184150000Y-101600007D02*
G75*
G02*
X183065987Y-101150987I0J1533007D01*
G01*
X177800007Y-83820000D02*
G75*
G03*
X177350987Y-82735987I-1533007J0D01*
G01*
X180975009Y-93499076D02*
G75*
G03*
X179070000Y-88900000I-6504109J-24D01*
G01*
X198120000Y-118110000D02*
G75*
G02*
X202456051Y-119906053I0J-6132100D01*
G01*
X194856845Y-116758357D02*
G75*
G03*
X198120000Y-118110000I3263155J3263157D01*
G01*
X182880007Y-100964993D02*
G75*
G02*
X180975000Y-96365924I4599093J4599093D01*
G01*
G04 #@! TO.N,/B0*
X120650000Y-99323025D02*
X120650000Y-102870000D01*
X121920000Y-95250000D02*
X121920000Y-96256975D01*
X119751963Y-105038015D02*
G75*
G03*
X120650000Y-102870000I-2167963J2168015D01*
G01*
X121285008Y-97790008D02*
G75*
G03*
X121920000Y-96256975I-1533008J1533008D01*
G01*
X120650011Y-99323025D02*
G75*
G02*
X121285000Y-97790000I2167989J25D01*
G01*
G04 #@! TO.N,/B1*
X123852077Y-96492923D02*
X124968000Y-95377000D01*
X121158000Y-108737529D02*
X121158000Y-102997000D01*
X123852067Y-96492913D02*
G75*
G03*
X121158000Y-102997000I6504133J-6504087D01*
G01*
X121158011Y-108737529D02*
G75*
G02*
X119379999Y-113029999I-6070511J29D01*
G01*
G04 #@! TO.N,/B2*
X125095000Y-113665000D02*
X125095000Y-99849076D01*
X127000007Y-95250007D02*
G75*
G03*
X125095000Y-99849076I4599093J-4599093D01*
G01*
X125095000Y-113665000D02*
G75*
G03*
X127000000Y-115570000I1905000J0D01*
G01*
G04 #@! TO.N,/B3*
X129540000Y-95250000D02*
X129540000Y-101817898D01*
X127000001Y-107950001D02*
G75*
G03*
X129540000Y-101817898I-6132101J6132101D01*
G01*
G04 #@! TO.N,/B4*
X132080000Y-95250000D02*
X132080000Y-99277898D01*
X134619999Y-105410001D02*
G75*
G02*
X132080000Y-99277898I6132101J6132101D01*
G01*
G04 #@! TO.N,/B5*
X135890000Y-110490000D02*
X135890000Y-98688025D01*
X134620011Y-95621975D02*
G75*
G03*
X135255000Y-97155000I2167989J-25D01*
G01*
X135255008Y-97154992D02*
G75*
G02*
X135890000Y-98688025I-1533008J-1533008D01*
G01*
X135890015Y-110490000D02*
G75*
G02*
X134991974Y-112658026I-3066015J0D01*
G01*
G04 #@! TO.N,/B6*
X138430000Y-106371847D02*
X138430000Y-98316051D01*
X137160015Y-95249985D02*
G75*
G02*
X138430000Y-98316051I-3066015J-3066015D01*
G01*
X138430023Y-106371847D02*
G75*
G03*
X142240001Y-115569999I13008077J-53D01*
G01*
G04 #@! TO.N,/B7*
X139700000Y-95250000D02*
X139700000Y-101817898D01*
X142239999Y-107950001D02*
G75*
G02*
X139700000Y-101817898I6132101J6132101D01*
G01*
G04 #@! TO.N,/B8*
X144036051Y-99586051D02*
X149860000Y-105410000D01*
X144036052Y-99586050D02*
G75*
G02*
X142240000Y-95250000I4336048J4336050D01*
G01*
G04 #@! TO.N,/B9*
X152400000Y-101600000D02*
X152400000Y-110490000D01*
X148590000Y-99060000D02*
X149860000Y-99060000D01*
X152400000Y-101600000D02*
G75*
G03*
X149860000Y-99060000I-2540000J0D01*
G01*
X148590000Y-99060000D02*
G75*
G02*
X144780000Y-95250000I0J3810000D01*
G01*
X149860000Y-113030000D02*
G75*
G03*
X152400000Y-110490000I0J2540000D01*
G01*
G04 #@! TO.N,/B10*
X154940000Y-113030000D02*
X154940000Y-102870000D01*
X147320000Y-95250000D02*
G75*
G03*
X149860000Y-97790000I2540000J0D01*
G01*
X154940000Y-113030000D02*
G75*
G03*
X157480000Y-115570000I2540000J0D01*
G01*
X149860000Y-97790000D02*
G75*
G02*
X154940000Y-102870000I0J-5080000D01*
G01*
G04 #@! TO.N,/RA3*
X148435924Y-74295000D02*
X127000000Y-74295000D01*
X125730000Y-75565000D02*
X125730000Y-76835000D01*
X173990000Y-71120000D02*
X156101051Y-71120000D01*
X126179013Y-77919013D02*
X126365000Y-78105000D01*
X148435924Y-74295009D02*
G75*
G03*
X153035000Y-72390000I-24J6504109D01*
G01*
X173990000Y-71119985D02*
G75*
G02*
X176158026Y-72018026I0J-3066015D01*
G01*
X126999989Y-79638025D02*
G75*
G03*
X126365000Y-78105000I-2167989J25D01*
G01*
X126179018Y-77919008D02*
G75*
G02*
X125730000Y-76835000I1083982J1084008D01*
G01*
X125730000Y-75565000D02*
G75*
G02*
X127000000Y-74295000I1270000J0D01*
G01*
X153035014Y-72390014D02*
G75*
G02*
X156101051Y-71120000I3066086J-3066086D01*
G01*
G04 #@! TO.N,/RA2*
X155466051Y-70485000D02*
X174470924Y-70485000D01*
X127000000Y-73660000D02*
X147800924Y-73660000D01*
X125095000Y-78476975D02*
X125095000Y-75565000D01*
X152399993Y-71754993D02*
G75*
G02*
X147800924Y-73660000I-4599093J4599093D01*
G01*
X125094989Y-78476975D02*
G75*
G02*
X124460000Y-80010000I-2167989J-25D01*
G01*
X179069993Y-72390007D02*
G75*
G03*
X174470924Y-70485000I-4599093J-4599093D01*
G01*
X127000000Y-73660000D02*
G75*
G03*
X125095000Y-75565000I0J-1905000D01*
G01*
X155466051Y-70485022D02*
G75*
G03*
X152400001Y-71755001I-51J-4335978D01*
G01*
G04 #@! TO.N,/RA1*
X123112961Y-78817039D02*
X121920000Y-80010000D01*
X147165924Y-73025000D02*
X127000000Y-73025000D01*
X175477898Y-69850000D02*
X154831051Y-69850000D01*
X175477898Y-69850002D02*
G75*
G02*
X181609999Y-72390001I2J-8672098D01*
G01*
X123112966Y-78817044D02*
G75*
G03*
X124460000Y-75565000I-3252066J3252044D01*
G01*
X147165924Y-73025009D02*
G75*
G03*
X151765000Y-71120000I-24J6504109D01*
G01*
X151765014Y-71120014D02*
G75*
G02*
X154831051Y-69850000I3066086J-3066086D01*
G01*
X124460000Y-75565000D02*
G75*
G02*
X127000000Y-73025000I2540000J0D01*
G01*
G04 #@! TO.N,/RA0*
X146530924Y-72390000D02*
X127000000Y-72390000D01*
X123375987Y-76649013D02*
X120464013Y-79560987D01*
X154196051Y-69215000D02*
X177203293Y-69215000D01*
X146530924Y-72390009D02*
G75*
G03*
X151130000Y-70485000I-24J6504109D01*
G01*
X119380000Y-80010007D02*
G75*
G03*
X120464013Y-79560987I0J1533007D01*
G01*
X151130014Y-70485014D02*
G75*
G02*
X154196051Y-69215000I3066086J-3066086D01*
G01*
X183642002Y-71881998D02*
G75*
G03*
X177203293Y-69215000I-6438702J-6438702D01*
G01*
X123825000Y-75565000D02*
G75*
G02*
X127000000Y-72390000I3175000J0D01*
G01*
X123375982Y-76649008D02*
G75*
G03*
X123825000Y-75565000I-1083982J1084008D01*
G01*
G04 #@! TO.N,/ROMA7*
X195580000Y-59055000D02*
X175895000Y-59055000D01*
X237413800Y-99822000D02*
X236639100Y-100596700D01*
X236865521Y-101081479D02*
X238125000Y-99822000D01*
X221353522Y-74803000D02*
X224790000Y-74803000D01*
X238125000Y-99822000D02*
X237413800Y-99822000D01*
X205105000Y-71120000D02*
X203835000Y-69850000D01*
X198755000Y-64770000D02*
X198755000Y-62230000D01*
X221353522Y-74802990D02*
G75*
G02*
X213995000Y-71755000I-22J10406490D01*
G01*
X198755000Y-64770000D02*
G75*
G03*
X203835000Y-69850000I5080000J0D01*
G01*
X195580000Y-59055000D02*
G75*
G02*
X198755000Y-62230000I0J-3175000D01*
G01*
X173990000Y-57150000D02*
G75*
G03*
X175895000Y-59055000I1905000J0D01*
G01*
G04 #@! TO.N,/~{RES}*
X164465000Y-116840000D02*
X157480000Y-116840000D01*
X141713949Y-91440000D02*
X120650000Y-91440000D01*
X152400000Y-99695000D02*
X152028026Y-99323026D01*
X153670000Y-113030000D02*
X153670000Y-102761051D01*
X145151974Y-93081975D02*
X144780000Y-92710000D01*
X149860000Y-98425000D02*
X149225000Y-98425000D01*
X116840000Y-95250000D02*
G75*
G02*
X120650000Y-91440000I3810000J0D01*
G01*
X141713949Y-91440022D02*
G75*
G02*
X144779999Y-92710001I51J-4335978D01*
G01*
X152400015Y-99694985D02*
G75*
G02*
X153670000Y-102761051I-3066015J-3066015D01*
G01*
X145151964Y-93081985D02*
G75*
G02*
X146050000Y-95250000I-2167964J-2168015D01*
G01*
X153670000Y-113030000D02*
G75*
G03*
X157480000Y-116840000I3810000J0D01*
G01*
X149860000Y-98424985D02*
G75*
G02*
X152028026Y-99323026I0J-3066015D01*
G01*
X146050000Y-95250000D02*
G75*
G03*
X149225000Y-98425000I3175000J0D01*
G01*
G04 #@! TO.N,Net-(U19-Pad18)*
X221996000Y-87757000D02*
X222875974Y-88636974D01*
X223773985Y-90805000D02*
G75*
G03*
X222875973Y-88636975I-3066085J0D01*
G01*
G04 #@! TO.N,Net-(U22-Pad10)*
X231140000Y-83820000D02*
X242549169Y-95229169D01*
X244366077Y-99615641D02*
G75*
G03*
X242549169Y-95229169I-6203377J41D01*
G01*
G04 #@! TO.N,Net-(U22-Pad11)*
X228600000Y-83820000D02*
X241036974Y-96256974D01*
X241934985Y-98425000D02*
G75*
G03*
X241036973Y-96256975I-3066085J0D01*
G01*
X242628064Y-100098218D02*
G75*
G02*
X241935000Y-98425000I1673236J1673218D01*
G01*
G04 #@! TO.N,Net-(U22-Pad12)*
X226060000Y-83820000D02*
X226060000Y-86096975D01*
X227330000Y-89163025D02*
X227330000Y-91440000D01*
X231306841Y-99988841D02*
X232892291Y-101574290D01*
X228228026Y-93608025D02*
X228971974Y-94351974D01*
X227329989Y-89163025D02*
G75*
G03*
X226695000Y-87630000I-2167989J25D01*
G01*
X232892295Y-101574286D02*
G75*
G03*
X235407200Y-102616000I2514905J2514886D01*
G01*
X228228036Y-93608015D02*
G75*
G02*
X227330000Y-91440000I2167964J2168015D01*
G01*
X231306837Y-99988845D02*
G75*
G02*
X229870000Y-96520000I3468863J3468845D01*
G01*
X229869985Y-96520000D02*
G75*
G03*
X228971973Y-94351975I-3066085J0D01*
G01*
X226694992Y-87630008D02*
G75*
G02*
X226060000Y-86096975I1533008J1533008D01*
G01*
G04 #@! TO.N,Net-(U22-Pad15)*
X226431974Y-94351974D02*
X225972841Y-93892841D01*
X222758000Y-86211210D02*
X222640026Y-86093236D01*
X228302420Y-98867631D02*
X233807001Y-104372210D01*
X218737579Y-84476790D02*
X218694000Y-84433210D01*
X234870190Y-104753210D02*
X234726815Y-104753210D01*
X234726815Y-104753210D02*
X235204000Y-104753210D01*
X222814344Y-86267553D02*
X222758000Y-86211210D01*
X227330014Y-96520000D02*
G75*
G03*
X228302420Y-98867631I3320086J0D01*
G01*
X220472000Y-85195222D02*
G75*
G02*
X222640026Y-86093236I0J-3066078D01*
G01*
X218737586Y-84476783D02*
G75*
G03*
X220472000Y-85195210I1734414J1734383D01*
G01*
X226431984Y-94351964D02*
G75*
G02*
X227330000Y-96520000I-2168084J-2168036D01*
G01*
X235637605Y-104573605D02*
G75*
G02*
X235204000Y-104753210I-433605J433605D01*
G01*
X222814346Y-86267551D02*
G75*
G02*
X224790000Y-91037210I-4769646J-4769649D01*
G01*
X234870190Y-104753200D02*
G75*
G03*
X236575600Y-103047800I10J1705400D01*
G01*
X224790002Y-91037210D02*
G75*
G03*
X225972842Y-93892840I4038498J10D01*
G01*
X233806994Y-104372217D02*
G75*
G03*
X234726815Y-104753210I919806J919817D01*
G01*
G04 #@! TO.N,Net-(CR1-Pad1)*
X215900000Y-71120000D02*
X215265000Y-71120000D01*
X196632102Y-77470000D02*
X196850000Y-77470000D01*
X201930000Y-74930000D02*
X199390000Y-74930000D01*
X211640987Y-69029013D02*
X208434077Y-72235923D01*
X211640992Y-69029018D02*
G75*
G02*
X212725000Y-68580000I1084008J-1083982D01*
G01*
X196850000Y-77470000D02*
G75*
G03*
X198120000Y-76200000I0J1270000D01*
G01*
X213995000Y-69850000D02*
G75*
G03*
X215265000Y-71120000I1270000J0D01*
G01*
X196632102Y-77470002D02*
G75*
G03*
X190500001Y-80010001I-2J-8672098D01*
G01*
X198120000Y-76200000D02*
G75*
G02*
X199390000Y-74930000I1270000J0D01*
G01*
X215900000Y-71120015D02*
G75*
G03*
X218068026Y-70221974I0J3066015D01*
G01*
X212725000Y-68580000D02*
G75*
G02*
X213995000Y-69850000I0J-1270000D01*
G01*
X201930000Y-74930015D02*
G75*
G03*
X208434076Y-72235922I0J9198115D01*
G01*
G04 #@! TO.N,/~{IO_SELECT}*
X171450000Y-116205000D02*
X171450000Y-113030000D01*
X221615000Y-118745000D02*
X210974076Y-118745000D01*
X196850000Y-83820000D02*
X199105184Y-86075184D01*
X206375000Y-116840000D02*
X205554013Y-116019013D01*
X200406000Y-86614000D02*
X201930000Y-86614000D01*
X211455000Y-104775000D02*
X211455000Y-111760000D01*
X205105000Y-114935000D02*
X208915000Y-114935000D01*
X200660000Y-114935000D02*
X205105000Y-114935000D01*
X211455000Y-111760000D02*
X211455000Y-112395000D01*
X210566000Y-100540420D02*
X210566000Y-102944395D01*
X207010000Y-94615000D02*
X209550000Y-94615000D01*
X203200000Y-87884000D02*
X203200000Y-88900000D01*
X210566000Y-102944395D02*
X211455000Y-104775000D01*
X211455000Y-96520000D02*
X211455000Y-98394185D01*
X204996052Y-93236052D02*
X205925987Y-94165987D01*
X171450000Y-127000000D02*
X171450000Y-116205000D01*
X210566009Y-100540420D02*
G75*
G02*
X211074000Y-99314000I1734391J20D01*
G01*
X208915000Y-114935000D02*
G75*
G03*
X211455000Y-112395000I0J2540000D01*
G01*
X203200000Y-87884000D02*
G75*
G03*
X201930000Y-86614000I-1270000J0D01*
G01*
X221615000Y-118745000D02*
G75*
G03*
X223520000Y-116840000I0J1905000D01*
G01*
X206375007Y-116839993D02*
G75*
G03*
X210974076Y-118745000I4599093J4599093D01*
G01*
X211455000Y-96520000D02*
G75*
G03*
X209550000Y-94615000I-1905000J0D01*
G01*
X204996053Y-93236051D02*
G75*
G02*
X203200000Y-88900000I4336047J4336051D01*
G01*
X200406000Y-86614009D02*
G75*
G02*
X199105184Y-86075184I0J1839609D01*
G01*
X211074005Y-99314005D02*
G75*
G03*
X211455000Y-98394185I-919805J919805D01*
G01*
X205104993Y-114935000D02*
G75*
G03*
X205554013Y-116019013I1533007J0D01*
G01*
X207010000Y-94615007D02*
G75*
G02*
X205925987Y-94165987I0J1533007D01*
G01*
G04 #@! TO.N,/~{IO_STROBE}*
X219710000Y-127000000D02*
X219710000Y-124723025D01*
X219075000Y-123190000D02*
X217510065Y-121625065D01*
X208280000Y-111760000D02*
X208280000Y-101863025D01*
X207010000Y-98796975D02*
X207010000Y-96520000D01*
X200660000Y-113665000D02*
X206375000Y-113665000D01*
X202209529Y-116205000D02*
X200660000Y-116205000D01*
X212090000Y-119380000D02*
X209874656Y-119380000D01*
X202209529Y-116204989D02*
G75*
G02*
X206501999Y-117983001I-29J-6070511D01*
G01*
X219075008Y-123189992D02*
G75*
G02*
X219710000Y-124723025I-1533008J-1533008D01*
G01*
X207010011Y-98796975D02*
G75*
G03*
X207645000Y-100330000I2167989J-25D01*
G01*
X199390000Y-114935000D02*
G75*
G03*
X200660000Y-116205000I1270000J0D01*
G01*
X206502013Y-117982987D02*
G75*
G03*
X209874656Y-119380000I3372687J3372687D01*
G01*
X207645008Y-100329992D02*
G75*
G02*
X208280000Y-101863025I-1533008J-1533008D01*
G01*
X212090000Y-119379992D02*
G75*
G02*
X217510065Y-121625065I0J-7665108D01*
G01*
X208280000Y-111760000D02*
G75*
G02*
X206375000Y-113665000I-1905000J0D01*
G01*
X200660000Y-113665000D02*
G75*
G03*
X199390000Y-114935000I0J-1270000D01*
G01*
G04 #@! TO.N,/INT_IN*
X227330000Y-121920000D02*
X227330000Y-127000000D01*
G04 #@! TO.N,/DMA_IN*
X229870000Y-127000000D02*
X229870000Y-121920000D01*
G04 #@! TO.N,-5V*
X210820000Y-71755000D02*
X208094013Y-74480987D01*
X192405000Y-83185000D02*
X192405000Y-89271975D01*
X191135000Y-92338025D02*
X191135000Y-98796975D01*
X202565000Y-79375000D02*
X196215000Y-79375000D01*
X191135011Y-92338025D02*
G75*
G02*
X191770000Y-90805000I2167989J25D01*
G01*
X207010000Y-74930007D02*
G75*
G03*
X208094013Y-74480987I0J1533007D01*
G01*
X192405000Y-83185000D02*
G75*
G02*
X196215000Y-79375000I3810000J0D01*
G01*
X202565000Y-79375000D02*
G75*
G03*
X205740000Y-76200000I0J3175000D01*
G01*
X205740000Y-76200000D02*
G75*
G02*
X207010000Y-74930000I1270000J0D01*
G01*
X190500008Y-100330008D02*
G75*
G03*
X191135000Y-98796975I-1533008J1533008D01*
G01*
X191770008Y-90805008D02*
G75*
G03*
X192405000Y-89271975I-1533008J1533008D01*
G01*
G04 #@! TO.N,/~{DEV}*
X214180987Y-117660987D02*
X213360000Y-116840000D01*
X218694000Y-118110000D02*
X215265000Y-118110000D01*
X211826975Y-116205000D02*
X207645000Y-116205000D01*
X219710000Y-114563025D02*
X219710000Y-117094000D01*
X220980000Y-109220000D02*
X220980000Y-111496975D01*
X218694000Y-118110000D02*
G75*
G03*
X219710000Y-117094000I0J1016000D01*
G01*
X220345008Y-113030008D02*
G75*
G03*
X220980000Y-111496975I-1533008J1533008D01*
G01*
X214180992Y-117660982D02*
G75*
G03*
X215265000Y-118110000I1084008J1083982D01*
G01*
X219710011Y-114563025D02*
G75*
G02*
X220345000Y-113030000I2167989J25D01*
G01*
X211826975Y-116205011D02*
G75*
G02*
X213360000Y-116840000I25J-2167989D01*
G01*
G04 #@! TO.N,/HSYNC*
X127000000Y-81280000D02*
X118110000Y-81280000D01*
X153220987Y-78925987D02*
X153035000Y-78740000D01*
X149968949Y-77470000D02*
X130810000Y-77470000D01*
X157480000Y-82550000D02*
X156210000Y-82550000D01*
X169545000Y-86360000D02*
X165626051Y-86360000D01*
X162560000Y-85090000D02*
X161816051Y-84346051D01*
X174965064Y-88605064D02*
X176530000Y-90170000D01*
X149968949Y-77469980D02*
G75*
G02*
X153035000Y-78740000I-49J-4336120D01*
G01*
X116840000Y-80010000D02*
G75*
G03*
X118110000Y-81280000I1270000J0D01*
G01*
X174965058Y-88605070D02*
G75*
G03*
X169545000Y-86360000I-5420058J-5420030D01*
G01*
X157480000Y-82550000D02*
G75*
G02*
X161816050Y-84346052I0J-6132100D01*
G01*
X153220982Y-78925992D02*
G75*
G02*
X153670000Y-80010000I-1083982J-1084008D01*
G01*
X127000000Y-81280000D02*
G75*
G03*
X128270000Y-80010000I0J1270000D01*
G01*
X128270000Y-80010000D02*
G75*
G02*
X130810000Y-77470000I2540000J0D01*
G01*
X153670000Y-80010000D02*
G75*
G03*
X156210000Y-82550000I2540000J0D01*
G01*
X162559985Y-85090015D02*
G75*
G03*
X165626051Y-86360000I3066015J3066015D01*
G01*
G04 #@! TO.N,/VSYNC*
X173246051Y-90696051D02*
X176530000Y-93980000D01*
X155575000Y-83820000D02*
X156427898Y-83820000D01*
X151765000Y-81915000D02*
X152322961Y-82472961D01*
X167794076Y-88900000D02*
X168910000Y-88900000D01*
X150495000Y-78740000D02*
X150680987Y-78925987D01*
X162560000Y-86360000D02*
X163195000Y-86995000D01*
X116205000Y-81915000D02*
X128905000Y-81915000D01*
X151130000Y-80010000D02*
X151130000Y-80381975D01*
X132715000Y-78105000D02*
X148961975Y-78105000D01*
X151764992Y-81915008D02*
G75*
G02*
X151130000Y-80381975I1533008J1533008D01*
G01*
X150495008Y-78739992D02*
G75*
G03*
X148961975Y-78105000I-1533008J-1533008D01*
G01*
X116205000Y-81915000D02*
G75*
G02*
X114300000Y-80010000I0J1905000D01*
G01*
X173246050Y-90696052D02*
G75*
G03*
X168910000Y-88900000I-4336050J-4336048D01*
G01*
X151130007Y-80010000D02*
G75*
G03*
X150680987Y-78925987I-1533007J0D01*
G01*
X167794076Y-88900009D02*
G75*
G02*
X163195000Y-86995000I24J6504109D01*
G01*
X132715000Y-78105000D02*
G75*
G03*
X130810000Y-80010000I0J-1905000D01*
G01*
X130810000Y-80010000D02*
G75*
G02*
X128905000Y-81915000I-1905000J0D01*
G01*
X162560001Y-86359999D02*
G75*
G03*
X156427898Y-83820000I-6132101J-6132101D01*
G01*
X155575000Y-83819993D02*
G75*
G02*
X152322961Y-82472961I0J4599093D01*
G01*
G04 #@! TO.N,/DEV*
X182771051Y-81915000D02*
X187325000Y-81915000D01*
X190128026Y-102498025D02*
X194495987Y-106865987D01*
X222621974Y-107051975D02*
X222250000Y-106680000D01*
X190500000Y-85090000D02*
X190500000Y-85725000D01*
X223520000Y-97263949D02*
X223520000Y-96520000D01*
X189230000Y-100330000D02*
X189230000Y-88528025D01*
X179705000Y-80645000D02*
X179596051Y-80536051D01*
X201930000Y-104140000D02*
X201000064Y-105069936D01*
X189865000Y-86995000D02*
X190050987Y-86809013D01*
X222250000Y-106680000D02*
X221878026Y-106308026D01*
X158069871Y-79420129D02*
X157480000Y-80010000D01*
X171450000Y-74930000D02*
X168910000Y-74930000D01*
X220980000Y-104140000D02*
X220980000Y-103396051D01*
X176530000Y-74930000D02*
G75*
G02*
X177800000Y-76200000I0J-1270000D01*
G01*
X189864992Y-86994992D02*
G75*
G03*
X189230000Y-88528025I1533008J-1533008D01*
G01*
X182771051Y-81914978D02*
G75*
G02*
X179705001Y-80644999I-51J4335978D01*
G01*
X223519978Y-97263949D02*
G75*
G02*
X222249999Y-100329999I-4335978J-51D01*
G01*
X222250014Y-100330014D02*
G75*
G03*
X220980000Y-103396051I3066086J-3066086D01*
G01*
X222621964Y-107051985D02*
G75*
G02*
X223520000Y-109220000I-2167964J-2168015D01*
G01*
X194495992Y-106865982D02*
G75*
G03*
X195580000Y-107315000I1084008J1083982D01*
G01*
X172720000Y-76200000D02*
G75*
G03*
X173990000Y-77470000I1270000J0D01*
G01*
X171450000Y-74930000D02*
G75*
G02*
X172720000Y-76200000I0J-1270000D01*
G01*
X190128036Y-102498015D02*
G75*
G02*
X189230000Y-100330000I2167964J2168015D01*
G01*
X220979985Y-104140000D02*
G75*
G03*
X221878026Y-106308026I3066015J0D01*
G01*
X158069862Y-79420120D02*
G75*
G02*
X168910000Y-74930000I10840138J-10840180D01*
G01*
X190500000Y-85090000D02*
G75*
G03*
X187325000Y-81915000I-3175000J0D01*
G01*
X173990000Y-77470000D02*
G75*
G03*
X175260000Y-76200000I0J1270000D01*
G01*
X175260000Y-76200000D02*
G75*
G02*
X176530000Y-74930000I1270000J0D01*
G01*
X195580000Y-107315008D02*
G75*
G03*
X201000064Y-105069936I0J7665108D01*
G01*
X177800000Y-76200000D02*
G75*
G03*
X179596052Y-80536050I6132100J0D01*
G01*
X190050982Y-86809008D02*
G75*
G03*
X190500000Y-85725000I-1083982J1084008D01*
G01*
G04 #@! TO.N,/SRAM/RAMA5*
X102890000Y-91440000D02*
X95250000Y-91440000D01*
G04 #@! TO.N,/SRAM/RAMA3*
X102870000Y-93980000D02*
X95250000Y-93980000D01*
G04 #@! TO.N,/SRAM/RAMA0*
X102870000Y-96520000D02*
X106416974Y-100066974D01*
X102890000Y-96520000D02*
X95250000Y-96520000D01*
X106402832Y-100032833D02*
X102890000Y-96520000D01*
X107315000Y-102235000D02*
G75*
G03*
X110490000Y-105410000I3175000J0D01*
G01*
X106402825Y-100032840D02*
G75*
G02*
X107315000Y-102235000I-2202125J-2202160D01*
G01*
X107314985Y-102235000D02*
G75*
G03*
X106416973Y-100066975I-3066085J0D01*
G01*
G04 #@! TO.N,/SRAM/RAMA2*
X102870000Y-99060000D02*
X95250000Y-99060000D01*
G04 #@! TO.N,/SRAM/RAMA10*
X153081223Y-115616223D02*
X154227961Y-116762962D01*
X149860000Y-111760000D02*
X149606000Y-111760000D01*
X106045000Y-109265128D02*
X106045000Y-116205000D01*
X146050000Y-111506000D02*
X146050000Y-110805630D01*
X149606000Y-114300000D02*
X149903580Y-114300000D01*
X148590000Y-112776000D02*
X148590000Y-113284000D01*
X143324013Y-116390987D02*
X144523356Y-115191643D01*
X102890000Y-101600000D02*
X95250000Y-101600000D01*
X141496051Y-116840000D02*
X142240000Y-116840000D01*
X151130000Y-107950000D02*
X151130000Y-110490000D01*
X146812000Y-108966000D02*
X148559184Y-107218815D01*
X110744000Y-120904000D02*
X131684688Y-120904000D01*
X141496051Y-116839980D02*
G75*
G03*
X138430000Y-118110000I49J-4336120D01*
G01*
X143324008Y-116390982D02*
G75*
G02*
X142240000Y-116840000I-1084008J1083982D01*
G01*
X149860000Y-106679991D02*
G75*
G03*
X148559185Y-107218816I0J-1839609D01*
G01*
X157480000Y-118109993D02*
G75*
G02*
X154227962Y-116762961I0J4599093D01*
G01*
X153081240Y-115616206D02*
G75*
G03*
X149903580Y-114300000I-3177640J-3177694D01*
G01*
X148590000Y-112776000D02*
G75*
G02*
X149606000Y-111760000I1016000J0D01*
G01*
X151130000Y-107950000D02*
G75*
G03*
X149860000Y-106680000I-1270000J0D01*
G01*
X146049995Y-111506000D02*
G75*
G02*
X144523356Y-115191643I-5212295J0D01*
G01*
X149860000Y-111760000D02*
G75*
G03*
X151130000Y-110490000I0J1270000D01*
G01*
X110744000Y-120904000D02*
G75*
G02*
X106045000Y-116205000I0J4699000D01*
G01*
X138430004Y-118110004D02*
G75*
G02*
X131684688Y-120904000I-6745304J6745304D01*
G01*
X106044988Y-109265128D02*
G75*
G03*
X102870000Y-101600000I-10840088J28D01*
G01*
X146811991Y-108965991D02*
G75*
G03*
X146050000Y-110805630I1839609J-1839609D01*
G01*
X149606000Y-114300000D02*
G75*
G02*
X148590000Y-113284000I0J1016000D01*
G01*
G04 #@! TO.N,/SRAM/RAMA6*
X102870000Y-104140000D02*
X95250000Y-104140000D01*
X134268267Y-121412000D02*
X110617000Y-121412000D01*
X105410000Y-116205000D02*
X105410000Y-110272102D01*
X102870001Y-104139999D02*
G75*
G02*
X105410000Y-110272102I-6132101J-6132101D01*
G01*
X134268267Y-121411986D02*
G75*
G03*
X142240000Y-118110000I33J11273686D01*
G01*
X105410000Y-116205000D02*
G75*
G03*
X110617000Y-121412000I5207000J0D01*
G01*
G04 #@! TO.N,/SRAM/RAMA8*
X135581847Y-121920000D02*
X110490000Y-121920000D01*
X104775000Y-116205000D02*
X104775000Y-111279076D01*
X149860000Y-107950000D02*
X148218026Y-109591974D01*
X147320000Y-111760000D02*
X147320000Y-111977898D01*
X102890000Y-106680000D02*
X95250000Y-106680000D01*
X147319985Y-111760000D02*
G75*
G02*
X148218026Y-109591974I3066015J0D01*
G01*
X102869993Y-106680007D02*
G75*
G02*
X104775000Y-111279076I-4599093J-4599093D01*
G01*
X104775000Y-116205000D02*
G75*
G03*
X110490000Y-121920000I5715000J0D01*
G01*
X135581847Y-121920019D02*
G75*
G03*
X144780000Y-118110000I-47J13008219D01*
G01*
X144780001Y-118110001D02*
G75*
G03*
X147320000Y-111977898I-6132101J6132101D01*
G01*
G04 #@! TO.N,/SRAM/RAMA9*
X135890000Y-122555000D02*
X110490000Y-122555000D01*
X102870000Y-109220000D02*
X95250000Y-109220000D01*
X149860000Y-115570000D02*
X147814141Y-117615859D01*
X104140000Y-116205000D02*
X104140000Y-112286051D01*
X102870015Y-109219985D02*
G75*
G02*
X104140000Y-112286051I-3066015J-3066015D01*
G01*
X135890000Y-122554994D02*
G75*
G03*
X147814141Y-117615859I0J16863294D01*
G01*
X104140000Y-116205000D02*
G75*
G03*
X110490000Y-122555000I6350000J0D01*
G01*
G04 #@! TO.N,/SRAM/RAMA4*
X110118036Y-94351985D02*
G75*
G03*
X109220000Y-96520000I2167964J-2168015D01*
G01*
X109220000Y-96520000D02*
G75*
G03*
X110490000Y-97790000I1270000J0D01*
G01*
G04 #@! TO.N,/RAM_~{A}{slash}B*
X176530000Y-74295000D02*
X178435000Y-74295000D01*
X133350000Y-95250000D02*
X133350000Y-93345000D01*
X180340000Y-76943949D02*
X180340000Y-76200000D01*
X123317000Y-92583000D02*
X133477000Y-92583000D01*
X173990000Y-76200000D02*
X175445987Y-74744013D01*
X133477000Y-92583000D02*
X140843000Y-92583000D01*
X184785000Y-71120000D02*
X184970987Y-71305987D01*
X133350000Y-93345000D02*
X133350000Y-92710000D01*
X133350000Y-97263949D02*
X133350000Y-95250000D01*
X132715000Y-71755000D02*
X145895924Y-71755000D01*
X119380000Y-100330000D02*
X119380000Y-99323025D01*
X195797898Y-78740000D02*
X195580000Y-78740000D01*
X120650000Y-96256975D02*
X120650000Y-95250000D01*
X192219013Y-80830987D02*
X193411975Y-79638026D01*
X191135000Y-81280000D02*
X184676051Y-81280000D01*
X149860000Y-100330000D02*
X148590000Y-100330000D01*
X153561051Y-68580000D02*
X178652898Y-68580000D01*
X184277000Y-73533000D02*
X183007000Y-73533000D01*
X184785001Y-71119999D02*
G75*
G03*
X178652898Y-68580000I-6132101J-6132101D01*
G01*
X181609985Y-80010015D02*
G75*
G03*
X184676051Y-81280000I3066015J3066015D01*
G01*
X153561051Y-68579980D02*
G75*
G03*
X150495000Y-69850000I49J-4336120D01*
G01*
X123317000Y-92583000D02*
G75*
G03*
X120650000Y-95250000I0J-2667000D01*
G01*
X191135000Y-81280007D02*
G75*
G03*
X192219013Y-80830987I0J1533007D01*
G01*
X143510000Y-95250000D02*
G75*
G03*
X148590000Y-100330000I5080000J0D01*
G01*
X120014992Y-97789992D02*
G75*
G03*
X119380000Y-99323025I1533008J-1533008D01*
G01*
X120649989Y-96256975D02*
G75*
G02*
X120015000Y-97790000I-2167989J-25D01*
G01*
X195797898Y-78739998D02*
G75*
G03*
X201929999Y-76199999I2J8672098D01*
G01*
X133350022Y-97263949D02*
G75*
G03*
X134620001Y-100329999I4335978J-51D01*
G01*
X193411985Y-79638036D02*
G75*
G02*
X195580000Y-78740000I2168015J-2167964D01*
G01*
X180340000Y-76200000D02*
G75*
G03*
X178435000Y-74295000I-1905000J0D01*
G01*
X143510000Y-95250000D02*
G75*
G03*
X140843000Y-92583000I-2667000J0D01*
G01*
X176530000Y-74294993D02*
G75*
G03*
X175445987Y-74744013I0J-1533007D01*
G01*
X150494993Y-69849993D02*
G75*
G02*
X145895924Y-71755000I-4599093J4599093D01*
G01*
X133477000Y-92583000D02*
G75*
G03*
X133350000Y-92710000I0J-127000D01*
G01*
X132715000Y-71755000D02*
G75*
G02*
X129540000Y-68580000I0J3175000D01*
G01*
X184277000Y-73533000D02*
G75*
G03*
X185420000Y-72390000I0J1143000D01*
G01*
X185420007Y-72390000D02*
G75*
G03*
X184970987Y-71305987I-1533007J0D01*
G01*
X180340000Y-76200000D02*
G75*
G02*
X183007000Y-73533000I2667000J0D01*
G01*
X180340022Y-76943949D02*
G75*
G03*
X181610001Y-80009999I4335978J-51D01*
G01*
G04 #@! TO.N,/Firmware/~{OE}*
X196850000Y-88900000D02*
X196850000Y-91176975D01*
X195580000Y-94243025D02*
X195580000Y-105156000D01*
X196215008Y-92710008D02*
G75*
G03*
X196850000Y-91176975I-1533008J1533008D01*
G01*
X195580011Y-94243025D02*
G75*
G02*
X196215000Y-92710000I2167989J25D01*
G01*
G04 #@! TO.N,/Firmware/A9*
X186055000Y-85725000D02*
X184785000Y-85725000D01*
X187960000Y-88591847D02*
X187960000Y-87630000D01*
X188595000Y-83820000D02*
X188595000Y-85090000D01*
X184150000Y-82550000D02*
X187325000Y-82550000D01*
X182880000Y-83820000D02*
G75*
G03*
X184785000Y-85725000I1905000J0D01*
G01*
X184150000Y-82550000D02*
G75*
G03*
X182880000Y-83820000I0J-1270000D01*
G01*
X187960019Y-88591847D02*
G75*
G02*
X184150000Y-97790000I-13008219J47D01*
G01*
X188595000Y-83820000D02*
G75*
G03*
X187325000Y-82550000I-1270000J0D01*
G01*
X186055000Y-85725000D02*
G75*
G02*
X187960000Y-87630000I0J-1905000D01*
G01*
G04 #@! TD*
M02*
