M48
; DRILL file {KiCad (6.0.5-0)} date Tuesday, September 20, 2022 at 02:50:08 AM
; FORMAT={-:-/ absolute / inch / decimal}
; #@! TF.CreationDate,2022-09-20T02:50:08-07:00
; #@! TF.GenerationSoftware,Kicad,Pcbnew,(6.0.5-0)
; #@! TF.FileFunction,MixedPlating,1,2
FMAT,2
INCH
; #@! TA.AperFunction,Plated,PTH,ViaDrill
T1C0.0200
; #@! TA.AperFunction,Plated,PTH,ViaDrill
T2C0.0250
; #@! TA.AperFunction,Plated,PTH,ComponentDrill
T3C0.0295
; #@! TA.AperFunction,Plated,PTH,ComponentDrill
T4C0.0315
; #@! TA.AperFunction,Plated,PTH,ComponentDrill
T5C0.0394
%
G90
G05
T1
X4.4Y-4.65
X4.475Y-4.3
X4.475Y-4.425
X4.525Y-3.85
X4.575Y-4.425
X4.625Y-3.9
X4.625Y-4.0
X4.625Y-4.1
X4.625Y-4.2
X5.05Y-3.685
X5.55Y-2.66
X5.65Y-2.66
X5.65Y-3.525
X5.75Y-2.75
X5.75Y-4.25
X5.85Y-2.75
X6.0Y-3.495
X6.45Y-4.225
X6.475Y-4.6
X6.5Y-4.0
X6.55Y-4.15
X6.75Y-4.45
X6.775Y-4.3
X6.95Y-3.55
X6.95Y-3.7
X6.95Y-3.775
X7.15Y-3.15
X7.25Y-2.55
X7.3Y-2.915
X7.3Y-3.125
X7.325Y-3.95
X7.425Y-3.35
X7.7Y-4.15
X7.9Y-4.525
X8.05Y-4.8
X8.075Y-2.8
X8.175Y-4.575
X8.3Y-2.825
X8.35Y-4.8
X8.425Y-2.825
X8.57Y-3.505
X8.6Y-3.925
X8.74Y-3.455
X8.85Y-2.945
X8.95Y-4.8
X8.975Y-3.225
X9.05Y-4.8
X9.375Y-3.93
T2
X6.48Y-3.305
T3
X4.22Y-2.25
X4.27Y-2.2
X4.32Y-2.25
T4
X3.75Y-3.2
X3.75Y-3.3
X3.75Y-3.4
X3.75Y-3.4
X3.75Y-3.5
X3.75Y-3.5
X3.75Y-3.6
X3.75Y-3.6
X3.75Y-3.6
X3.75Y-3.7
X3.75Y-3.7
X3.75Y-3.7
X3.75Y-3.8
X3.75Y-3.8
X3.75Y-3.8
X3.75Y-3.9
X3.75Y-3.9
X3.75Y-3.9
X3.75Y-4.0
X3.75Y-4.0
X3.75Y-4.0
X3.75Y-4.1
X3.75Y-4.1
X3.75Y-4.1
X3.75Y-4.2
X3.75Y-4.2
X3.75Y-4.2
X3.75Y-4.3
X3.75Y-4.3
X3.75Y-4.3
X3.75Y-4.4
X3.75Y-4.4
X3.75Y-4.4
X3.75Y-4.5
X3.75Y-4.5
X3.75Y-4.5
X3.75Y-4.6
X3.75Y-4.6
X3.75Y-4.6
X3.75Y-4.7
X3.75Y-4.7
X3.75Y-4.7
X4.05Y-3.2
X4.05Y-3.3
X4.05Y-3.4
X4.05Y-3.4
X4.05Y-3.5
X4.05Y-3.5
X4.05Y-3.6
X4.05Y-3.6
X4.05Y-3.6
X4.05Y-3.7
X4.05Y-3.7
X4.05Y-3.7
X4.05Y-3.8
X4.05Y-3.8
X4.05Y-3.8
X4.05Y-3.9
X4.05Y-3.9
X4.05Y-3.9
X4.05Y-4.0
X4.05Y-4.0
X4.05Y-4.0
X4.05Y-4.1
X4.05Y-4.1
X4.05Y-4.1
X4.05Y-4.2
X4.05Y-4.2
X4.05Y-4.2
X4.05Y-4.3
X4.05Y-4.3
X4.05Y-4.3
X4.05Y-4.4
X4.05Y-4.4
X4.05Y-4.4
X4.05Y-4.5
X4.05Y-4.5
X4.05Y-4.5
X4.05Y-4.6
X4.05Y-4.6
X4.05Y-4.6
X4.05Y-4.7
X4.05Y-4.7
X4.05Y-4.7
X4.2Y-2.45
X4.2Y-2.6
X4.3Y-2.75
X4.35Y-3.2
X4.35Y-3.2
X4.35Y-3.3
X4.35Y-3.3
X4.35Y-3.4
X4.35Y-3.4
X4.35Y-3.4
X4.35Y-3.4
X4.35Y-3.5
X4.35Y-3.5
X4.35Y-3.5
X4.35Y-3.5
X4.35Y-3.6
X4.35Y-3.6
X4.35Y-3.6
X4.35Y-3.6
X4.35Y-3.6
X4.35Y-3.6
X4.35Y-3.7
X4.35Y-3.7
X4.35Y-3.7
X4.35Y-3.7
X4.35Y-3.7
X4.35Y-3.7
X4.35Y-3.8
X4.35Y-3.8
X4.35Y-3.8
X4.35Y-3.8
X4.35Y-3.8
X4.35Y-3.8
X4.35Y-3.9
X4.35Y-3.9
X4.35Y-3.9
X4.35Y-3.9
X4.35Y-3.9
X4.35Y-3.9
X4.35Y-4.0
X4.35Y-4.0
X4.35Y-4.0
X4.35Y-4.0
X4.35Y-4.0
X4.35Y-4.0
X4.35Y-4.1
X4.35Y-4.1
X4.35Y-4.1
X4.35Y-4.1
X4.35Y-4.1
X4.35Y-4.1
X4.35Y-4.2
X4.35Y-4.2
X4.35Y-4.2
X4.35Y-4.2
X4.35Y-4.2
X4.35Y-4.2
X4.35Y-4.3
X4.35Y-4.3
X4.35Y-4.3
X4.35Y-4.3
X4.35Y-4.3
X4.35Y-4.3
X4.35Y-4.4
X4.35Y-4.4
X4.35Y-4.4
X4.35Y-4.4
X4.35Y-4.4
X4.35Y-4.4
X4.35Y-4.5
X4.35Y-4.5
X4.35Y-4.5
X4.35Y-4.5
X4.35Y-4.5
X4.35Y-4.5
X4.35Y-4.6
X4.35Y-4.6
X4.35Y-4.6
X4.35Y-4.6
X4.35Y-4.6
X4.35Y-4.6
X4.35Y-4.7
X4.35Y-4.7
X4.35Y-4.7
X4.35Y-4.7
X4.35Y-4.7
X4.35Y-4.7
X4.45Y-2.3
X4.5Y-3.15
X4.5Y-3.75
X4.55Y-2.75
X4.6Y-2.45
X4.6Y-2.6
X4.6Y-3.15
X4.6Y-3.75
X4.7Y-3.15
X4.7Y-3.75
X4.7Y-3.95
X4.7Y-4.05
X4.7Y-4.15
X4.7Y-4.25
X4.7Y-4.35
X4.7Y-4.45
X4.7Y-4.55
X4.7Y-4.65
X4.8Y-3.15
X4.8Y-3.75
X4.85Y-2.3
X4.9Y-3.15
X4.9Y-3.75
X5.0Y-2.25
X5.0Y-2.55
X5.0Y-2.7
X5.0Y-3.0
X5.0Y-3.15
X5.0Y-3.75
X5.0Y-3.95
X5.0Y-4.05
X5.0Y-4.15
X5.0Y-4.25
X5.0Y-4.35
X5.0Y-4.45
X5.0Y-4.55
X5.0Y-4.65
X5.1Y-2.25
X5.1Y-2.55
X5.1Y-2.7
X5.1Y-3.0
X5.1Y-3.15
X5.1Y-3.75
X5.2Y-2.25
X5.2Y-2.55
X5.2Y-2.7
X5.2Y-3.0
X5.2Y-3.15
X5.2Y-3.75
X5.3Y-2.25
X5.3Y-2.55
X5.3Y-2.7
X5.3Y-3.0
X5.3Y-3.15
X5.3Y-3.75
X5.3Y-3.95
X5.3Y-4.05
X5.3Y-4.15
X5.3Y-4.25
X5.3Y-4.35
X5.3Y-4.45
X5.3Y-4.55
X5.3Y-4.65
X5.4Y-2.25
X5.4Y-2.55
X5.4Y-2.7
X5.4Y-3.0
X5.4Y-3.15
X5.4Y-3.75
X5.5Y-2.25
X5.5Y-2.55
X5.5Y-2.7
X5.5Y-3.0
X5.5Y-3.15
X5.5Y-3.75
X5.6Y-2.25
X5.6Y-2.55
X5.6Y-2.7
X5.6Y-3.0
X5.6Y-3.15
X5.6Y-3.75
X5.6Y-3.95
X5.6Y-4.05
X5.6Y-4.15
X5.6Y-4.25
X5.6Y-4.35
X5.6Y-4.45
X5.6Y-4.55
X5.6Y-4.65
X5.7Y-2.25
X5.7Y-2.55
X5.7Y-2.7
X5.7Y-3.0
X5.7Y-3.15
X5.7Y-3.75
X5.8Y-2.25
X5.8Y-2.55
X5.8Y-2.7
X5.8Y-3.0
X5.8Y-3.15
X5.8Y-3.75
X5.9Y-2.25
X5.9Y-2.55
X5.9Y-2.7
X5.9Y-3.0
X5.9Y-3.15
X5.9Y-3.75
X5.9Y-3.95
X5.9Y-4.05
X5.9Y-4.15
X5.9Y-4.25
X5.9Y-4.35
X5.9Y-4.45
X5.9Y-4.55
X5.9Y-4.65
X6.0Y-3.15
X6.0Y-3.75
X6.1Y-3.15
X6.1Y-3.75
X6.15Y-2.25
X6.15Y-2.85
X6.2Y-3.15
X6.2Y-3.75
X6.2Y-3.95
X6.2Y-4.05
X6.2Y-4.15
X6.2Y-4.25
X6.2Y-4.35
X6.2Y-4.45
X6.2Y-4.55
X6.2Y-4.65
X6.25Y-2.25
X6.25Y-2.85
X6.3Y-3.15
X6.3Y-3.75
X6.35Y-2.25
X6.35Y-2.25
X6.35Y-2.85
X6.35Y-2.85
X6.4Y-3.15
X6.4Y-3.75
X6.45Y-2.25
X6.45Y-2.25
X6.45Y-2.85
X6.45Y-2.85
X6.55Y-2.25
X6.55Y-2.25
X6.55Y-2.25
X6.55Y-2.85
X6.55Y-2.85
X6.55Y-2.85
X6.65Y-2.25
X6.65Y-2.25
X6.65Y-2.25
X6.65Y-2.85
X6.65Y-2.85
X6.65Y-2.85
X6.65Y-3.0
X6.65Y-3.3
X6.65Y-3.45
X6.65Y-3.55
X6.65Y-3.65
X6.65Y-3.65
X6.65Y-3.75
X6.65Y-3.75
X6.65Y-3.85
X6.65Y-3.85
X6.65Y-3.95
X6.65Y-3.95
X6.65Y-4.05
X6.65Y-4.05
X6.65Y-4.15
X6.65Y-4.15
X6.65Y-4.25
X6.65Y-4.25
X6.65Y-4.35
X6.65Y-4.35
X6.65Y-4.45
X6.65Y-4.45
X6.65Y-4.55
X6.65Y-4.55
X6.65Y-4.65
X6.65Y-4.65
X6.65Y-4.75
X6.65Y-4.75
X6.75Y-2.25
X6.75Y-2.25
X6.75Y-2.25
X6.75Y-2.85
X6.75Y-2.85
X6.75Y-2.85
X6.75Y-3.0
X6.75Y-3.3
X6.85Y-2.25
X6.85Y-2.25
X6.85Y-2.25
X6.85Y-2.85
X6.85Y-2.85
X6.85Y-2.85
X6.85Y-3.0
X6.85Y-3.3
X6.95Y-2.25
X6.95Y-2.25
X6.95Y-2.25
X6.95Y-2.85
X6.95Y-2.85
X6.95Y-2.85
X6.95Y-3.0
X6.95Y-3.3
X7.05Y-2.25
X7.05Y-2.25
X7.05Y-2.25
X7.05Y-2.85
X7.05Y-2.85
X7.05Y-2.85
X7.05Y-3.0
X7.05Y-3.3
X7.15Y-2.25
X7.15Y-2.25
X7.15Y-2.25
X7.15Y-2.85
X7.15Y-2.85
X7.15Y-2.85
X7.15Y-3.0
X7.15Y-3.3
X7.25Y-2.25
X7.25Y-2.25
X7.25Y-2.25
X7.25Y-2.85
X7.25Y-2.85
X7.25Y-2.85
X7.25Y-3.0
X7.25Y-3.3
X7.25Y-3.45
X7.25Y-3.55
X7.25Y-3.65
X7.25Y-3.65
X7.25Y-3.75
X7.25Y-3.75
X7.25Y-3.85
X7.25Y-3.85
X7.25Y-3.95
X7.25Y-3.95
X7.25Y-4.05
X7.25Y-4.05
X7.25Y-4.15
X7.25Y-4.15
X7.25Y-4.25
X7.25Y-4.25
X7.25Y-4.35
X7.25Y-4.35
X7.25Y-4.45
X7.25Y-4.45
X7.25Y-4.55
X7.25Y-4.55
X7.25Y-4.65
X7.25Y-4.65
X7.25Y-4.75
X7.25Y-4.75
X7.35Y-2.25
X7.35Y-2.25
X7.35Y-2.25
X7.35Y-2.85
X7.35Y-2.85
X7.35Y-2.85
X7.35Y-3.0
X7.35Y-3.3
X7.45Y-2.25
X7.45Y-2.25
X7.45Y-2.25
X7.45Y-2.85
X7.45Y-2.85
X7.45Y-2.85
X7.5Y-3.15
X7.5Y-3.55
X7.5Y-3.95
X7.5Y-4.2
X7.55Y-2.25
X7.55Y-2.25
X7.55Y-2.25
X7.55Y-2.85
X7.55Y-2.85
X7.55Y-2.85
X7.65Y-2.25
X7.65Y-2.25
X7.65Y-2.25
X7.65Y-2.85
X7.65Y-2.85
X7.65Y-2.85
X7.65Y-3.0
X7.65Y-3.3
X7.65Y-3.5
X7.65Y-3.8
X7.65Y-4.1
X7.65Y-4.4
X7.75Y-3.0
X7.75Y-3.3
X7.75Y-3.5
X7.75Y-3.8
X7.75Y-4.1
X7.75Y-4.4
X7.85Y-3.0
X7.85Y-3.3
X7.85Y-3.5
X7.85Y-3.8
X7.85Y-4.1
X7.85Y-4.4
X7.95Y-2.25
X7.95Y-2.55
X7.95Y-3.0
X7.95Y-3.3
X7.95Y-3.5
X7.95Y-3.8
X7.95Y-4.1
X7.95Y-4.4
X8.05Y-2.25
X8.05Y-2.55
X8.05Y-3.0
X8.05Y-3.3
X8.05Y-3.5
X8.05Y-3.8
X8.05Y-4.1
X8.05Y-4.4
X8.15Y-2.25
X8.15Y-2.55
X8.15Y-3.0
X8.15Y-3.3
X8.15Y-3.5
X8.15Y-3.8
X8.15Y-4.1
X8.15Y-4.4
X8.25Y-2.25
X8.25Y-2.55
X8.25Y-3.0
X8.25Y-3.3
X8.25Y-3.5
X8.25Y-3.8
X8.25Y-4.1
X8.25Y-4.4
X8.35Y-2.25
X8.35Y-2.55
X8.375Y-2.75
X8.375Y-3.15
X8.375Y-3.3
X8.375Y-3.55
X8.375Y-4.0
X8.375Y-4.4
X8.45Y-2.25
X8.45Y-2.55
X8.5Y-2.75
X8.5Y-3.05
X8.5Y-3.3
X8.5Y-3.6
X8.5Y-3.8
X8.5Y-4.1
X8.5Y-4.3
X8.5Y-4.6
X8.55Y-2.25
X8.55Y-2.55
X8.6Y-2.75
X8.6Y-3.05
X8.6Y-3.3
X8.6Y-3.6
X8.6Y-3.8
X8.6Y-4.1
X8.6Y-4.3
X8.6Y-4.6
X8.65Y-2.25
X8.65Y-2.55
X8.7Y-2.75
X8.7Y-3.05
X8.7Y-3.3
X8.7Y-3.6
X8.7Y-3.8
X8.7Y-4.1
X8.7Y-4.3
X8.7Y-4.6
X8.8Y-2.25
X8.8Y-2.65
X8.8Y-2.75
X8.8Y-3.05
X8.8Y-3.3
X8.8Y-3.6
X8.8Y-3.8
X8.8Y-4.1
X8.8Y-4.3
X8.8Y-4.6
X8.9Y-2.75
X8.9Y-3.05
X8.9Y-3.3
X8.9Y-3.6
X8.9Y-3.8
X8.9Y-4.1
X8.9Y-4.3
X8.9Y-4.6
X8.95Y-2.25
X8.95Y-2.55
X9.0Y-2.75
X9.0Y-3.05
X9.0Y-3.3
X9.0Y-3.6
X9.0Y-3.8
X9.0Y-4.1
X9.0Y-4.3
X9.0Y-4.6
X9.05Y-2.25
X9.05Y-2.55
X9.1Y-2.75
X9.1Y-3.05
X9.1Y-3.3
X9.1Y-3.6
X9.1Y-3.8
X9.1Y-4.1
X9.1Y-4.3
X9.1Y-4.6
X9.15Y-2.25
X9.15Y-2.55
X9.2Y-3.3
X9.2Y-3.6
X9.25Y-2.25
X9.25Y-2.55
X9.275Y-2.825
X9.275Y-2.975
X9.3Y-4.45
X9.3Y-4.7
X9.35Y-2.25
X9.35Y-2.55
X9.35Y-2.7
X9.425Y-3.15
X9.45Y-2.25
X9.45Y-2.55
X9.55Y-2.25
X9.55Y-2.55
X9.6Y-2.7
X9.6229Y-3.15
X9.65Y-2.25
X9.65Y-2.55
X9.675Y-2.825
X9.675Y-2.975
T5
X4.025Y-2.2
X4.025Y-2.3
X4.025Y-2.4
X4.025Y-2.5
X4.025Y-2.6
X4.025Y-2.7
T0
M30
