G04 #@! TF.GenerationSoftware,KiCad,Pcbnew,(6.0.5-0)*
G04 #@! TF.CreationDate,2022-09-20T02:49:24-07:00*
G04 #@! TF.ProjectId,80ColumnCard,3830436f-6c75-46d6-9e43-6172642e6b69,rev?*
G04 #@! TF.SameCoordinates,Original*
G04 #@! TF.FileFunction,Copper,L2,Bot*
G04 #@! TF.FilePolarity,Positive*
%FSLAX46Y46*%
G04 Gerber Fmt 4.6, Leading zero omitted, Abs format (unit mm)*
G04 Created by KiCad (PCBNEW (6.0.5-0)) date 2022-09-20 02:49:24*
%MOMM*%
%LPD*%
G01*
G04 APERTURE LIST*
G04 Aperture macros list*
%AMRoundRect*
0 Rectangle with rounded corners*
0 $1 Rounding radius*
0 $2 $3 $4 $5 $6 $7 $8 $9 X,Y pos of 4 corners*
0 Add a 4 corners polygon primitive as box body*
4,1,4,$2,$3,$4,$5,$6,$7,$8,$9,$2,$3,0*
0 Add four circle primitives for the rounded corners*
1,1,$1+$1,$2,$3*
1,1,$1+$1,$4,$5*
1,1,$1+$1,$6,$7*
1,1,$1+$1,$8,$9*
0 Add four rect primitives between the rounded corners*
20,1,$1+$1,$2,$3,$4,$5,0*
20,1,$1+$1,$4,$5,$6,$7,0*
20,1,$1+$1,$6,$7,$8,$9,0*
20,1,$1+$1,$8,$9,$2,$3,0*%
G04 Aperture macros list end*
G04 #@! TA.AperFunction,ComponentPad*
%ADD10R,1.600000X1.600000*%
G04 #@! TD*
G04 #@! TA.AperFunction,ComponentPad*
%ADD11O,1.600000X1.600000*%
G04 #@! TD*
G04 #@! TA.AperFunction,ComponentPad*
%ADD12C,1.600000*%
G04 #@! TD*
G04 #@! TA.AperFunction,ComponentPad*
%ADD13R,1.300000X1.300000*%
G04 #@! TD*
G04 #@! TA.AperFunction,ComponentPad*
%ADD14C,1.300000*%
G04 #@! TD*
G04 #@! TA.AperFunction,ComponentPad*
%ADD15R,1.700000X1.700000*%
G04 #@! TD*
G04 #@! TA.AperFunction,ComponentPad*
%ADD16O,1.700000X1.700000*%
G04 #@! TD*
G04 #@! TA.AperFunction,ComponentPad*
%ADD17C,1.500000*%
G04 #@! TD*
G04 #@! TA.AperFunction,ConnectorPad*
%ADD18RoundRect,0.317500X-0.317500X-3.365500X0.317500X-3.365500X0.317500X3.365500X-0.317500X3.365500X0*%
G04 #@! TD*
G04 #@! TA.AperFunction,ViaPad*
%ADD19C,1.016000*%
G04 #@! TD*
G04 #@! TA.AperFunction,ViaPad*
%ADD20C,1.143000*%
G04 #@! TD*
G04 #@! TA.AperFunction,Conductor*
%ADD21C,0.250000*%
G04 #@! TD*
G04 #@! TA.AperFunction,Conductor*
%ADD22C,1.016000*%
G04 #@! TD*
G04 #@! TA.AperFunction,Conductor*
%ADD23C,0.381000*%
G04 #@! TD*
G04 APERTURE END LIST*
D10*
G04 #@! TO.P,U10W28,1,A14*
G04 #@! TO.N,+5V*
X95250000Y-86360000D03*
D11*
G04 #@! TO.P,U10W28,2,A12*
X95250000Y-88900000D03*
G04 #@! TO.P,U10W28,3,A7*
G04 #@! TO.N,/SRAM/RAMA5*
X95250000Y-91440000D03*
G04 #@! TO.P,U10W28,4,A6*
G04 #@! TO.N,/SRAM/RAMA3*
X95250000Y-93980000D03*
G04 #@! TO.P,U10W28,5,A5*
G04 #@! TO.N,/SRAM/RAMA0*
X95250000Y-96520000D03*
G04 #@! TO.P,U10W28,6,A4*
G04 #@! TO.N,/SRAM/RAMA2*
X95250000Y-99060000D03*
G04 #@! TO.P,U10W28,7,A3*
G04 #@! TO.N,/SRAM/RAMA10*
X95250000Y-101600000D03*
G04 #@! TO.P,U10W28,8,A2*
G04 #@! TO.N,/SRAM/RAMA6*
X95250000Y-104140000D03*
G04 #@! TO.P,U10W28,9,A1*
G04 #@! TO.N,/SRAM/RAMA8*
X95250000Y-106680000D03*
G04 #@! TO.P,U10W28,10,A0*
G04 #@! TO.N,/SRAM/RAMA9*
X95250000Y-109220000D03*
G04 #@! TO.P,U10W28,11,Q0*
G04 #@! TO.N,/E0*
X95250000Y-111760000D03*
G04 #@! TO.P,U10W28,12,Q1*
G04 #@! TO.N,/E1*
X95250000Y-114300000D03*
G04 #@! TO.P,U10W28,13,Q2*
G04 #@! TO.N,/E2*
X95250000Y-116840000D03*
G04 #@! TO.P,U10W28,14,GND*
G04 #@! TO.N,GND*
X95250000Y-119380000D03*
G04 #@! TO.P,U10W28,15,Q3*
G04 #@! TO.N,/E3*
X110490000Y-119380000D03*
G04 #@! TO.P,U10W28,16,Q4*
G04 #@! TO.N,/E4*
X110490000Y-116840000D03*
G04 #@! TO.P,U10W28,17,Q5*
G04 #@! TO.N,/E5*
X110490000Y-114300000D03*
G04 #@! TO.P,U10W28,18,Q6*
G04 #@! TO.N,/E6*
X110490000Y-111760000D03*
G04 #@! TO.P,U10W28,19,Q7*
G04 #@! TO.N,/E7*
X110490000Y-109220000D03*
G04 #@! TO.P,U10W28,20,~{CS}*
G04 #@! TO.N,GND*
X110490000Y-106680000D03*
G04 #@! TO.P,U10W28,21,A10*
G04 #@! TO.N,/SRAM/RAMA1*
X110490000Y-104140000D03*
G04 #@! TO.P,U10W28,22,~{OE}*
G04 #@! TO.N,GND*
X110490000Y-101600000D03*
G04 #@! TO.P,U10W28,23,A11*
G04 #@! TO.N,Net-(U10-Pad21)*
X110490000Y-99060000D03*
G04 #@! TO.P,U10W28,24,A9*
G04 #@! TO.N,/SRAM/RAMA7*
X110490000Y-96520000D03*
G04 #@! TO.P,U10W28,25,A8*
G04 #@! TO.N,/SRAM/RAMA4*
X110490000Y-93980000D03*
G04 #@! TO.P,U10W28,26,A13*
G04 #@! TO.N,+5V*
X110490000Y-91440000D03*
G04 #@! TO.P,U10W28,27,~{WE}*
G04 #@! TO.N,/SRAM/RAM_R{slash}~{W}*
X110490000Y-88900000D03*
G04 #@! TO.P,U10W28,28,VCC*
G04 #@! TO.N,+5V*
X110490000Y-86360000D03*
G04 #@! TD*
D10*
G04 #@! TO.P,U10W24,1,A7*
G04 #@! TO.N,/SRAM/RAMA5*
X95250000Y-91440000D03*
D11*
G04 #@! TO.P,U10W24,2,A6*
G04 #@! TO.N,/SRAM/RAMA3*
X95250000Y-93980000D03*
G04 #@! TO.P,U10W24,3,A5*
G04 #@! TO.N,/SRAM/RAMA0*
X95250000Y-96520000D03*
G04 #@! TO.P,U10W24,4,A4*
G04 #@! TO.N,/SRAM/RAMA2*
X95250000Y-99060000D03*
G04 #@! TO.P,U10W24,5,A3*
G04 #@! TO.N,/SRAM/RAMA10*
X95250000Y-101600000D03*
G04 #@! TO.P,U10W24,6,A2*
G04 #@! TO.N,/SRAM/RAMA6*
X95250000Y-104140000D03*
G04 #@! TO.P,U10W24,7,A1*
G04 #@! TO.N,/SRAM/RAMA8*
X95250000Y-106680000D03*
G04 #@! TO.P,U10W24,8,A0*
G04 #@! TO.N,/SRAM/RAMA9*
X95250000Y-109220000D03*
G04 #@! TO.P,U10W24,9,DQ1*
G04 #@! TO.N,/E0*
X95250000Y-111760000D03*
G04 #@! TO.P,U10W24,10,DQ2*
G04 #@! TO.N,/E1*
X95250000Y-114300000D03*
G04 #@! TO.P,U10W24,11,DQ3*
G04 #@! TO.N,/E2*
X95250000Y-116840000D03*
G04 #@! TO.P,U10W24,12,GND*
G04 #@! TO.N,GND*
X95250000Y-119380000D03*
G04 #@! TO.P,U10W24,13,DQ4*
G04 #@! TO.N,/E3*
X110490000Y-119380000D03*
G04 #@! TO.P,U10W24,14,DQ5*
G04 #@! TO.N,/E4*
X110490000Y-116840000D03*
G04 #@! TO.P,U10W24,15,DQ6*
G04 #@! TO.N,/E5*
X110490000Y-114300000D03*
G04 #@! TO.P,U10W24,16,DQ7*
G04 #@! TO.N,/E6*
X110490000Y-111760000D03*
G04 #@! TO.P,U10W24,17,DQ8*
G04 #@! TO.N,/E7*
X110490000Y-109220000D03*
G04 #@! TO.P,U10W24,18,~{CS}*
G04 #@! TO.N,GND*
X110490000Y-106680000D03*
G04 #@! TO.P,U10W24,19,A10*
G04 #@! TO.N,/SRAM/RAMA1*
X110490000Y-104140000D03*
G04 #@! TO.P,U10W24,20,~{OE}*
G04 #@! TO.N,GND*
X110490000Y-101600000D03*
G04 #@! TO.P,U10W24,21,~{WE}*
G04 #@! TO.N,Net-(U10-Pad21)*
X110490000Y-99060000D03*
G04 #@! TO.P,U10W24,22,A9*
G04 #@! TO.N,/SRAM/RAMA7*
X110490000Y-96520000D03*
G04 #@! TO.P,U10W24,23,A8*
G04 #@! TO.N,/SRAM/RAMA4*
X110490000Y-93980000D03*
G04 #@! TO.P,U10W24,24,VCC*
G04 #@! TO.N,+5V*
X110490000Y-91440000D03*
G04 #@! TD*
D10*
G04 #@! TO.P,U10W32,1,A17*
G04 #@! TO.N,+5V*
X95250000Y-81280000D03*
D11*
G04 #@! TO.P,U10W32,2,A16*
X95250000Y-83820000D03*
G04 #@! TO.P,U10W32,3,A14*
X95250000Y-86360000D03*
G04 #@! TO.P,U10W32,4,A12*
X95250000Y-88900000D03*
G04 #@! TO.P,U10W32,5,A7*
G04 #@! TO.N,/SRAM/RAMA5*
X95250000Y-91440000D03*
G04 #@! TO.P,U10W32,6,A6*
G04 #@! TO.N,/SRAM/RAMA3*
X95250000Y-93980000D03*
G04 #@! TO.P,U10W32,7,A5*
G04 #@! TO.N,/SRAM/RAMA0*
X95250000Y-96520000D03*
G04 #@! TO.P,U10W32,8,A4*
G04 #@! TO.N,/SRAM/RAMA2*
X95250000Y-99060000D03*
G04 #@! TO.P,U10W32,9,A3*
G04 #@! TO.N,/SRAM/RAMA10*
X95250000Y-101600000D03*
G04 #@! TO.P,U10W32,10,A2*
G04 #@! TO.N,/SRAM/RAMA6*
X95250000Y-104140000D03*
G04 #@! TO.P,U10W32,11,A1*
G04 #@! TO.N,/SRAM/RAMA8*
X95250000Y-106680000D03*
G04 #@! TO.P,U10W32,12,A0*
G04 #@! TO.N,/SRAM/RAMA9*
X95250000Y-109220000D03*
G04 #@! TO.P,U10W32,13,I/O0*
G04 #@! TO.N,/E0*
X95250000Y-111760000D03*
G04 #@! TO.P,U10W32,14,I/O1*
G04 #@! TO.N,/E1*
X95250000Y-114300000D03*
G04 #@! TO.P,U10W32,15,I/O2*
G04 #@! TO.N,/E2*
X95250000Y-116840000D03*
G04 #@! TO.P,U10W32,16,GND*
G04 #@! TO.N,GND*
X95250000Y-119380000D03*
G04 #@! TO.P,U10W32,17,I/O3*
G04 #@! TO.N,/E3*
X110490000Y-119380000D03*
G04 #@! TO.P,U10W32,18,I/O4*
G04 #@! TO.N,/E4*
X110490000Y-116840000D03*
G04 #@! TO.P,U10W32,19,I/O5*
G04 #@! TO.N,/E5*
X110490000Y-114300000D03*
G04 #@! TO.P,U10W32,20,I/O6*
G04 #@! TO.N,/E6*
X110490000Y-111760000D03*
G04 #@! TO.P,U10W32,21,I/O7*
G04 #@! TO.N,/E7*
X110490000Y-109220000D03*
G04 #@! TO.P,U10W32,22,~{CE}*
G04 #@! TO.N,GND*
X110490000Y-106680000D03*
G04 #@! TO.P,U10W32,23,A10*
G04 #@! TO.N,/SRAM/RAMA1*
X110490000Y-104140000D03*
G04 #@! TO.P,U10W32,24,~{OE}*
G04 #@! TO.N,GND*
X110490000Y-101600000D03*
G04 #@! TO.P,U10W32,25,A11*
G04 #@! TO.N,Net-(U10-Pad21)*
X110490000Y-99060000D03*
G04 #@! TO.P,U10W32,26,A9*
G04 #@! TO.N,/SRAM/RAMA7*
X110490000Y-96520000D03*
G04 #@! TO.P,U10W32,27,A8*
G04 #@! TO.N,/SRAM/RAMA4*
X110490000Y-93980000D03*
G04 #@! TO.P,U10W32,28,A13*
G04 #@! TO.N,+5V*
X110490000Y-91440000D03*
G04 #@! TO.P,U10W32,29,~{WE}*
G04 #@! TO.N,/SRAM/RAM_R{slash}~{W}*
X110490000Y-88900000D03*
G04 #@! TO.P,U10W32,30,A18*
G04 #@! TO.N,+5V*
X110490000Y-86360000D03*
G04 #@! TO.P,U10W32,31,A15*
X110490000Y-83820000D03*
G04 #@! TO.P,U10W32,32,VDD*
X110490000Y-81280000D03*
G04 #@! TD*
D10*
G04 #@! TO.P,U10N32,1,A17*
G04 #@! TO.N,+5V*
X102870000Y-81280000D03*
D11*
G04 #@! TO.P,U10N32,2,A16*
X102870000Y-83820000D03*
G04 #@! TO.P,U10N32,3,A14*
X102870000Y-86360000D03*
G04 #@! TO.P,U10N32,4,A12*
X102870000Y-88900000D03*
G04 #@! TO.P,U10N32,5,A7*
G04 #@! TO.N,/SRAM/RAMA5*
X102870000Y-91440000D03*
G04 #@! TO.P,U10N32,6,A6*
G04 #@! TO.N,/SRAM/RAMA3*
X102870000Y-93980000D03*
G04 #@! TO.P,U10N32,7,A5*
G04 #@! TO.N,/SRAM/RAMA0*
X102870000Y-96520000D03*
G04 #@! TO.P,U10N32,8,A4*
G04 #@! TO.N,/SRAM/RAMA2*
X102870000Y-99060000D03*
G04 #@! TO.P,U10N32,9,A3*
G04 #@! TO.N,/SRAM/RAMA10*
X102870000Y-101600000D03*
G04 #@! TO.P,U10N32,10,A2*
G04 #@! TO.N,/SRAM/RAMA6*
X102870000Y-104140000D03*
G04 #@! TO.P,U10N32,11,A1*
G04 #@! TO.N,/SRAM/RAMA8*
X102870000Y-106680000D03*
G04 #@! TO.P,U10N32,12,A0*
G04 #@! TO.N,/SRAM/RAMA9*
X102870000Y-109220000D03*
G04 #@! TO.P,U10N32,13,I/O0*
G04 #@! TO.N,/E0*
X102870000Y-111760000D03*
G04 #@! TO.P,U10N32,14,I/O1*
G04 #@! TO.N,/E1*
X102870000Y-114300000D03*
G04 #@! TO.P,U10N32,15,I/O2*
G04 #@! TO.N,/E2*
X102870000Y-116840000D03*
G04 #@! TO.P,U10N32,16,GND*
G04 #@! TO.N,GND*
X102870000Y-119380000D03*
G04 #@! TO.P,U10N32,17,I/O3*
G04 #@! TO.N,/E3*
X110490000Y-119380000D03*
G04 #@! TO.P,U10N32,18,I/O4*
G04 #@! TO.N,/E4*
X110490000Y-116840000D03*
G04 #@! TO.P,U10N32,19,I/O5*
G04 #@! TO.N,/E5*
X110490000Y-114300000D03*
G04 #@! TO.P,U10N32,20,I/O6*
G04 #@! TO.N,/E6*
X110490000Y-111760000D03*
G04 #@! TO.P,U10N32,21,I/O7*
G04 #@! TO.N,/E7*
X110490000Y-109220000D03*
G04 #@! TO.P,U10N32,22,~{CE}*
G04 #@! TO.N,GND*
X110490000Y-106680000D03*
G04 #@! TO.P,U10N32,23,A10*
G04 #@! TO.N,/SRAM/RAMA1*
X110490000Y-104140000D03*
G04 #@! TO.P,U10N32,24,~{OE}*
G04 #@! TO.N,GND*
X110490000Y-101600000D03*
G04 #@! TO.P,U10N32,25,A11*
G04 #@! TO.N,Net-(U10-Pad21)*
X110490000Y-99060000D03*
G04 #@! TO.P,U10N32,26,A9*
G04 #@! TO.N,/SRAM/RAMA7*
X110490000Y-96520000D03*
G04 #@! TO.P,U10N32,27,A8*
G04 #@! TO.N,/SRAM/RAMA4*
X110490000Y-93980000D03*
G04 #@! TO.P,U10N32,28,A13*
G04 #@! TO.N,+5V*
X110490000Y-91440000D03*
G04 #@! TO.P,U10N32,29,~{WE}*
G04 #@! TO.N,/SRAM/RAM_R{slash}~{W}*
X110490000Y-88900000D03*
G04 #@! TO.P,U10N32,30,A18*
G04 #@! TO.N,+5V*
X110490000Y-86360000D03*
G04 #@! TO.P,U10N32,31,A15*
X110490000Y-83820000D03*
G04 #@! TO.P,U10N32,32,VDD*
X110490000Y-81280000D03*
G04 #@! TD*
D10*
G04 #@! TO.P,U14,1,S*
G04 #@! TO.N,/RAM_~{A}{slash}B*
X119380000Y-100330000D03*
D11*
G04 #@! TO.P,U14,2,I0a*
G04 #@! TO.N,/A0*
X119380000Y-102870000D03*
G04 #@! TO.P,U14,3,I1a*
G04 #@! TO.N,/B0*
X119380000Y-105410000D03*
G04 #@! TO.P,U14,4,Za*
G04 #@! TO.N,/SRAM/RAMA0*
X119380000Y-107950000D03*
G04 #@! TO.P,U14,5,I0b*
G04 #@! TO.N,/A1*
X119380000Y-110490000D03*
G04 #@! TO.P,U14,6,I1b*
G04 #@! TO.N,/B1*
X119380000Y-113030000D03*
G04 #@! TO.P,U14,7,Zb*
G04 #@! TO.N,/SRAM/RAMA1*
X119380000Y-115570000D03*
G04 #@! TO.P,U14,8,GND*
G04 #@! TO.N,GND*
X119380000Y-118110000D03*
G04 #@! TO.P,U14,9,Zc*
G04 #@! TO.N,/SRAM/RAMA2*
X127000000Y-118110000D03*
G04 #@! TO.P,U14,10,I1c*
G04 #@! TO.N,/B2*
X127000000Y-115570000D03*
G04 #@! TO.P,U14,11,I0c*
G04 #@! TO.N,/A2*
X127000000Y-113030000D03*
G04 #@! TO.P,U14,12,Zd*
G04 #@! TO.N,/SRAM/RAMA3*
X127000000Y-110490000D03*
G04 #@! TO.P,U14,13,I1d*
G04 #@! TO.N,/B3*
X127000000Y-107950000D03*
G04 #@! TO.P,U14,14,I0d*
G04 #@! TO.N,/A3*
X127000000Y-105410000D03*
G04 #@! TO.P,U14,15,E*
G04 #@! TO.N,GND*
X127000000Y-102870000D03*
G04 #@! TO.P,U14,16,VCC*
G04 #@! TO.N,+5V*
X127000000Y-100330000D03*
G04 #@! TD*
D12*
G04 #@! TO.P,C3,1*
G04 #@! TO.N,Net-(C3-Pad1)*
X237490000Y-68580000D03*
D11*
G04 #@! TO.P,C3,2*
G04 #@! TO.N,Net-(C3-Pad2)*
X243840000Y-68580000D03*
G04 #@! TD*
D13*
G04 #@! TO.P,Q1,1,E*
G04 #@! TO.N,Net-(Q1-Pad1)*
X107188000Y-57150000D03*
D14*
G04 #@! TO.P,Q1,2,B*
G04 #@! TO.N,Net-(Q1-Pad2)*
X108458000Y-55880000D03*
G04 #@! TO.P,Q1,3,C*
G04 #@! TO.N,Net-(Q1-Pad3)*
X109728000Y-57150000D03*
G04 #@! TD*
D10*
G04 #@! TO.P,U21,1,Ds*
G04 #@! TO.N,/ROMD0*
X201930000Y-64770000D03*
D11*
G04 #@! TO.P,U21,2,A*
X204470000Y-64770000D03*
G04 #@! TO.P,U21,3,B*
G04 #@! TO.N,/ROMD1*
X207010000Y-64770000D03*
G04 #@! TO.P,U21,4,C*
G04 #@! TO.N,/ROMD2*
X209550000Y-64770000D03*
G04 #@! TO.P,U21,5,D*
G04 #@! TO.N,/ROMD3*
X212090000Y-64770000D03*
G04 #@! TO.P,U21,6,CE*
G04 #@! TO.N,GND*
X214630000Y-64770000D03*
G04 #@! TO.P,U21,7,Clk*
G04 #@! TO.N,Net-(U21-Pad7)*
X217170000Y-64770000D03*
G04 #@! TO.P,U21,8,GND*
G04 #@! TO.N,GND*
X219710000Y-64770000D03*
G04 #@! TO.P,U21,9,Clr*
G04 #@! TO.N,Net-(R8-Pad2)*
X219710000Y-57150000D03*
G04 #@! TO.P,U21,10,E*
G04 #@! TO.N,/ROMD4*
X217170000Y-57150000D03*
G04 #@! TO.P,U21,11,F*
G04 #@! TO.N,/ROMD5*
X214630000Y-57150000D03*
G04 #@! TO.P,U21,12,G*
G04 #@! TO.N,/ROMD6*
X212090000Y-57150000D03*
G04 #@! TO.P,U21,13,Qh*
G04 #@! TO.N,Net-(U1-Pad10)*
X209550000Y-57150000D03*
G04 #@! TO.P,U21,14,H*
G04 #@! TO.N,/ROMD7*
X207010000Y-57150000D03*
G04 #@! TO.P,U21,15,PE*
G04 #@! TO.N,Net-(U18-Pad11)*
X204470000Y-57150000D03*
G04 #@! TO.P,U21,16,VCC*
G04 #@! TO.N,+5V*
X201930000Y-57150000D03*
G04 #@! TD*
D10*
G04 #@! TO.P,U2,1*
G04 #@! TO.N,Net-(R10-Pad2)*
X194310000Y-96520000D03*
D11*
G04 #@! TO.P,U2,2*
G04 #@! TO.N,/VSYNC*
X196850000Y-96520000D03*
G04 #@! TO.P,U2,3*
G04 #@! TO.N,/HSYNC*
X199390000Y-96520000D03*
G04 #@! TO.P,U2,4*
G04 #@! TO.N,Net-(U2-Pad4)*
X201930000Y-96520000D03*
G04 #@! TO.P,U2,5*
G04 #@! TO.N,Net-(U2-Pad5)*
X204470000Y-96520000D03*
G04 #@! TO.P,U2,6*
G04 #@! TO.N,/~{IO_STROBE}*
X207010000Y-96520000D03*
G04 #@! TO.P,U2,7,GND*
G04 #@! TO.N,GND*
X209550000Y-96520000D03*
G04 #@! TO.P,U2,8*
G04 #@! TO.N,Net-(U2-Pad8)*
X209550000Y-88900000D03*
G04 #@! TO.P,U2,9*
G04 #@! TO.N,/A10*
X207010000Y-88900000D03*
G04 #@! TO.P,U2,10*
G04 #@! TO.N,Net-(U2-Pad10)*
X204470000Y-88900000D03*
G04 #@! TO.P,U2,11*
X201930000Y-88900000D03*
G04 #@! TO.P,U2,12*
G04 #@! TO.N,Net-(U1-Pad6)*
X199390000Y-88900000D03*
G04 #@! TO.P,U2,13*
G04 #@! TO.N,/Firmware/~{OE}*
X196850000Y-88900000D03*
G04 #@! TO.P,U2,14,VCC*
G04 #@! TO.N,+5V*
X194310000Y-88900000D03*
G04 #@! TD*
D10*
G04 #@! TO.P,C4,1*
G04 #@! TO.N,+5V*
X236220000Y-119380000D03*
D12*
G04 #@! TO.P,C4,2*
G04 #@! TO.N,GND*
X236220000Y-113030000D03*
G04 #@! TD*
D10*
G04 #@! TO.P,U20,1,A7*
G04 #@! TO.N,/ROMA3*
X166370000Y-72390000D03*
D11*
G04 #@! TO.P,U20,2,A6*
G04 #@! TO.N,/ROMA2*
X168910000Y-72390000D03*
G04 #@! TO.P,U20,3,A5*
G04 #@! TO.N,/ROMA1*
X171450000Y-72390000D03*
G04 #@! TO.P,U20,4,A4*
G04 #@! TO.N,/ROMA0*
X173990000Y-72390000D03*
G04 #@! TO.P,U20,5,A3*
G04 #@! TO.N,/RA3*
X176530000Y-72390000D03*
G04 #@! TO.P,U20,6,A2*
G04 #@! TO.N,/RA2*
X179070000Y-72390000D03*
G04 #@! TO.P,U20,7,A1*
G04 #@! TO.N,/RA1*
X181610000Y-72390000D03*
G04 #@! TO.P,U20,8,A0*
G04 #@! TO.N,/RA0*
X184150000Y-72390000D03*
G04 #@! TO.P,U20,9,D0*
G04 #@! TO.N,/ROMD0*
X186690000Y-72390000D03*
G04 #@! TO.P,U20,10,D1*
G04 #@! TO.N,/ROMD1*
X189230000Y-72390000D03*
G04 #@! TO.P,U20,11,D2*
G04 #@! TO.N,/ROMD2*
X191770000Y-72390000D03*
G04 #@! TO.P,U20,12,GND*
G04 #@! TO.N,GND*
X194310000Y-72390000D03*
G04 #@! TO.P,U20,13,D3*
G04 #@! TO.N,/ROMD3*
X194310000Y-57150000D03*
G04 #@! TO.P,U20,14,D4*
G04 #@! TO.N,/ROMD4*
X191770000Y-57150000D03*
G04 #@! TO.P,U20,15,D5*
G04 #@! TO.N,/ROMD5*
X189230000Y-57150000D03*
G04 #@! TO.P,U20,16,D6*
G04 #@! TO.N,/ROMD6*
X186690000Y-57150000D03*
G04 #@! TO.P,U20,17,D7*
G04 #@! TO.N,/ROMD7*
X184150000Y-57150000D03*
G04 #@! TO.P,U20,18,~{CE}*
G04 #@! TO.N,GND*
X181610000Y-57150000D03*
G04 #@! TO.P,U20,19,A10*
G04 #@! TO.N,/ROMA6*
X179070000Y-57150000D03*
G04 #@! TO.P,U20,20,~{G}VPP*
G04 #@! TO.N,GND*
X176530000Y-57150000D03*
G04 #@! TO.P,U20,21,A11*
G04 #@! TO.N,/ROMA7*
X173990000Y-57150000D03*
G04 #@! TO.P,U20,22,A9*
G04 #@! TO.N,/ROMA5*
X171450000Y-57150000D03*
G04 #@! TO.P,U20,23,A8*
G04 #@! TO.N,/ROMA4*
X168910000Y-57150000D03*
G04 #@! TO.P,U20,24,VCC*
G04 #@! TO.N,+5V*
X166370000Y-57150000D03*
G04 #@! TD*
D10*
G04 #@! TO.P,U4,1*
G04 #@! TO.N,/A9*
X215900000Y-77470000D03*
D11*
G04 #@! TO.P,U4,2*
G04 #@! TO.N,Net-(U4-Pad2)*
X218440000Y-77470000D03*
G04 #@! TO.P,U4,3*
G04 #@! TO.N,Net-(U2-Pad4)*
X220980000Y-77470000D03*
G04 #@! TO.P,U4,4*
G04 #@! TO.N,Net-(U2-Pad8)*
X223520000Y-77470000D03*
G04 #@! TO.P,U4,5*
G04 #@! TO.N,Net-(R1-Pad1)*
X226060000Y-77470000D03*
G04 #@! TO.P,U4,6*
G04 #@! TO.N,Net-(C3-Pad1)*
X228600000Y-77470000D03*
G04 #@! TO.P,U4,7,GND*
G04 #@! TO.N,GND*
X231140000Y-77470000D03*
G04 #@! TO.P,U4,8*
G04 #@! TO.N,Net-(R2-Pad2)*
X231140000Y-69850000D03*
G04 #@! TO.P,U4,9*
G04 #@! TO.N,Net-(C3-Pad2)*
X228600000Y-69850000D03*
G04 #@! TO.P,U4,10*
G04 #@! TO.N,Net-(U21-Pad7)*
X226060000Y-69850000D03*
G04 #@! TO.P,U4,11*
G04 #@! TO.N,Net-(R2-Pad2)*
X223520000Y-69850000D03*
G04 #@! TO.P,U4,12*
G04 #@! TO.N,Net-(U4-Pad12)*
X220980000Y-69850000D03*
G04 #@! TO.P,U4,13*
G04 #@! TO.N,Net-(CR1-Pad1)*
X218440000Y-69850000D03*
G04 #@! TO.P,U4,14,VCC*
G04 #@! TO.N,+5V*
X215900000Y-69850000D03*
G04 #@! TD*
D10*
G04 #@! TO.P,U9,1,E*
G04 #@! TO.N,/~{IO_STROBE}*
X168910000Y-83820000D03*
D11*
G04 #@! TO.P,U9,2,A0*
G04 #@! TO.N,/A10*
X171450000Y-83820000D03*
G04 #@! TO.P,U9,3,A1*
G04 #@! TO.N,/A9*
X173990000Y-83820000D03*
G04 #@! TO.P,U9,4,O0*
G04 #@! TO.N,unconnected-(U9-Pad4)*
X176530000Y-83820000D03*
G04 #@! TO.P,U9,5,O1*
G04 #@! TO.N,Net-(CR1-Pad1)*
X179070000Y-83820000D03*
G04 #@! TO.P,U9,6,O2*
G04 #@! TO.N,unconnected-(U9-Pad6)*
X181610000Y-83820000D03*
G04 #@! TO.P,U9,7,O3*
G04 #@! TO.N,Net-(U7-Pad3)*
X184150000Y-83820000D03*
G04 #@! TO.P,U9,8,GND*
G04 #@! TO.N,GND*
X186690000Y-83820000D03*
G04 #@! TO.P,U9,9,O3*
G04 #@! TO.N,unconnected-(U9-Pad9)*
X186690000Y-76200000D03*
G04 #@! TO.P,U9,10,O2*
G04 #@! TO.N,unconnected-(U9-Pad10)*
X184150000Y-76200000D03*
G04 #@! TO.P,U9,11,O1*
G04 #@! TO.N,unconnected-(U9-Pad11)*
X181610000Y-76200000D03*
G04 #@! TO.P,U9,12,O0*
G04 #@! TO.N,/SRAM/RAM_R{slash}~{W}*
X179070000Y-76200000D03*
G04 #@! TO.P,U9,13,A1*
G04 #@! TO.N,/R{slash}~{W}*
X176530000Y-76200000D03*
G04 #@! TO.P,U9,14,A0*
G04 #@! TO.N,/RAM_~{A}{slash}B*
X173990000Y-76200000D03*
G04 #@! TO.P,U9,15,E*
G04 #@! TO.N,/Q3*
X171450000Y-76200000D03*
G04 #@! TO.P,U9,16,VCC*
G04 #@! TO.N,+5V*
X168910000Y-76200000D03*
G04 #@! TD*
D10*
G04 #@! TO.P,U20C1,1,VPP*
G04 #@! TO.N,+5V*
X156210000Y-72390000D03*
D11*
G04 #@! TO.P,U20C1,2,A16*
X158750000Y-72390000D03*
G04 #@! TO.P,U20C1,3,A15*
X161290000Y-72390000D03*
G04 #@! TO.P,U20C1,4,A12*
X163830000Y-72390000D03*
G04 #@! TO.P,U20C1,5,A7*
G04 #@! TO.N,/ROMA3*
X166370000Y-72390000D03*
G04 #@! TO.P,U20C1,6,A6*
G04 #@! TO.N,/ROMA2*
X168910000Y-72390000D03*
G04 #@! TO.P,U20C1,7,A5*
G04 #@! TO.N,/ROMA1*
X171450000Y-72390000D03*
G04 #@! TO.P,U20C1,8,A4*
G04 #@! TO.N,/ROMA0*
X173990000Y-72390000D03*
G04 #@! TO.P,U20C1,9,A3*
G04 #@! TO.N,/RA3*
X176530000Y-72390000D03*
G04 #@! TO.P,U20C1,10,A2*
G04 #@! TO.N,/RA2*
X179070000Y-72390000D03*
G04 #@! TO.P,U20C1,11,A1*
G04 #@! TO.N,/RA1*
X181610000Y-72390000D03*
G04 #@! TO.P,U20C1,12,A0*
G04 #@! TO.N,/RA0*
X184150000Y-72390000D03*
G04 #@! TO.P,U20C1,13,D0*
G04 #@! TO.N,/ROMD0*
X186690000Y-72390000D03*
G04 #@! TO.P,U20C1,14,D1*
G04 #@! TO.N,/ROMD1*
X189230000Y-72390000D03*
G04 #@! TO.P,U20C1,15,D2*
G04 #@! TO.N,/ROMD2*
X191770000Y-72390000D03*
G04 #@! TO.P,U20C1,16,GND*
G04 #@! TO.N,GND*
X194310000Y-72390000D03*
G04 #@! TO.P,U20C1,17,D3*
G04 #@! TO.N,/ROMD3*
X194310000Y-57150000D03*
G04 #@! TO.P,U20C1,18,D4*
G04 #@! TO.N,/ROMD4*
X191770000Y-57150000D03*
G04 #@! TO.P,U20C1,19,D5*
G04 #@! TO.N,/ROMD5*
X189230000Y-57150000D03*
G04 #@! TO.P,U20C1,20,D6*
G04 #@! TO.N,/ROMD6*
X186690000Y-57150000D03*
G04 #@! TO.P,U20C1,21,D7*
G04 #@! TO.N,/ROMD7*
X184150000Y-57150000D03*
G04 #@! TO.P,U20C1,22,~{CE}*
G04 #@! TO.N,GND*
X181610000Y-57150000D03*
G04 #@! TO.P,U20C1,23,A10*
G04 #@! TO.N,/ROMA6*
X179070000Y-57150000D03*
G04 #@! TO.P,U20C1,24,~{OE}*
G04 #@! TO.N,GND*
X176530000Y-57150000D03*
G04 #@! TO.P,U20C1,25,A11*
G04 #@! TO.N,/ROMA7*
X173990000Y-57150000D03*
G04 #@! TO.P,U20C1,26,A9*
G04 #@! TO.N,/ROMA5*
X171450000Y-57150000D03*
G04 #@! TO.P,U20C1,27,A8*
G04 #@! TO.N,/ROMA4*
X168910000Y-57150000D03*
G04 #@! TO.P,U20C1,28,A13*
G04 #@! TO.N,+5V*
X166370000Y-57150000D03*
G04 #@! TO.P,U20C1,29,A14*
X163830000Y-57150000D03*
G04 #@! TO.P,U20C1,30,A17*
X161290000Y-57150000D03*
G04 #@! TO.P,U20C1,31,~{PGM}*
X158750000Y-57150000D03*
G04 #@! TO.P,U20C1,32,VCC*
X156210000Y-57150000D03*
G04 #@! TD*
D10*
G04 #@! TO.P,U5,1,A->B*
G04 #@! TO.N,/R{slash}~{W}*
X127000000Y-76200000D03*
D11*
G04 #@! TO.P,U5,2,A0*
G04 #@! TO.N,/E0*
X129540000Y-76200000D03*
G04 #@! TO.P,U5,3,A1*
G04 #@! TO.N,/E1*
X132080000Y-76200000D03*
G04 #@! TO.P,U5,4,A2*
G04 #@! TO.N,/E2*
X134620000Y-76200000D03*
G04 #@! TO.P,U5,5,A3*
G04 #@! TO.N,/E3*
X137160000Y-76200000D03*
G04 #@! TO.P,U5,6,A4*
G04 #@! TO.N,/E4*
X139700000Y-76200000D03*
G04 #@! TO.P,U5,7,A5*
G04 #@! TO.N,/E5*
X142240000Y-76200000D03*
G04 #@! TO.P,U5,8,A6*
G04 #@! TO.N,/E6*
X144780000Y-76200000D03*
G04 #@! TO.P,U5,9,A7*
G04 #@! TO.N,/E7*
X147320000Y-76200000D03*
G04 #@! TO.P,U5,10,GND*
G04 #@! TO.N,GND*
X149860000Y-76200000D03*
G04 #@! TO.P,U5,11,B7*
G04 #@! TO.N,/D7*
X149860000Y-68580000D03*
G04 #@! TO.P,U5,12,B6*
G04 #@! TO.N,/D6*
X147320000Y-68580000D03*
G04 #@! TO.P,U5,13,B5*
G04 #@! TO.N,/D5*
X144780000Y-68580000D03*
G04 #@! TO.P,U5,14,B4*
G04 #@! TO.N,/D4*
X142240000Y-68580000D03*
G04 #@! TO.P,U5,15,B3*
G04 #@! TO.N,/D3*
X139700000Y-68580000D03*
G04 #@! TO.P,U5,16,B2*
G04 #@! TO.N,/D2*
X137160000Y-68580000D03*
G04 #@! TO.P,U5,17,B1*
G04 #@! TO.N,/D1*
X134620000Y-68580000D03*
G04 #@! TO.P,U5,18,B0*
G04 #@! TO.N,/D0*
X132080000Y-68580000D03*
G04 #@! TO.P,U5,19,CE*
G04 #@! TO.N,/RAM_~{A}{slash}B*
X129540000Y-68580000D03*
G04 #@! TO.P,U5,20,VCC*
G04 #@! TO.N,+5V*
X127000000Y-68580000D03*
G04 #@! TD*
D10*
G04 #@! TO.P,U3W28,1,VPP*
G04 #@! TO.N,+5V*
X168910000Y-87630000D03*
D11*
G04 #@! TO.P,U3W28,2,A12*
X168910000Y-90170000D03*
G04 #@! TO.P,U3W28,3,A7*
G04 #@! TO.N,/A7*
X168910000Y-92710000D03*
G04 #@! TO.P,U3W28,4,A6*
G04 #@! TO.N,/A6*
X168910000Y-95250000D03*
G04 #@! TO.P,U3W28,5,A5*
G04 #@! TO.N,/A5*
X168910000Y-97790000D03*
G04 #@! TO.P,U3W28,6,A4*
G04 #@! TO.N,/A4*
X168910000Y-100330000D03*
G04 #@! TO.P,U3W28,7,A3*
G04 #@! TO.N,/A3*
X168910000Y-102870000D03*
G04 #@! TO.P,U3W28,8,A2*
G04 #@! TO.N,/A2*
X168910000Y-105410000D03*
G04 #@! TO.P,U3W28,9,A1*
G04 #@! TO.N,/A1*
X168910000Y-107950000D03*
G04 #@! TO.P,U3W28,10,A0*
G04 #@! TO.N,/A0*
X168910000Y-110490000D03*
G04 #@! TO.P,U3W28,11,D0*
G04 #@! TO.N,/D0*
X168910000Y-113030000D03*
G04 #@! TO.P,U3W28,12,D1*
G04 #@! TO.N,/D1*
X168910000Y-115570000D03*
G04 #@! TO.P,U3W28,13,D2*
G04 #@! TO.N,/D2*
X168910000Y-118110000D03*
G04 #@! TO.P,U3W28,14,GND*
G04 #@! TO.N,GND*
X168910000Y-120650000D03*
G04 #@! TO.P,U3W28,15,D3*
G04 #@! TO.N,/D3*
X184150000Y-120650000D03*
G04 #@! TO.P,U3W28,16,D4*
G04 #@! TO.N,/D4*
X184150000Y-118110000D03*
G04 #@! TO.P,U3W28,17,D5*
G04 #@! TO.N,/D5*
X184150000Y-115570000D03*
G04 #@! TO.P,U3W28,18,D6*
G04 #@! TO.N,/D6*
X184150000Y-113030000D03*
G04 #@! TO.P,U3W28,19,D7*
G04 #@! TO.N,/D7*
X184150000Y-110490000D03*
G04 #@! TO.P,U3W28,20,~{CE}*
G04 #@! TO.N,GND*
X184150000Y-107950000D03*
G04 #@! TO.P,U3W28,21,A10*
X184150000Y-105410000D03*
G04 #@! TO.P,U3W28,22,~{OE}*
G04 #@! TO.N,/Firmware/~{OE}*
X184150000Y-102870000D03*
G04 #@! TO.P,U3W28,23,A11*
G04 #@! TO.N,+5V*
X184150000Y-100330000D03*
G04 #@! TO.P,U3W28,24,A9*
G04 #@! TO.N,/Firmware/A9*
X184150000Y-97790000D03*
G04 #@! TO.P,U3W28,25,A8*
G04 #@! TO.N,/A8*
X184150000Y-95250000D03*
G04 #@! TO.P,U3W28,26,NC*
G04 #@! TO.N,+5V*
X184150000Y-92710000D03*
G04 #@! TO.P,U3W28,27,~{PGM}*
X184150000Y-90170000D03*
G04 #@! TO.P,U3W28,28,VCC*
X184150000Y-87630000D03*
G04 #@! TD*
D12*
G04 #@! TO.P,R8,1*
G04 #@! TO.N,+5V*
X223520000Y-67310000D03*
D11*
G04 #@! TO.P,R8,2*
G04 #@! TO.N,Net-(R8-Pad2)*
X223520000Y-57150000D03*
G04 #@! TD*
D12*
G04 #@! TO.P,R10,1*
G04 #@! TO.N,Net-(Q1-Pad2)*
X212725000Y-80010000D03*
D11*
G04 #@! TO.P,R10,2*
G04 #@! TO.N,Net-(R10-Pad2)*
X212725000Y-69850000D03*
G04 #@! TD*
D10*
G04 #@! TO.P,U22,1,~{Mr}*
G04 #@! TO.N,Net-(C2-Pad1)*
X215900000Y-91440000D03*
D11*
G04 #@! TO.P,U22,2,Q0*
G04 #@! TO.N,Net-(U22-Pad2)*
X218440000Y-91440000D03*
G04 #@! TO.P,U22,3,~{Q0}*
G04 #@! TO.N,unconnected-(U22-Pad3)*
X220980000Y-91440000D03*
G04 #@! TO.P,U22,4,D0*
G04 #@! TO.N,Net-(U19-Pad18)*
X223520000Y-91440000D03*
G04 #@! TO.P,U22,5,D1*
G04 #@! TO.N,Net-(U22-Pad2)*
X226060000Y-91440000D03*
G04 #@! TO.P,U22,6,~{Q1}*
G04 #@! TO.N,unconnected-(U22-Pad6)*
X228600000Y-91440000D03*
G04 #@! TO.P,U22,7,Q1*
G04 #@! TO.N,Net-(U22-Pad7)*
X231140000Y-91440000D03*
G04 #@! TO.P,U22,8,GND*
G04 #@! TO.N,GND*
X233680000Y-91440000D03*
G04 #@! TO.P,U22,9,Cp*
G04 #@! TO.N,Net-(U18-Pad11)*
X233680000Y-83820000D03*
G04 #@! TO.P,U22,10,Q2*
G04 #@! TO.N,Net-(U22-Pad10)*
X231140000Y-83820000D03*
G04 #@! TO.P,U22,11,~{Q2}*
G04 #@! TO.N,Net-(U22-Pad11)*
X228600000Y-83820000D03*
G04 #@! TO.P,U22,12,D2*
G04 #@! TO.N,Net-(U22-Pad12)*
X226060000Y-83820000D03*
G04 #@! TO.P,U22,13,D3*
G04 #@! TO.N,Net-(U19-Pad19)*
X223520000Y-83820000D03*
G04 #@! TO.P,U22,14,~{Q3}*
G04 #@! TO.N,unconnected-(U22-Pad14)*
X220980000Y-83820000D03*
G04 #@! TO.P,U22,15,Q3*
G04 #@! TO.N,Net-(U22-Pad15)*
X218440000Y-83820000D03*
G04 #@! TO.P,U22,16,VCC*
G04 #@! TO.N,+5V*
X215900000Y-83820000D03*
G04 #@! TD*
D10*
G04 #@! TO.P,U15,1,S*
G04 #@! TO.N,/RAM_~{A}{slash}B*
X134620000Y-100330000D03*
D11*
G04 #@! TO.P,U15,2,I0a*
G04 #@! TO.N,/A4*
X134620000Y-102870000D03*
G04 #@! TO.P,U15,3,I1a*
G04 #@! TO.N,/B4*
X134620000Y-105410000D03*
G04 #@! TO.P,U15,4,Za*
G04 #@! TO.N,/SRAM/RAMA4*
X134620000Y-107950000D03*
G04 #@! TO.P,U15,5,I0b*
G04 #@! TO.N,/A5*
X134620000Y-110490000D03*
G04 #@! TO.P,U15,6,I1b*
G04 #@! TO.N,/B5*
X134620000Y-113030000D03*
G04 #@! TO.P,U15,7,Zb*
G04 #@! TO.N,/SRAM/RAMA5*
X134620000Y-115570000D03*
G04 #@! TO.P,U15,8,GND*
G04 #@! TO.N,GND*
X134620000Y-118110000D03*
G04 #@! TO.P,U15,9,Zc*
G04 #@! TO.N,/SRAM/RAMA6*
X142240000Y-118110000D03*
G04 #@! TO.P,U15,10,I1c*
G04 #@! TO.N,/B6*
X142240000Y-115570000D03*
G04 #@! TO.P,U15,11,I0c*
G04 #@! TO.N,/A6*
X142240000Y-113030000D03*
G04 #@! TO.P,U15,12,Zd*
G04 #@! TO.N,/SRAM/RAMA7*
X142240000Y-110490000D03*
G04 #@! TO.P,U15,13,I1d*
G04 #@! TO.N,/B7*
X142240000Y-107950000D03*
G04 #@! TO.P,U15,14,I0d*
G04 #@! TO.N,/A7*
X142240000Y-105410000D03*
G04 #@! TO.P,U15,15,E*
G04 #@! TO.N,GND*
X142240000Y-102870000D03*
G04 #@! TO.P,U15,16,VCC*
G04 #@! TO.N,+5V*
X142240000Y-100330000D03*
G04 #@! TD*
D10*
G04 #@! TO.P,U18,1,~{Mr}*
G04 #@! TO.N,+5V*
X127000000Y-64770000D03*
D11*
G04 #@! TO.P,U18,2,Q0*
G04 #@! TO.N,/ROMA0*
X129540000Y-64770000D03*
G04 #@! TO.P,U18,3,D0*
G04 #@! TO.N,/E0*
X132080000Y-64770000D03*
G04 #@! TO.P,U18,4,D1*
G04 #@! TO.N,/E1*
X134620000Y-64770000D03*
G04 #@! TO.P,U18,5,Q1*
G04 #@! TO.N,/ROMA1*
X137160000Y-64770000D03*
G04 #@! TO.P,U18,6,Q2*
G04 #@! TO.N,/ROMA2*
X139700000Y-64770000D03*
G04 #@! TO.P,U18,7,D2*
G04 #@! TO.N,/E2*
X142240000Y-64770000D03*
G04 #@! TO.P,U18,8,D3*
G04 #@! TO.N,/E3*
X144780000Y-64770000D03*
G04 #@! TO.P,U18,9,Q3*
G04 #@! TO.N,/ROMA3*
X147320000Y-64770000D03*
G04 #@! TO.P,U18,10,GND*
G04 #@! TO.N,GND*
X149860000Y-64770000D03*
G04 #@! TO.P,U18,11,Cp*
G04 #@! TO.N,Net-(U18-Pad11)*
X149860000Y-57150000D03*
G04 #@! TO.P,U18,12,Q4*
G04 #@! TO.N,/ROMA4*
X147320000Y-57150000D03*
G04 #@! TO.P,U18,13,D4*
G04 #@! TO.N,/E4*
X144780000Y-57150000D03*
G04 #@! TO.P,U18,14,D5*
G04 #@! TO.N,/E5*
X142240000Y-57150000D03*
G04 #@! TO.P,U18,15,Q5*
G04 #@! TO.N,/ROMA5*
X139700000Y-57150000D03*
G04 #@! TO.P,U18,16,Q6*
G04 #@! TO.N,/ROMA6*
X137160000Y-57150000D03*
G04 #@! TO.P,U18,17,D6*
G04 #@! TO.N,/E6*
X134620000Y-57150000D03*
G04 #@! TO.P,U18,18,D7*
G04 #@! TO.N,/E7*
X132080000Y-57150000D03*
G04 #@! TO.P,U18,19,Q7*
G04 #@! TO.N,/ROMA7*
X129540000Y-57150000D03*
G04 #@! TO.P,U18,20,VCC*
G04 #@! TO.N,+5V*
X127000000Y-57150000D03*
G04 #@! TD*
D12*
G04 #@! TO.P,R2,1*
G04 #@! TO.N,Net-(C3-Pad2)*
X235585000Y-75565000D03*
D11*
G04 #@! TO.P,R2,2*
G04 #@! TO.N,Net-(R2-Pad2)*
X245745000Y-75565000D03*
G04 #@! TD*
D10*
G04 #@! TO.P,CR1,1,K*
G04 #@! TO.N,Net-(CR1-Pad1)*
X190500000Y-80010000D03*
D11*
G04 #@! TO.P,CR1,2,A*
G04 #@! TO.N,Net-(C2-Pad1)*
X190500000Y-90170000D03*
G04 #@! TD*
D12*
G04 #@! TO.P,R11,1*
G04 #@! TO.N,+5V*
X116840000Y-66040000D03*
D11*
G04 #@! TO.P,R11,2*
G04 #@! TO.N,Net-(Q1-Pad3)*
X106680000Y-66040000D03*
G04 #@! TD*
D15*
G04 #@! TO.P,J2,1,Pin_1*
G04 #@! TO.N,GND*
X102235000Y-55880000D03*
D16*
G04 #@! TO.P,J2,2,Pin_2*
G04 #@! TO.N,/VIDEO*
X102235000Y-58420000D03*
G04 #@! TO.P,J2,3,Pin_3*
G04 #@! TO.N,-5V*
X102235000Y-60960000D03*
G04 #@! TO.P,J2,4,Pin_4*
G04 #@! TO.N,+12V*
X102235000Y-63500000D03*
G04 #@! TO.P,J2,5,Pin_5*
G04 #@! TO.N,unconnected-(J2-Pad5)*
X102235000Y-66040000D03*
G04 #@! TO.P,J2,6,Pin_6*
G04 #@! TO.N,/LIGHT PEN*
X102235000Y-68580000D03*
G04 #@! TD*
D10*
G04 #@! TO.P,C1,1*
G04 #@! TO.N,GND*
X190500000Y-106680000D03*
D12*
G04 #@! TO.P,C1,2*
G04 #@! TO.N,-5V*
X190500000Y-100330000D03*
G04 #@! TD*
G04 #@! TO.P,R1,1*
G04 #@! TO.N,Net-(R1-Pad1)*
X245745000Y-71755000D03*
D11*
G04 #@! TO.P,R1,2*
G04 #@! TO.N,Net-(C3-Pad1)*
X235585000Y-71755000D03*
G04 #@! TD*
D10*
G04 #@! TO.P,U19,1,GND*
G04 #@! TO.N,GND*
X114300000Y-95250000D03*
D11*
G04 #@! TO.P,U19,2,~{RESET}*
G04 #@! TO.N,/~{RES}*
X116840000Y-95250000D03*
G04 #@! TO.P,U19,3,LPSTB*
G04 #@! TO.N,/LIGHT PEN*
X119380000Y-95250000D03*
G04 #@! TO.P,U19,4,MA0*
G04 #@! TO.N,/B0*
X121920000Y-95250000D03*
G04 #@! TO.P,U19,5,MA1*
G04 #@! TO.N,/B1*
X124460000Y-95250000D03*
G04 #@! TO.P,U19,6,MA2*
G04 #@! TO.N,/B2*
X127000000Y-95250000D03*
G04 #@! TO.P,U19,7,MA3*
G04 #@! TO.N,/B3*
X129540000Y-95250000D03*
G04 #@! TO.P,U19,8,MA4*
G04 #@! TO.N,/B4*
X132080000Y-95250000D03*
G04 #@! TO.P,U19,9,MA5*
G04 #@! TO.N,/B5*
X134620000Y-95250000D03*
G04 #@! TO.P,U19,10,MA6*
G04 #@! TO.N,/B6*
X137160000Y-95250000D03*
G04 #@! TO.P,U19,11,MA7*
G04 #@! TO.N,/B7*
X139700000Y-95250000D03*
G04 #@! TO.P,U19,12,MA8*
G04 #@! TO.N,/B8*
X142240000Y-95250000D03*
G04 #@! TO.P,U19,13,MA9*
G04 #@! TO.N,/B9*
X144780000Y-95250000D03*
G04 #@! TO.P,U19,14,MA10*
G04 #@! TO.N,/B10*
X147320000Y-95250000D03*
G04 #@! TO.P,U19,15,MA11*
G04 #@! TO.N,unconnected-(U19-Pad15)*
X149860000Y-95250000D03*
G04 #@! TO.P,U19,16,MA12*
G04 #@! TO.N,unconnected-(U19-Pad16)*
X152400000Y-95250000D03*
G04 #@! TO.P,U19,17,MA13*
G04 #@! TO.N,unconnected-(U19-Pad17)*
X154940000Y-95250000D03*
G04 #@! TO.P,U19,18,DE*
G04 #@! TO.N,Net-(U19-Pad18)*
X157480000Y-95250000D03*
G04 #@! TO.P,U19,19,CURSOR*
G04 #@! TO.N,Net-(U19-Pad19)*
X160020000Y-95250000D03*
G04 #@! TO.P,U19,20,VCC*
G04 #@! TO.N,+5V*
X162560000Y-95250000D03*
G04 #@! TO.P,U19,21,CLK*
G04 #@! TO.N,Net-(U19-Pad21)*
X162560000Y-80010000D03*
G04 #@! TO.P,U19,22,R/~{W}*
G04 #@! TO.N,/R{slash}~{W}*
X160020000Y-80010000D03*
G04 #@! TO.P,U19,23,E*
G04 #@! TO.N,/DEV*
X157480000Y-80010000D03*
G04 #@! TO.P,U19,24,RS*
G04 #@! TO.N,/A0*
X154940000Y-80010000D03*
G04 #@! TO.P,U19,25,~{CS}*
G04 #@! TO.N,GND*
X152400000Y-80010000D03*
G04 #@! TO.P,U19,26,D7*
G04 #@! TO.N,/D7*
X149860000Y-80010000D03*
G04 #@! TO.P,U19,27,D6*
G04 #@! TO.N,/D6*
X147320000Y-80010000D03*
G04 #@! TO.P,U19,28,D5*
G04 #@! TO.N,/D5*
X144780000Y-80010000D03*
G04 #@! TO.P,U19,29,D4*
G04 #@! TO.N,/D4*
X142240000Y-80010000D03*
G04 #@! TO.P,U19,30,D3*
G04 #@! TO.N,/D3*
X139700000Y-80010000D03*
G04 #@! TO.P,U19,31,D2*
G04 #@! TO.N,/D2*
X137160000Y-80010000D03*
G04 #@! TO.P,U19,32,D1*
G04 #@! TO.N,/D1*
X134620000Y-80010000D03*
G04 #@! TO.P,U19,33,D0*
G04 #@! TO.N,/D0*
X132080000Y-80010000D03*
G04 #@! TO.P,U19,34,RA4*
G04 #@! TO.N,unconnected-(U19-Pad34)*
X129540000Y-80010000D03*
G04 #@! TO.P,U19,35,RA3*
G04 #@! TO.N,/RA3*
X127000000Y-80010000D03*
G04 #@! TO.P,U19,36,RA2*
G04 #@! TO.N,/RA2*
X124460000Y-80010000D03*
G04 #@! TO.P,U19,37,RA1*
G04 #@! TO.N,/RA1*
X121920000Y-80010000D03*
G04 #@! TO.P,U19,38,RA0*
G04 #@! TO.N,/RA0*
X119380000Y-80010000D03*
G04 #@! TO.P,U19,39,HS*
G04 #@! TO.N,/HSYNC*
X116840000Y-80010000D03*
G04 #@! TO.P,U19,40,VS*
G04 #@! TO.N,/VSYNC*
X114300000Y-80010000D03*
G04 #@! TD*
D17*
G04 #@! TO.P,Y1,1,1*
G04 #@! TO.N,Net-(R1-Pad1)*
X239395000Y-80010000D03*
G04 #@! TO.P,Y1,2,2*
G04 #@! TO.N,Net-(R2-Pad2)*
X244422000Y-80010000D03*
G04 #@! TD*
D10*
G04 #@! TO.P,U1,1*
G04 #@! TO.N,Net-(U1-Pad1)*
X215900000Y-116840000D03*
D11*
G04 #@! TO.P,U1,2*
G04 #@! TO.N,+5V*
X218440000Y-116840000D03*
G04 #@! TO.P,U1,3*
G04 #@! TO.N,Net-(R9-Pad1)*
X220980000Y-116840000D03*
G04 #@! TO.P,U1,4*
G04 #@! TO.N,/~{IO_SELECT}*
X223520000Y-116840000D03*
G04 #@! TO.P,U1,5*
G04 #@! TO.N,+5V*
X226060000Y-116840000D03*
G04 #@! TO.P,U1,6*
G04 #@! TO.N,Net-(U1-Pad6)*
X228600000Y-116840000D03*
G04 #@! TO.P,U1,7,GND*
G04 #@! TO.N,GND*
X231140000Y-116840000D03*
G04 #@! TO.P,U1,8*
G04 #@! TO.N,Net-(U1-Pad8)*
X231140000Y-109220000D03*
G04 #@! TO.P,U1,9*
G04 #@! TO.N,Net-(U1-Pad9)*
X228600000Y-109220000D03*
G04 #@! TO.P,U1,10*
G04 #@! TO.N,Net-(U1-Pad10)*
X226060000Y-109220000D03*
G04 #@! TO.P,U1,11*
G04 #@! TO.N,/DEV*
X223520000Y-109220000D03*
G04 #@! TO.P,U1,12*
G04 #@! TO.N,/~{DEV}*
X220980000Y-109220000D03*
G04 #@! TO.P,U1,13*
G04 #@! TO.N,+5V*
X218440000Y-109220000D03*
G04 #@! TO.P,U1,14,VCC*
X215900000Y-109220000D03*
G04 #@! TD*
D12*
G04 #@! TO.P,C5,1*
G04 #@! TO.N,+5V*
X109220000Y-69850000D03*
D11*
G04 #@! TO.P,C5,2*
G04 #@! TO.N,GND*
X115570000Y-69850000D03*
G04 #@! TD*
D10*
G04 #@! TO.P,U7,1,Q*
G04 #@! TO.N,unconnected-(U7-Pad1)*
X194310000Y-111760000D03*
D11*
G04 #@! TO.P,U7,2,~{Q}*
G04 #@! TO.N,Net-(U2-Pad5)*
X196850000Y-111760000D03*
G04 #@! TO.P,U7,3,C*
G04 #@! TO.N,Net-(U7-Pad3)*
X199390000Y-111760000D03*
G04 #@! TO.P,U7,4,R*
G04 #@! TO.N,GND*
X201930000Y-111760000D03*
G04 #@! TO.P,U7,5,D*
X204470000Y-111760000D03*
G04 #@! TO.P,U7,6,S*
G04 #@! TO.N,Net-(U1-Pad6)*
X207010000Y-111760000D03*
G04 #@! TO.P,U7,7,VSS*
G04 #@! TO.N,GND*
X209550000Y-111760000D03*
G04 #@! TO.P,U7,8,S*
X209550000Y-104140000D03*
G04 #@! TO.P,U7,9,D*
G04 #@! TO.N,/A1*
X207010000Y-104140000D03*
G04 #@! TO.P,U7,10,R*
G04 #@! TO.N,GND*
X204470000Y-104140000D03*
G04 #@! TO.P,U7,11,C*
G04 #@! TO.N,/DEV*
X201930000Y-104140000D03*
G04 #@! TO.P,U7,12,~{Q}*
G04 #@! TO.N,unconnected-(U7-Pad12)*
X199390000Y-104140000D03*
G04 #@! TO.P,U7,13,Q*
G04 #@! TO.N,Net-(U23-Pad3)*
X196850000Y-104140000D03*
G04 #@! TO.P,U7,14,VDD*
G04 #@! TO.N,+5V*
X194310000Y-104140000D03*
G04 #@! TD*
D10*
G04 #@! TO.P,U3,1,A7*
G04 #@! TO.N,/A7*
X168910000Y-92710000D03*
D11*
G04 #@! TO.P,U3,2,A6*
G04 #@! TO.N,/A6*
X168910000Y-95250000D03*
G04 #@! TO.P,U3,3,A5*
G04 #@! TO.N,/A5*
X168910000Y-97790000D03*
G04 #@! TO.P,U3,4,A4*
G04 #@! TO.N,/A4*
X168910000Y-100330000D03*
G04 #@! TO.P,U3,5,A3*
G04 #@! TO.N,/A3*
X168910000Y-102870000D03*
G04 #@! TO.P,U3,6,A2*
G04 #@! TO.N,/A2*
X168910000Y-105410000D03*
G04 #@! TO.P,U3,7,A1*
G04 #@! TO.N,/A1*
X168910000Y-107950000D03*
G04 #@! TO.P,U3,8,A0*
G04 #@! TO.N,/A0*
X168910000Y-110490000D03*
G04 #@! TO.P,U3,9,D0*
G04 #@! TO.N,/D0*
X168910000Y-113030000D03*
G04 #@! TO.P,U3,10,D1*
G04 #@! TO.N,/D1*
X168910000Y-115570000D03*
G04 #@! TO.P,U3,11,D2*
G04 #@! TO.N,/D2*
X168910000Y-118110000D03*
G04 #@! TO.P,U3,12,GND*
G04 #@! TO.N,GND*
X168910000Y-120650000D03*
G04 #@! TO.P,U3,13,D3*
G04 #@! TO.N,/D3*
X184150000Y-120650000D03*
G04 #@! TO.P,U3,14,D4*
G04 #@! TO.N,/D4*
X184150000Y-118110000D03*
G04 #@! TO.P,U3,15,D5*
G04 #@! TO.N,/D5*
X184150000Y-115570000D03*
G04 #@! TO.P,U3,16,D6*
G04 #@! TO.N,/D6*
X184150000Y-113030000D03*
G04 #@! TO.P,U3,17,D7*
G04 #@! TO.N,/D7*
X184150000Y-110490000D03*
G04 #@! TO.P,U3,18,~{CE}/PGM*
G04 #@! TO.N,GND*
X184150000Y-107950000D03*
G04 #@! TO.P,U3,19,A10*
X184150000Y-105410000D03*
G04 #@! TO.P,U3,20,~{OE}*
G04 #@! TO.N,/Firmware/~{OE}*
X184150000Y-102870000D03*
G04 #@! TO.P,U3,21,VPP*
G04 #@! TO.N,+5V*
X184150000Y-100330000D03*
G04 #@! TO.P,U3,22,A9*
G04 #@! TO.N,/Firmware/A9*
X184150000Y-97790000D03*
G04 #@! TO.P,U3,23,A8*
G04 #@! TO.N,/A8*
X184150000Y-95250000D03*
G04 #@! TO.P,U3,24,VCC*
G04 #@! TO.N,+5V*
X184150000Y-92710000D03*
G04 #@! TD*
D10*
G04 #@! TO.P,U8,1,Q*
G04 #@! TO.N,/fA9*
X215900000Y-104140000D03*
D11*
G04 #@! TO.P,U8,2,~{Q}*
G04 #@! TO.N,unconnected-(U8-Pad2)*
X218440000Y-104140000D03*
G04 #@! TO.P,U8,3,C*
G04 #@! TO.N,/DEV*
X220980000Y-104140000D03*
G04 #@! TO.P,U8,4,R*
G04 #@! TO.N,GND*
X223520000Y-104140000D03*
G04 #@! TO.P,U8,5,D*
G04 #@! TO.N,/A2*
X226060000Y-104140000D03*
G04 #@! TO.P,U8,6,S*
G04 #@! TO.N,GND*
X228600000Y-104140000D03*
G04 #@! TO.P,U8,7,VSS*
X231140000Y-104140000D03*
G04 #@! TO.P,U8,8,S*
X231140000Y-96520000D03*
G04 #@! TO.P,U8,9,D*
G04 #@! TO.N,/A3*
X228600000Y-96520000D03*
G04 #@! TO.P,U8,10,R*
G04 #@! TO.N,GND*
X226060000Y-96520000D03*
G04 #@! TO.P,U8,11,C*
G04 #@! TO.N,/DEV*
X223520000Y-96520000D03*
G04 #@! TO.P,U8,12,~{Q}*
G04 #@! TO.N,unconnected-(U8-Pad12)*
X220980000Y-96520000D03*
G04 #@! TO.P,U8,13,Q*
G04 #@! TO.N,/fA10*
X218440000Y-96520000D03*
G04 #@! TO.P,U8,14,VDD*
G04 #@! TO.N,+5V*
X215900000Y-96520000D03*
G04 #@! TD*
D10*
G04 #@! TO.P,U6,1*
G04 #@! TO.N,Net-(U4-Pad2)*
X194310000Y-83820000D03*
D11*
G04 #@! TO.P,U6,2*
G04 #@! TO.N,/~{IO_SELECT}*
X196850000Y-83820000D03*
G04 #@! TO.P,U6,3*
G04 #@! TO.N,/Firmware/A9*
X199390000Y-83820000D03*
G04 #@! TO.P,U6,4*
G04 #@! TO.N,Net-(U22-Pad7)*
X201930000Y-83820000D03*
G04 #@! TO.P,U6,5*
G04 #@! TO.N,Net-(U1-Pad8)*
X204470000Y-83820000D03*
G04 #@! TO.P,U6,6*
G04 #@! TO.N,Net-(U1-Pad1)*
X207010000Y-83820000D03*
G04 #@! TO.P,U6,7,GND*
G04 #@! TO.N,GND*
X209550000Y-83820000D03*
G04 #@! TO.P,U6,8*
G04 #@! TO.N,Net-(U18-Pad11)*
X209550000Y-76200000D03*
G04 #@! TO.P,U6,9*
G04 #@! TO.N,Net-(U19-Pad21)*
X207010000Y-76200000D03*
G04 #@! TO.P,U6,10*
G04 #@! TO.N,Net-(U23-Pad12)*
X204470000Y-76200000D03*
G04 #@! TO.P,U6,11*
G04 #@! TO.N,/RAM_~{A}{slash}B*
X201930000Y-76200000D03*
G04 #@! TO.P,U6,12*
G04 #@! TO.N,Net-(U2-Pad4)*
X199390000Y-76200000D03*
G04 #@! TO.P,U6,13*
G04 #@! TO.N,Net-(U4-Pad12)*
X196850000Y-76200000D03*
G04 #@! TO.P,U6,14,VCC*
G04 #@! TO.N,+5V*
X194310000Y-76200000D03*
G04 #@! TD*
G04 #@! TO.P,U16,16,VCC*
G04 #@! TO.N,+5V*
X157480000Y-100330000D03*
G04 #@! TO.P,U16,15,E*
G04 #@! TO.N,GND*
X157480000Y-102870000D03*
G04 #@! TO.P,U16,14,I0d*
X157480000Y-105410000D03*
G04 #@! TO.P,U16,13,I1d*
X157480000Y-107950000D03*
G04 #@! TO.P,U16,12,Zd*
G04 #@! TO.N,/SRAM/RAMA11*
X157480000Y-110490000D03*
G04 #@! TO.P,U16,11,I0c*
G04 #@! TO.N,/fA10*
X157480000Y-113030000D03*
G04 #@! TO.P,U16,10,I1c*
G04 #@! TO.N,/B10*
X157480000Y-115570000D03*
G04 #@! TO.P,U16,9,Zc*
G04 #@! TO.N,/SRAM/RAMA10*
X157480000Y-118110000D03*
G04 #@! TO.P,U16,8,GND*
G04 #@! TO.N,GND*
X149860000Y-118110000D03*
G04 #@! TO.P,U16,7,Zb*
G04 #@! TO.N,/SRAM/RAMA9*
X149860000Y-115570000D03*
G04 #@! TO.P,U16,6,I1b*
G04 #@! TO.N,/B9*
X149860000Y-113030000D03*
G04 #@! TO.P,U16,5,I0b*
G04 #@! TO.N,/fA9*
X149860000Y-110490000D03*
G04 #@! TO.P,U16,4,Za*
G04 #@! TO.N,/SRAM/RAMA8*
X149860000Y-107950000D03*
G04 #@! TO.P,U16,3,I1a*
G04 #@! TO.N,/B8*
X149860000Y-105410000D03*
G04 #@! TO.P,U16,2,I0a*
G04 #@! TO.N,/A8*
X149860000Y-102870000D03*
D10*
G04 #@! TO.P,U16,1,S*
G04 #@! TO.N,/RAM_~{A}{slash}B*
X149860000Y-100330000D03*
G04 #@! TD*
D12*
G04 #@! TO.P,C2,1*
G04 #@! TO.N,Net-(C2-Pad1)*
X212725000Y-90170000D03*
D11*
G04 #@! TO.P,C2,2*
G04 #@! TO.N,GND*
X212725000Y-83820000D03*
G04 #@! TD*
D10*
G04 #@! TO.P,U10N28,1,A14*
G04 #@! TO.N,+5V*
X102870000Y-86360000D03*
D11*
G04 #@! TO.P,U10N28,2,A12*
X102870000Y-88900000D03*
G04 #@! TO.P,U10N28,3,A7*
G04 #@! TO.N,/SRAM/RAMA5*
X102870000Y-91440000D03*
G04 #@! TO.P,U10N28,4,A6*
G04 #@! TO.N,/SRAM/RAMA3*
X102870000Y-93980000D03*
G04 #@! TO.P,U10N28,5,A5*
G04 #@! TO.N,/SRAM/RAMA0*
X102870000Y-96520000D03*
G04 #@! TO.P,U10N28,6,A4*
G04 #@! TO.N,/SRAM/RAMA2*
X102870000Y-99060000D03*
G04 #@! TO.P,U10N28,7,A3*
G04 #@! TO.N,/SRAM/RAMA10*
X102870000Y-101600000D03*
G04 #@! TO.P,U10N28,8,A2*
G04 #@! TO.N,/SRAM/RAMA6*
X102870000Y-104140000D03*
G04 #@! TO.P,U10N28,9,A1*
G04 #@! TO.N,/SRAM/RAMA8*
X102870000Y-106680000D03*
G04 #@! TO.P,U10N28,10,A0*
G04 #@! TO.N,/SRAM/RAMA9*
X102870000Y-109220000D03*
G04 #@! TO.P,U10N28,11,Q0*
G04 #@! TO.N,/E0*
X102870000Y-111760000D03*
G04 #@! TO.P,U10N28,12,Q1*
G04 #@! TO.N,/E1*
X102870000Y-114300000D03*
G04 #@! TO.P,U10N28,13,Q2*
G04 #@! TO.N,/E2*
X102870000Y-116840000D03*
G04 #@! TO.P,U10N28,14,GND*
G04 #@! TO.N,GND*
X102870000Y-119380000D03*
G04 #@! TO.P,U10N28,15,Q3*
G04 #@! TO.N,/E3*
X110490000Y-119380000D03*
G04 #@! TO.P,U10N28,16,Q4*
G04 #@! TO.N,/E4*
X110490000Y-116840000D03*
G04 #@! TO.P,U10N28,17,Q5*
G04 #@! TO.N,/E5*
X110490000Y-114300000D03*
G04 #@! TO.P,U10N28,18,Q6*
G04 #@! TO.N,/E6*
X110490000Y-111760000D03*
G04 #@! TO.P,U10N28,19,Q7*
G04 #@! TO.N,/E7*
X110490000Y-109220000D03*
G04 #@! TO.P,U10N28,20,~{CS}*
G04 #@! TO.N,GND*
X110490000Y-106680000D03*
G04 #@! TO.P,U10N28,21,A10*
G04 #@! TO.N,/SRAM/RAMA1*
X110490000Y-104140000D03*
G04 #@! TO.P,U10N28,22,~{OE}*
G04 #@! TO.N,GND*
X110490000Y-101600000D03*
G04 #@! TO.P,U10N28,23,A11*
G04 #@! TO.N,Net-(U10-Pad21)*
X110490000Y-99060000D03*
G04 #@! TO.P,U10N28,24,A9*
G04 #@! TO.N,/SRAM/RAMA7*
X110490000Y-96520000D03*
G04 #@! TO.P,U10N28,25,A8*
G04 #@! TO.N,/SRAM/RAMA4*
X110490000Y-93980000D03*
G04 #@! TO.P,U10N28,26,A13*
G04 #@! TO.N,+5V*
X110490000Y-91440000D03*
G04 #@! TO.P,U10N28,27,~{WE}*
G04 #@! TO.N,/SRAM/RAM_R{slash}~{W}*
X110490000Y-88900000D03*
G04 #@! TO.P,U10N28,28,VCC*
G04 #@! TO.N,+5V*
X110490000Y-86360000D03*
G04 #@! TD*
D10*
G04 #@! TO.P,U23,1,~{MR}*
G04 #@! TO.N,+5V*
X227330000Y-64770000D03*
D11*
G04 #@! TO.P,U23,2,CP*
G04 #@! TO.N,Net-(U21-Pad7)*
X229870000Y-64770000D03*
G04 #@! TO.P,U23,3,D0*
G04 #@! TO.N,Net-(U23-Pad3)*
X232410000Y-64770000D03*
G04 #@! TO.P,U23,4,D1*
G04 #@! TO.N,GND*
X234950000Y-64770000D03*
G04 #@! TO.P,U23,5,D2*
G04 #@! TO.N,+5V*
X237490000Y-64770000D03*
G04 #@! TO.P,U23,6,D3*
G04 #@! TO.N,GND*
X240030000Y-64770000D03*
G04 #@! TO.P,U23,7,CEP*
G04 #@! TO.N,+5V*
X242570000Y-64770000D03*
G04 #@! TO.P,U23,8,GND*
G04 #@! TO.N,GND*
X245110000Y-64770000D03*
G04 #@! TO.P,U23,9,~{PE}*
G04 #@! TO.N,Net-(U18-Pad11)*
X245110000Y-57150000D03*
G04 #@! TO.P,U23,10,CET*
G04 #@! TO.N,+5V*
X242570000Y-57150000D03*
G04 #@! TO.P,U23,11,Q3*
G04 #@! TO.N,Net-(U19-Pad21)*
X240030000Y-57150000D03*
G04 #@! TO.P,U23,12,Q2*
G04 #@! TO.N,Net-(U23-Pad12)*
X237490000Y-57150000D03*
G04 #@! TO.P,U23,13,Q1*
G04 #@! TO.N,unconnected-(U23-Pad13)*
X234950000Y-57150000D03*
G04 #@! TO.P,U23,14,Q0*
G04 #@! TO.N,unconnected-(U23-Pad14)*
X232410000Y-57150000D03*
G04 #@! TO.P,U23,15,TC*
G04 #@! TO.N,unconnected-(U23-Pad15)*
X229870000Y-57150000D03*
G04 #@! TO.P,U23,16,VCC*
G04 #@! TO.N,+5V*
X227330000Y-57150000D03*
G04 #@! TD*
D12*
G04 #@! TO.P,R9,1*
G04 #@! TO.N,Net-(R9-Pad1)*
X212725000Y-111760000D03*
D11*
G04 #@! TO.P,R9,2*
G04 #@! TO.N,Net-(Q1-Pad2)*
X212725000Y-101600000D03*
G04 #@! TD*
D18*
G04 #@! TO.P,J1,26,GND*
G04 #@! TO.N,GND*
X232410000Y-127000000D03*
G04 #@! TO.P,J1,27,DMA_IN*
G04 #@! TO.N,/DMA_IN*
X229870000Y-127000000D03*
G04 #@! TO.P,J1,28,INT_IN*
G04 #@! TO.N,/INT_IN*
X227330000Y-127000000D03*
G04 #@! TO.P,J1,29,~{NMI}*
G04 #@! TO.N,/~{NMI}*
X224790000Y-127000000D03*
G04 #@! TO.P,J1,30,~{IRQ}*
G04 #@! TO.N,/~{IRQ}*
X222250000Y-127000000D03*
G04 #@! TO.P,J1,31,~{RES}*
G04 #@! TO.N,/~{RES}*
X219710000Y-127000000D03*
G04 #@! TO.P,J1,32,~{INH}*
G04 #@! TO.N,/~{INH}*
X217170000Y-127000000D03*
G04 #@! TO.P,J1,33,-12V*
G04 #@! TO.N,/-12V*
X214630000Y-127000000D03*
G04 #@! TO.P,J1,34,-5V*
G04 #@! TO.N,-5V*
X212090000Y-127000000D03*
G04 #@! TO.P,J1,35,N.C.*
G04 #@! TO.N,unconnected-(J1-Pad35)*
X209550000Y-127000000D03*
G04 #@! TO.P,J1,36,7M*
G04 #@! TO.N,/7M*
X207010000Y-127000000D03*
G04 #@! TO.P,J1,37,Q3*
G04 #@! TO.N,/Q3*
X204470000Y-127000000D03*
G04 #@! TO.P,J1,38,PHI1*
G04 #@! TO.N,/PHI1*
X201930000Y-127000000D03*
G04 #@! TO.P,J1,39,USER1*
G04 #@! TO.N,/USER1*
X199390000Y-127000000D03*
G04 #@! TO.P,J1,40,PHI0*
G04 #@! TO.N,/PHI0*
X196850000Y-127000000D03*
G04 #@! TO.P,J1,41,~{DEVICE_SELECT}*
G04 #@! TO.N,/~{DEV}*
X194310000Y-127000000D03*
G04 #@! TO.P,J1,42,D7*
G04 #@! TO.N,/D7*
X191770000Y-127000000D03*
G04 #@! TO.P,J1,43,D6*
G04 #@! TO.N,/D6*
X189230000Y-127000000D03*
G04 #@! TO.P,J1,44,D5*
G04 #@! TO.N,/D5*
X186690000Y-127000000D03*
G04 #@! TO.P,J1,45,D4*
G04 #@! TO.N,/D4*
X184150000Y-127000000D03*
G04 #@! TO.P,J1,46,D3*
G04 #@! TO.N,/D3*
X181610000Y-127000000D03*
G04 #@! TO.P,J1,47,D2*
G04 #@! TO.N,/D2*
X179070000Y-127000000D03*
G04 #@! TO.P,J1,48,D1*
G04 #@! TO.N,/D1*
X176530000Y-127000000D03*
G04 #@! TO.P,J1,49,D0*
G04 #@! TO.N,/D0*
X173990000Y-127000000D03*
G04 #@! TO.P,J1,50,-12V*
G04 #@! TO.N,+12V*
X171450000Y-127000000D03*
G04 #@! TD*
D12*
G04 #@! TO.P,R12,1*
G04 #@! TO.N,Net-(Q1-Pad1)*
X106680000Y-62230000D03*
D11*
G04 #@! TO.P,R12,2*
G04 #@! TO.N,/VIDEO*
X116840000Y-62230000D03*
G04 #@! TD*
D12*
G04 #@! TO.P,R13,1*
G04 #@! TO.N,/VIDEO*
X113030000Y-58420000D03*
D11*
G04 #@! TO.P,R13,2*
G04 #@! TO.N,GND*
X123190000Y-58420000D03*
G04 #@! TD*
D10*
G04 #@! TO.P,U10,1,A7*
G04 #@! TO.N,/SRAM/RAMA5*
X102870000Y-91440000D03*
D11*
G04 #@! TO.P,U10,2,A6*
G04 #@! TO.N,/SRAM/RAMA3*
X102870000Y-93980000D03*
G04 #@! TO.P,U10,3,A5*
G04 #@! TO.N,/SRAM/RAMA0*
X102870000Y-96520000D03*
G04 #@! TO.P,U10,4,A4*
G04 #@! TO.N,/SRAM/RAMA2*
X102870000Y-99060000D03*
G04 #@! TO.P,U10,5,A3*
G04 #@! TO.N,/SRAM/RAMA10*
X102870000Y-101600000D03*
G04 #@! TO.P,U10,6,A2*
G04 #@! TO.N,/SRAM/RAMA6*
X102870000Y-104140000D03*
G04 #@! TO.P,U10,7,A1*
G04 #@! TO.N,/SRAM/RAMA8*
X102870000Y-106680000D03*
G04 #@! TO.P,U10,8,A0*
G04 #@! TO.N,/SRAM/RAMA9*
X102870000Y-109220000D03*
G04 #@! TO.P,U10,9,DQ1*
G04 #@! TO.N,/E0*
X102870000Y-111760000D03*
G04 #@! TO.P,U10,10,DQ2*
G04 #@! TO.N,/E1*
X102870000Y-114300000D03*
G04 #@! TO.P,U10,11,DQ3*
G04 #@! TO.N,/E2*
X102870000Y-116840000D03*
G04 #@! TO.P,U10,12,GND*
G04 #@! TO.N,GND*
X102870000Y-119380000D03*
G04 #@! TO.P,U10,13,DQ4*
G04 #@! TO.N,/E3*
X110490000Y-119380000D03*
G04 #@! TO.P,U10,14,DQ5*
G04 #@! TO.N,/E4*
X110490000Y-116840000D03*
G04 #@! TO.P,U10,15,DQ6*
G04 #@! TO.N,/E5*
X110490000Y-114300000D03*
G04 #@! TO.P,U10,16,DQ7*
G04 #@! TO.N,/E6*
X110490000Y-111760000D03*
G04 #@! TO.P,U10,17,DQ8*
G04 #@! TO.N,/E7*
X110490000Y-109220000D03*
G04 #@! TO.P,U10,18,~{CS}*
G04 #@! TO.N,GND*
X110490000Y-106680000D03*
G04 #@! TO.P,U10,19,A10*
G04 #@! TO.N,/SRAM/RAMA1*
X110490000Y-104140000D03*
G04 #@! TO.P,U10,20,~{OE}*
G04 #@! TO.N,GND*
X110490000Y-101600000D03*
G04 #@! TO.P,U10,21,~{WE}*
G04 #@! TO.N,Net-(U10-Pad21)*
X110490000Y-99060000D03*
G04 #@! TO.P,U10,22,A9*
G04 #@! TO.N,/SRAM/RAMA7*
X110490000Y-96520000D03*
G04 #@! TO.P,U10,23,A8*
G04 #@! TO.N,/SRAM/RAMA4*
X110490000Y-93980000D03*
G04 #@! TO.P,U10,24,VCC*
G04 #@! TO.N,+5V*
X110490000Y-91440000D03*
G04 #@! TD*
D10*
G04 #@! TO.P,U20B1,1,VPP*
G04 #@! TO.N,+5V*
X161290000Y-72390000D03*
D11*
G04 #@! TO.P,U20B1,2,A12*
X163830000Y-72390000D03*
G04 #@! TO.P,U20B1,3,A7*
G04 #@! TO.N,/ROMA3*
X166370000Y-72390000D03*
G04 #@! TO.P,U20B1,4,A6*
G04 #@! TO.N,/ROMA2*
X168910000Y-72390000D03*
G04 #@! TO.P,U20B1,5,A5*
G04 #@! TO.N,/ROMA1*
X171450000Y-72390000D03*
G04 #@! TO.P,U20B1,6,A4*
G04 #@! TO.N,/ROMA0*
X173990000Y-72390000D03*
G04 #@! TO.P,U20B1,7,A3*
G04 #@! TO.N,/RA3*
X176530000Y-72390000D03*
G04 #@! TO.P,U20B1,8,A2*
G04 #@! TO.N,/RA2*
X179070000Y-72390000D03*
G04 #@! TO.P,U20B1,9,A1*
G04 #@! TO.N,/RA1*
X181610000Y-72390000D03*
G04 #@! TO.P,U20B1,10,A0*
G04 #@! TO.N,/RA0*
X184150000Y-72390000D03*
G04 #@! TO.P,U20B1,11,D0*
G04 #@! TO.N,/ROMD0*
X186690000Y-72390000D03*
G04 #@! TO.P,U20B1,12,D1*
G04 #@! TO.N,/ROMD1*
X189230000Y-72390000D03*
G04 #@! TO.P,U20B1,13,D2*
G04 #@! TO.N,/ROMD2*
X191770000Y-72390000D03*
G04 #@! TO.P,U20B1,14,GND*
G04 #@! TO.N,GND*
X194310000Y-72390000D03*
G04 #@! TO.P,U20B1,15,D3*
G04 #@! TO.N,/ROMD3*
X194310000Y-57150000D03*
G04 #@! TO.P,U20B1,16,D4*
G04 #@! TO.N,/ROMD4*
X191770000Y-57150000D03*
G04 #@! TO.P,U20B1,17,D5*
G04 #@! TO.N,/ROMD5*
X189230000Y-57150000D03*
G04 #@! TO.P,U20B1,18,D6*
G04 #@! TO.N,/ROMD6*
X186690000Y-57150000D03*
G04 #@! TO.P,U20B1,19,D7*
G04 #@! TO.N,/ROMD7*
X184150000Y-57150000D03*
G04 #@! TO.P,U20B1,20,~{CE}*
G04 #@! TO.N,GND*
X181610000Y-57150000D03*
G04 #@! TO.P,U20B1,21,A10*
G04 #@! TO.N,/ROMA6*
X179070000Y-57150000D03*
G04 #@! TO.P,U20B1,22,~{OE}*
G04 #@! TO.N,GND*
X176530000Y-57150000D03*
G04 #@! TO.P,U20B1,23,A11*
G04 #@! TO.N,/ROMA7*
X173990000Y-57150000D03*
G04 #@! TO.P,U20B1,24,A9*
G04 #@! TO.N,/ROMA5*
X171450000Y-57150000D03*
G04 #@! TO.P,U20B1,25,A8*
G04 #@! TO.N,/ROMA4*
X168910000Y-57150000D03*
G04 #@! TO.P,U20B1,26,A13*
G04 #@! TO.N,+5V*
X166370000Y-57150000D03*
G04 #@! TO.P,U20B1,27,~{PGM}*
X163830000Y-57150000D03*
G04 #@! TO.P,U20B1,28,VCC*
X161290000Y-57150000D03*
G04 #@! TD*
D19*
G04 #@! TO.N,/SRAM/RAM_R{slash}~{W}*
X116205000Y-112395000D03*
G04 #@! TO.N,/SRAM/RAMA11*
X113665000Y-112395000D03*
G04 #@! TO.N,Net-(U10-Pad21)*
X113665000Y-109220000D03*
G04 #@! TO.N,GND*
X184150000Y-64770000D03*
X128270000Y-93599000D03*
X227965000Y-81915000D03*
D20*
G04 #@! TO.N,+5V*
X164592000Y-83947000D03*
D19*
X146050000Y-107950000D03*
X143510000Y-89535000D03*
X217678000Y-89027000D03*
X165100000Y-101600000D03*
G04 #@! TO.N,Net-(Q1-Pad2)*
X185420000Y-74041000D03*
X185420000Y-79375000D03*
G04 #@! TO.N,/A0*
X163830000Y-107315000D03*
X152400000Y-88773000D03*
G04 #@! TO.N,/A8*
X176530000Y-95885000D03*
G04 #@! TO.N,/E4*
X140970000Y-67564000D03*
G04 #@! TO.N,/E5*
X143510000Y-67564000D03*
G04 #@! TO.N,/E6*
X146050000Y-69850000D03*
G04 #@! TO.N,/E7*
X148590000Y-69850000D03*
G04 #@! TO.N,/fA10*
X218440000Y-99695000D03*
X172085000Y-109220000D03*
X166370000Y-105410000D03*
G04 #@! TO.N,/Q3*
X204470000Y-121920000D03*
G04 #@! TO.N,/ROMA7*
X213995000Y-71755000D03*
X238125000Y-99822000D03*
X205105000Y-71120000D03*
X224790000Y-74803000D03*
G04 #@! TO.N,/~{RES}*
X164465000Y-116840000D03*
G04 #@! TO.N,Net-(U19-Pad18)*
X221996000Y-87757000D03*
G04 #@! TO.N,/~{IO_SELECT}*
X200660000Y-114935000D03*
X171450000Y-113030000D03*
G04 #@! TO.N,/INT_IN*
X227330000Y-121920000D03*
G04 #@! TO.N,/DMA_IN*
X229870000Y-121920000D03*
G04 #@! TO.N,-5V*
X210820000Y-71755000D03*
X212090000Y-121920000D03*
X186055000Y-100330000D03*
G04 #@! TO.N,/~{DEV}*
X207645000Y-116205000D03*
G04 #@! TO.N,/HSYNC*
X176530000Y-90170000D03*
G04 #@! TO.N,/VSYNC*
X176530000Y-93980000D03*
G04 #@! TO.N,/SRAM/RAMA5*
X117475000Y-104140000D03*
G04 #@! TO.N,/SRAM/RAMA3*
X117475000Y-106680000D03*
G04 #@! TO.N,/SRAM/RAMA2*
X111760000Y-118110000D03*
G04 #@! TO.N,/SRAM/RAMA7*
X117475000Y-99060000D03*
G04 #@! TO.N,/SRAM/RAMA4*
X117475000Y-101600000D03*
G04 #@! TO.N,/SRAM/RAMA11*
X114935000Y-97790000D03*
G04 #@! TO.N,/RAM_~{A}{slash}B*
X181610000Y-80010000D03*
G04 #@! TO.N,/Firmware/~{OE}*
X195580000Y-105410000D03*
G04 #@! TO.N,/Firmware/A9*
X188595000Y-85090000D03*
G04 #@! TD*
D21*
G04 #@! TO.N,/A10*
X192405000Y-88900000D02*
G75*
G03*
X193675000Y-90170000I1270000J0D01*
G01*
X190500000Y-86995000D02*
G75*
G02*
X192405000Y-88900000I0J-1905000D01*
G01*
X187324992Y-86360008D02*
G75*
G03*
X188858025Y-86995000I1533008J1533008D01*
G01*
X185791975Y-85725000D02*
X183366210Y-85725000D01*
X205740000Y-90170000D02*
X193675000Y-90170000D01*
X205740000Y-90170000D02*
G75*
G03*
X207010000Y-88900000I0J1270000D01*
G01*
X185791975Y-85725011D02*
G75*
G02*
X187325000Y-86360000I25J-2167989D01*
G01*
X182752997Y-85978997D02*
G75*
G02*
X183366210Y-85725000I613203J-613203D01*
G01*
X182012790Y-86359995D02*
G75*
G03*
X182625999Y-86105999I10J867195D01*
G01*
X171450000Y-83820000D02*
G75*
G03*
X173990000Y-86360000I2540000J0D01*
G01*
X190500000Y-86995000D02*
X188858025Y-86995000D01*
X182012790Y-86360000D02*
X173990000Y-86360000D01*
X182753000Y-85979000D02*
X182626000Y-86106000D01*
G04 #@! TO.N,/SRAM/RAMA11*
X113665000Y-112395000D02*
G75*
G03*
X114935000Y-111125000I0J1270000D01*
G01*
X114935000Y-97790000D02*
X114935000Y-111125000D01*
G04 #@! TO.N,/SRAM/RAM_R{slash}~{W}*
X116205000Y-96520000D02*
X116205000Y-112395000D01*
X132080000Y-96520000D02*
X116205000Y-96520000D01*
X116205000Y-96520000D02*
X114563025Y-96520000D01*
G04 #@! TO.N,Net-(U10-Pad21)*
X113665000Y-109220000D02*
X113665000Y-102235000D01*
X110490000Y-99060000D02*
G75*
G02*
X113665000Y-102235000I0J-3175000D01*
G01*
G04 #@! TO.N,/SRAM/RAM_R{slash}~{W}*
X172937898Y-78739998D02*
G75*
G03*
X179069999Y-76199999I2J8672098D01*
G01*
X159044930Y-85430058D02*
G75*
G03*
X161290000Y-80010000I-5420030J5420058D01*
G01*
X145478821Y-92710008D02*
G75*
G03*
X156210000Y-88265000I-21J15176208D01*
G01*
X161290000Y-80010000D02*
G75*
G02*
X162560000Y-78740000I1270000J0D01*
G01*
X109220000Y-96520000D02*
G75*
G03*
X110490000Y-97790000I1270000J0D01*
G01*
X132080000Y-96520000D02*
G75*
G03*
X133350000Y-95250000I0J1270000D01*
G01*
X113029992Y-97154992D02*
G75*
G02*
X114563025Y-96520000I1533008J-1533008D01*
G01*
X111496975Y-97789989D02*
G75*
G03*
X113030000Y-97155000I25J2167989D01*
G01*
X110490000Y-88900000D02*
G75*
G03*
X109220000Y-90170000I0J-1270000D01*
G01*
X133350000Y-95250000D02*
G75*
G02*
X135890000Y-92710000I2540000J0D01*
G01*
X172937898Y-78740000D02*
X162560000Y-78740000D01*
X159044936Y-85430064D02*
X156210000Y-88265000D01*
X145478821Y-92710000D02*
X135890000Y-92710000D01*
X111496975Y-97790000D02*
X110490000Y-97790000D01*
X109220000Y-96520000D02*
X109220000Y-90170000D01*
G04 #@! TO.N,/SRAM/RAMA1*
X111760000Y-110490000D02*
G75*
G03*
X116840000Y-115570000I5080000J0D01*
G01*
X119380000Y-115570000D02*
X116840000Y-115570000D01*
X111760000Y-110490000D02*
X111760000Y-105410000D01*
X110490000Y-104140000D02*
G75*
G02*
X111760000Y-105410000I0J-1270000D01*
G01*
G04 #@! TO.N,/SRAM/RAMA2*
X123697994Y-117602006D02*
G75*
G03*
X124924420Y-118110000I1226406J1226406D01*
G01*
X121858370Y-116840000D02*
X117103025Y-116840000D01*
X121858370Y-116840013D02*
G75*
G02*
X123698000Y-117602000I30J-2601587D01*
G01*
X127000000Y-118110000D02*
X124924420Y-118110000D01*
X115569992Y-117474992D02*
G75*
G02*
X117103025Y-116840000I1533008J-1533008D01*
G01*
X114036975Y-118109989D02*
G75*
G03*
X115570000Y-117475000I25J2167989D01*
G01*
X114036975Y-118110000D02*
X111760000Y-118110000D01*
D22*
G04 #@! TO.N,GND*
X206375000Y-113665000D02*
X207010000Y-113665000D01*
X207645000Y-81915000D02*
X194310000Y-81915000D01*
X213731975Y-82813026D02*
X212725000Y-83820000D01*
D23*
X111125000Y-57785000D02*
X111945987Y-56964013D01*
D22*
X104840370Y-119380000D02*
X102870000Y-119380000D01*
D23*
X109220000Y-105410000D02*
X109220000Y-102870000D01*
D22*
X210185000Y-116205000D02*
X210185000Y-112395000D01*
X115043948Y-119906052D02*
X114935000Y-120015000D01*
X232410000Y-121285000D02*
X232410000Y-116840000D01*
X194310000Y-81915000D02*
X193938025Y-81915000D01*
X152400000Y-80010000D02*
X152400000Y-80645000D01*
X140335000Y-91440000D02*
X118110000Y-91440000D01*
D23*
X184150000Y-107950000D02*
X179596051Y-107950000D01*
X113030000Y-56515000D02*
X118590924Y-56515000D01*
X172085000Y-107950000D02*
X173463949Y-107950000D01*
D21*
X181610000Y-57150000D02*
X181610000Y-58637898D01*
D22*
X213360000Y-119380000D02*
X228600000Y-119380000D01*
X236220000Y-113030000D02*
X236220000Y-109220000D01*
D23*
X120495923Y-64924077D02*
X115570000Y-69850000D01*
D22*
X141496051Y-120650000D02*
X142983949Y-120650000D01*
D23*
X179596051Y-105410000D02*
X184150000Y-105410000D01*
X206375000Y-106045000D02*
X207645000Y-106045000D01*
D22*
X212725000Y-83820000D02*
X209550000Y-83820000D01*
X189338949Y-83820000D02*
X186690000Y-83820000D01*
X231140000Y-104140000D02*
X231140000Y-96520000D01*
X193040000Y-109220000D02*
X199390000Y-109220000D01*
X111868949Y-121285000D02*
X109439446Y-121285000D01*
D23*
X184150000Y-107950000D02*
X187433949Y-107950000D01*
X107315000Y-59055000D02*
X108058949Y-59055000D01*
X102235000Y-55880000D02*
X104062962Y-57707962D01*
D22*
X233680000Y-81915000D02*
X215900000Y-81915000D01*
X232410000Y-127000000D02*
X232410000Y-123190000D01*
X106680000Y-73660000D02*
X111760000Y-73660000D01*
X208280000Y-68580000D02*
X198120000Y-68580000D01*
X232410000Y-121285000D02*
X232410000Y-118110000D01*
X141605000Y-91440000D02*
X140335000Y-91440000D01*
X232410000Y-62230000D02*
X222250000Y-62230000D01*
X232410000Y-123190000D02*
X232410000Y-121285000D01*
X152400000Y-67310000D02*
X152400000Y-80010000D01*
X214630000Y-64770000D02*
X212616052Y-66783948D01*
X207010000Y-113665000D02*
X207645000Y-113665000D01*
X231140000Y-116840000D02*
X232410000Y-116840000D01*
D23*
X173463949Y-110490000D02*
X172085000Y-110490000D01*
D22*
X134620000Y-118110000D02*
X135363949Y-118110000D01*
X152400000Y-78740000D02*
X152400000Y-80010000D01*
X201930000Y-111760000D02*
X204470000Y-111760000D01*
X99060000Y-115570000D02*
X99060000Y-81280000D01*
D23*
X231140000Y-98298000D02*
X227838000Y-98298000D01*
D22*
X235585000Y-89535000D02*
X235585000Y-83820000D01*
X149116051Y-118110000D02*
X149860000Y-118110000D01*
X140335000Y-91440000D02*
X130429000Y-91440000D01*
D23*
X120495933Y-64924087D02*
G75*
G03*
X123190000Y-58420000I-6504133J6504087D01*
G01*
X123189993Y-58420007D02*
G75*
G03*
X118590924Y-56515000I-4599093J-4599093D01*
G01*
D22*
X208280000Y-68580000D02*
G75*
G03*
X212616051Y-66783947I0J6132100D01*
G01*
X207645000Y-81915000D02*
G75*
G02*
X209550000Y-83820000I0J-1905000D01*
G01*
D23*
X113030000Y-56514993D02*
G75*
G03*
X111945987Y-56964013I0J-1533007D01*
G01*
D22*
X219710000Y-64770000D02*
G75*
G02*
X222250000Y-62230000I2540000J0D01*
G01*
X231140000Y-104140000D02*
G75*
G02*
X236220000Y-109220000I0J-5080000D01*
G01*
D23*
X170815000Y-109220000D02*
G75*
G03*
X172085000Y-110490000I1270000J0D01*
G01*
X109220000Y-102870000D02*
G75*
G02*
X110490000Y-101600000I1270000J0D01*
G01*
D22*
X115570000Y-69850000D02*
G75*
G02*
X111760000Y-73660000I-3810000J0D01*
G01*
X106680000Y-73660000D02*
G75*
G03*
X99060000Y-81280000I0J-7620000D01*
G01*
X114300000Y-95250000D02*
G75*
G02*
X118110000Y-91440000I3810000J0D01*
G01*
X141605000Y-91440000D02*
G75*
G03*
X152400000Y-80645000I0J10795000D01*
G01*
X232410000Y-62230000D02*
G75*
G02*
X234950000Y-64770000I0J-2540000D01*
G01*
X233680000Y-81915000D02*
G75*
G02*
X235585000Y-83820000I0J-1905000D01*
G01*
X206375000Y-113665000D02*
G75*
G02*
X204470000Y-111760000I0J1905000D01*
G01*
X192404992Y-82549992D02*
G75*
G02*
X193938025Y-81915000I1533008J-1533008D01*
G01*
D23*
X111124986Y-57784986D02*
G75*
G02*
X108058949Y-59055000I-3066086J3066086D01*
G01*
D22*
X190500000Y-106680000D02*
G75*
G03*
X193040000Y-109220000I2540000J0D01*
G01*
X231140000Y-116840000D02*
G75*
G02*
X232410000Y-118110000I0J-1270000D01*
G01*
D23*
X176529985Y-109219985D02*
G75*
G02*
X179596051Y-107950000I3066015J-3066015D01*
G01*
D22*
X115043949Y-119906053D02*
G75*
G02*
X119380000Y-118110000I4336051J-4336047D01*
G01*
X128270000Y-93599000D02*
G75*
G02*
X130429000Y-91440000I2159000J0D01*
G01*
X236220000Y-113030000D02*
G75*
G03*
X232410000Y-116840000I0J-3810000D01*
G01*
X199390000Y-109220000D02*
G75*
G02*
X201930000Y-111760000I0J-2540000D01*
G01*
X235585000Y-89535000D02*
G75*
G02*
X233680000Y-91440000I-1905000J0D01*
G01*
D23*
X206375000Y-106045000D02*
G75*
G02*
X204470000Y-104140000I0J1905000D01*
G01*
D22*
X209550000Y-111760000D02*
G75*
G02*
X210185000Y-112395000I0J-635000D01*
G01*
X138429986Y-119380014D02*
G75*
G03*
X135363949Y-118110000I-3066086J-3066086D01*
G01*
D23*
X190499986Y-106679986D02*
G75*
G02*
X187433949Y-107950000I-3066086J3066086D01*
G01*
X209550000Y-104140000D02*
G75*
G02*
X207645000Y-106045000I-1905000J0D01*
G01*
D22*
X99060000Y-115570000D02*
G75*
G03*
X102870000Y-119380000I3810000J0D01*
G01*
X141496051Y-120649978D02*
G75*
G02*
X138430001Y-119379999I-51J4335978D01*
G01*
X149116051Y-118110022D02*
G75*
G03*
X146050001Y-119380001I-51J-4335978D01*
G01*
D23*
X226060000Y-96520000D02*
G75*
G03*
X227838000Y-98298000I1778000J0D01*
G01*
D22*
X111868949Y-121285020D02*
G75*
G03*
X114935000Y-120015000I-49J4336120D01*
G01*
X228600000Y-119380000D02*
G75*
G02*
X232410000Y-123190000I0J-3810000D01*
G01*
X189338949Y-83819978D02*
G75*
G03*
X192404999Y-82549999I51J4335978D01*
G01*
D23*
X109220000Y-105410000D02*
G75*
G03*
X110490000Y-106680000I1270000J0D01*
G01*
D21*
X184149999Y-64770001D02*
G75*
G02*
X181610000Y-58637898I6132101J6132101D01*
G01*
D22*
X152400000Y-78740000D02*
G75*
G03*
X149860000Y-76200000I-2540000J0D01*
G01*
X106679986Y-120142014D02*
G75*
G03*
X109439446Y-121285000I2759414J2759414D01*
G01*
D23*
X179596051Y-105409980D02*
G75*
G03*
X176530000Y-106680000I49J-4336120D01*
G01*
D22*
X146049986Y-119379986D02*
G75*
G02*
X142983949Y-120650000I-3066086J3066086D01*
G01*
X194310000Y-72390000D02*
G75*
G02*
X198120000Y-68580000I3810000J0D01*
G01*
X104840370Y-119380013D02*
G75*
G02*
X106680000Y-120142000I30J-2601587D01*
G01*
X209550000Y-111760000D02*
G75*
G02*
X207645000Y-113665000I-1905000J0D01*
G01*
X213731985Y-82813036D02*
G75*
G02*
X215900000Y-81915000I2168015J-2167964D01*
G01*
D23*
X172085000Y-107950000D02*
G75*
G03*
X170815000Y-109220000I0J-1270000D01*
G01*
X176530015Y-106680015D02*
G75*
G02*
X173463949Y-107950000I-3066015J3066015D01*
G01*
X107315000Y-59054993D02*
G75*
G02*
X104062962Y-57707962I0J4599093D01*
G01*
D22*
X152400000Y-67310000D02*
G75*
G03*
X149860000Y-64770000I-2540000J0D01*
G01*
D23*
X173463949Y-110490020D02*
G75*
G03*
X176530000Y-109220000I-49J4336120D01*
G01*
D22*
X210185000Y-116205000D02*
G75*
G03*
X213360000Y-119380000I3175000J0D01*
G01*
D21*
G04 #@! TO.N,Net-(C2-Pad1)*
X216154000Y-90805000D02*
X191135000Y-90805000D01*
X190500000Y-90170000D02*
G75*
G03*
X191135000Y-90805000I635000J0D01*
G01*
G04 #@! TO.N,Net-(C3-Pad2)*
X235585000Y-75565000D02*
X234315000Y-75565000D01*
X228600000Y-69850000D02*
G75*
G03*
X234315000Y-75565000I5715000J0D01*
G01*
D22*
G04 #@! TO.N,+5V*
X141976975Y-88900000D02*
X118001051Y-88900000D01*
D23*
X184150000Y-92710000D02*
X172611052Y-92710000D01*
X166370000Y-91440000D02*
X169545000Y-91440000D01*
X195707000Y-87503000D02*
X216154000Y-87503000D01*
X157480000Y-100330000D02*
X162931975Y-100330000D01*
X162560000Y-76200000D02*
X164465000Y-76200000D01*
X226060000Y-118110000D02*
X228610000Y-118110000D01*
D22*
X240030000Y-54610000D02*
X229870000Y-54610000D01*
D23*
X219710000Y-118110000D02*
X226060000Y-118110000D01*
X165100000Y-76200000D02*
X167005000Y-76200000D01*
X142240000Y-100330000D02*
X139963025Y-100330000D01*
X153112039Y-102792961D02*
X154227961Y-101677038D01*
X143510000Y-95250000D02*
X143510000Y-97263949D01*
X229870000Y-116850000D02*
X229870000Y-104140000D01*
X164465000Y-76200000D02*
X160020000Y-76200000D01*
X170180000Y-74930000D02*
X193040000Y-74930000D01*
X167640000Y-76200000D02*
X168910000Y-76200000D01*
X129276975Y-100330000D02*
X127000000Y-100330000D01*
X167005000Y-76200000D02*
X164465000Y-76200000D01*
X164465000Y-100965000D02*
X165100000Y-101600000D01*
X224155000Y-98425000D02*
X217805000Y-98425000D01*
D22*
X111868949Y-91440000D02*
X110510000Y-91440000D01*
D23*
X162560000Y-95250000D02*
X162560000Y-94615000D01*
X168910000Y-90170000D02*
X167005000Y-90170000D01*
X136896975Y-101600000D02*
X132343025Y-101600000D01*
X164592000Y-83947000D02*
X156619172Y-91919828D01*
D22*
X127000000Y-64770000D02*
X127000000Y-68580000D01*
X227330000Y-64770000D02*
X226060000Y-64770000D01*
D23*
X215900000Y-109220000D02*
X218440000Y-109220000D01*
X162560000Y-94615000D02*
X162560000Y-93980000D01*
X226060000Y-118110000D02*
X226060000Y-116840000D01*
X168910000Y-76200000D02*
X167005000Y-76200000D01*
X144780000Y-93980000D02*
X151645478Y-93980000D01*
X164465008Y-100964992D02*
G75*
G03*
X162931975Y-100330000I-1533008J-1533008D01*
G01*
X193040000Y-74930000D02*
G75*
G02*
X194310000Y-76200000I0J-1270000D01*
G01*
D22*
X141976975Y-88900011D02*
G75*
G02*
X143510000Y-89535000I25J-2167989D01*
G01*
D23*
X154227957Y-101677034D02*
G75*
G02*
X157480000Y-100330000I3252043J-3252066D01*
G01*
X169545000Y-91439988D02*
G75*
G02*
X171279420Y-92158421I0J-2452812D01*
G01*
X168910000Y-76200000D02*
G75*
G02*
X170180000Y-74930000I1270000J0D01*
G01*
X151645478Y-93979973D02*
G75*
G03*
X156619171Y-91919827I22J7033873D01*
G01*
X156210000Y-72390000D02*
G75*
G03*
X160020000Y-76200000I3810000J0D01*
G01*
X215900000Y-96520000D02*
G75*
G03*
X217805000Y-98425000I1905000J0D01*
G01*
X130809992Y-100965008D02*
G75*
G03*
X132343025Y-101600000I1533008J1533008D01*
G01*
X136896975Y-101599989D02*
G75*
G03*
X138430000Y-100965000I25J2167989D01*
G01*
X224155000Y-98425000D02*
G75*
G02*
X229870000Y-104140000I0J-5715000D01*
G01*
X166370000Y-91440000D02*
G75*
G03*
X162560000Y-95250000I0J-3810000D01*
G01*
X162560000Y-94615000D02*
G75*
G02*
X167005000Y-90170000I4445000J0D01*
G01*
X138429992Y-100964992D02*
G75*
G02*
X139963025Y-100330000I1533008J-1533008D01*
G01*
X165100000Y-76200000D02*
G75*
G02*
X161290000Y-72390000I0J3810000D01*
G01*
D22*
X223520000Y-67310000D02*
G75*
G02*
X226060000Y-64770000I2540000J0D01*
G01*
D23*
X149860000Y-104139993D02*
G75*
G03*
X153112039Y-102792961I0J4599093D01*
G01*
D22*
X111868949Y-91439978D02*
G75*
G03*
X114934999Y-90169999I51J4335978D01*
G01*
D23*
X218440000Y-116840000D02*
G75*
G03*
X219710000Y-118110000I1270000J0D01*
G01*
D22*
X114935014Y-90170014D02*
G75*
G02*
X118001051Y-88900000I3066086J-3066086D01*
G01*
D23*
X146050000Y-107950000D02*
G75*
G02*
X149860000Y-104140000I3810000J0D01*
G01*
X194310000Y-88900000D02*
G75*
G02*
X195707000Y-87503000I1397000J0D01*
G01*
X229870000Y-116850000D02*
G75*
G02*
X228610000Y-118110000I-1260000J0D01*
G01*
X167640000Y-76200000D02*
G75*
G02*
X163830000Y-72390000I0J3810000D01*
G01*
D22*
X240030000Y-54610000D02*
G75*
G02*
X242570000Y-57150000I0J-2540000D01*
G01*
X227330000Y-57150000D02*
G75*
G02*
X229870000Y-54610000I2540000J0D01*
G01*
D23*
X142239986Y-100329986D02*
G75*
G03*
X143510000Y-97263949I-3066086J3066086D01*
G01*
X217678000Y-89027000D02*
G75*
G03*
X216154000Y-87503000I-1524000J0D01*
G01*
X162560000Y-76200000D02*
G75*
G02*
X158750000Y-72390000I0J3810000D01*
G01*
X171279447Y-92158394D02*
G75*
G03*
X172611052Y-92710000I1331653J1331594D01*
G01*
X168910000Y-87630000D02*
G75*
G03*
X162560000Y-93980000I0J-6350000D01*
G01*
X129276975Y-100330011D02*
G75*
G02*
X130810000Y-100965000I25J-2167989D01*
G01*
X144780000Y-93980000D02*
G75*
G03*
X143510000Y-95250000I0J-1270000D01*
G01*
D21*
G04 #@! TO.N,Net-(Q1-Pad2)*
X192219013Y-79189013D02*
X192405000Y-79375000D01*
X184500185Y-73660000D02*
X176530000Y-73660000D01*
X164084000Y-61214000D02*
X132738338Y-61214000D01*
X193938025Y-80010000D02*
X212725000Y-80010000D01*
X186953025Y-78740000D02*
X191135000Y-78740000D01*
X119860924Y-55880000D02*
X108458000Y-55880000D01*
X124459989Y-57785011D02*
G75*
G03*
X132738338Y-61214000I8278311J8278311D01*
G01*
X119860924Y-55879991D02*
G75*
G02*
X124460000Y-57785000I-24J-6504109D01*
G01*
X184500185Y-73660007D02*
G75*
G02*
X185420000Y-74041000I15J-1300793D01*
G01*
X175260000Y-72390000D02*
G75*
G03*
X176530000Y-73660000I1270000J0D01*
G01*
X192219008Y-79189018D02*
G75*
G03*
X191135000Y-78740000I-1084008J-1083982D01*
G01*
X186953025Y-78740011D02*
G75*
G03*
X185420000Y-79375000I-25J-2167989D01*
G01*
X164084000Y-61214000D02*
G75*
G02*
X175260000Y-72390000I0J-11176000D01*
G01*
X193938025Y-80009989D02*
G75*
G02*
X192405000Y-79375000I-25J2167989D01*
G01*
G04 #@! TO.N,Net-(R1-Pad1)*
X227330000Y-76200000D02*
X231140000Y-76200000D01*
X239395000Y-80010000D02*
X238728090Y-79343090D01*
X226060000Y-77470000D02*
G75*
G02*
X227330000Y-76200000I1270000J0D01*
G01*
X231140000Y-76200007D02*
G75*
G02*
X238728089Y-79343091I0J-10731193D01*
G01*
G04 #@! TO.N,Net-(R2-Pad2)*
X231140000Y-69850000D02*
X231947770Y-69850000D01*
X245745009Y-75564991D02*
G75*
G03*
X231947770Y-69850000I-13797209J-13797209D01*
G01*
G04 #@! TO.N,Net-(R9-Pad1)*
X212725000Y-111760000D02*
X215900000Y-111760000D01*
X220980000Y-116840000D02*
G75*
G03*
X215900000Y-111760000I-5080000J0D01*
G01*
G04 #@! TO.N,Net-(U1-Pad6)*
X213096975Y-109855000D02*
X208915000Y-109855000D01*
X222885000Y-111125000D02*
X216163025Y-111125000D01*
X222885000Y-111125000D02*
G75*
G02*
X228600000Y-116840000I0J-5715000D01*
G01*
X207010000Y-111760000D02*
G75*
G02*
X208915000Y-109855000I1905000J0D01*
G01*
X213096975Y-109855011D02*
G75*
G02*
X214630000Y-110490000I25J-2167989D01*
G01*
X214629992Y-110490008D02*
G75*
G03*
X216163025Y-111125000I1533008J1533008D01*
G01*
G04 #@! TO.N,Net-(U2-Pad4)*
X236855000Y-83820000D02*
X236855000Y-90170000D01*
X211191975Y-95250000D02*
X204470000Y-95250000D01*
X213995000Y-76200000D02*
X219710000Y-76200000D01*
X214258025Y-93980000D02*
X233045000Y-93980000D01*
X211455000Y-78740000D02*
X201295000Y-78740000D01*
X224155000Y-80645000D02*
X233680000Y-80645000D01*
X233045000Y-93980000D02*
G75*
G03*
X236855000Y-90170000I0J3810000D01*
G01*
X224155000Y-80645000D02*
G75*
G02*
X220980000Y-77470000I0J3175000D01*
G01*
X199390000Y-76835000D02*
G75*
G03*
X201295000Y-78740000I1905000J0D01*
G01*
X236855000Y-83820000D02*
G75*
G03*
X233680000Y-80645000I-3175000J0D01*
G01*
X211455000Y-78740000D02*
G75*
G03*
X212725000Y-77470000I0J1270000D01*
G01*
X220980000Y-77470000D02*
G75*
G03*
X219710000Y-76200000I-1270000J0D01*
G01*
X212724992Y-94614992D02*
G75*
G02*
X214258025Y-93980000I1533008J-1533008D01*
G01*
X212725000Y-77470000D02*
G75*
G02*
X213995000Y-76200000I1270000J0D01*
G01*
X211191975Y-95249989D02*
G75*
G03*
X212725000Y-94615000I25J2167989D01*
G01*
X202301985Y-96148036D02*
G75*
G02*
X204470000Y-95250000I2168015J-2167964D01*
G01*
G04 #@! TO.N,Net-(U2-Pad10)*
X201676000Y-89281000D02*
X204216000Y-89281000D01*
G04 #@! TO.N,/A7*
X162560000Y-96520000D02*
X149860000Y-96520000D01*
X164728026Y-95621974D02*
X166741975Y-93608026D01*
X142611964Y-105038015D02*
G75*
G03*
X143510000Y-102870000I-2167964J2168015D01*
G01*
X143510000Y-102870000D02*
G75*
G02*
X149860000Y-96520000I6350000J0D01*
G01*
X166741985Y-93608036D02*
G75*
G02*
X168910000Y-92710000I2168015J-2167964D01*
G01*
X162560000Y-96520015D02*
G75*
G03*
X164728026Y-95621974I0J3066015D01*
G01*
G04 #@! TO.N,/A6*
X144145000Y-110490000D02*
X144145000Y-108848025D01*
X145415000Y-105781975D02*
X145415000Y-102870000D01*
X168761210Y-99060000D02*
X168910000Y-99060000D01*
X167894000Y-98552000D02*
X168148000Y-98806000D01*
X142240000Y-113030000D02*
X143695987Y-111574013D01*
X149860000Y-98425000D02*
X167587395Y-98425000D01*
X168910000Y-95250000D02*
G75*
G02*
X170815000Y-97155000I0J-1905000D01*
G01*
X144145007Y-110490000D02*
G75*
G02*
X143695987Y-111574013I-1533007J0D01*
G01*
X149860000Y-98425000D02*
G75*
G03*
X145415000Y-102870000I0J-4445000D01*
G01*
X170815000Y-97155000D02*
G75*
G02*
X168910000Y-99060000I-1905000J0D01*
G01*
X167894002Y-98551998D02*
G75*
G03*
X167587395Y-98425000I-306602J-306602D01*
G01*
X168761210Y-99059995D02*
G75*
G02*
X168148001Y-98805999I-10J867195D01*
G01*
X144779992Y-107314992D02*
G75*
G03*
X144145000Y-108848025I1533008J-1533008D01*
G01*
X145414989Y-105781975D02*
G75*
G02*
X144780000Y-107315000I-2167989J-25D01*
G01*
G04 #@! TO.N,/A5*
X144780000Y-105146975D02*
X144780000Y-102870000D01*
X149860000Y-97790000D02*
X168910000Y-97790000D01*
X143510000Y-110490000D02*
X143510000Y-108213025D01*
X139963025Y-111760000D02*
X142240000Y-111760000D01*
X134620000Y-110490000D02*
X136896975Y-110490000D01*
X149860000Y-97790000D02*
G75*
G03*
X144780000Y-102870000I0J-5080000D01*
G01*
X138430008Y-111124992D02*
G75*
G03*
X136896975Y-110490000I-1533008J-1533008D01*
G01*
X143510000Y-110490000D02*
G75*
G02*
X142240000Y-111760000I-1270000J0D01*
G01*
X144779989Y-105146975D02*
G75*
G02*
X144145000Y-106680000I-2167989J-25D01*
G01*
X139963025Y-111759989D02*
G75*
G02*
X138430000Y-111125000I-25J2167989D01*
G01*
X144144992Y-106679992D02*
G75*
G03*
X143510000Y-108213025I1533008J-1533008D01*
G01*
G04 #@! TO.N,/A4*
X144145000Y-102870000D02*
X144145000Y-104775000D01*
X137872039Y-104217039D02*
X138987961Y-105332962D01*
X167825987Y-94429013D02*
X165735000Y-96520000D01*
X164201975Y-97155000D02*
X149860000Y-97155000D01*
X167825992Y-94429018D02*
G75*
G02*
X168910000Y-93980000I1084008J-1083982D01*
G01*
X172085000Y-97155000D02*
G75*
G02*
X168910000Y-100330000I-3175000J0D01*
G01*
X144145000Y-102870000D02*
G75*
G02*
X149860000Y-97155000I5715000J0D01*
G01*
X164201975Y-97154989D02*
G75*
G03*
X165735000Y-96520000I25J2167989D01*
G01*
X142240000Y-106680000D02*
G75*
G03*
X144145000Y-104775000I0J1905000D01*
G01*
X138987957Y-105332966D02*
G75*
G03*
X142240000Y-106680000I3252043J3252066D01*
G01*
X168910000Y-93980000D02*
G75*
G02*
X172085000Y-97155000I0J-3175000D01*
G01*
X134620000Y-102870007D02*
G75*
G02*
X137872039Y-104217039I0J-4599093D01*
G01*
G04 #@! TO.N,/A3*
X161661975Y-104140000D02*
X157480000Y-104140000D01*
X209550000Y-99060000D02*
X195471051Y-99060000D01*
X141496051Y-114300000D02*
X142240000Y-114300000D01*
X152028026Y-108321974D02*
X155311975Y-105038026D01*
X211718026Y-98161974D02*
X213731975Y-96148026D01*
X134620000Y-111760000D02*
X135363949Y-111760000D01*
X172828949Y-102870000D02*
X168910000Y-102870000D01*
X144408026Y-113401974D02*
X147691975Y-110118026D01*
X227330000Y-95250000D02*
X215900000Y-95250000D01*
X133535987Y-111310987D02*
X128084013Y-105859013D01*
X178729935Y-98765065D02*
X175895000Y-101600000D01*
X189338949Y-96520000D02*
X184150000Y-96520000D01*
X168910000Y-102870000D02*
X164728025Y-102870000D01*
X163194992Y-103504992D02*
G75*
G02*
X164728025Y-102870000I1533008J-1533008D01*
G01*
X189338949Y-96520022D02*
G75*
G02*
X192404999Y-97790001I51J-4335978D01*
G01*
X209550000Y-99060015D02*
G75*
G03*
X211718026Y-98161974I0J3066015D01*
G01*
X127000000Y-105409993D02*
G75*
G02*
X128084013Y-105859013I0J-1533007D01*
G01*
X138429986Y-113030014D02*
G75*
G03*
X135363949Y-111760000I-3066086J-3066086D01*
G01*
X149860000Y-109220015D02*
G75*
G03*
X152028026Y-108321974I0J3066015D01*
G01*
X227330000Y-95250000D02*
G75*
G02*
X228600000Y-96520000I0J-1270000D01*
G01*
X178729941Y-98765071D02*
G75*
G02*
X184150000Y-96520000I5420059J-5420029D01*
G01*
X155311985Y-105038036D02*
G75*
G02*
X157480000Y-104140000I2168015J-2167964D01*
G01*
X161661975Y-104139989D02*
G75*
G03*
X163195000Y-103505000I25J2167989D01*
G01*
X142240000Y-114300015D02*
G75*
G03*
X144408026Y-113401974I0J3066015D01*
G01*
X192404985Y-97790015D02*
G75*
G03*
X195471051Y-99060000I3066015J3066015D01*
G01*
X172828949Y-102870020D02*
G75*
G03*
X175895000Y-101600000I-49J4336120D01*
G01*
X213731985Y-96148036D02*
G75*
G02*
X215900000Y-95250000I2168015J-2167964D01*
G01*
X133535992Y-111310982D02*
G75*
G03*
X134620000Y-111760000I1084008J1083982D01*
G01*
X147691985Y-110118036D02*
G75*
G02*
X149860000Y-109220000I2168015J-2167964D01*
G01*
X141496051Y-114299978D02*
G75*
G02*
X138430001Y-113029999I-51J4335978D01*
G01*
G04 #@! TO.N,/A2*
X142240000Y-119380000D02*
X141496051Y-119380000D01*
X216535000Y-105410000D02*
X215900000Y-105410000D01*
X171667898Y-105410000D02*
X168910000Y-105410000D01*
X157480000Y-114300000D02*
X149860000Y-114300000D01*
X217170000Y-104140000D02*
X217170000Y-104775000D01*
X168910000Y-105410000D02*
X161816052Y-112503948D01*
X130252039Y-114377038D02*
X131367961Y-115492961D01*
X218440000Y-102870000D02*
X224790000Y-102870000D01*
X135363949Y-116840000D02*
X134620000Y-116840000D01*
X210262039Y-102947039D02*
X210479935Y-103164935D01*
X144408026Y-118481974D02*
X147691975Y-115198026D01*
X207010000Y-101600000D02*
X180866051Y-101600000D01*
X216535000Y-105410000D02*
G75*
G03*
X217170000Y-104775000I0J635000D01*
G01*
X226060000Y-104140000D02*
G75*
G03*
X224790000Y-102870000I-1270000J0D01*
G01*
X171667898Y-105409998D02*
G75*
G03*
X177799999Y-102869999I2J8672098D01*
G01*
X131367956Y-115492966D02*
G75*
G03*
X134620000Y-116840000I3252044J3252066D01*
G01*
X135363949Y-116839980D02*
G75*
G02*
X138430000Y-118110000I-49J-4336120D01*
G01*
X215900000Y-105410008D02*
G75*
G02*
X210479935Y-103164935I0J7665108D01*
G01*
X207010000Y-101600007D02*
G75*
G02*
X210262039Y-102947039I0J-4599093D01*
G01*
X217170000Y-104140000D02*
G75*
G02*
X218440000Y-102870000I1270000J0D01*
G01*
X147691985Y-115198036D02*
G75*
G02*
X149860000Y-114300000I2168015J-2167964D01*
G01*
X142240000Y-119380015D02*
G75*
G03*
X144408026Y-118481974I0J3066015D01*
G01*
X157480000Y-114300000D02*
G75*
G03*
X161816051Y-112503947I0J6132100D01*
G01*
X177799985Y-102869985D02*
G75*
G02*
X180866051Y-101600000I3066015J-3066015D01*
G01*
X127000000Y-113030007D02*
G75*
G02*
X130252038Y-114377039I0J-4599093D01*
G01*
X138429985Y-118110015D02*
G75*
G03*
X141496051Y-119380000I3066015J3066015D01*
G01*
G04 #@! TO.N,/A1*
X201930000Y-102870000D02*
X205740000Y-102870000D01*
X133876051Y-119380000D02*
X135363949Y-119380000D01*
X193675000Y-105410000D02*
X194495987Y-106230987D01*
X126981949Y-116840000D02*
X127743949Y-116840000D01*
X119380000Y-110490000D02*
X124844738Y-115954738D01*
X141496051Y-121920000D02*
X158115000Y-121920000D01*
X179596051Y-104140000D02*
X190608949Y-104140000D01*
X165440064Y-111419936D02*
X168910000Y-107950000D01*
X171976051Y-106680000D02*
X173463949Y-106680000D01*
X195580000Y-106680000D02*
X198120000Y-106680000D01*
X195580000Y-106680007D02*
G75*
G02*
X194495987Y-106230987I0J1533007D01*
G01*
X163195000Y-116840000D02*
G75*
G02*
X158115000Y-121920000I-5080000J0D01*
G01*
X207010000Y-104140000D02*
G75*
G03*
X205740000Y-102870000I-1270000J0D01*
G01*
X179596051Y-104139980D02*
G75*
G03*
X176530000Y-105410000I49J-4336120D01*
G01*
X165440070Y-111419942D02*
G75*
G03*
X163195000Y-116840000I5420030J-5420058D01*
G01*
X171976051Y-106680022D02*
G75*
G03*
X168910001Y-107950001I-51J-4335978D01*
G01*
X126981949Y-116839957D02*
G75*
G02*
X124844738Y-115954738I-49J3022457D01*
G01*
X130809986Y-118110014D02*
G75*
G03*
X127743949Y-116840000I-3066086J-3066086D01*
G01*
X141496051Y-121919978D02*
G75*
G02*
X138430001Y-120649999I-51J4335978D01*
G01*
X193674986Y-105410014D02*
G75*
G03*
X190608949Y-104140000I-3066086J-3066086D01*
G01*
X176529986Y-105409986D02*
G75*
G02*
X173463949Y-106680000I-3066086J3066086D01*
G01*
X200660000Y-104140000D02*
G75*
G02*
X198120000Y-106680000I-2540000J0D01*
G01*
X201930000Y-102870000D02*
G75*
G03*
X200660000Y-104140000I0J-1270000D01*
G01*
X138429986Y-120650014D02*
G75*
G03*
X135363949Y-119380000I-3066086J-3066086D01*
G01*
X133876051Y-119379978D02*
G75*
G02*
X130810001Y-118109999I-51J4335978D01*
G01*
G04 #@! TO.N,/A0*
X142240000Y-116840000D02*
X141496051Y-116840000D01*
X135363949Y-114300000D02*
X134620000Y-114300000D01*
X127000000Y-106680000D02*
X126256051Y-106680000D01*
X123190000Y-105410000D02*
X121548025Y-103768026D01*
X144408026Y-115941974D02*
X147691975Y-112658026D01*
X150603949Y-111760000D02*
X149860000Y-111760000D01*
X133535987Y-113850987D02*
X128719013Y-109034013D01*
X159230924Y-109220000D02*
X156736051Y-109220000D01*
X154940000Y-80010000D02*
X154940000Y-82640898D01*
X150603949Y-111759978D02*
G75*
G03*
X153669999Y-110489999I51J4335978D01*
G01*
X133535992Y-113850982D02*
G75*
G03*
X134620000Y-114300000I1084008J1083982D01*
G01*
X152400001Y-88773001D02*
G75*
G03*
X154940000Y-82640898I-6132101J6132101D01*
G01*
X123189985Y-105410015D02*
G75*
G03*
X126256051Y-106680000I3066015J3066015D01*
G01*
X159230924Y-109220009D02*
G75*
G03*
X163830000Y-107315000I-24J6504109D01*
G01*
X128269993Y-107950000D02*
G75*
G03*
X128719013Y-109034013I1533007J0D01*
G01*
X135363949Y-114299980D02*
G75*
G02*
X138430000Y-115570000I-49J-4336120D01*
G01*
X153670014Y-110490014D02*
G75*
G02*
X156736051Y-109220000I3066086J-3066086D01*
G01*
X147691985Y-112658036D02*
G75*
G02*
X149860000Y-111760000I2168015J-2167964D01*
G01*
X142240000Y-116840015D02*
G75*
G03*
X144408026Y-115941974I0J3066015D01*
G01*
X127000000Y-106680000D02*
G75*
G02*
X128270000Y-107950000I0J-1270000D01*
G01*
X119380000Y-102869986D02*
G75*
G02*
X121548025Y-103768026I0J-3066014D01*
G01*
X138429985Y-115570015D02*
G75*
G03*
X141496051Y-116840000I3066015J3066015D01*
G01*
G04 #@! TO.N,/D0*
X132080000Y-79638025D02*
X132080000Y-80010000D01*
X168910000Y-119380000D02*
X170180000Y-119380000D01*
X173990000Y-123190000D02*
X173990000Y-127000000D01*
X130810000Y-73923025D02*
X130810000Y-76571975D01*
X132080000Y-68580000D02*
X132080000Y-70856975D01*
X165735000Y-116205000D02*
G75*
G02*
X168910000Y-113030000I3175000J0D01*
G01*
X131445008Y-72390008D02*
G75*
G03*
X132080000Y-70856975I-1533008J1533008D01*
G01*
X132079989Y-79638025D02*
G75*
G03*
X131445000Y-78105000I-2167989J25D01*
G01*
X130810011Y-73923025D02*
G75*
G02*
X131445000Y-72390000I2167989J25D01*
G01*
X173990000Y-123190000D02*
G75*
G03*
X170180000Y-119380000I-3810000J0D01*
G01*
X131444992Y-78105008D02*
G75*
G02*
X130810000Y-76571975I1533008J1533008D01*
G01*
X168910000Y-119380000D02*
G75*
G02*
X165735000Y-116205000I0J3175000D01*
G01*
G04 #@! TO.N,/D1*
X134620000Y-70856975D02*
X134620000Y-68580000D01*
X176530000Y-123190000D02*
X176530000Y-127000000D01*
X133350000Y-76571975D02*
X133350000Y-73923025D01*
X134619989Y-70856975D02*
G75*
G02*
X133985000Y-72390000I-2167989J-25D01*
G01*
X133985008Y-78104992D02*
G75*
G02*
X134620000Y-79638025I-1533008J-1533008D01*
G01*
X133984992Y-72389992D02*
G75*
G03*
X133350000Y-73923025I1533008J-1533008D01*
G01*
X176530000Y-123190000D02*
G75*
G03*
X168910000Y-115570000I-7620000J0D01*
G01*
X133350011Y-76571975D02*
G75*
G03*
X133985000Y-78105000I2167989J-25D01*
G01*
G04 #@! TO.N,/D2*
X179070000Y-123190000D02*
X179070000Y-127000000D01*
X168910000Y-114300000D02*
X170180000Y-114300000D01*
X135890000Y-73923025D02*
X135890000Y-76571975D01*
X137160000Y-68580000D02*
X137160000Y-70856975D01*
X136524992Y-78105008D02*
G75*
G02*
X135890000Y-76571975I1533008J1533008D01*
G01*
X168910000Y-114300000D02*
G75*
G03*
X167005000Y-116205000I0J-1905000D01*
G01*
X136525008Y-72390008D02*
G75*
G03*
X137160000Y-70856975I-1533008J1533008D01*
G01*
X167005000Y-116205000D02*
G75*
G03*
X168910000Y-118110000I1905000J0D01*
G01*
X179070000Y-123190000D02*
G75*
G03*
X170180000Y-114300000I-8890000J0D01*
G01*
X137159989Y-79638025D02*
G75*
G03*
X136525000Y-78105000I-2167989J25D01*
G01*
X135890011Y-73923025D02*
G75*
G02*
X136525000Y-72390000I2167989J25D01*
G01*
G04 #@! TO.N,/D3*
X139700000Y-70856975D02*
X139700000Y-68580000D01*
X181610000Y-123190000D02*
X181610000Y-127000000D01*
X138430000Y-76571975D02*
X138430000Y-73923025D01*
X139064992Y-72389992D02*
G75*
G03*
X138430000Y-73923025I1533008J-1533008D01*
G01*
X139699989Y-70856975D02*
G75*
G02*
X139065000Y-72390000I-2167989J-25D01*
G01*
X139065008Y-78104992D02*
G75*
G02*
X139700000Y-79638025I-1533008J-1533008D01*
G01*
X181610000Y-123190000D02*
G75*
G02*
X184150000Y-120650000I2540000J0D01*
G01*
X138430011Y-76571975D02*
G75*
G03*
X139065000Y-78105000I2167989J-25D01*
G01*
G04 #@! TO.N,/D4*
X185420000Y-120278025D02*
X185420000Y-121656975D01*
X184150000Y-118110000D02*
X184785000Y-118745000D01*
X142240000Y-68580000D02*
X142240000Y-70856975D01*
X140970000Y-73923025D02*
X140970000Y-76571975D01*
X185419989Y-120278025D02*
G75*
G03*
X184785000Y-118745000I-2167989J25D01*
G01*
X140970011Y-73923025D02*
G75*
G02*
X141605000Y-72390000I2167989J25D01*
G01*
X141604992Y-78105008D02*
G75*
G02*
X140970000Y-76571975I1533008J1533008D01*
G01*
X184785008Y-123190008D02*
G75*
G03*
X185420000Y-121656975I-1533008J1533008D01*
G01*
X184150011Y-124723025D02*
G75*
G02*
X184785000Y-123190000I2167989J25D01*
G01*
X141605008Y-72390008D02*
G75*
G03*
X142240000Y-70856975I-1533008J1533008D01*
G01*
X142239989Y-79638025D02*
G75*
G03*
X141605000Y-78105000I-2167989J25D01*
G01*
G04 #@! TO.N,/D5*
X144780000Y-70856975D02*
X144780000Y-68580000D01*
X143510000Y-76571975D02*
X143510000Y-73923025D01*
X186690000Y-118110000D02*
X186690000Y-127000000D01*
X144144992Y-72389992D02*
G75*
G03*
X143510000Y-73923025I1533008J-1533008D01*
G01*
X144145008Y-78104992D02*
G75*
G02*
X144780000Y-79638025I-1533008J-1533008D01*
G01*
X186690000Y-118110000D02*
G75*
G03*
X184150000Y-115570000I-2540000J0D01*
G01*
X143510011Y-76571975D02*
G75*
G03*
X144145000Y-78105000I2167989J-25D01*
G01*
X144779989Y-70856975D02*
G75*
G02*
X144145000Y-72390000I-2167989J-25D01*
G01*
G04 #@! TO.N,/D6*
X146050000Y-76571975D02*
X146050000Y-73923025D01*
X189230000Y-118110000D02*
X189230000Y-127000000D01*
X147320000Y-70856975D02*
X147320000Y-68580000D01*
X147319989Y-70856975D02*
G75*
G02*
X146685000Y-72390000I-2167989J-25D01*
G01*
X146050011Y-76571975D02*
G75*
G03*
X146685000Y-78105000I2167989J-25D01*
G01*
X146684992Y-72389992D02*
G75*
G03*
X146050000Y-73923025I1533008J-1533008D01*
G01*
X189230000Y-118110000D02*
G75*
G03*
X184150000Y-113030000I-5080000J0D01*
G01*
X146685008Y-78104992D02*
G75*
G02*
X147320000Y-79638025I-1533008J-1533008D01*
G01*
G04 #@! TO.N,/D7*
X191770000Y-123190000D02*
X191770000Y-127000000D01*
X148590000Y-76571975D02*
X148590000Y-73923025D01*
X149860000Y-70856975D02*
X149860000Y-68580000D01*
X200660000Y-116205000D02*
X198755000Y-116205000D01*
X192024000Y-113665000D02*
X200660000Y-113665000D01*
X191770000Y-123190000D02*
G75*
G02*
X198755000Y-116205000I6985000J0D01*
G01*
X149225008Y-78104992D02*
G75*
G02*
X149860000Y-79638025I-1533008J-1533008D01*
G01*
X148590011Y-76571975D02*
G75*
G03*
X149225000Y-78105000I2167989J-25D01*
G01*
X200660000Y-116205000D02*
G75*
G03*
X201930000Y-114935000I0J1270000D01*
G01*
X149859989Y-70856975D02*
G75*
G02*
X149225000Y-72390000I-2167989J-25D01*
G01*
X188555163Y-112228155D02*
G75*
G03*
X184358872Y-110490000I-4196263J-4196245D01*
G01*
X192024000Y-113664994D02*
G75*
G02*
X188555160Y-112228158I0J4905694D01*
G01*
X201930000Y-114935000D02*
G75*
G03*
X200660000Y-113665000I-1270000J0D01*
G01*
X149224992Y-72389992D02*
G75*
G03*
X148590000Y-73923025I1533008J-1533008D01*
G01*
G04 #@! TO.N,/A8*
X162560000Y-99060000D02*
X157480000Y-99060000D01*
X154227961Y-100407038D02*
X153112039Y-101522961D01*
X184150000Y-95250000D02*
X178063025Y-95250000D01*
X170815000Y-101600000D02*
X168910000Y-101600000D01*
X168910000Y-101600000D02*
X168692101Y-101600000D01*
X149860000Y-102869993D02*
G75*
G03*
X153112039Y-101522961I0J4599093D01*
G01*
X170815000Y-101600000D02*
G75*
G03*
X176530000Y-95885000I0J5715000D01*
G01*
X165378440Y-100227428D02*
G75*
G03*
X168692101Y-101600000I3313660J3313628D01*
G01*
X162560000Y-99060010D02*
G75*
G02*
X165378434Y-100227434I0J-3985890D01*
G01*
X176529992Y-95884992D02*
G75*
G02*
X178063025Y-95250000I1533008J-1533008D01*
G01*
X154227957Y-100407034D02*
G75*
G02*
X157480000Y-99060000I3252043J-3252066D01*
G01*
G04 #@! TO.N,/A9*
X180975000Y-82550000D02*
X180789013Y-82735987D01*
X210820000Y-80645000D02*
X193303025Y-80645000D01*
X179070000Y-85090000D02*
X175260000Y-85090000D01*
X212725000Y-81280000D02*
X212353025Y-81280000D01*
X190236975Y-81915000D02*
X182508025Y-81915000D01*
X190236975Y-81914989D02*
G75*
G03*
X191770000Y-81280000I25J2167989D01*
G01*
X180974992Y-82549992D02*
G75*
G02*
X182508025Y-81915000I1533008J-1533008D01*
G01*
X180339993Y-83820000D02*
G75*
G02*
X180789013Y-82735987I1533007J0D01*
G01*
X212725000Y-81280000D02*
G75*
G03*
X215900000Y-78105000I0J3175000D01*
G01*
X210819992Y-80645008D02*
G75*
G03*
X212353025Y-81280000I1533008J1533008D01*
G01*
X179070000Y-85090000D02*
G75*
G03*
X180340000Y-83820000I0J1270000D01*
G01*
X191769992Y-81279992D02*
G75*
G02*
X193303025Y-80645000I1533008J-1533008D01*
G01*
X173990000Y-83820000D02*
G75*
G03*
X175260000Y-85090000I1270000J0D01*
G01*
G04 #@! TO.N,/R{slash}~{W}*
X161925000Y-78105000D02*
X171930924Y-78105000D01*
X176529993Y-76199993D02*
G75*
G02*
X171930924Y-78105000I-4599093J4599093D01*
G01*
X160020000Y-80010000D02*
G75*
G02*
X161925000Y-78105000I1905000J0D01*
G01*
G04 #@! TO.N,/E0*
X130810000Y-70856975D02*
X130810000Y-68208025D01*
X117660987Y-78925987D02*
X117475000Y-78740000D01*
X129540000Y-76200000D02*
X129540000Y-73923025D01*
X130810000Y-79638025D02*
X130810000Y-80010000D01*
X104140000Y-81280000D02*
X104140000Y-110490000D01*
X129540000Y-81280000D02*
X119380000Y-81280000D01*
X114408949Y-77470000D02*
X107950000Y-77470000D01*
X114408949Y-77470022D02*
G75*
G02*
X117474999Y-78740001I51J-4335978D01*
G01*
X131444992Y-66674992D02*
G75*
G03*
X130810000Y-68208025I1533008J-1533008D01*
G01*
X130809989Y-70856975D02*
G75*
G02*
X130175000Y-72390000I-2167989J-25D01*
G01*
X102870000Y-111760000D02*
G75*
G03*
X104140000Y-110490000I0J1270000D01*
G01*
X132079989Y-65141975D02*
G75*
G02*
X131445000Y-66675000I-2167989J-25D01*
G01*
X104140000Y-81280000D02*
G75*
G02*
X107950000Y-77470000I3810000J0D01*
G01*
X130174992Y-78105008D02*
G75*
G02*
X129540000Y-76571975I1533008J1533008D01*
G01*
X130174992Y-72389992D02*
G75*
G03*
X129540000Y-73923025I1533008J-1533008D01*
G01*
X129540000Y-81280000D02*
G75*
G03*
X130810000Y-80010000I0J1270000D01*
G01*
X117660982Y-78925992D02*
G75*
G02*
X118110000Y-80010000I-1083982J-1084008D01*
G01*
X118110000Y-80010000D02*
G75*
G03*
X119380000Y-81280000I1270000J0D01*
G01*
X130809989Y-79638025D02*
G75*
G03*
X130175000Y-78105000I-2167989J25D01*
G01*
G04 #@! TO.N,/E1*
X133350000Y-79638025D02*
X133350000Y-80010000D01*
X133350000Y-70856975D02*
X133350000Y-68208025D01*
X113401975Y-78105000D02*
X108585000Y-78105000D01*
X132080000Y-76200000D02*
X132080000Y-73923025D01*
X115120987Y-78925987D02*
X114935000Y-78740000D01*
X104775000Y-81915000D02*
X104775000Y-113030000D01*
X131445000Y-81915000D02*
X117475000Y-81915000D01*
X131445000Y-81915000D02*
G75*
G03*
X133350000Y-80010000I0J1905000D01*
G01*
X104775000Y-81915000D02*
G75*
G02*
X108585000Y-78105000I3810000J0D01*
G01*
X133349989Y-79638025D02*
G75*
G03*
X132715000Y-78105000I-2167989J25D01*
G01*
X103505000Y-114300000D02*
G75*
G03*
X104775000Y-113030000I0J1270000D01*
G01*
X134619989Y-65141975D02*
G75*
G02*
X133985000Y-66675000I-2167989J-25D01*
G01*
X113401975Y-78105011D02*
G75*
G02*
X114935000Y-78740000I25J-2167989D01*
G01*
X132714992Y-78105008D02*
G75*
G02*
X132080000Y-76571975I1533008J1533008D01*
G01*
X132714992Y-72389992D02*
G75*
G03*
X132080000Y-73923025I1533008J-1533008D01*
G01*
X133349989Y-70856975D02*
G75*
G02*
X132715000Y-72390000I-2167989J-25D01*
G01*
X115120982Y-78925992D02*
G75*
G02*
X115570000Y-80010000I-1083982J-1084008D01*
G01*
X133984992Y-66674992D02*
G75*
G03*
X133350000Y-68208025I1533008J-1533008D01*
G01*
X115570000Y-80010000D02*
G75*
G03*
X117475000Y-81915000I1905000J0D01*
G01*
G04 #@! TO.N,/E2*
X135890000Y-79638025D02*
X135890000Y-80645000D01*
X138430000Y-66040000D02*
X140970000Y-66040000D01*
X111125000Y-78740000D02*
X109220000Y-78740000D01*
X133985000Y-82550000D02*
X115198025Y-82550000D01*
X135890000Y-70856975D02*
X135890000Y-68580000D01*
X113665000Y-81915000D02*
X113479013Y-81729013D01*
X134620000Y-76200000D02*
X134620000Y-73923025D01*
X105410000Y-82550000D02*
X105410000Y-114300000D01*
X135254992Y-78105008D02*
G75*
G02*
X134620000Y-76571975I1533008J1533008D01*
G01*
X135890000Y-68580000D02*
G75*
G02*
X138430000Y-66040000I2540000J0D01*
G01*
X133985000Y-82550000D02*
G75*
G03*
X135890000Y-80645000I0J1905000D01*
G01*
X105410000Y-82550000D02*
G75*
G02*
X109220000Y-78740000I3810000J0D01*
G01*
X111125000Y-78740000D02*
G75*
G02*
X113030000Y-80645000I0J-1905000D01*
G01*
X135889989Y-79638025D02*
G75*
G03*
X135255000Y-78105000I-2167989J25D01*
G01*
X113664992Y-81915008D02*
G75*
G03*
X115198025Y-82550000I1533008J1533008D01*
G01*
X102870000Y-116840000D02*
G75*
G03*
X105410000Y-114300000I0J2540000D01*
G01*
X135889989Y-70856975D02*
G75*
G02*
X135255000Y-72390000I-2167989J-25D01*
G01*
X113029993Y-80645000D02*
G75*
G03*
X113479013Y-81729013I1533007J0D01*
G01*
X142240000Y-64770000D02*
G75*
G02*
X140970000Y-66040000I-1270000J0D01*
G01*
X135254992Y-72389992D02*
G75*
G03*
X134620000Y-73923025I1533008J-1533008D01*
G01*
G04 #@! TO.N,/E3*
X138430000Y-79638025D02*
X138430000Y-80010000D01*
X138430000Y-68580000D02*
X138430000Y-70856975D01*
X112395000Y-81280000D02*
X112395000Y-81109420D01*
X140335000Y-66675000D02*
X142875000Y-66675000D01*
X106045000Y-83185000D02*
X106045000Y-114935000D01*
X135255000Y-83185000D02*
X114563025Y-83185000D01*
X110660580Y-79375000D02*
X109855000Y-79375000D01*
X113030000Y-82550000D02*
X112844013Y-82364013D01*
X137160000Y-73923025D02*
X137160000Y-76200000D01*
X113029992Y-82550008D02*
G75*
G03*
X114563025Y-83185000I1533008J1533008D01*
G01*
X110490000Y-119380000D02*
G75*
G02*
X106045000Y-114935000I0J4445000D01*
G01*
X112394993Y-81280000D02*
G75*
G03*
X112844013Y-82364013I1533007J0D01*
G01*
X137160011Y-73923025D02*
G75*
G02*
X137795000Y-72390000I2167989J25D01*
G01*
X135255000Y-83185000D02*
G75*
G03*
X138430000Y-80010000I0J3175000D01*
G01*
X137794992Y-78105008D02*
G75*
G02*
X137160000Y-76571975I1533008J1533008D01*
G01*
X138429989Y-79638025D02*
G75*
G03*
X137795000Y-78105000I-2167989J25D01*
G01*
X110660580Y-79375009D02*
G75*
G02*
X111887000Y-79883000I20J-1734391D01*
G01*
X138430000Y-68580000D02*
G75*
G02*
X140335000Y-66675000I1905000J0D01*
G01*
X111887006Y-79882994D02*
G75*
G02*
X112395000Y-81109420I-1226406J-1226406D01*
G01*
X137795008Y-72390008D02*
G75*
G03*
X138430000Y-70856975I-1533008J1533008D01*
G01*
X142875000Y-66675000D02*
G75*
G03*
X144780000Y-64770000I0J1905000D01*
G01*
X106045000Y-83185000D02*
G75*
G02*
X109855000Y-79375000I3810000J0D01*
G01*
G04 #@! TO.N,/E4*
X137160000Y-83820000D02*
X114300000Y-83820000D01*
X139700000Y-73923025D02*
X139700000Y-76200000D01*
X106680000Y-83820000D02*
X106680000Y-113030000D01*
X140970000Y-79638025D02*
X140970000Y-80010000D01*
X140970000Y-67564000D02*
X140970000Y-70856975D01*
X110490000Y-80010000D02*
G75*
G02*
X111760000Y-81280000I0J-1270000D01*
G01*
X140334992Y-78105008D02*
G75*
G02*
X139700000Y-76571975I1533008J1533008D01*
G01*
X106680000Y-83820000D02*
G75*
G02*
X110490000Y-80010000I3810000J0D01*
G01*
X137160000Y-83820000D02*
G75*
G03*
X140970000Y-80010000I0J3810000D01*
G01*
X110490000Y-116840000D02*
G75*
G02*
X106680000Y-113030000I0J3810000D01*
G01*
X140969989Y-79638025D02*
G75*
G03*
X140335000Y-78105000I-2167989J25D01*
G01*
X111760000Y-81280000D02*
G75*
G03*
X114300000Y-83820000I2540000J0D01*
G01*
X140335008Y-72390008D02*
G75*
G03*
X140970000Y-70856975I-1533008J1533008D01*
G01*
X139700011Y-73923025D02*
G75*
G02*
X140335000Y-72390000I2167989J25D01*
G01*
G04 #@! TO.N,/E5*
X107315000Y-85090000D02*
X107315000Y-111125000D01*
X142240000Y-76571975D02*
X142240000Y-76200000D01*
X110490000Y-82550000D02*
X109855000Y-82550000D01*
X142240000Y-73923025D02*
X142240000Y-76200000D01*
X143510000Y-80010000D02*
X143510000Y-79638025D01*
X112395000Y-83820000D02*
X111574013Y-82999013D01*
X139065000Y-84455000D02*
X113928025Y-84455000D01*
X143510000Y-67564000D02*
X143510000Y-70856975D01*
X107315000Y-85090000D02*
G75*
G02*
X109855000Y-82550000I2540000J0D01*
G01*
X112394992Y-83820008D02*
G75*
G03*
X113928025Y-84455000I1533008J1533008D01*
G01*
X142240011Y-73923025D02*
G75*
G02*
X142875000Y-72390000I2167989J25D01*
G01*
X110490000Y-114300000D02*
G75*
G02*
X107315000Y-111125000I0J3175000D01*
G01*
X139065000Y-84455000D02*
G75*
G03*
X143510000Y-80010000I0J4445000D01*
G01*
X142875008Y-78104992D02*
G75*
G02*
X143510000Y-79638025I-1533008J-1533008D01*
G01*
X142240011Y-76571975D02*
G75*
G03*
X142875000Y-78105000I2167989J-25D01*
G01*
X110490000Y-82549993D02*
G75*
G02*
X111574013Y-82999013I0J-1533007D01*
G01*
X142875008Y-72390008D02*
G75*
G03*
X143510000Y-70856975I-1533008J1533008D01*
G01*
G04 #@! TO.N,/E6*
X146050000Y-69850000D02*
X146050000Y-70856975D01*
X107950000Y-87630000D02*
X107950000Y-109220000D01*
X146050000Y-79638025D02*
X146050000Y-80645000D01*
X141605000Y-85090000D02*
X110490000Y-85090000D01*
X144780000Y-73923025D02*
X144780000Y-76200000D01*
X110490000Y-111760000D02*
G75*
G02*
X107950000Y-109220000I0J2540000D01*
G01*
X144780011Y-73923025D02*
G75*
G02*
X145415000Y-72390000I2167989J25D01*
G01*
X107950000Y-87630000D02*
G75*
G02*
X110490000Y-85090000I2540000J0D01*
G01*
X146049989Y-79638025D02*
G75*
G03*
X145415000Y-78105000I-2167989J25D01*
G01*
X141605000Y-85090000D02*
G75*
G03*
X146050000Y-80645000I0J4445000D01*
G01*
X145415008Y-72390008D02*
G75*
G03*
X146050000Y-70856975I-1533008J1533008D01*
G01*
X145414992Y-78105008D02*
G75*
G02*
X144780000Y-76571975I1533008J1533008D01*
G01*
G04 #@! TO.N,/E7*
X110490000Y-87630000D02*
X109855000Y-87630000D01*
X148590000Y-79638025D02*
X148590000Y-80010000D01*
X112395000Y-86360000D02*
X111574013Y-87180987D01*
X147320000Y-73923025D02*
X147320000Y-76200000D01*
X108585000Y-88900000D02*
X108585000Y-107315000D01*
X142875000Y-85725000D02*
X113928025Y-85725000D01*
X148590000Y-69850000D02*
X148590000Y-70856975D01*
X110490000Y-109220000D02*
G75*
G02*
X108585000Y-107315000I0J1905000D01*
G01*
X108585000Y-88900000D02*
G75*
G02*
X109855000Y-87630000I1270000J0D01*
G01*
X147954992Y-78105008D02*
G75*
G02*
X147320000Y-76571975I1533008J1533008D01*
G01*
X148589989Y-79638025D02*
G75*
G03*
X147955000Y-78105000I-2167989J25D01*
G01*
X147320011Y-73923025D02*
G75*
G02*
X147955000Y-72390000I2167989J25D01*
G01*
X147955008Y-72390008D02*
G75*
G03*
X148590000Y-70856975I-1533008J1533008D01*
G01*
X110490000Y-87630007D02*
G75*
G03*
X111574013Y-87180987I0J1533007D01*
G01*
X112394992Y-86359992D02*
G75*
G02*
X113928025Y-85725000I1533008J-1533008D01*
G01*
X142875000Y-85725000D02*
G75*
G03*
X148590000Y-80010000I0J5715000D01*
G01*
G04 #@! TO.N,Net-(U22-Pad7)*
X203835000Y-85725000D02*
X225425000Y-85725000D01*
X203835000Y-85725000D02*
G75*
G02*
X201930000Y-83820000I0J1905000D01*
G01*
X231140000Y-91440000D02*
G75*
G03*
X225425000Y-85725000I-5715000J0D01*
G01*
G04 #@! TO.N,Net-(U18-Pad11)*
X213360000Y-53340000D02*
X218440000Y-53340000D01*
X205740000Y-73660000D02*
X218440000Y-73660000D01*
X221800987Y-68765987D02*
X218889013Y-65854013D01*
X153670000Y-53340000D02*
X213360000Y-53340000D01*
X204470000Y-77470000D02*
X208280000Y-77470000D01*
X208280000Y-53340000D02*
X213360000Y-53340000D01*
X218440000Y-53340000D02*
X241300000Y-53340000D01*
X218440000Y-64770000D02*
X218440000Y-53340000D01*
X245110000Y-57150000D02*
G75*
G03*
X241300000Y-53340000I-3810000J0D01*
G01*
X222250000Y-69850000D02*
G75*
G02*
X218440000Y-73660000I-3810000J0D01*
G01*
X221800982Y-68765992D02*
G75*
G02*
X222250000Y-69850000I-1083982J-1084008D01*
G01*
X203200000Y-76200000D02*
G75*
G02*
X205740000Y-73660000I2540000J0D01*
G01*
X218439993Y-64770000D02*
G75*
G03*
X218889013Y-65854013I1533007J0D01*
G01*
X153670000Y-53340000D02*
G75*
G03*
X149860000Y-57150000I0J-3810000D01*
G01*
X203200000Y-76200000D02*
G75*
G03*
X204470000Y-77470000I1270000J0D01*
G01*
X208280000Y-77470000D02*
G75*
G03*
X209550000Y-76200000I0J1270000D01*
G01*
X208280000Y-53340000D02*
G75*
G03*
X204470000Y-57150000I0J-3810000D01*
G01*
G04 #@! TO.N,Net-(U19-Pad21)*
X226880987Y-70934013D02*
X224790000Y-73025000D01*
X197670987Y-77284013D02*
X197485000Y-77470000D01*
X238760000Y-62493025D02*
X238760000Y-64770000D01*
X177536975Y-80010000D02*
X162560000Y-80010000D01*
X234423949Y-67945000D02*
X229498025Y-67945000D01*
X220190924Y-74930000D02*
X212090000Y-74930000D01*
X212090000Y-74930000D02*
X208280000Y-74930000D01*
X202565000Y-78105000D02*
X208915000Y-78105000D01*
X195951975Y-78105000D02*
X182136051Y-78105000D01*
X227965000Y-68580000D02*
X227779013Y-68765987D01*
X240030000Y-57150000D02*
X240030000Y-59426975D01*
X238310987Y-65854013D02*
X237490000Y-66675000D01*
X226880982Y-70934008D02*
G75*
G03*
X227330000Y-69850000I-1083982J1084008D01*
G01*
X195951975Y-78104989D02*
G75*
G03*
X197485000Y-77470000I25J2167989D01*
G01*
X234423949Y-67944978D02*
G75*
G03*
X237489999Y-66674999I51J4335978D01*
G01*
X239395008Y-60960008D02*
G75*
G03*
X240030000Y-59426975I-1533008J1533008D01*
G01*
X208915000Y-78105000D02*
G75*
G03*
X212090000Y-74930000I0J3175000D01*
G01*
X238310982Y-65854008D02*
G75*
G03*
X238760000Y-64770000I-1083982J1084008D01*
G01*
X199390000Y-74930000D02*
G75*
G02*
X200660000Y-76200000I0J-1270000D01*
G01*
X197670982Y-77284008D02*
G75*
G03*
X198120000Y-76200000I-1083982J1084008D01*
G01*
X179069985Y-79374985D02*
G75*
G02*
X182136051Y-78105000I3066015J-3066015D01*
G01*
X227329993Y-69850000D02*
G75*
G02*
X227779013Y-68765987I1533007J0D01*
G01*
X238760011Y-62493025D02*
G75*
G02*
X239395000Y-60960000I2167989J25D01*
G01*
X177536975Y-80009989D02*
G75*
G03*
X179070000Y-79375000I25J2167989D01*
G01*
X207010000Y-76200000D02*
G75*
G02*
X208280000Y-74930000I1270000J0D01*
G01*
X200660000Y-76200000D02*
G75*
G03*
X202565000Y-78105000I1905000J0D01*
G01*
X227964992Y-68579992D02*
G75*
G02*
X229498025Y-67945000I1533008J-1533008D01*
G01*
X198120000Y-76200000D02*
G75*
G02*
X199390000Y-74930000I1270000J0D01*
G01*
X220190924Y-74930009D02*
G75*
G03*
X224790000Y-73025000I-24J6504109D01*
G01*
G04 #@! TO.N,Net-(U23-Pad12)*
X206375000Y-74295000D02*
X220345000Y-74295000D01*
X225425000Y-68580000D02*
X225239013Y-68765987D01*
X234051975Y-66675000D02*
X230024076Y-66675000D01*
X237490000Y-57150000D02*
X237490000Y-59426975D01*
X235770987Y-65854013D02*
X235585000Y-66040000D01*
X236220000Y-62493025D02*
X236220000Y-64770000D01*
X225425007Y-68580007D02*
G75*
G02*
X230024076Y-66675000I4599093J-4599093D01*
G01*
X236855008Y-60960008D02*
G75*
G03*
X237490000Y-59426975I-1533008J1533008D01*
G01*
X224789993Y-69850000D02*
G75*
G02*
X225239013Y-68765987I1533007J0D01*
G01*
X235770982Y-65854008D02*
G75*
G03*
X236220000Y-64770000I-1083982J1084008D01*
G01*
X220345000Y-74295000D02*
G75*
G03*
X224790000Y-69850000I0J4445000D01*
G01*
X236220011Y-62493025D02*
G75*
G02*
X236855000Y-60960000I2167989J25D01*
G01*
X234051975Y-66674989D02*
G75*
G03*
X235585000Y-66040000I25J2167989D01*
G01*
X204470000Y-76200000D02*
G75*
G02*
X206375000Y-74295000I1905000J0D01*
G01*
G04 #@! TO.N,/fA9*
X178094936Y-101305064D02*
X177800000Y-101600000D01*
X191506975Y-99060000D02*
X183515000Y-99060000D01*
X171667898Y-104140000D02*
X166261051Y-104140000D01*
X160128949Y-106680000D02*
X157480000Y-106680000D01*
X153112039Y-109142962D02*
X154227961Y-108027039D01*
X206220924Y-100330000D02*
X194573025Y-100330000D01*
X149860000Y-110489993D02*
G75*
G03*
X153112038Y-109142961I0J4599093D01*
G01*
X191506975Y-99060011D02*
G75*
G02*
X193040000Y-99695000I25J-2167989D01*
G01*
X178094942Y-101305070D02*
G75*
G02*
X183515000Y-99060000I5420058J-5420030D01*
G01*
X154227956Y-108027034D02*
G75*
G02*
X157480000Y-106680000I3252044J-3252066D01*
G01*
X163195014Y-105410014D02*
G75*
G02*
X166261051Y-104140000I3066086J-3066086D01*
G01*
X171667898Y-104139998D02*
G75*
G03*
X177799999Y-101599999I2J8672098D01*
G01*
X210820007Y-102234993D02*
G75*
G03*
X215419076Y-104140000I4599093J4599093D01*
G01*
X160128949Y-106679978D02*
G75*
G03*
X163194999Y-105409999I51J4335978D01*
G01*
X193039992Y-99695008D02*
G75*
G03*
X194573025Y-100330000I1533008J1533008D01*
G01*
X206220924Y-100329991D02*
G75*
G02*
X210820000Y-102235000I-24J-6504109D01*
G01*
G04 #@! TO.N,/fA10*
X172085000Y-109220000D02*
X173463949Y-109220000D01*
X161816051Y-111233949D02*
X165471974Y-107578025D01*
X227330000Y-104140000D02*
X227330000Y-103505000D01*
X223520000Y-99695000D02*
X218440000Y-99695000D01*
X196741051Y-107950000D02*
X223520000Y-107950000D01*
X179596051Y-106680000D02*
X185791975Y-106680000D01*
X188858025Y-105410000D02*
X190608949Y-105410000D01*
X157480000Y-113030000D02*
G75*
G03*
X161816050Y-111233948I0J6132100D01*
G01*
X187325008Y-106045008D02*
G75*
G02*
X185791975Y-106680000I-1533008J1533008D01*
G01*
X196741051Y-107949978D02*
G75*
G02*
X193675001Y-106679999I-51J4335978D01*
G01*
X188858025Y-105410011D02*
G75*
G03*
X187325000Y-106045000I-25J-2167989D01*
G01*
X193675015Y-106679985D02*
G75*
G03*
X190608949Y-105410000I-3066015J-3066015D01*
G01*
X223520000Y-99695000D02*
G75*
G02*
X227330000Y-103505000I0J-3810000D01*
G01*
X165471964Y-107578015D02*
G75*
G03*
X166370000Y-105410000I-2167964J2168015D01*
G01*
X179596051Y-106679980D02*
G75*
G03*
X176530000Y-107950000I49J-4336120D01*
G01*
X176529986Y-107949986D02*
G75*
G02*
X173463949Y-109220000I-3066086J3066086D01*
G01*
X227330000Y-104140000D02*
G75*
G02*
X223520000Y-107950000I-3810000J0D01*
G01*
G04 #@! TO.N,/Q3*
X204470000Y-121920000D02*
X204470000Y-127000000D01*
G04 #@! TO.N,/ROMA3*
X157480000Y-63500000D02*
X148590000Y-63500000D01*
X157480000Y-63500000D02*
G75*
G02*
X166370000Y-72390000I0J-8890000D01*
G01*
X147320000Y-64770000D02*
G75*
G02*
X148590000Y-63500000I1270000J0D01*
G01*
G04 #@! TO.N,/ROMA2*
X159385000Y-62865000D02*
X141605000Y-62865000D01*
X139700000Y-64770000D02*
G75*
G02*
X141605000Y-62865000I1905000J0D01*
G01*
X159385000Y-62865000D02*
G75*
G02*
X168910000Y-72390000I0J-9525000D01*
G01*
G04 #@! TO.N,/ROMA1*
X161925000Y-62230000D02*
X139700000Y-62230000D01*
X137160000Y-64770000D02*
G75*
G02*
X139700000Y-62230000I2540000J0D01*
G01*
X161925000Y-62230000D02*
G75*
G02*
X171450000Y-71755000I0J-9525000D01*
G01*
G04 #@! TO.N,/ROMA0*
X163322000Y-61722000D02*
X132588000Y-61722000D01*
X129540000Y-64770000D02*
G75*
G02*
X132588000Y-61722000I3048000J0D01*
G01*
X163322000Y-61722000D02*
G75*
G02*
X173990000Y-72390000I0J-10668000D01*
G01*
G04 #@! TO.N,/ROMD0*
X201930000Y-64770000D02*
X194310000Y-64770000D01*
X201930000Y-64770000D02*
X204470000Y-64770000D01*
X186690000Y-72390000D02*
G75*
G02*
X194310000Y-64770000I7620000J0D01*
G01*
G04 #@! TO.N,/ROMD1*
X205740000Y-66040000D02*
X195580000Y-66040000D01*
X205740000Y-66040000D02*
G75*
G03*
X207010000Y-64770000I0J1270000D01*
G01*
X189230000Y-72390000D02*
G75*
G02*
X195580000Y-66040000I6350000J0D01*
G01*
G04 #@! TO.N,/ROMD2*
X207645000Y-67310000D02*
X196850000Y-67310000D01*
X207645000Y-67310000D02*
G75*
G03*
X209550000Y-65405000I0J1905000D01*
G01*
X191770000Y-72390000D02*
G75*
G02*
X196850000Y-67310000I5080000J0D01*
G01*
G04 #@! TO.N,/ROMD3*
X208915000Y-60960000D02*
X198120000Y-60960000D01*
X194310000Y-57150000D02*
G75*
G03*
X198120000Y-60960000I3810000J0D01*
G01*
X208915000Y-60960000D02*
G75*
G02*
X212090000Y-64135000I0J-3175000D01*
G01*
G04 #@! TO.N,/ROMD4*
X194945000Y-55880000D02*
X193040000Y-55880000D01*
X213995000Y-60325000D02*
X199390000Y-60325000D01*
X191770000Y-57150000D02*
G75*
G02*
X193040000Y-55880000I1270000J0D01*
G01*
X213995000Y-60325000D02*
G75*
G03*
X217170000Y-57150000I0J3175000D01*
G01*
X194945000Y-55880000D02*
G75*
G02*
X196850000Y-57785000I0J-1905000D01*
G01*
X196850000Y-57785000D02*
G75*
G03*
X199390000Y-60325000I2540000J0D01*
G01*
G04 #@! TO.N,/ROMD5*
X198120000Y-57785000D02*
X198120000Y-57150000D01*
X212725000Y-59690000D02*
X200025000Y-59690000D01*
X196215000Y-55245000D02*
X191135000Y-55245000D01*
X196215000Y-55245000D02*
G75*
G02*
X198120000Y-57150000I0J-1905000D01*
G01*
X189230000Y-57150000D02*
G75*
G02*
X191135000Y-55245000I1905000J0D01*
G01*
X198120000Y-57785000D02*
G75*
G03*
X200025000Y-59690000I1905000J0D01*
G01*
X212725000Y-59690000D02*
G75*
G03*
X214630000Y-57785000I0J1905000D01*
G01*
G04 #@! TO.N,/ROMD6*
X210185000Y-59055000D02*
X201295000Y-59055000D01*
X196850000Y-54610000D02*
X189230000Y-54610000D01*
X196850000Y-54610000D02*
G75*
G02*
X199390000Y-57150000I0J-2540000D01*
G01*
X199390000Y-57150000D02*
G75*
G03*
X201295000Y-59055000I1905000J0D01*
G01*
X186690000Y-57150000D02*
G75*
G02*
X189230000Y-54610000I2540000J0D01*
G01*
X210185000Y-59055000D02*
G75*
G03*
X212090000Y-57150000I0J1905000D01*
G01*
G04 #@! TO.N,/ROMD7*
X204470000Y-58420000D02*
X205740000Y-58420000D01*
X200025000Y-53975000D02*
X187325000Y-53975000D01*
X207010000Y-57150000D02*
G75*
G02*
X205740000Y-58420000I-1270000J0D01*
G01*
X184150000Y-57150000D02*
G75*
G02*
X187325000Y-53975000I3175000J0D01*
G01*
X203200000Y-57150000D02*
G75*
G03*
X204470000Y-58420000I1270000J0D01*
G01*
X200025000Y-53975000D02*
G75*
G02*
X203200000Y-57150000I0J-3175000D01*
G01*
G04 #@! TO.N,/ROMA5*
X169545000Y-59055000D02*
X141605000Y-59055000D01*
X169545000Y-59055000D02*
G75*
G03*
X171450000Y-57150000I0J1905000D01*
G01*
X139700000Y-57150000D02*
G75*
G03*
X141605000Y-59055000I1905000J0D01*
G01*
G04 #@! TO.N,/ROMA4*
X148590000Y-58420000D02*
X167640000Y-58420000D01*
X167640000Y-58420000D02*
G75*
G03*
X168910000Y-57150000I0J1270000D01*
G01*
X147320000Y-57150000D02*
G75*
G03*
X148590000Y-58420000I1270000J0D01*
G01*
G04 #@! TO.N,/ROMA6*
X170180000Y-59690000D02*
X139700000Y-59690000D01*
X173990000Y-55880000D02*
G75*
G02*
X175260000Y-57150000I0J-1270000D01*
G01*
X172720000Y-57150000D02*
G75*
G02*
X173990000Y-55880000I1270000J0D01*
G01*
X175260000Y-57150000D02*
G75*
G03*
X176530000Y-58420000I1270000J0D01*
G01*
X170180000Y-59690000D02*
G75*
G03*
X172720000Y-57150000I0J2540000D01*
G01*
X137160000Y-57150000D02*
G75*
G03*
X139700000Y-59690000I2540000J0D01*
G01*
X176530000Y-58420015D02*
G75*
G03*
X178698026Y-57521974I0J3066015D01*
G01*
G04 #@! TO.N,/ROMA7*
X210820000Y-69850000D02*
X211640987Y-69029013D01*
X205105000Y-71120000D02*
X207753949Y-71120000D01*
X226695000Y-79375000D02*
X234315000Y-79375000D01*
X238125000Y-83185000D02*
X238125000Y-99822000D01*
X213995000Y-69850000D02*
X213995000Y-71755000D01*
X171577000Y-60198000D02*
X132588000Y-60198000D01*
X224790000Y-77470000D02*
X224790000Y-74803000D01*
X212725000Y-68579993D02*
G75*
G03*
X211640987Y-69029013I0J-1533007D01*
G01*
X213995000Y-69850000D02*
G75*
G03*
X212725000Y-68580000I-1270000J0D01*
G01*
X226695000Y-79375000D02*
G75*
G02*
X224790000Y-77470000I0J1905000D01*
G01*
X171577000Y-60198000D02*
G75*
G03*
X173990000Y-57785000I0J2413000D01*
G01*
X129540000Y-57150000D02*
G75*
G03*
X132588000Y-60198000I3048000J0D01*
G01*
X210819986Y-69849986D02*
G75*
G02*
X207753949Y-71120000I-3066086J3066086D01*
G01*
X238125000Y-83185000D02*
G75*
G03*
X234315000Y-79375000I-3810000J0D01*
G01*
G04 #@! TO.N,/~{RES}*
X206901051Y-114935000D02*
X207645000Y-114935000D01*
X168910000Y-111760000D02*
X173463949Y-111760000D01*
X213360000Y-120650000D02*
X217170000Y-120650000D01*
X188595000Y-110490000D02*
X189738000Y-111633000D01*
X193110656Y-113030000D02*
X202301975Y-113030000D01*
X164465000Y-116840000D02*
X164465000Y-116205000D01*
X179596051Y-109220000D02*
X185528949Y-109220000D01*
X219710000Y-123190000D02*
X219710000Y-127000000D01*
X219710000Y-123190000D02*
G75*
G03*
X217170000Y-120650000I-2540000J0D01*
G01*
X193110656Y-113030018D02*
G75*
G02*
X189738000Y-111633000I44J4769718D01*
G01*
X176530015Y-110490015D02*
G75*
G02*
X173463949Y-111760000I-3066015J3066015D01*
G01*
X208915000Y-116205000D02*
G75*
G03*
X207645000Y-114935000I-1270000J0D01*
G01*
X206901051Y-114934978D02*
G75*
G02*
X203835001Y-113664999I-51J4335978D01*
G01*
X203835008Y-113664992D02*
G75*
G03*
X202301975Y-113030000I-1533008J-1533008D01*
G01*
X179596051Y-109219980D02*
G75*
G03*
X176530000Y-110490000I49J-4336120D01*
G01*
X188594986Y-110490014D02*
G75*
G03*
X185528949Y-109220000I-3066086J-3066086D01*
G01*
X168910000Y-111760000D02*
G75*
G03*
X164465000Y-116205000I0J-4445000D01*
G01*
X213360000Y-120650000D02*
G75*
G02*
X208915000Y-116205000I0J4445000D01*
G01*
G04 #@! TO.N,Net-(U19-Pad18)*
X172720000Y-82550000D02*
X172720000Y-83820000D01*
X189493025Y-86360000D02*
X220599000Y-86360000D01*
X158647434Y-92431566D02*
X164657369Y-86421630D01*
X168275000Y-81280000D02*
X171450000Y-81280000D01*
X183291815Y-85090000D02*
X186426975Y-85090000D01*
X174625000Y-85725000D02*
X181758790Y-85725000D01*
X174625000Y-85725000D02*
G75*
G02*
X172720000Y-83820000I0J1905000D01*
G01*
X182372003Y-85471003D02*
G75*
G02*
X181758790Y-85725000I-613203J613203D01*
G01*
X158647427Y-92431559D02*
G75*
G03*
X157480000Y-95250000I2818473J-2818441D01*
G01*
X189493025Y-86359989D02*
G75*
G02*
X187960000Y-85725000I-25J2167989D01*
G01*
X165734988Y-83820000D02*
G75*
G02*
X164657369Y-86421630I-3679288J0D01*
G01*
X168275000Y-81280000D02*
G75*
G03*
X165735000Y-83820000I0J-2540000D01*
G01*
X187960008Y-85724992D02*
G75*
G03*
X186426975Y-85090000I-1533008J-1533008D01*
G01*
X183291815Y-85090007D02*
G75*
G03*
X182372000Y-85471000I-15J-1300793D01*
G01*
X221996000Y-87757000D02*
G75*
G03*
X220599000Y-86360000I-1397000J0D01*
G01*
X172720000Y-82550000D02*
G75*
G03*
X171450000Y-81280000I-1270000J0D01*
G01*
G04 #@! TO.N,Net-(U19-Pad19)*
X232410000Y-90805000D02*
X232410000Y-91440000D01*
X166562369Y-85786631D02*
X162085459Y-90263541D01*
X205925987Y-93530987D02*
X205740000Y-93345000D01*
X208280000Y-93345000D02*
X208094013Y-93530987D01*
X185420000Y-86360000D02*
X183799815Y-86360000D01*
X231152764Y-92697236D02*
X209843840Y-92697236D01*
X224790000Y-85090000D02*
X226695000Y-85090000D01*
X170180000Y-83820000D02*
X170180000Y-83185000D01*
X204513580Y-92837000D02*
X191897000Y-92837000D01*
X169545000Y-82550000D02*
X168275000Y-82550000D01*
X182266790Y-86995000D02*
X173355000Y-86995000D01*
X182879995Y-86740995D02*
G75*
G02*
X183799815Y-86360000I919805J-919805D01*
G01*
X187960000Y-88900000D02*
G75*
G03*
X191897000Y-92837000I3937000J0D01*
G01*
X170180000Y-83820000D02*
G75*
G03*
X173355000Y-86995000I3175000J0D01*
G01*
X204513580Y-92837009D02*
G75*
G02*
X205740000Y-93345000I20J-1734391D01*
G01*
X207010000Y-93980007D02*
G75*
G03*
X208094013Y-93530987I0J1533007D01*
G01*
X208279988Y-93344988D02*
G75*
G02*
X209843840Y-92697236I1563812J-1563812D01*
G01*
X232410000Y-90805000D02*
G75*
G03*
X226695000Y-85090000I-5715000J0D01*
G01*
X169545000Y-82550000D02*
G75*
G02*
X170180000Y-83185000I0J-635000D01*
G01*
X224790000Y-85090000D02*
G75*
G02*
X223520000Y-83820000I0J1270000D01*
G01*
X167640000Y-83185000D02*
G75*
G02*
X168275000Y-82550000I635000J0D01*
G01*
X231152764Y-92697200D02*
G75*
G03*
X232410000Y-91440000I36J1257200D01*
G01*
X185420000Y-86360000D02*
G75*
G02*
X187960000Y-88900000I0J-2540000D01*
G01*
X205925992Y-93530982D02*
G75*
G03*
X207010000Y-93980000I1084008J1083982D01*
G01*
X166562377Y-85786639D02*
G75*
G03*
X167640000Y-83185000I-2601677J2601639D01*
G01*
X182266790Y-86994995D02*
G75*
G03*
X182879999Y-86740999I10J867195D01*
G01*
X160019995Y-95250000D02*
G75*
G02*
X162085459Y-90263541I7051905J0D01*
G01*
G04 #@! TO.N,Net-(U22-Pad2)*
X220345000Y-89535000D02*
X224155000Y-89535000D01*
X220345000Y-89535000D02*
G75*
G03*
X218440000Y-91440000I0J-1905000D01*
G01*
X226060000Y-91440000D02*
G75*
G03*
X224155000Y-89535000I-1905000J0D01*
G01*
G04 #@! TO.N,Net-(CR1-Pad1)*
X180340000Y-81915000D02*
X179070000Y-83185000D01*
X183406051Y-80645000D02*
X188966975Y-80645000D01*
X190500008Y-80010008D02*
G75*
G02*
X188966975Y-80645000I-1533008J1533008D01*
G01*
X183406051Y-80645022D02*
G75*
G03*
X180340001Y-81915001I-51J-4335978D01*
G01*
D23*
G04 #@! TO.N,/VIDEO*
X112131974Y-60588025D02*
X111760000Y-60960000D01*
X106680000Y-60325000D02*
X110226975Y-60325000D01*
X114826051Y-62230000D02*
X116840000Y-62230000D01*
X106680000Y-60325000D02*
G75*
G02*
X102343949Y-58528947I0J6132100D01*
G01*
X111760008Y-60959992D02*
G75*
G03*
X110226975Y-60325000I-1533008J-1533008D01*
G01*
X114826051Y-62229978D02*
G75*
G02*
X111760001Y-60959999I-51J4335978D01*
G01*
X112131964Y-60588015D02*
G75*
G03*
X113030000Y-58420000I-2167964J2168015D01*
G01*
D21*
G04 #@! TO.N,/~{IO_SELECT}*
X171450000Y-113030000D02*
X174996975Y-113030000D01*
X191661051Y-114935000D02*
X200660000Y-114935000D01*
X184150000Y-111760000D02*
X179596051Y-111760000D01*
X178063025Y-111760000D02*
X179596051Y-111760000D01*
X188486051Y-113556051D02*
X188595000Y-113665000D01*
X191661051Y-114934978D02*
G75*
G02*
X188595001Y-113664999I-51J4335978D01*
G01*
X188486050Y-113556052D02*
G75*
G03*
X184150000Y-111760000I-4336050J-4336048D01*
G01*
X178063025Y-111760011D02*
G75*
G03*
X176530000Y-112395000I-25J-2167989D01*
G01*
X176530008Y-112395008D02*
G75*
G02*
X174996975Y-113030000I-1533008J1533008D01*
G01*
G04 #@! TO.N,/~{IO_STROBE}*
X169808026Y-85988025D02*
X170815000Y-86995000D01*
X207010000Y-96520000D02*
X206638026Y-96891974D01*
X173355000Y-91440000D02*
X184150000Y-91440000D01*
X171450000Y-89535000D02*
X171450000Y-88528025D01*
X204470000Y-97790000D02*
X199390000Y-97790000D01*
X186690000Y-92710000D02*
X186318026Y-92338026D01*
X196215000Y-94615000D02*
X191289076Y-94615000D01*
X184150000Y-91439985D02*
G75*
G02*
X186318026Y-92338026I0J-3066015D01*
G01*
X186690007Y-92709993D02*
G75*
G03*
X191289076Y-94615000I4599093J4599093D01*
G01*
X198120000Y-96520000D02*
G75*
G03*
X199390000Y-97790000I1270000J0D01*
G01*
X204470000Y-97790015D02*
G75*
G03*
X206638026Y-96891974I0J3066015D01*
G01*
X171450000Y-89535000D02*
G75*
G03*
X173355000Y-91440000I1905000J0D01*
G01*
X196215000Y-94615000D02*
G75*
G02*
X198120000Y-96520000I0J-1905000D01*
G01*
X169808036Y-85988015D02*
G75*
G02*
X168910000Y-83820000I2167964J2168015D01*
G01*
X170815008Y-86994992D02*
G75*
G02*
X171450000Y-88528025I-1533008J-1533008D01*
G01*
G04 #@! TO.N,/INT_IN*
X227330000Y-127000000D02*
X227330000Y-121920000D01*
G04 #@! TO.N,/DMA_IN*
X229870000Y-121920000D02*
X229870000Y-127000000D01*
G04 #@! TO.N,-5V*
X116531847Y-53975000D02*
X101600000Y-53975000D01*
X209286975Y-72390000D02*
X204098025Y-72390000D01*
X99695000Y-55880000D02*
X99695000Y-58420000D01*
X212090000Y-121920000D02*
X212090000Y-127000000D01*
X190500000Y-100330000D02*
X186055000Y-100330000D01*
X173736000Y-60706000D02*
X132781917Y-60706000D01*
X201031975Y-73660000D02*
X186690000Y-73660000D01*
X99695000Y-55880000D02*
G75*
G02*
X101600000Y-53975000I1905000J0D01*
G01*
X202564992Y-73024992D02*
G75*
G02*
X204098025Y-72390000I1533008J-1533008D01*
G01*
X173736000Y-60706000D02*
G75*
G02*
X185420000Y-72390000I0J-11684000D01*
G01*
X185420000Y-72390000D02*
G75*
G03*
X186690000Y-73660000I1270000J0D01*
G01*
X116531847Y-53974981D02*
G75*
G02*
X125730000Y-57785000I-47J-13008219D01*
G01*
X209286975Y-72389989D02*
G75*
G03*
X210820000Y-71755000I25J2167989D01*
G01*
X125729995Y-57785005D02*
G75*
G03*
X132781917Y-60706000I7051905J7051905D01*
G01*
X102235000Y-60960000D02*
G75*
G02*
X99695000Y-58420000I0J2540000D01*
G01*
X201031975Y-73659989D02*
G75*
G03*
X202565000Y-73025000I25J2167989D01*
G01*
G04 #@! TO.N,/~{DEV}*
X199390000Y-118110000D02*
X206375000Y-118110000D01*
X194310000Y-127000000D02*
X194310000Y-123190000D01*
X207645000Y-116205000D02*
X207645000Y-116840000D01*
X199390000Y-118110000D02*
G75*
G03*
X194310000Y-123190000I0J-5080000D01*
G01*
X206375000Y-118110000D02*
G75*
G03*
X207645000Y-116840000I0J1270000D01*
G01*
D23*
G04 #@! TO.N,+12V*
X93980000Y-119380000D02*
X93980000Y-71755000D01*
X168910000Y-122555000D02*
X97155000Y-122555000D01*
X168910000Y-122555000D02*
G75*
G02*
X171450000Y-125095000I0J-2540000D01*
G01*
X93980000Y-119380000D02*
G75*
G03*
X97155000Y-122555000I3175000J0D01*
G01*
X102235000Y-63500000D02*
G75*
G03*
X93980000Y-71755000I0J-8255000D01*
G01*
D21*
G04 #@! TO.N,Net-(U4-Pad12)*
X198755000Y-74295000D02*
X201666975Y-74295000D01*
X204733025Y-73025000D02*
X217805000Y-73025000D01*
X201666975Y-74294989D02*
G75*
G03*
X203200000Y-73660000I25J2167989D01*
G01*
X196850000Y-76200000D02*
G75*
G02*
X198755000Y-74295000I1905000J0D01*
G01*
X220980000Y-69850000D02*
G75*
G02*
X217805000Y-73025000I-3175000J0D01*
G01*
X203199992Y-73659992D02*
G75*
G02*
X204733025Y-73025000I1533008J-1533008D01*
G01*
G04 #@! TO.N,/HSYNC*
X184150000Y-88900000D02*
X179596051Y-88900000D01*
X188722000Y-92837000D02*
X185234013Y-89349013D01*
X196850000Y-93980000D02*
X191481446Y-93980000D01*
X176530014Y-90170014D02*
G75*
G02*
X179596051Y-88900000I3066086J-3066086D01*
G01*
X196850000Y-93980000D02*
G75*
G02*
X199390000Y-96520000I0J-2540000D01*
G01*
X188721986Y-92837014D02*
G75*
G03*
X191481446Y-93980000I2759414J2759414D01*
G01*
X184150000Y-88899993D02*
G75*
G02*
X185234013Y-89349013I0J-1533007D01*
G01*
G04 #@! TO.N,/VSYNC*
X196029013Y-95699013D02*
X196850000Y-96520000D01*
X188223025Y-95250000D02*
X194945000Y-95250000D01*
X176530000Y-93980000D02*
X185156975Y-93980000D01*
X186690008Y-94614992D02*
G75*
G03*
X185156975Y-93980000I-1533008J-1533008D01*
G01*
X196029008Y-95699018D02*
G75*
G03*
X194945000Y-95250000I-1084008J-1083982D01*
G01*
X188223025Y-95249989D02*
G75*
G02*
X186690000Y-94615000I-25J2167989D01*
G01*
G04 #@! TO.N,/DEV*
X204470000Y-106680000D02*
X218440000Y-106680000D01*
X220980000Y-104140000D02*
G75*
G02*
X218440000Y-106680000I-2540000J0D01*
G01*
X201930000Y-104140000D02*
G75*
G03*
X204470000Y-106680000I2540000J0D01*
G01*
G04 #@! TO.N,/SRAM/RAMA5*
X128084013Y-109669013D02*
X133535987Y-115120987D01*
X117475000Y-104140000D02*
X119380000Y-104140000D01*
X121548026Y-105038026D02*
X124831975Y-108321974D01*
X121548015Y-105038037D02*
G75*
G03*
X119380000Y-104140000I-2168015J-2167963D01*
G01*
X127000000Y-109220014D02*
G75*
G02*
X124831975Y-108321974I0J3066014D01*
G01*
X128084008Y-109669018D02*
G75*
G03*
X127000000Y-109220000I-1084008J-1083982D01*
G01*
X134620000Y-115570007D02*
G75*
G02*
X133535987Y-115120987I0J1533007D01*
G01*
G04 #@! TO.N,/SRAM/RAMA3*
X122632039Y-108027039D02*
X123747961Y-109142962D01*
X117475000Y-106680000D02*
X119380000Y-106680000D01*
X122632044Y-108027034D02*
G75*
G03*
X119380000Y-106680000I-3252044J-3252066D01*
G01*
X127000000Y-110489993D02*
G75*
G02*
X123747962Y-109142961I0J4599093D01*
G01*
G04 #@! TO.N,/SRAM/RAMA7*
X137872039Y-108027038D02*
X139065000Y-109220000D01*
X126256051Y-101600000D02*
X127000000Y-101600000D01*
X117475000Y-99060000D02*
X120123949Y-99060000D01*
X128084013Y-102049013D02*
X131367961Y-105332962D01*
X142131051Y-110489978D02*
G75*
G02*
X139065001Y-109219999I-51J4335978D01*
G01*
X137872043Y-108027034D02*
G75*
G03*
X134620000Y-106680000I-3252043J-3252066D01*
G01*
X134620000Y-106679993D02*
G75*
G02*
X131367962Y-105332961I0J4599093D01*
G01*
X128084008Y-102049018D02*
G75*
G03*
X127000000Y-101600000I-1084008J-1083982D01*
G01*
X123190015Y-100329985D02*
G75*
G03*
X120123949Y-99060000I-3066015J-3066015D01*
G01*
X126256051Y-101599978D02*
G75*
G02*
X123190001Y-100329999I-51J4335978D01*
G01*
G04 #@! TO.N,/SRAM/RAMA4*
X117475000Y-101600000D02*
X120123949Y-101600000D01*
X129168026Y-105038026D02*
X130810000Y-106680000D01*
X133876051Y-107950000D02*
X134620000Y-107950000D01*
X126256051Y-104140000D02*
X127000000Y-104140000D01*
X133876051Y-107949978D02*
G75*
G02*
X130810001Y-106679999I-51J4335978D01*
G01*
X123190015Y-102869985D02*
G75*
G03*
X120123949Y-101600000I-3066015J-3066015D01*
G01*
X126256051Y-104139978D02*
G75*
G02*
X123190001Y-102869999I-51J4335978D01*
G01*
X129168015Y-105038037D02*
G75*
G03*
X127000000Y-104140000I-2168015J-2167963D01*
G01*
G04 #@! TO.N,/RAM_~{A}{slash}B*
X180076975Y-80645000D02*
X168275000Y-80645000D01*
X137795000Y-93345000D02*
X151765000Y-93345000D01*
X155017039Y-91997961D02*
X165022961Y-81992038D01*
X135890000Y-95250000D02*
X135890000Y-97263949D01*
X135890000Y-95250000D02*
G75*
G02*
X137795000Y-93345000I1905000J0D01*
G01*
X180076975Y-80644989D02*
G75*
G03*
X181610000Y-80010000I25J2167989D01*
G01*
X134619986Y-100329986D02*
G75*
G03*
X135890000Y-97263949I-3066086J3066086D01*
G01*
X151765000Y-93344993D02*
G75*
G03*
X155017039Y-91997961I0J4599093D01*
G01*
X165022957Y-81992034D02*
G75*
G02*
X168275000Y-80645000I3252043J-3252066D01*
G01*
G04 #@! TO.N,/Firmware/~{OE}*
X194310000Y-102870000D02*
X184150000Y-102870000D01*
X195580000Y-105410000D02*
X195580000Y-104140000D01*
X194310000Y-102870000D02*
G75*
G02*
X195580000Y-104140000I0J-1270000D01*
G01*
G04 #@! TO.N,/Firmware/A9*
X190128025Y-85725000D02*
X197485000Y-85725000D01*
X188594992Y-85090008D02*
G75*
G03*
X190128025Y-85725000I1533008J1533008D01*
G01*
X199390000Y-83820000D02*
G75*
G02*
X197485000Y-85725000I-1905000J0D01*
G01*
G04 #@! TD*
M02*
